<svg width="27" height="27" viewBox="0 0 27 27" fill="none" xmlns="http://www.w3.org/2000/svg">
<path fill-rule="evenodd" clip-rule="evenodd" d="M26.625 13.5C26.625 20.7487 20.7487 26.625 13.5 26.625C6.25126 26.625 0.375 20.7487 0.375 13.5C0.375 6.25126 6.25126 0.375 13.5 0.375C20.7487 0.375 26.625 6.25126 26.625 13.5ZM6.95956 20.0404C6.56904 19.6499 6.56904 19.0168 6.95956 18.6262L12.0858 13.5L6.95956 8.37377C6.56904 7.98325 6.56903 7.35008 6.95956 6.95956C7.35008 6.56903 7.98325 6.56904 8.37377 6.95956L13.5 12.0858L18.6262 6.95956C19.0168 6.56904 19.6499 6.56904 20.0404 6.95956C20.431 7.35008 20.431 7.98325 20.0404 8.37377L14.9142 13.5L20.0404 18.6262C20.431 19.0168 20.431 19.6499 20.0404 20.0404C19.6499 20.431 19.0168 20.431 18.6262 20.0404L13.5 14.9142L8.37377 20.0404C7.98325 20.431 7.35008 20.431 6.95956 20.0404Z" fill="white"/>
</svg>
