<svg xmlns="http://www.w3.org/2000/svg" width="88" height="88" viewBox="0 0 88 88">
  <g id="Group_3252" data-name="Group 3252" transform="translate(-497 -496)">
    <rect id="Rectangle_993" data-name="Rectangle 993" width="88" height="88" rx="15" transform="translate(497 496)" fill="#fcfcfc"/>
    <g id="Group_3231" data-name="Group 3231" transform="translate(498.915 496.794)">
      <path id="Shape_6" data-name="Shape 6" d="M707.445,264.555c-1.831,0-4.52-1.359-8.921-3.671-2.364-1.242-5.937-3.119-6.889-3.119-.99,0-4.736,1.825-7.216,3.032-6.674,3.251-9.568,4.46-11.331,3.348A2.372,2.372,0,0,1,672,262.09V224.724a7.756,7.756,0,0,1,7.684-7.809h22.633A7.756,7.756,0,0,1,710,224.724V262.09a2.376,2.376,0,0,1-1.116,2.087A2.678,2.678,0,0,1,707.445,264.555Z" transform="translate(-648.915 -197.709)" fill="#fcfcfc" stroke="#84838b" stroke-width="6.5"/>
    </g>
  </g>
</svg>
