<svg width="73" height="72" viewBox="0 0 73 72" fill="none" xmlns="http://www.w3.org/2000/svg">
<path d="M48.75 66.9598C47.73 66.9598 46.71 66.6599 45.84 66.0899L33.06 57.5698H21.75C11.43 57.5698 4.5 50.6398 4.5 40.3198V22.3198C4.5 11.9998 11.43 5.06982 21.75 5.06982H51.75C62.07 5.06982 69 11.9998 69 22.3198V40.3198C69 49.8598 63.06 56.5199 54 57.4499V61.7098C54 63.6598 52.95 65.4298 51.24 66.3298C50.46 66.7498 49.59 66.9598 48.75 66.9598ZM21.75 9.53979C14.01 9.53979 9 14.5498 9 22.2898V40.2898C9 48.0298 14.01 53.0398 21.75 53.0398H33.75C34.2 53.0398 34.62 53.1598 35.01 53.4298L48.36 62.3099C48.69 62.5199 48.99 62.4299 49.14 62.3399C49.29 62.2499 49.53 62.0698 49.53 61.6798V55.2898C49.53 54.0598 50.55 53.0398 51.78 53.0398C59.52 53.0398 64.53 48.0298 64.53 40.2898V22.2898C64.53 14.5498 59.52 9.53979 51.78 9.53979H21.75Z" fill="white"/>
</svg>
