<svg width="34" height="34" viewBox="0 0 34 34" fill="none" xmlns="http://www.w3.org/2000/svg">
<path fill-rule="evenodd" clip-rule="evenodd" d="M26.5877 7.10449C26.1863 7.17588 25.6282 7.35985 24.7761 7.64389L13.9994 11.2361C11.8236 11.9614 10.2614 12.4836 9.21963 12.9791C8.11811 13.5031 7.93403 13.8475 7.91445 14.0427C7.90612 14.1257 7.90612 14.2093 7.91445 14.2922C7.93403 14.4874 8.11811 14.8319 9.21963 15.3558C10.2614 15.8513 11.8236 16.3735 13.9994 17.0988C14.0424 17.1131 14.0849 17.1273 14.1269 17.1412C14.8569 17.3837 15.4344 17.5755 15.8736 17.9832C15.9234 18.0295 15.9716 18.0777 16.0179 18.1276C16.4256 18.5667 16.6174 19.1442 16.8599 19.8742C16.8739 19.9162 16.888 19.9587 16.9023 20.0017C17.6276 22.1776 18.1498 23.7397 18.6453 24.7815C19.1693 25.883 19.5137 26.0671 19.7089 26.0867C19.7918 26.095 19.8754 26.095 19.9584 26.0867C20.1536 26.0671 20.498 25.883 21.022 24.7815C21.5175 23.7397 22.0397 22.1775 22.765 20.0017L26.3572 9.22503C26.6413 8.37292 26.8252 7.81477 26.8966 7.41345C26.9304 7.22358 26.9283 7.12505 26.9218 7.07933C26.8761 7.07283 26.7775 7.07071 26.5877 7.10449ZM26.9557 7.08887C26.9551 7.08937 26.9504 7.0881 26.9435 7.08358C26.9528 7.08611 26.9563 7.08837 26.9557 7.08887ZM26.9175 7.05762C26.913 7.05072 26.9117 7.04605 26.9122 7.04544C26.9127 7.04483 26.915 7.04828 26.9175 7.05762ZM26.3249 5.62768C26.8553 5.53332 27.5003 5.5215 27.9899 6.01117C28.4796 6.50084 28.4678 7.14578 28.3734 7.67616C28.2804 8.19921 28.059 8.86315 27.7994 9.64206L27.7802 9.69937L24.188 20.4761L24.169 20.5331C23.4668 22.6399 22.9165 24.2906 22.3766 25.4258C21.8601 26.5115 21.2012 27.4695 20.1081 27.5792C19.9256 27.5975 19.7417 27.5975 19.5592 27.5792C18.4661 27.4695 17.8072 26.5115 17.2907 25.4258C16.7508 24.2906 16.2005 22.6399 15.4983 20.5332L15.4793 20.4761C15.1723 19.5552 15.0768 19.3185 14.9186 19.1481C14.8975 19.1255 14.8757 19.1036 14.853 19.0825C14.6826 18.9243 14.4459 18.8288 13.525 18.5218L13.468 18.5028C11.3612 17.8006 9.71055 17.2504 8.57531 16.7104C7.48959 16.1939 6.53159 15.5351 6.42194 14.442C6.40363 14.2594 6.40363 14.0755 6.42194 13.893C6.53159 12.7999 7.48959 12.141 8.57531 11.6246C9.71054 11.0846 11.3612 10.5344 13.4679 9.83214L13.525 9.8131L24.3017 6.22087L24.359 6.20177C25.1379 5.94208 25.8019 5.72072 26.3249 5.62768Z" fill="white"/>
<path d="M15.583 18.416L19.833 14.166" stroke="white" stroke-width="1.5" stroke-linecap="round"/>
</svg>
