<svg width="26" height="26" viewBox="0 0 26 26" fill="none" xmlns="http://www.w3.org/2000/svg">
<path d="M9.75 7.58325L14.0833 7.58325" stroke="#23204A" stroke-width="1.5" stroke-linecap="round"/>
<path d="M9.75 16.25L13 16.25" stroke="#23204A" stroke-width="1.5" stroke-linecap="round"/>
<path d="M9.75 11.9167L16.25 11.9167" stroke="#23204A" stroke-width="1.5" stroke-linecap="round"/>
<path d="M20.5834 11.9167V9.25C20.5834 6.42157 20.5834 5.00736 19.7047 4.12868C18.8261 3.25 17.4118 3.25 14.5834 3.25H11.4168C8.58832 3.25 7.17411 3.25 6.29543 4.12868C5.41675 5.00736 5.41675 6.42157 5.41675 9.25V16.75C5.41675 19.5784 5.41675 20.9926 6.29543 21.8713C7.17411 22.75 8.58832 22.75 11.4167 22.75H13.0001" stroke="#23204A" stroke-width="1.5"/>
<circle cx="18.9583" cy="18.9583" r="2.70833" stroke="#23204A" stroke-width="1.5"/>
<path d="M22.75 22.75L21.125 21.125" stroke="#23204A" stroke-width="1.5" stroke-linecap="round"/>
</svg>
