<svg width="26" height="26" viewBox="0 0 26 26" fill="none" xmlns="http://www.w3.org/2000/svg">
<path d="M20.9364 6.25924L21.56 5.84256V5.84256L20.9364 6.25924ZM20.9364 17.5742L21.56 17.9909V17.9909L20.9364 17.5742ZM19.7408 18.7697L19.3242 18.1461H19.3242L19.7408 18.7697ZM15.1667 19.4986L15.1634 18.7486C14.7505 18.7504 14.4167 19.0856 14.4167 19.4986H15.1667ZM15.1667 19.5L15.8375 19.8355C15.8896 19.7313 15.9167 19.6165 15.9167 19.5H15.1667ZM13.8945 22.0445L13.2236 21.7091L13.8945 22.0445ZM12.1056 22.0445L12.7764 21.7091L12.1056 22.0445ZM10.8334 19.5H10.0834C10.0834 19.6165 10.1105 19.7313 10.1626 19.8355L10.8334 19.5ZM10.8334 19.4986H11.5834C11.5834 19.0856 11.2496 18.7504 10.8366 18.7486L10.8334 19.4986ZM6.25924 18.7697L6.67591 18.1461H6.67591L6.25924 18.7697ZM5.06367 17.5742L4.44007 17.9909H4.44007L5.06367 17.5742ZM5.06367 6.25924L4.44007 5.84256L4.44007 5.84256L5.06367 6.25924ZM6.25924 5.06367L5.84256 4.44007L5.84256 4.44007L6.25924 5.06367ZM19.7408 5.06367L19.3242 5.68727L19.3242 5.68727L19.7408 5.06367ZM22.4167 11.9167C22.4167 10.4108 22.4176 9.22494 22.3216 8.28081C22.2242 7.32413 22.0212 6.53282 21.56 5.84256L20.3128 6.67591C20.5819 7.07863 20.744 7.59454 20.8293 8.43261C20.9158 9.28322 20.9167 10.3796 20.9167 11.9167H22.4167ZM21.56 17.9909C22.0212 17.3006 22.2242 16.5093 22.3216 15.5526C22.4176 14.6085 22.4167 13.4226 22.4167 11.9167H20.9167C20.9167 13.4538 20.9158 14.5502 20.8293 15.4008C20.744 16.2389 20.5819 16.7548 20.3128 17.1575L21.56 17.9909ZM20.1575 19.3933C20.7126 19.0225 21.1891 18.5459 21.56 17.9909L20.3128 17.1575C20.0514 17.5488 19.7154 17.8847 19.3242 18.1461L20.1575 19.3933ZM15.17 20.2486C16.3352 20.2435 17.287 20.2214 18.075 20.1125C18.8751 20.0019 19.5546 19.7962 20.1575 19.3933L19.3242 18.1461C18.9723 18.3813 18.5335 18.5349 17.8696 18.6266C17.1936 18.7201 16.3358 18.7435 15.1634 18.7486L15.17 20.2486ZM15.9167 19.5V19.4986H14.4167V19.5H15.9167ZM14.5653 22.3799L15.8375 19.8355L14.4959 19.1646L13.2236 21.7091L14.5653 22.3799ZM11.4348 22.3799C12.0797 23.6698 13.9204 23.6698 14.5653 22.3799L13.2236 21.7091C13.1315 21.8934 12.8686 21.8934 12.7764 21.7091L11.4348 22.3799ZM10.1626 19.8355L11.4348 22.3799L12.7764 21.7091L11.5042 19.1646L10.1626 19.8355ZM10.0834 19.4986V19.5H11.5834V19.4986H10.0834ZM5.84256 19.3933C6.44544 19.7962 7.12502 20.0019 7.92509 20.1125C8.7131 20.2214 9.66491 20.2435 10.8301 20.2486L10.8366 18.7486C9.66432 18.7435 8.80646 18.7201 8.13048 18.6266C7.46656 18.5349 7.02783 18.3813 6.67591 18.1461L5.84256 19.3933ZM4.44007 17.9909C4.81094 18.5459 5.28751 19.0225 5.84256 19.3933L6.67591 18.1461C6.28465 17.8847 5.94871 17.5488 5.68727 17.1575L4.44007 17.9909ZM3.58337 11.9167C3.58337 13.4226 3.58247 14.6085 3.67851 15.5526C3.77583 16.5093 3.97886 17.3006 4.44007 17.9909L5.68727 17.1575C5.41819 16.7548 5.25607 16.2389 5.17081 15.4008C5.08428 14.5502 5.08337 13.4538 5.08337 11.9167H3.58337ZM4.44007 5.84256C3.97886 6.53282 3.77583 7.32413 3.67851 8.28081C3.58247 9.22494 3.58337 10.4108 3.58337 11.9167H5.08337C5.08337 10.3796 5.08428 9.28322 5.17081 8.43261C5.25607 7.59454 5.41819 7.07863 5.68727 6.67591L4.44007 5.84256ZM5.84256 4.44007C5.28751 4.81094 4.81094 5.28751 4.44007 5.84256L5.68727 6.67591C5.94871 6.28465 6.28465 5.94871 6.67591 5.68727L5.84256 4.44007ZM11.9167 3.58337C10.4108 3.58337 9.22494 3.58247 8.28081 3.67851C7.32413 3.77583 6.53282 3.97886 5.84256 4.44007L6.67591 5.68727C7.07863 5.41819 7.59454 5.25607 8.43261 5.17081C9.28322 5.08428 10.3796 5.08337 11.9167 5.08337V3.58337ZM14.0834 3.58337H11.9167V5.08337H14.0834V3.58337ZM20.1575 4.44007C19.4673 3.97886 18.6759 3.77583 17.7193 3.67851C16.7751 3.58247 15.5893 3.58337 14.0834 3.58337V5.08337C15.6205 5.08337 16.7169 5.08428 17.5675 5.17081C18.4055 5.25607 18.9215 5.41819 19.3242 5.68727L20.1575 4.44007ZM21.56 5.84256C21.1891 5.28751 20.7126 4.81094 20.1575 4.44007L19.3242 5.68727C19.7154 5.94871 20.0514 6.28465 20.3128 6.67591L21.56 5.84256Z" fill="#23204A"/>
<ellipse cx="17.3333" cy="11.9167" rx="1.08333" ry="1.08333" fill="#23204A" stroke="#23204A" stroke-linecap="round"/>
<circle cx="13" cy="11.9167" r="1.08333" fill="#23204A" stroke="#23204A" stroke-linecap="round"/>
<circle cx="8.66671" cy="11.9167" r="1.08333" fill="#23204A" stroke="#23204A" stroke-linecap="round"/>
</svg>
