<svg width="26" height="26" viewBox="0 0 26 26" fill="none" xmlns="http://www.w3.org/2000/svg">
<path d="M3.25 11.25C3.25 7.47876 3.25 5.59315 4.42157 4.42157C5.59315 3.25 7.47876 3.25 11.25 3.25H14.75C18.5212 3.25 20.4069 3.25 21.5784 4.42157C22.75 5.59315 22.75 7.47876 22.75 11.25V14.75C22.75 18.5212 22.75 20.4069 21.5784 21.5784C20.4069 22.75 18.5212 22.75 14.75 22.75H11.25C7.47876 22.75 5.59315 22.75 4.42157 21.5784C3.25 20.4069 3.25 18.5212 3.25 14.75V11.25Z" stroke="#23204A" stroke-width="1.5"/>
<path d="M8.5213 14.1743L12.6419 18.0774L12.6419 18.0775C12.6552 18.0901 12.6619 18.0964 12.6678 18.1016C12.8572 18.2701 13.1428 18.2701 13.3322 18.1016C13.3381 18.0964 13.3448 18.0901 13.3581 18.0774L17.4787 14.1743C18.627 13.0866 18.7667 11.3067 17.8022 10.0532L17.6062 9.79847C16.4459 8.29049 14.1017 8.54198 13.2876 10.2618C13.1727 10.5046 12.8273 10.5046 12.7124 10.2618C11.8983 8.54198 9.55413 8.29048 8.39381 9.79847L8.19782 10.0532C7.23329 11.3067 7.373 13.0866 8.5213 14.1743Z" stroke="#23204A" stroke-width="1.5"/>
</svg>
