<svg xmlns="http://www.w3.org/2000/svg" width="158" height="158" viewBox="0 0 158 158">
  <g id="Group_3544" data-name="Group 3544" transform="translate(-46 -2484)">
    <circle id="Ellipse_106" data-name="Ellipse 106" cx="79" cy="79" r="79" transform="translate(46 2484)" fill="#f7f7f7"/>
    <g id="Group_3152" data-name="Group 3152" transform="translate(92.168 2540.217)">
      <path id="Path_2856" data-name="Path 2856" d="M148.388,92.166a8.166,8.166,0,0,0-5.765-5.764c-5.085-1.363-25.473-1.363-25.473-1.363s-20.389,0-25.473,1.363a8.166,8.166,0,0,0-5.765,5.764c-1.362,5.085-1.362,15.694-1.362,15.694s0,10.609,1.362,15.694a8.165,8.165,0,0,0,5.765,5.764c5.085,1.363,25.473,1.363,25.473,1.363s20.389,0,25.473-1.363a8.165,8.165,0,0,0,5.765-5.764c1.362-5.085,1.362-15.694,1.362-15.694S149.75,97.251,148.388,92.166Z" transform="translate(-84.55 -85.039)" fill="#393737"/>
      <path id="Path_2857" data-name="Path 2857" d="M133.144,128.9l16.939-9.78-16.939-9.78Z" transform="translate(-107.063 -96.296)" fill="#fff"/>
    </g>
  </g>
</svg>
