<svg width="31" height="30" viewBox="0 0 31 30" fill="none" xmlns="http://www.w3.org/2000/svg">
<path d="M25.5 15V22.25C25.5 24.1356 25.5 25.0784 24.9142 25.6642C24.3284 26.25 23.3856 26.25 21.5 26.25H8.625C8.50894 26.25 8.45091 26.25 8.40184 26.2484C6.822 26.1967 5.55332 24.928 5.50161 23.3482C5.5 23.2991 5.5 23.2411 5.5 23.125V23.125C5.5 23.0089 5.5 22.9509 5.50161 22.9018C5.55332 21.322 6.822 20.0533 8.40184 20.0016C8.45091 20 8.50894 20 8.625 20H21.5C23.3856 20 24.3284 20 24.9142 19.4142C25.5 18.8284 25.5 17.8856 25.5 16V7.75C25.5 5.86438 25.5 4.92157 24.9142 4.33579C24.3284 3.75 23.3856 3.75 21.5 3.75H9.5C7.61438 3.75 6.67157 3.75 6.08579 4.33579C5.5 4.92157 5.5 5.86438 5.5 7.75V23.125" stroke="white" stroke-width="1.5"/>
<path d="M11.75 10L19.25 10" stroke="white" stroke-width="1.5" stroke-linecap="round"/>
</svg>
