<svg xmlns="http://www.w3.org/2000/svg" width="68" height="68" viewBox="0 0 68 68">
  <g id="Group_13326" data-name="Group 13326" transform="translate(-1171.668 -4690.557)">
    <rect id="Rectangle_3984" data-name="Rectangle 3984" width="68" height="68" rx="20" transform="translate(1171.668 4690.557)" fill="#f1f2f3" opacity="0.7"/>
    <path id="Union_22" data-name="Union 22" d="M0,34.97V2.736a2,2,0,1,1,4,0c.27.113.58.231.929.35A15.013,15.013,0,0,0,17.1,2.224,18.914,18.914,0,0,1,32.429,1.118,15.489,15.489,0,0,1,35.07,2.264,2.008,2.008,0,0,1,36.065,4V24.07a2,2,0,0,1-3.01,1.731,12.038,12.038,0,0,0-1.925-.815,14.992,14.992,0,0,0-12.168.862A18.889,18.889,0,0,1,4,27.072v7.9a2,2,0,1,1-4,0Z" transform="translate(1187.424 4705.563)" fill="#fa0815"/>
  </g>
</svg>
