<svg xmlns="http://www.w3.org/2000/svg" width="95" height="95" viewBox="0 0 95 95">
  <g id="Group_13955" data-name="Group 13955" transform="translate(18210 1441)">
    <rect id="Rectangle_4180" data-name="Rectangle 4180" width="95" height="95" transform="translate(-18210 -1441)" fill="none"/>
    <g id="tik-tok" transform="translate(-18222.799 -1429)">
      <g id="Group_13954" data-name="Group 13954" transform="translate(37.851 4.139)">
        <path id="Path_35696" data-name="Path 35696" d="M119.227,217.387a9.793,9.793,0,0,0-5.09,18.244,9.642,9.642,0,0,1-1.569-5.144,9.872,9.872,0,0,1,9.934-9.961,10.26,10.26,0,0,1,3.125.491V210.032a21.6,21.6,0,0,0-3.125-.232h-.15v8.078A10.26,10.26,0,0,0,119.227,217.387Z" transform="translate(-106.496 -184.447)" fill="#f00044"/>
        <path id="Path_35697" data-name="Path 35697" d="M339.12,24H336.2a16.779,16.779,0,0,0,6.345,10.111A16.9,16.9,0,0,1,339.12,24Z" transform="translate(-302.441 -24)" fill="#f00044"/>
        <path id="Path_35698" data-name="Path 35698" d="M142.182,144.6a17,17,0,0,1-3.138-.3v7.874a27.067,27.067,0,0,1-10.7-2.17,27.948,27.948,0,0,1-6.086-3.548l.055,24.275a20.308,20.308,0,0,1-6.086,14.437,20.7,20.7,0,0,1-11.571,5.786,21.6,21.6,0,0,1-3.125.232A20.725,20.725,0,0,1,88.8,186.874a18.49,18.49,0,0,0,1.324,1.433,20.8,20.8,0,0,0,14.7,6.018,21.6,21.6,0,0,0,3.125-.232,20.7,20.7,0,0,0,11.571-5.786A20.308,20.308,0,0,0,125.6,173.87l-.2-24.275a26.807,26.807,0,0,0,6.086,3.548,27.407,27.407,0,0,0,10.7,2.17" transform="translate(-88.8 -127.884)" fill="#f00044"/>
      </g>
      <path id="Path_35699" data-name="Path 35699" d="M39.133,195.983a20.766,20.766,0,0,1,14.573-6.045v-2.906a21.6,21.6,0,0,0-3.125-.232,20.746,20.746,0,0,0-14.724,6.045,20.394,20.394,0,0,0,.027,29.038,20.785,20.785,0,0,0,1.951,1.706A20.325,20.325,0,0,1,33.061,210.5a20.574,20.574,0,0,1,6.072-14.519Z" transform="translate(0 -160.446)" fill="#08fff9"/>
      <path id="Path_35700" data-name="Path 35700" d="M392.925,104.4v-2.92H392.9A16.653,16.653,0,0,1,382.8,98.1,16.67,16.67,0,0,0,392.925,104.4Z" transform="translate(-304.831 -83.85)" fill="#08fff9"/>
      <path id="Path_35701" data-name="Path 35701" d="M152.605,59.84a10.252,10.252,0,0,0,3.684-.478,9.834,9.834,0,0,0,6.809-9.32l.014-16.238V4.139h7.805A17,17,0,0,1,170.59,1H159.837V30.652l-.014,16.238a9.834,9.834,0,0,1-6.809,9.32,9.684,9.684,0,0,1-3.684.478,10.011,10.011,0,0,1-4.53-1.378,9.954,9.954,0,0,0,7.805,4.53Z" transform="translate(-99.308 0)" fill="#08fff9"/>
      <path id="Path_35702" data-name="Path 35702" d="M74.432,87.07A20.7,20.7,0,0,0,86,81.284a20.308,20.308,0,0,0,6.086-14.437l-.055-24.275a26.806,26.806,0,0,0,6.086,3.548,27.407,27.407,0,0,0,10.7,2.17V40.416a16.67,16.67,0,0,1-10.125-6.3A16.718,16.718,0,0,1,92.348,24H84.529V53.652L84.516,69.89a9.834,9.834,0,0,1-6.809,9.32,9.684,9.684,0,0,1-3.684.478,9.956,9.956,0,0,1-7.805-4.517,9.793,9.793,0,0,1,5.09-18.244,10.259,10.259,0,0,1,3.125.491V49.34a20.766,20.766,0,0,0-14.573,6.045A20.439,20.439,0,0,0,53.8,69.89a20.178,20.178,0,0,0,4.776,13.086,20.754,20.754,0,0,0,12.731,4.312A19.824,19.824,0,0,0,74.432,87.07Z" transform="translate(-20.725 -19.861)"/>
    </g>
  </g>
</svg>
