<svg xmlns="http://www.w3.org/2000/svg" width="86" height="86" viewBox="0 0 86 86">
  <g id="Group_13716" data-name="Group 13716" transform="translate(-23098 -14922)">
    <rect id="Rectangle_3984" data-name="Rectangle 3984" width="86" height="86" rx="20" transform="translate(23098 14922)" fill="#9b9b9f" opacity="0.7"/>
    <path id="Union_31" data-name="Union 31" d="M31.487,43.552h0a.9.9,0,0,1-.627-.254L16.2,29.18,1.535,43.3A.907.907,0,0,1,0,42.646V.906A.906.906,0,0,1,.906,0H31.488a.906.906,0,0,1,.906.906V42.646a.9.9,0,0,1-.551.833.9.9,0,0,1-.356.073Z" transform="translate(23124.803 14943.225)" fill="#fff" stroke="#fff" stroke-width="1"/>
  </g>
</svg>
