<svg width="311" height="197" viewBox="0 0 311 197" fill="none" xmlns="http://www.w3.org/2000/svg">
<path d="M294.229 196.008H196.395H203.172L265.05 195.291C276.489 194.296 284.549 183.077 280.203 172.454C279.452 170.619 280.238 170.108 279.308 168.338C269.581 150.022 252.715 135.102 233.603 126.434C234.077 126.345 234.554 126.28 235.041 126.214C231.481 124.432 227.816 122.871 224.065 121.539C222.075 120.829 220.062 120.188 218.052 119.625C208.17 116.84 194.817 118.113 190.612 129.054C187.075 138.24 191.771 149.336 200.603 153.359L216.467 159.424C216.333 159.225 216.213 159.026 216.09 158.817L229.885 164.088C230.446 164.481 230.704 165.181 230.532 165.843C230.36 166.506 229.794 166.992 229.114 167.062L195.609 170.722C190.78 171.209 184.733 173.229 181.172 176.553C178.576 178.954 176.388 182.223 176.408 186.359C174.218 186.524 172.042 186.83 169.891 187.275C166.609 187.982 163.268 189.199 163.031 191.199C162.565 195.212 168.269 196.029 171.863 196.029L149.116 195.939C151.558 195.939 151.86 195.919 153.479 194.307C155.098 192.695 156.909 191.453 156.909 189.011L157.108 181.184C157.108 179.571 157.492 178.268 155.88 178.268H141.474C142.672 178.301 143.778 177.63 144.303 176.553C144.314 176.541 144.322 176.525 144.324 176.508C145.044 175.171 145.209 173.247 145.075 171.425L145.243 170.828L145.675 169.237L154.827 163.852C154.895 163.812 154.962 163.768 155.026 163.721C159.8 160.803 160.397 155.585 158.761 150.921C158.727 150.832 158.706 150.753 158.672 150.677C158.596 150.478 158.528 150.29 158.442 150.101C158.005 149.037 157.464 148.019 156.826 147.062C154.463 143.371 151.033 140.363 147.775 139.578C146.861 139.371 145.926 139.268 144.989 139.269C156.329 128.636 169.394 119.186 184.825 116.044C198.327 113.255 212.291 113.619 225.629 117.108C241.215 121.255 255.25 129.864 266.381 141.492C281.363 157.122 288.37 175.383 294.229 196.008Z" fill="#23204A"/>
<path d="M141.799 149.013C141.261 150.072 140.381 150.918 139.302 151.414C138.38 151.877 137.404 152.223 136.397 152.443C134.737 152.721 134.15 151.671 133.09 150.642C132.486 150.058 131.791 149.577 131.032 149.216C130.112 148.763 129.037 148.747 128.103 149.171C127.465 149.455 127.054 150.088 127.053 150.786C127.122 152.045 128.858 153.04 129.839 153.561C131.119 154.166 132.451 154.658 133.817 155.029C137.168 156.058 131.588 158.202 130.415 158.336C127.906 158.676 125.359 158.615 122.869 158.158C123.584 159.755 124.132 161.421 124.505 163.131C124.892 164.767 125.345 166.736 125.026 168.382C124.639 170.317 123.332 171.754 121.72 172.728L115.453 146.585C120.124 144.36 125.512 144.183 130.319 146.098C131.938 146.695 133.757 146.293 134.973 145.069L135.615 144.448C136.508 144.253 137.439 144.327 138.29 144.66C139.81 145.233 142.622 147.075 141.799 149.013Z" fill="url(#paint0_linear_2194_13334)"/>
<path fill-rule="evenodd" clip-rule="evenodd" d="M148.234 178.246H122.358C121.817 183.301 117.55 187.134 112.466 187.133H25.4746C25.4859 192.031 29.4536 195.999 34.3514 196.01H148.227C153.125 195.993 157.092 192.03 157.115 187.133V181.165C157.115 179.553 155.808 178.246 154.196 178.246L148.234 178.246Z" stroke="#23204A" stroke-width="1.6905"/>
<path fill-rule="evenodd" clip-rule="evenodd" d="M108.274 120.218C109.039 121.271 109.588 122.464 109.89 123.73L122.149 174.837C122.42 175.946 122.49 177.095 122.358 178.229C121.816 183.284 117.55 187.117 112.466 187.116H23.8586C19.2536 187.114 15.2504 183.956 14.1757 179.478L1.93058 128.371C1.21397 125.404 1.89861 122.273 3.78785 119.877C5.67709 117.48 8.56184 116.084 11.6135 116.088H100.207C103.153 116.084 105.949 117.392 107.832 119.659L108.274 120.218Z" stroke="#23204A" stroke-width="1.6905"/>
<ellipse cx="62.049" cy="155.347" rx="9.57999" ry="10.7668" transform="rotate(-17.5 62.049 155.347)" fill="#D7E8F0"/>
<path d="M235.523 125.915C227.706 127.222 221.697 130.796 217.663 138.194C214.052 144.814 213.63 152.892 217.482 159.46L201.755 153.43C192.648 149.259 189.445 139.991 193.094 130.473C197.433 119.134 211.201 117.816 221.392 120.705C223.467 121.288 225.539 121.953 227.59 122.687C230.27 123.647 232.914 124.723 235.523 125.915Z" fill="#23204A"/>
<path d="M52.3721 116.095C58.6112 108.033 67.2148 102.123 76.9789 99.1919C75.6783 95.6982 74.6463 92.1103 73.8919 88.4595C65.7902 49.0556 91.1276 10.5333 130.521 2.40762C169.915 -5.71805 208.451 19.6091 216.573 59.0026C217.481 63.417 217.986 67.9047 218.082 72.4105C220.897 71.412 223.777 70.6097 226.702 70.0095C261.129 62.8922 294.811 85.0432 301.918 119.477C305.985 139.108 300.553 159.507 287.262 174.515" stroke="#9F9F9F" stroke-width="1.6905"/>
<path d="M138.242 178.25H140.674C142.092 178.284 143.443 177.648 144.32 176.535C144.331 176.522 144.34 176.506 144.344 176.49C145.216 175.297 145.614 173.823 145.459 172.353L145.26 170.806L145.095 169.558L145.692 169.215L155.042 163.699L155.673 163.336C160.239 160.65 160.568 155.642 158.778 150.899C158.747 150.813 158.723 150.734 158.692 150.655C158.613 150.456 158.534 150.271 158.459 150.082C158.001 149.029 157.46 148.012 156.843 147.043C154.48 143.349 151.053 140.345 147.791 139.559C146.878 139.351 145.943 139.247 145.006 139.25C143.051 139.25 140.89 139.624 139.755 140.753C151.883 128.82 166.053 117.621 183.096 114.146C196.604 111.362 210.572 111.733 223.913 115.23C239.499 119.377 253.548 127.997 264.679 139.624C265.265 140.235 265.838 140.852 266.394 141.483C280.344 156.815 289.241 176.181 294.863 196" stroke="#23204A" stroke-width="1.6905"/>
<path d="M142.52 196.009H310.349" stroke="#23204A" stroke-width="1.6905"/>
<path d="M184.77 196.007H203.813" stroke="#23204A" stroke-width="1.127"/>
<path fill-rule="evenodd" clip-rule="evenodd" d="M200.689 153.268C191.853 149.245 187.161 138.149 190.694 128.967C194.906 118.021 208.259 116.749 218.134 119.534C220.151 120.099 222.155 120.737 224.147 121.448C246.349 129.337 266.525 145.715 277.542 166.467C278.471 168.223 279.212 170.027 279.963 171.866C282.017 176.875 281.566 182.562 278.748 187.184C275.93 191.807 271.081 194.813 265.688 195.282L203.814 196.006H184.771C181.321 196.006 178.254 193.811 177.142 190.545C175.053 184.371 177.753 179.713 181.166 176.541C184.726 173.234 189.37 171.344 194.2 170.857L228.959 167.345C229.641 167.275 230.207 166.789 230.381 166.126C230.554 165.463 230.298 164.762 229.738 164.368L200.689 153.268Z" stroke="#23204A" stroke-width="1.6905"/>
<path d="M190.328 177.6C187.155 179.424 183.893 182.282 182.802 185.9C181.547 190.068 184.493 193.854 187.841 196.022" stroke="#23204A" stroke-width="1.6905"/>
<path d="M193.729 182.383C190.769 185.199 188.204 188.769 189.915 193.016C190.405 194.181 191.167 195.211 192.138 196.02" stroke="#23204A" stroke-width="1.6905"/>
<path d="M199.537 187.891C199.537 187.891 192.722 192.957 197.051 195.996" stroke="#23204A" stroke-width="1.6905"/>
<path d="M182.044 195.521L182.164 196.009H171.167C167.573 196.009 162.592 195.456 163.062 191.443C163.532 187.43 176.405 186.336 176.405 186.336" stroke="#23204A" stroke-width="1.6905"/>
<path d="M162.318 69.3299L138.915 72.8319L142.993 75.7063L150.621 81.8151C151.815 82.6554 151.517 84.638 152.179 85.8419C152.692 89.5556 150.951 93.2197 147.748 95.1672C144.544 97.1147 140.49 96.9735 137.43 94.8079L119.028 81.8631C116.996 80.4606 115.366 78.5524 114.298 76.3271C112.792 68.8325 117.412 60.4976 126.303 59.1771L151.884 55.3355L148.111 52.4063L136.493 43.3648C135.498 42.5943 134.668 41.6321 134.051 40.535C133.523 36.7359 135.352 32.9961 138.676 31.0819C142 29.1678 146.153 29.4622 149.174 31.8263L169.898 47.9473C171.593 49.2488 172.963 50.9253 173.901 52.8453C175.314 60.0895 170.793 68.0574 162.318 69.3299Z" fill="url(#paint1_linear_2194_13334)"/>
<path d="M145.099 169.558C145.099 169.558 144.386 163.281 141.968 161.068" stroke="#23204A" stroke-width="1.6905"/>
<path d="M115.214 147.025C119.936 144.706 125.419 144.494 130.306 146.442C131.927 147.04 133.748 146.638 134.967 145.413L139.745 140.734" stroke="#23204A" stroke-width="1.6905"/>
<path d="M130.402 173.69L134.391 175.484C134.571 175.558 134.773 175.553 134.949 175.469C135.124 175.385 135.255 175.231 135.311 175.045L135.938 173.625" stroke="#23204A" stroke-width="1.6905"/>
<path d="M131.053 165.766C131.735 167.33 131.483 169.145 130.401 170.465" stroke="#23204A" stroke-width="1.127"/>
<path d="M140.102 178.249C140.729 177.319 140.726 175.072 140.565 174.17C140.462 173.598 139.498 173.392 139.395 173.968C139.114 175.577 137.299 178.05 135.622 178.249" stroke="#23204A" stroke-width="1.6905"/>
<circle cx="132.049" cy="167.062" r="5.12099" stroke="#23204A" stroke-width="1.6905"/>
<path d="M130.333 171.885L129.421 174.45C128.141 173.994 126.733 174.065 125.506 174.648C124.279 175.231 123.334 176.278 122.88 177.558" stroke="#23204A" stroke-width="1.6905"/>
<circle opacity="0.53" cx="132.047" cy="167.062" r="4.33552" fill="white"/>
<path d="M121.699 173.063C123.311 172.089 124.615 170.662 125.002 168.721C125.325 167.071 124.872 165.106 124.484 163.47C124.112 161.76 123.564 160.093 122.848 158.496C125.339 158.953 127.885 159.012 130.394 158.671C131.564 158.541 137.148 156.407 133.797 155.368C132.43 154.997 131.1 154.505 129.821 153.897C128.834 153.386 127.101 152.391 127.04 151.129C127.031 150.432 127.435 149.796 128.069 149.506C129.004 149.085 130.078 149.103 130.998 149.558C131.759 149.915 132.454 150.398 133.056 150.985C134.119 152.014 134.699 153.043 136.366 152.778C137.372 152.562 138.346 152.216 139.264 151.749C140.346 151.255 141.228 150.408 141.768 149.348C142.598 147.417 139.779 145.575 138.249 145.023C137.399 144.689 136.47 144.613 135.577 144.804" stroke="#23204A" stroke-width="1.6905"/>
<path fill-rule="evenodd" clip-rule="evenodd" d="M162.317 69.3306L138.914 72.8327L142.992 75.707L148.268 79.4114C151.086 81.3202 152.655 84.6017 152.37 87.9938C152.086 91.386 149.993 94.3605 146.896 95.7733C143.799 97.1862 140.18 96.8173 137.432 94.8087L119.03 81.8639C116.999 80.4613 115.369 78.5532 114.3 76.3278C110.387 68.2022 114.962 57.3805 125.187 55.8542L145.482 52.8152L148.11 52.407L136.492 43.3655C133.839 41.3001 132.489 37.9758 132.95 34.645C133.412 31.3141 135.616 28.4827 138.732 27.2173C141.847 25.9519 145.401 26.4448 148.055 28.5102L168.779 44.6312C171.432 46.6487 173.249 49.5714 173.886 52.8426C175.313 60.0902 170.792 68.0581 162.317 69.3306V69.3306Z" stroke="#23204A" stroke-width="1.6905"/>
<path d="M110.95 109.114L110.723 103.136L108.072 105.852C107.136 106.809 105.601 106.828 104.642 105.894C103.685 104.957 103.667 103.423 104.601 102.464L109.351 97.6136C110.352 96.5895 111.867 96.2599 113.202 96.7755C114.538 97.2912 115.438 98.5529 115.491 99.9837L115.714 106.082L117.669 103.877C118.096 103.393 118.698 103.1 119.341 103.062C119.985 103.023 120.618 103.242 121.099 103.671C121.582 104.098 121.876 104.699 121.915 105.343C121.954 105.986 121.736 106.619 121.308 107.101L117.457 111.447C116.451 112.594 114.846 113.01 113.409 112.495C111.973 111.981 110.997 110.64 110.95 109.114Z" fill="#D7E8F0"/>
<path d="M130.824 119.898L133.646 119.267L132.12 118.238C131.582 117.875 131.438 117.146 131.798 116.605C132.16 116.067 132.891 115.924 133.43 116.286L136.154 118.108C136.731 118.493 137.022 119.185 136.894 119.867C136.767 120.549 136.244 121.089 135.567 121.239L132.676 121.891L133.9 122.629C134.167 122.789 134.359 123.05 134.433 123.352C134.508 123.654 134.459 123.974 134.298 124.241C133.963 124.796 133.242 124.975 132.686 124.642L130.285 123.191C129.653 122.813 129.316 122.088 129.435 121.362C129.554 120.635 130.104 120.055 130.824 119.898Z" fill="#D7E8F0"/>
<path d="M123.685 136.387L123.915 134.501L122.944 135.221C122.78 135.343 122.574 135.395 122.371 135.366C122.169 135.336 121.986 135.227 121.864 135.063C121.611 134.721 121.681 134.238 122.021 133.983L123.736 132.696C124.102 132.424 124.594 132.396 124.988 132.624C125.382 132.853 125.602 133.294 125.548 133.746L125.314 135.674L126.038 135.077C126.196 134.947 126.4 134.885 126.604 134.904C126.808 134.924 126.995 135.025 127.125 135.183C127.256 135.341 127.318 135.545 127.298 135.749C127.278 135.953 127.177 136.14 127.019 136.27L125.592 137.444C125.219 137.741 124.703 137.784 124.286 137.552C123.868 137.321 123.631 136.861 123.685 136.387Z" fill="#D7E8F0"/>
<path d="M235.524 126.151L235.38 126.395C235.271 126.326 235.156 126.267 235.037 126.216L235.524 126.151Z" fill="#23204A"/>
<defs>
<linearGradient id="paint0_linear_2194_13334" x1="148.906" y1="181.485" x2="114.459" y2="180.581" gradientUnits="userSpaceOnUse">
<stop stop-color="#6768AB"/>
<stop offset="1" stop-color="#F73458"/>
</linearGradient>
<linearGradient id="paint1_linear_2194_13334" x1="189.954" y1="117.115" x2="111.756" y2="115.132" gradientUnits="userSpaceOnUse">
<stop stop-color="#6768AB"/>
<stop offset="1" stop-color="#F73458"/>
</linearGradient>
</defs>
</svg>
