<svg width="24" height="25" viewBox="0 0 24 25" fill="none" xmlns="http://www.w3.org/2000/svg">
<path d="M15 3.5H9C6.79086 3.5 5 5.29086 5 7.5V15.5" stroke="#F73458" stroke-width="1.5"/>
<path d="M8.75 12C8.75 10.8098 8.75112 9.97987 8.82277 9.34426C8.89272 8.72376 9.02187 8.38193 9.21495 8.13029C9.33466 7.97429 9.47429 7.83466 9.63029 7.71496C9.88193 7.52187 10.2238 7.39272 10.8443 7.32277C11.4799 7.25112 12.3098 7.25 13.5 7.25C14.6902 7.25 15.5201 7.25112 16.1557 7.32277C16.7762 7.39272 17.1181 7.52187 17.3697 7.71495C17.5257 7.83466 17.6653 7.97429 17.785 8.13029C17.9781 8.38193 18.1073 8.72376 18.1772 9.34426C18.2489 9.97987 18.25 10.8098 18.25 12V16C18.25 17.1902 18.2489 18.0201 18.1772 18.6557C18.1073 19.2762 17.9781 19.6181 17.785 19.8697C17.6653 20.0257 17.5257 20.1653 17.3697 20.285C17.1181 20.4781 16.7762 20.6073 16.1557 20.6772C15.5201 20.7489 14.6902 20.75 13.5 20.75C12.3098 20.75 11.4799 20.7489 10.8443 20.6772C10.2238 20.6073 9.88193 20.4781 9.63029 20.285C9.47429 20.1653 9.33466 20.0257 9.21495 19.8697C9.02187 19.6181 8.89272 19.2762 8.82277 18.6557C8.75112 18.0201 8.75 17.1902 8.75 16V12Z" stroke="#F73458" stroke-width="1.5"/>
</svg>
