<svg width="268" height="313" viewBox="0 0 268 313" fill="none" xmlns="http://www.w3.org/2000/svg">
<path d="M183.834 219.105C183.837 219.083 183.837 219.061 183.834 219.039C183.832 219.011 183.832 218.984 183.834 218.956C183.834 218.956 183.834 218.925 183.834 218.904C183.842 218.963 183.854 219.02 183.868 219.077C183.86 219.09 183.848 219.1 183.834 219.105Z" fill="white"/>
<path d="M183.779 218.9C180.878 221.839 178.004 225.109 174.942 228.079C174.099 228.904 173.238 229.702 172.357 230.473C171.378 231.328 170.369 232.142 169.335 232.887C169.26 232.67 169.168 232.459 169.061 232.256C167.327 228.807 162.624 226.623 162.04 222.712C161.508 219.059 164.787 215.703 164.251 212.122C163.647 208.073 158.689 205.669 157.773 201.713C157.189 199.257 157.711 196.425 157.498 193.893C157.254 191.062 156.778 188.256 156.073 185.504C156.417 185.48 156.76 185.47 157.103 185.46C164.072 185.342 170.932 189.274 173.187 194.8C175.003 199.284 174.08 204.427 176.493 208.618C176.639 208.889 176.803 209.15 176.984 209.398C177.304 209.837 177.648 210.259 178.014 210.66L178.78 211.46C178.907 211.588 179.048 211.705 179.175 211.843C179.302 211.981 179.439 212.102 179.566 212.24C180.768 213.395 181.993 214.558 182.79 215.937C182.862 216.057 182.926 216.182 182.982 216.31C183.054 216.438 183.119 216.57 183.174 216.707C183.246 216.855 183.301 216.996 183.353 217.134C183.404 217.272 183.47 217.479 183.524 217.624C183.6 217.883 183.672 218.128 183.727 218.383C183.727 218.448 183.727 218.504 183.748 218.555C183.768 218.607 183.748 218.597 183.748 218.621C183.753 218.641 183.753 218.663 183.748 218.683C183.748 218.728 183.748 218.759 183.768 218.79V218.811C183.763 218.841 183.767 218.872 183.779 218.9Z" fill="white"/>
<path d="M183.823 219.113H183.834L183.823 219.123V219.113Z" fill="white"/>
<path d="M183.844 219.093C183.93 219.017 184.002 218.966 184.088 218.89C184.016 218.955 183.93 219.028 183.854 219.104C183.854 219.104 183.854 219.104 183.834 219.104L183.844 219.093Z" fill="white"/>
<path d="M208.243 202.113C208.169 203.316 208.169 204.522 208.243 205.724C206.148 206.238 204.085 206.804 202.063 207.487C200.807 207.904 199.574 208.363 198.342 208.887C194.922 210.281 191.702 212.125 188.767 214.372C189.406 213.276 189.857 212.079 190.099 210.833C190.099 210.781 190.119 210.726 190.13 210.664C190.662 208.08 190.703 205.366 191.915 202.896C194.17 198.343 200.765 195.042 207.669 194.828H207.796C208.425 194.828 209.063 194.828 209.702 194.859C208.987 197.225 208.498 199.654 208.243 202.113Z" fill="white"/>
<path d="M190.15 210.908C190.15 210.97 190.129 211.025 190.119 211.077C189.874 212.327 189.417 213.527 188.768 214.626C188.522 215.01 188.252 215.379 187.96 215.729C186.968 216.894 185.586 217.879 184.304 218.909C184.219 218.989 184.128 219.064 184.033 219.133C183.96 219.199 183.873 219.272 183.796 219.348C183.796 219.348 183.796 219.348 183.775 219.348C183.78 219.334 183.78 219.32 183.775 219.306C183.767 219.269 183.756 219.234 183.74 219.199C183.74 219.199 183.74 219.168 183.74 219.147C183.735 219.129 183.735 219.11 183.74 219.092V219.071C183.74 219.04 183.74 219.009 183.719 218.964C183.724 218.944 183.724 218.922 183.719 218.902C183.73 218.881 183.73 218.857 183.719 218.836C183.713 218.778 183.702 218.72 183.688 218.663C183.632 218.408 183.559 218.162 183.483 217.903C183.427 217.744 183.375 217.557 183.309 217.412C183.242 217.267 183.201 217.132 183.128 216.984C183.079 216.844 183.014 216.71 182.933 216.586C182.876 216.458 182.811 216.333 182.738 216.213C181.93 214.83 180.687 213.666 179.468 212.508C179.339 212.37 179.2 212.228 179.071 212.11C178.943 211.993 178.8 211.855 178.671 211.727L177.895 210.925C177.523 210.523 177.174 210.1 176.85 209.66C176.85 209.66 177.56 197.3 183.935 193.543C189.955 189.987 190.15 208.82 190.15 210.908Z" fill="white"/>
<path d="M183.652 219.056V219.108C183.655 219.086 183.655 219.064 183.652 219.042C183.65 219.015 183.65 218.987 183.652 218.96C183.652 218.96 183.652 218.929 183.652 218.908C183.65 218.957 183.65 219.007 183.652 219.056Z" fill="white"/>
<path d="M205.017 198.832L201.943 207.496C200.681 207.912 199.444 208.37 198.207 208.893C200.181 205.06 202.442 201.595 205.017 198.832V198.832Z" fill="white"/>
<path d="M183.686 219.125C183.686 219.056 183.676 218.988 183.655 218.922C183.676 219.049 183.686 219.125 183.686 219.125Z" fill="white"/>
<path d="M160.308 190.125C167.201 199.047 171.778 214.21 174.735 228.052C173.89 228.875 173.025 229.671 172.14 230.439L160.308 190.125Z" fill="white"/>
<path d="M184.648 205.168C183.269 209.369 183.217 213.611 183.379 216.299C183.421 217.167 183.513 218.032 183.655 218.889L184.648 205.168Z" fill="white"/>
<path fill-rule="evenodd" clip-rule="evenodd" d="M183.696 219.225C183.699 219.203 183.699 219.181 183.696 219.16C183.694 219.132 183.694 219.105 183.696 219.077C183.696 219.077 183.696 219.046 183.696 219.025C183.704 219.083 183.715 219.141 183.73 219.197C183.722 219.211 183.71 219.22 183.696 219.225Z" stroke="#CCDDE2" stroke-width="1.6275"/>
<path fill-rule="evenodd" clip-rule="evenodd" d="M183.64 219.024C180.733 221.956 177.853 225.219 174.783 228.182C173.939 229.006 173.075 229.802 172.192 230.571C171.211 231.425 170.2 232.237 169.164 232.98C169.089 232.763 168.997 232.553 168.889 232.35C167.151 228.909 162.437 226.73 161.852 222.827C161.318 219.182 164.605 215.833 164.068 212.26C163.462 208.22 158.493 205.821 157.574 201.873C156.989 199.422 157.512 196.597 157.299 194.07C157.055 191.245 156.577 188.446 155.871 185.7C156.215 185.676 156.559 185.665 156.903 185.655C163.889 185.538 170.764 189.462 173.025 194.975C174.845 199.45 173.919 204.582 176.339 208.763C176.484 209.034 176.649 209.294 176.831 209.541C177.151 209.98 177.496 210.4 177.863 210.801L178.63 211.6C178.758 211.727 178.899 211.844 179.026 211.982C179.153 212.119 179.291 212.24 179.418 212.377C180.623 213.53 181.851 214.69 182.649 216.067C182.722 216.187 182.786 216.311 182.842 216.439C182.915 216.566 182.979 216.699 183.035 216.835C183.107 216.983 183.162 217.124 183.214 217.261C183.265 217.399 183.331 217.606 183.386 217.75C183.462 218.008 183.534 218.253 183.589 218.507C183.589 218.573 183.589 218.628 183.609 218.679C183.63 218.731 183.609 218.721 183.609 218.745C183.614 218.765 183.614 218.786 183.609 218.807C183.609 218.851 183.609 218.882 183.63 218.913V218.934C183.625 218.964 183.629 218.995 183.64 219.024V219.024Z" stroke="#CCDDE2" stroke-width="1.6275"/>
<path d="M189.976 210.984C189.732 212.225 189.28 213.415 188.64 214.505C188.398 214.888 188.131 215.254 187.842 215.603C186.861 216.763 185.495 217.744 184.229 218.77C184.144 218.85 184.055 218.925 183.961 218.994C183.875 219.069 183.802 219.121 183.716 219.197" stroke="#CCDDE2" stroke-width="1.6275"/>
<path d="M208.151 205.876C208.077 204.676 208.077 203.472 208.151 202.272C208.408 199.822 208.898 197.402 209.614 195.045C208.974 195.003 208.334 195.003 207.704 195.014H207.576C200.657 195.227 194.046 198.521 191.785 203.064C190.571 205.528 190.529 208.227 189.996 210.815" stroke="#CCDDE2" stroke-width="1.6275"/>
<path d="M189.979 210.989C189.979 210.934 190 210.882 190.01 210.817" stroke="#CCDDE2" stroke-width="1.6275"/>
<path fill-rule="evenodd" clip-rule="evenodd" d="M190.007 210.802C190.007 210.864 189.986 210.919 189.976 210.971C189.733 212.216 189.282 213.411 188.641 214.505C188.398 214.888 188.131 215.255 187.842 215.603C186.862 216.763 185.495 217.744 184.229 218.77C184.144 218.85 184.055 218.925 183.961 218.994C183.888 219.059 183.802 219.131 183.727 219.207C183.727 219.207 183.727 219.207 183.706 219.207C183.711 219.194 183.711 219.179 183.706 219.166C183.698 219.129 183.687 219.093 183.672 219.059C183.672 219.059 183.672 219.028 183.672 219.007C183.667 218.989 183.667 218.97 183.672 218.952V218.932C183.672 218.901 183.672 218.87 183.651 218.825C183.656 218.805 183.656 218.783 183.651 218.763C183.661 218.742 183.661 218.718 183.651 218.698C183.645 218.64 183.634 218.582 183.62 218.526C183.565 218.271 183.493 218.026 183.417 217.768C183.362 217.61 183.31 217.424 183.245 217.28C183.18 217.135 183.138 217.001 183.066 216.853C183.018 216.714 182.953 216.581 182.873 216.457C182.817 216.329 182.753 216.205 182.681 216.085C181.882 214.709 180.654 213.549 179.449 212.396C179.322 212.258 179.185 212.117 179.057 212C178.93 211.883 178.789 211.745 178.661 211.618L177.894 210.819C177.527 210.419 177.182 209.998 176.862 209.56C176.862 209.56 177.564 197.252 183.864 193.51C189.814 189.969 190.007 208.723 190.007 210.802V210.802Z" stroke="#CCDDE2" stroke-width="1.6275"/>
<path d="M189.979 210.989C189.979 210.934 190 210.882 190.01 210.817" stroke="#CCDDE2" stroke-width="1.6275"/>
<path fill-rule="evenodd" clip-rule="evenodd" d="M183.685 219.185V219.237C183.689 219.215 183.689 219.193 183.685 219.171C183.684 219.144 183.684 219.116 183.685 219.089C183.685 219.089 183.685 219.058 183.685 219.037C183.683 219.086 183.683 219.136 183.685 219.185Z" stroke="#CCDDE2" stroke-width="1.6275"/>
<path d="M205.016 198.953C202.446 201.707 200.199 205.183 198.217 209.031" stroke="#CCDDE2" stroke-width="1.6275"/>
<path fill-rule="evenodd" clip-rule="evenodd" d="M183.72 219.25C183.72 219.181 183.709 219.113 183.689 219.047C183.709 219.174 183.72 219.25 183.72 219.25Z" stroke="#CCDDE2" stroke-width="1.6275"/>
<path d="M160.379 190.242C167.262 199.167 171.831 214.335 174.784 228.182" stroke="#CCDDE2" stroke-width="1.6275"/>
<path d="M184.68 205.293C183.303 209.495 183.252 213.739 183.413 216.427C183.455 217.296 183.547 218.161 183.689 219.019" stroke="#CCDDE2" stroke-width="1.6275"/>
<path d="M257.875 106.219C262.255 122.629 266.773 140.31 266.402 157.179C266.006 174.956 256.956 189.876 240.742 197.448C230.188 202.374 218.843 203.279 208.152 205.87C206.052 206.383 203.984 206.948 201.958 207.629C200.698 208.046 199.463 208.503 198.228 209.027C194.803 210.42 191.58 212.263 188.641 214.506C187.563 215.329 186.529 216.208 185.544 217.139C184.924 217.724 184.308 218.333 183.689 218.963C183.07 219.593 183.689 218.984 183.668 218.994C183.648 219.005 183.668 218.994 183.668 218.994C180.761 221.927 177.881 225.189 174.811 228.153C173.967 228.977 173.103 229.773 172.22 230.542C171.239 231.395 170.228 232.207 169.192 232.951C165.696 235.498 161.838 237.384 157.392 237.938C155.429 238.19 153.453 238.34 151.474 238.389C151.442 238.399 151.409 238.399 151.377 238.389" stroke="#CCDDE2" stroke-width="1.6275"/>
<path d="M82.79 12.8127C82.79 12.8127 62.3638 8.14899 45.3615 13.8969C43.2434 14.5949 41.1914 15.4794 39.2296 16.5402C29.5946 21.7546 22.3236 31.5535 22.857 49.3513C23.1426 58.6443 22.5989 67.8099 20.7683 76.7036C20.1695 79.5902 19.4297 82.4469 18.5488 85.2738C16.3909 92.1857 13.2764 98.7615 9.29576 104.81C-3.38112 124.036 -1.461 144.019 12.5992 162.55C13.3356 163.521 14.0926 164.481 14.8703 165.421" stroke="#CCDDE2" stroke-width="1.6275"/>
<rect x="79.8999" y="4.09766" width="178.15" height="171.15" rx="26.705" fill="url(#paint0_linear_1576_41789)"/>
<rect x="77.1001" y="1.64844" width="180.95" height="173.6" rx="28.4795" stroke="#23204A" stroke-width="1.6275"/>
<rect x="83.3999" y="7.59766" width="171.15" height="164.15" rx="26.705" fill="url(#paint1_linear_1576_41789)"/>
<path d="M149.55 153.9L100.895 153.201C99.7234 153.176 98.7902 152.225 98.7999 151.069C98.8011 150.88 98.8312 150.692 98.8892 150.512C99.1603 149.613 99.9992 148.997 100.95 149L149.533 149.705C148.724 150.989 148.724 152.616 149.533 153.9H149.55Z" fill="url(#paint2_linear_1576_41789)"/>
<path opacity="0.72" d="M155.142 151.626C155.047 152.113 154.811 152.562 154.463 152.922C154.297 153.108 154.112 153.277 153.912 153.427C153.806 153.503 153.233 153.949 153.127 153.894C152.378 153.524 151.435 152.597 151.314 151.685C151.295 151.542 151.295 151.398 151.314 151.256C151.389 150.842 151.711 150.513 152.131 150.423C152.551 150.332 152.985 150.499 153.23 150.845C153.518 150.453 154.045 150.309 154.499 150.495C154.954 150.682 155.218 151.15 155.135 151.626H155.142Z" fill="url(#paint3_linear_1576_41789)"/>
<path d="M172.462 257.782C172.459 258.846 171.797 259.798 170.799 260.17L146.82 269.116C146.82 269.116 145.676 266.997 143.683 263.456L129.987 240.557C126.286 259.585 122.158 278.637 119.6 290.511L117.135 302.334L127.016 305.582C128.238 305.877 129.101 306.968 129.106 308.224C129.104 309.064 128.716 309.856 128.054 310.372C127.392 310.889 126.53 311.072 125.715 310.87L102.812 305.069V299.474L102.268 299.368L102.74 234.106L80.3612 228.817C77.5552 229.691 74.5909 230.493 71.5611 231.143C71.5285 231.148 71.4963 231.155 71.4647 231.164C64.1111 233.09 56.43 233.421 48.9378 232.134C48.8724 232.134 48.7966 232.103 48.7347 232.089C48.1907 231.986 47.6467 231.866 47.113 231.745C46.9512 231.714 46.7929 231.683 46.631 231.639C46.1628 231.532 45.6946 231.394 45.2263 231.267C44.9681 231.191 44.7133 231.129 44.4689 231.054C44.2244 230.978 44.042 230.916 43.8285 230.84C39.796 229.575 36.0718 227.483 32.8939 224.699C30.457 222.654 28.3909 220.205 26.7861 217.459C26.0976 216.372 25.4537 215.229 24.8547 214.056C21.219 206.882 20.4615 204.442 21.5185 204.377C19.1908 203.558 16.9359 202.545 14.7773 201.349C14.7773 201.349 10.0192 173.599 20.3961 145.67C20.1975 143.942 20.2334 142.196 20.5028 140.478C22.6891 124.808 34.722 108.702 49.0789 102.178C56.7704 98.6819 69.3129 93.3176 65.2606 82.6373C63.9798 79.2584 62.162 76.3475 61.8177 72.8413C61.7867 72.4972 61.7454 72.191 61.7213 71.8504C61.1463 63.5924 65.9561 55.7508 73.7439 52.9258C78.8991 50.986 84.641 51.3622 89.4986 53.9581C90.3279 54.3956 91.0719 54.9783 91.6952 55.6785C94.0639 55.7404 97.0386 56.1568 98.4364 56.8071C100.805 57.915 102.702 59.8557 104.121 62.0406C106.737 66.1132 107.788 70.9956 107.078 75.7832C106.67 78.4325 105.726 80.9709 104.303 83.2429C103.601 84.3813 102.787 85.4464 101.872 86.4222C101.07 87.2618 99.9306 88.4867 98.8324 88.9375C98.8575 88.9576 98.8933 88.9576 98.9184 88.9375L98.5982 94.054C105.174 92.5572 122.743 86.3913 135.623 60.9326C136.553 58.961 137.51 56.9998 138.515 55.0592C141.49 49.282 144.678 43.5358 148.903 38.5673C149.935 37.363 151.464 36.2757 153.106 36.7987C154.545 37.2563 155.516 38.8632 154.514 40.212L147.601 49.6536L149.808 49.368C150.295 49.4856 150.705 49.8116 150.93 50.2592C151.154 50.7069 151.169 51.2305 150.972 51.6906L149.574 55.0075L150.235 54.2299C151.18 53.1147 152.837 52.9428 153.991 53.8403C155.145 54.7377 155.385 56.3851 154.535 57.5744L150.893 62.278C150.405 62.8991 149.785 63.4044 149.078 63.7575L141.869 67.2328C144.001 69.8523 145.984 72.5898 147.808 75.4323C143.849 83.0151 139.208 90.2223 133.943 96.9649C125.067 108.392 112.287 121.164 96.684 126.504C96.3397 135.949 94.6699 145.308 92.0774 154.464H115.703L121.59 138.41C122.144 136.892 123.589 135.883 125.205 135.884H148.737C149.147 135.885 149.552 135.965 149.932 136.118C151.112 136.605 151.882 137.754 151.884 139.029C151.88 139.411 151.808 139.79 151.671 140.147L150.111 144.201H150.059H143.425L140.726 151.929L141.493 149.978H144.812C145.868 149.977 146.854 150.505 147.439 151.384C148.023 152.262 148.13 153.374 147.722 154.348L144.895 161.105C143.163 165.241 139.44 168.207 135.021 168.974L134.721 169.026L134.167 170.664L134.453 170.1C134.36 170.323 134.253 170.568 134.157 170.836H141.6C141.6 170.836 139.948 175.653 136.907 175.942C136.662 175.961 136.415 175.953 136.171 175.918H120.746C121.611 176.878 122.581 178.041 123.618 179.407C128.094 179.342 134.604 179.82 136.215 182.944C136.493 183.255 136.746 183.586 136.973 183.935C137.589 184.967 137.792 187.376 137.644 190.855C137.688 194.442 137.387 198.025 136.746 201.556C137.526 203.019 138.277 204.491 138.997 205.97C140.565 208.897 141.978 211.904 143.232 214.978C143.275 215.06 143.311 215.145 143.339 215.233C147.097 223.846 150.394 232.653 153.216 241.617L153.375 242.171C155.509 248.461 157.248 254.176 157.909 257.655L169.099 255.363C169.877 255.105 170.732 255.236 171.398 255.714C172.064 256.193 172.46 256.962 172.462 257.782Z" fill="white"/>
<path d="M133.702 171.385H141.143C140.838 172.225 140.449 173.032 139.983 173.794C139.064 175.232 137.646 176.735 135.77 176.48H113.197C112.319 176.486 111.464 176.201 110.767 175.668C110.612 174.954 110.656 174.21 110.894 173.518C120.011 172.122 129.352 170.618 133.53 169.755L134.318 169.617L133.702 171.385Z" fill="url(#paint4_linear_1576_41789)"/>
<path d="M151.423 139.626C151.419 140.008 151.347 140.387 151.21 140.744L149.654 144.793H143.019L140.293 152.568L139.302 155.052H117.674L122.685 141.408C123.242 139.891 124.687 138.883 126.303 138.883H149.823C150.232 138.884 150.638 138.963 151.017 139.117C151.149 139.171 151.278 139.231 151.403 139.299C151.413 139.402 151.423 139.519 151.423 139.626Z" fill="url(#paint5_linear_1576_41789)"/>
<path d="M151.427 139.621C151.422 140.003 151.35 140.382 151.213 140.739L149.654 144.788H143.022L145.328 138.534C145.854 137.102 147.331 136.254 148.833 136.522C150.335 136.79 151.428 138.096 151.427 139.621Z" fill="url(#paint6_linear_1576_41789)"/>
<path d="M141.14 171.385C141.14 171.385 139.006 177.653 135.131 176.304C132.721 175.475 133.083 173.077 133.713 171.371L141.14 171.385Z" fill="url(#paint7_linear_1576_41789)"/>
<path d="M135.55 144.624H124.7" stroke="white" stroke-width="1.6275" stroke-linecap="round" stroke-linejoin="round"/>
<path d="M134.5 148.823H123.65" stroke="white" stroke-width="1.6275" stroke-linecap="round" stroke-linejoin="round"/>
<path d="M142.923 215.292C141.049 210.765 138.864 206.373 136.382 202.148C137.387 196.826 138.072 187.503 135.893 183.272C134.282 180.145 127.778 179.67 123.289 179.736C119.822 175.157 117.019 172.797 117.019 172.797C117.019 172.797 96.1491 176.175 91.3842 176.203C86.6193 176.23 86.6228 178.869 86.6228 178.869C86.6228 178.869 83.3039 188.876 79.5512 193.847C75.7986 198.818 65.7042 204.855 51.1583 207.181C36.6124 209.506 25.1719 206.641 22.5484 205.182C19.925 203.723 19.8389 205.13 24.5349 214.374C29.2309 223.617 36.4609 230.264 48.6037 232.455C56.0933 233.744 63.7724 233.413 71.1232 231.485C71.1232 231.485 90.3376 226.645 95.9735 222.954C101.609 219.262 102.491 224.281 102.491 224.281L101.94 299.682L116.813 302.647L129.662 240.887L143.364 263.798L157.6 257.95C155.923 249.153 147.313 225.957 142.923 215.292Z" fill="#23204A"/>
<path d="M103.991 114.53C103.688 116.615 102.802 118.573 101.436 120.176C100.386 121.519 99.051 122.611 97.5269 123.372C97.1692 123.545 96.7974 123.687 96.4154 123.797C96.4154 122.608 96.3949 121.399 96.3299 120.22C96.0871 115.804 95.1979 111.207 92.3902 107.811C91.0394 106.189 89.3346 104.9 87.4073 104.043C87.462 103.228 87.527 102.419 87.5783 101.604C87.7254 100.209 87.7185 98.8031 87.5578 97.4103C87.3767 96.5651 87.2736 95.705 87.25 94.8409C87.2808 94.0358 87.1645 90.9456 87.8006 90.2775C88.8619 90.7206 89.999 90.9533 91.1487 90.9627C93.7239 90.9422 95.7691 89.3594 97.1473 87.3347C97.6542 87.1687 98.181 87.0719 98.7136 87.0469C100.273 87.2798 95.6186 91.4835 97.137 91.0073C96.1487 91.3122 95.4271 92.799 94.962 93.6487C94.278 94.9642 93.8813 96.5127 94.5516 97.9037C95.2082 99.2329 96.583 100.377 97.5577 101.47C98.8718 102.852 100.101 104.313 101.238 105.845C103.036 108.353 104.35 111.433 103.991 114.53Z" fill="url(#paint8_linear_1576_41789)"/>
<path d="M80.1275 102.188C82.5927 102.341 85.0106 102.933 87.2675 103.936C89.206 104.798 90.9208 106.094 92.28 107.723C95.1064 111.137 96.0014 115.753 96.2459 120.19C96.3113 121.385 96.3423 122.6 96.3319 123.784C96.2803 134.29 94.5314 144.685 91.6603 154.85H117.652H139.292L140.284 152.368L141.076 150.372H144.415C145.471 150.372 146.458 150.9 147.043 151.779C147.629 152.659 147.735 153.772 147.328 154.747L144.501 161.507C142.765 165.642 139.043 168.608 134.624 169.376L134.325 169.431L133.536 169.569C129.357 170.433 120.014 171.937 110.894 173.335C102.553 174.626 94.3937 175.82 90.5345 176.374C89.0714 176.588 87.5773 176.746 86.0591 176.843C77.0498 177.397 67.7478 175.393 65.338 165.139C63.7682 158.571 64.1124 151.491 64.1847 144.654" stroke="#23204A" stroke-width="1.6275"/>
<path d="M123.26 180.08C129.092 179.812 134.318 180.676 136.559 184.325C137.688 186.17 137.413 192.676 136.249 201.749" stroke="#23204A" stroke-width="1.6275"/>
<path d="M25.562 216.371C25.5746 216.387 25.585 216.404 25.593 216.423C28.0889 221.51 32.4782 225.903 38.0932 228.977C57.8779 239.799 87.636 227.118 98.3391 221.841C99.2074 221.413 100.235 221.465 101.056 221.977C101.877 222.489 102.376 223.389 102.374 224.357V305.514L125.271 311.315C125.987 311.499 126.748 311.382 127.376 310.992C128.005 310.602 128.447 309.973 128.6 309.249C128.914 307.802 128.012 306.37 126.572 306.027L116.695 302.774C117.153 299.566 123.852 270.228 129.546 240.976" stroke="#23204A" stroke-width="1.6275"/>
<path d="M116.479 172.457C122.331 177.414 126.534 185.035 130.469 191.51C140.057 207.285 147.228 224.455 152.798 242.024C154.482 247.332 156.031 252.695 157.494 258.058L168.676 255.762C169.995 255.334 171.416 256.037 171.876 257.346C172.335 258.656 171.665 260.092 170.366 260.582L146.388 269.531C146.388 269.531 139.372 256.427 129.567 240.961C115.198 218.27 88.6449 183.297 81.6357 190.756" stroke="#23204A" stroke-width="1.6275"/>
<path d="M95.561 94.8076C95.561 94.8076 119.074 93.1795 135.193 61.2734C135.193 61.2734 140.288 64.788 147.39 75.7824C147.39 75.7824 127.464 116.218 96.2461 126.889" stroke="#23204A" stroke-width="1.6275"/>
<path d="M93.5498 57.6484L94.9104 59.743L95.7301 61.0177C96.5616 62.9798 97.2928 64.984 97.9207 67.0224L97.9615 67.167L99.5193 73.1958C99.522 73.2025 99.522 73.2099 99.5193 73.2165C100.043 74.0893 100.765 74.8228 101.625 75.3559C101.828 75.467 102.018 75.6023 102.189 75.7589C103.125 76.7098 100.659 76.9854 100.149 77.2989C99.6917 77.6165 99.4163 78.1397 99.4105 78.701C96.4818 91.0445 98.3662 87.8028 97.1077 90.5484C98.1996 89.6114 100.914 86.6314 100.914 86.6314C101.254 86.4075 101.574 85.7357 101.795 85.4016C102.497 84.3101 103.102 83.1571 103.601 81.9565C105.153 78.3706 105.511 74.3706 104.622 70.5604C103.217 64.6384 99.9411 58.713 93.5498 57.6484L93.5498 57.6484Z" fill="url(#paint9_linear_1576_41789)"/>
<path d="M93.1154 61.1691C92.8637 62.4506 92.2575 63.6351 91.3661 64.5875C90.398 65.6486 89.271 66.5519 88.0254 67.2649C85.6815 68.664 83.0729 69.7219 81.1035 71.6103C79.1317 73.5113 77.9515 76.0909 77.8007 78.8295C77.6632 81.6344 78.6634 84.5393 79.2717 87.1651C81.1998 95.6524 80.5811 103.809 79.5157 112.351C78.5053 120.411 76.3538 128.299 72.1814 135.315C67.2598 143.585 59.1797 150.205 50.0857 153.602C42.5246 156.432 27.8319 158.94 22.2745 151.07C21.3156 148.585 21.3053 145.742 21.6765 143.065C23.8589 127.358 35.8708 111.238 50.2026 104.705C57.8806 101.204 70.4011 95.8247 66.3559 85.1251C65.0671 81.7516 63.2627 78.8398 62.919 75.3146C62.8881 74.9941 62.8572 74.6737 62.8262 74.3325C62.2488 66.0623 67.0501 58.2125 74.8244 55.38C79.9697 53.4317 85.7039 53.8087 90.5515 56.4137C91.4021 56.8678 92.1636 57.4726 92.7992 58.1987C92.8428 58.248 92.8819 58.301 92.9161 58.3572C92.9644 58.4793 93.0034 58.6049 93.033 58.7328C93.2228 59.5312 93.2509 60.3597 93.1154 61.1691Z" fill="url(#paint10_linear_1576_41789)"/>
<path d="M96.2829 123.626C100.443 122.666 104.093 119.688 105.137 115.337C106.108 111.306 104.572 107.168 102.192 103.925C99.985 100.93 95.3876 98.4172 95.7492 94.1693C95.8662 92.7923 96.5481 91.5874 97.4366 90.5203C97.7569 90.1485 98.0875 89.8043 98.4491 89.4531" stroke="#23204A" stroke-width="1.4"/>
<path d="M87.7046 90.2109L87.5118 104.266" stroke="#23204A" stroke-width="1.4"/>
<path fill-rule="evenodd" clip-rule="evenodd" d="M64.769 83.1654C63.4845 79.7918 61.6696 76.883 61.3252 73.3648C61.2908 73.0412 61.2598 72.7176 61.2357 72.3734C60.6537 64.1115 65.4681 56.2731 73.2545 53.44C78.4116 51.4954 84.1575 51.8719 89.0166 54.4727C89.8668 54.928 90.6275 55.5333 91.262 56.2594L91.4238 56.4556C92.5616 57.8454 93.0425 59.6592 92.7428 61.4299C92.4921 62.7064 91.8884 63.8871 91.0002 64.8379C90.0268 65.8999 88.8954 66.8055 87.646 67.523C85.2973 68.9206 82.687 69.9706 80.7068 71.857C78.7299 73.7615 77.5507 76.3455 77.4076 79.0861C77.2665 81.8883 78.272 84.7868 78.8713 87.4168C80.8032 95.8955 80.1868 104.04 79.1192 112.571C78.1067 120.623 75.9544 128.506 71.7667 135.515C66.8353 143.776 58.7424 150.393 49.6267 153.784C41.9023 156.661 26.7566 159.209 21.436 150.785C19.6487 147.959 19.5316 144.382 19.993 141.071C22.1798 125.383 34.2227 109.273 48.5764 102.749C56.2835 99.2106 68.8292 93.8507 64.769 83.1654Z" stroke="#23204A" stroke-width="1.4"/>
<circle cx="94.5997" cy="72.3492" r="1.4" fill="#23204A"/>
<path d="M94.172 67.9883C94.172 67.9883 89.6397 70.0315 91.0747 74.0044" stroke="#23204A" stroke-width="1.4"/>
<path d="M98.3601 89.5204C99.4958 89.1076 100.707 87.8005 101.533 86.944C102.446 85.9698 103.262 84.9087 103.97 83.776C108.035 77.2738 107.961 69.0055 103.78 62.5768C102.362 60.3892 100.473 58.4491 98.1054 57.3484C96.132 56.4191 93.9236 56.1074 91.7698 56.4541C92.9734 57.4362 94.0528 58.5613 94.9841 59.8044C96.3869 61.6445 97.369 63.7698 97.8611 66.0303C97.9368 66.4259 98.0022 66.818 98.071 67.2171C98.4152 69.3428 98.6079 71.4961 99.6506 73.2366C100.182 74.1154 100.916 74.8547 101.791 75.3933C101.997 75.5043 102.189 75.6394 102.362 75.7958C103.309 76.7452 100.814 77.0169 100.298 77.3299C98.9727 78.1039 99.4648 80.3259 99.2893 81.6124C99.0776 83.1141 98.6281 84.5724 97.9575 85.9327C97.7199 86.4161 97.4497 86.8827 97.1487 87.3293C95.7722 89.369 93.7073 90.9651 91.1125 90.9788C89.9579 90.9685 88.8161 90.7349 87.7503 90.2909C85.9221 89.5484 84.2873 88.3991 82.9702 86.9303" stroke="#23204A" stroke-width="1.4"/>
<path d="M95.8688 82.4048C95.8688 82.4048 92.7475 84.1831 91.395 80.0898" stroke="#23204A" stroke-width="1.4"/>
<path d="M140.937 68.0723L148.715 64.3161C149.426 63.9734 150.047 63.4693 150.528 62.8439L154.159 58.1349C155.028 56.9464 154.796 55.2825 153.634 54.3778C152.472 53.473 150.801 53.6546 149.861 54.788L149.196 55.5619L150.597 52.2495C150.79 51.7887 150.772 51.2671 150.55 50.8202C150.327 50.3732 149.921 50.0449 149.437 49.9208L147.225 50.2131L154.142 40.771C155.123 39.433 154.169 37.8163 152.734 37.3588C151.082 36.8325 149.554 37.9195 148.529 39.1234C144.31 44.0904 141.113 49.8348 138.143 55.6135C137.145 57.5559 136.182 59.5142 135.255 61.4886" stroke="#23204A" stroke-width="1.4" stroke-linejoin="round"/>
<path d="M147.228 50.2109C147.228 50.2109 142.716 55.8212 149.2 55.5597" stroke="#23204A" stroke-width="1.4"/>
<path d="M134.667 169.508C134.667 169.508 131.322 174.932 135.217 176.263C139.113 177.595 141.243 171.334 141.243 171.334H133.724" stroke="#23204A" stroke-width="1.4"/>
<path d="M135.864 176.422H120.351" stroke="#23204A" stroke-width="1.4"/>
<path fill-rule="evenodd" clip-rule="evenodd" d="M151.526 139.573C151.522 139.956 151.45 140.334 151.313 140.691L149.758 144.74H143.126L145.428 138.486C145.954 137.055 147.431 136.207 148.933 136.475C150.435 136.743 151.528 138.049 151.526 139.573V139.573Z" stroke="#23204A" stroke-width="1.4"/>
<path d="M119.146 144.74L115.361 154.994L121.235 138.954C121.792 137.435 123.24 136.426 124.859 136.43H148.378" stroke="#23204A" stroke-width="1.4"/>
<path d="M139.361 154.992L143.126 144.738" stroke="#23204A" stroke-width="1.4"/>
<path d="M20.0993 146.191C9.72356 174.112 14.4796 201.86 14.4796 201.86C30.1516 210.577 52.3727 209.82 68.2891 202.16C73.9192 199.442 79.9898 195.349 82.447 189.35C84.2503 184.957 86.1258 180.599 87.671 176.145" stroke="#23204A" stroke-width="1.4"/>
<path d="M11.1519 233.305H102.462" stroke="#23204A" stroke-width="1.4"/>
<path d="M91.746 155.004L90.7617 158.33" stroke="#23204A" stroke-width="1.4"/>
<path d="M25.6949 216.521C25.6949 216.521 21.6754 209.353 20.3677 204.582" stroke="#23204A" stroke-width="1.4"/>
<path fill-rule="evenodd" clip-rule="evenodd" d="M45.5355 13.9492V85.2828H18.7202C19.6035 82.4599 20.3434 79.6049 20.9399 76.7178C22.7707 67.8295 23.3145 58.6522 23.0288 49.3821C22.4954 31.5951 29.7567 21.8022 39.403 16.5909C41.365 15.5308 43.4172 14.6468 45.5355 13.9492V13.9492Z" stroke="#CCDDE2" stroke-width="1.4"/>
<path fill-rule="evenodd" clip-rule="evenodd" d="M39.4031 16.5898V76.7167H20.9297C22.7605 67.8284 23.3042 58.6511 23.0186 49.381C22.4955 31.594 29.7568 21.8079 39.4031 16.5898Z" stroke="#CCDDE2" stroke-width="1.4"/>
<defs>
<linearGradient id="paint0_linear_1576_41789" x1="304.844" y1="228.047" x2="73.2543" y2="221.266" gradientUnits="userSpaceOnUse">
<stop stop-color="#6768AB"/>
<stop offset="1" stop-color="#F73458"/>
</linearGradient>
<linearGradient id="paint1_linear_1576_41789" x1="299.505" y1="222.388" x2="77.0161" y2="215.862" gradientUnits="userSpaceOnUse">
<stop stop-color="#6768AB"/>
<stop offset="1" stop-color="#F73458"/>
</linearGradient>
<linearGradient id="paint2_linear_1576_41789" x1="162.88" y1="155.412" x2="102.016" y2="137.68" gradientUnits="userSpaceOnUse">
<stop stop-color="#6768AB"/>
<stop offset="1" stop-color="#F73458"/>
</linearGradient>
<linearGradient id="paint3_linear_1576_41789" x1="156.161" y1="154.978" x2="151.157" y2="154.823" gradientUnits="userSpaceOnUse">
<stop stop-color="#6768AB"/>
<stop offset="1" stop-color="#F73458"/>
</linearGradient>
<linearGradient id="paint4_linear_1576_41789" x1="149.145" y1="178.635" x2="110.109" y2="173.78" gradientUnits="userSpaceOnUse">
<stop stop-color="#6768AB"/>
<stop offset="1" stop-color="#F73458"/>
</linearGradient>
<linearGradient id="paint5_linear_1576_41789" x1="160.288" y1="160.04" x2="116.529" y2="157.47" gradientUnits="userSpaceOnUse">
<stop stop-color="#6768AB"/>
<stop offset="1" stop-color="#F73458"/>
</linearGradient>
<linearGradient id="paint6_linear_1576_41789" x1="153.634" y1="147.353" x2="142.708" y2="147.042" gradientUnits="userSpaceOnUse">
<stop stop-color="#6768AB"/>
<stop offset="1" stop-color="#F73458"/>
</linearGradient>
<linearGradient id="paint7_linear_1576_41789" x1="143.213" y1="178.075" x2="132.962" y2="177.631" gradientUnits="userSpaceOnUse">
<stop stop-color="#6768AB"/>
<stop offset="1" stop-color="#F73458"/>
</linearGradient>
<linearGradient id="paint8_linear_1576_41789" x1="108.463" y1="135.134" x2="86.6082" y2="134.853" gradientUnits="userSpaceOnUse">
<stop stop-color="#6768AB"/>
<stop offset="1" stop-color="#F73458"/>
</linearGradient>
<linearGradient id="paint9_linear_1576_41789" x1="108.134" y1="100.698" x2="93.1075" y2="100.55" gradientUnits="userSpaceOnUse">
<stop stop-color="#6768AB"/>
<stop offset="1" stop-color="#F73458"/>
</linearGradient>
<linearGradient id="paint10_linear_1576_41789" x1="112.046" y1="187.877" x2="18.7296" y2="186.034" gradientUnits="userSpaceOnUse">
<stop stop-color="#6768AB"/>
<stop offset="1" stop-color="#F73458"/>
</linearGradient>
</defs>
</svg>
