<svg width="35" height="35" viewBox="0 0 35 35" fill="none" xmlns="http://www.w3.org/2000/svg">
<path d="M4.375 12.375C4.375 8.60376 4.375 6.71815 5.54657 5.54657C6.71815 4.375 8.60376 4.375 12.375 4.375H22.625C26.3962 4.375 28.2819 4.375 29.4534 5.54657C30.625 6.71815 30.625 8.60376 30.625 12.375V22.625C30.625 26.3962 30.625 28.2819 29.4534 29.4534C28.2819 30.625 26.3962 30.625 22.625 30.625H12.375C8.60376 30.625 6.71815 30.625 5.54657 29.4534C4.375 28.2819 4.375 26.3962 4.375 22.625V12.375Z" stroke="url(#paint0_linear_962_42928)" stroke-width="1.5"/>
<path d="M15.8049 13.3056L15.4741 13.9787L15.4741 13.9787L15.8049 13.3056ZM20.904 15.8114L21.2348 15.1383L20.904 15.8114ZM20.904 19.1886L21.2348 19.8617L20.904 19.1886ZM15.8049 21.6944L15.4741 21.0213L15.4741 21.0213L15.8049 21.6944ZM15.4741 13.9787L20.5732 16.4845L21.2348 15.1383L16.1357 12.6325L15.4741 13.9787ZM20.5732 18.5155L15.4741 21.0213L16.1357 22.3675L21.2348 19.8617L20.5732 18.5155ZM12.375 15.3319V19.6681H13.875V15.3319H12.375ZM15.4741 21.0213C15.1184 21.1961 14.7494 21.1431 14.4416 20.9103C14.1257 20.6714 13.875 20.2346 13.875 19.6681H12.375C12.375 20.6842 12.83 21.5723 13.5369 22.1068C14.2518 22.6473 15.2228 22.8161 16.1357 22.3675L15.4741 21.0213ZM20.5732 16.4845C20.9058 16.648 21.125 17.0296 21.125 17.5C21.125 17.9704 20.9058 18.352 20.5732 18.5155L21.2348 19.8617C22.1969 19.3889 22.625 18.4001 22.625 17.5C22.625 16.5999 22.1969 15.6111 21.2348 15.1383L20.5732 16.4845ZM16.1357 12.6325C15.2228 12.1839 14.2518 12.3527 13.5369 12.8932C12.83 13.4277 12.375 14.3158 12.375 15.3319H13.875C13.875 14.7654 14.1257 14.3286 14.4416 14.0897C14.7494 13.8569 15.1183 13.8039 15.4741 13.9787L16.1357 12.6325Z" fill="url(#paint1_linear_962_42928)"/>
<defs>
<linearGradient id="paint0_linear_962_42928" x1="37.52" y1="38.7231" x2="3.39354" y2="37.7631" gradientUnits="userSpaceOnUse">
<stop stop-color="#6768AB"/>
<stop offset="1" stop-color="#F73458"/>
</linearGradient>
<linearGradient id="paint1_linear_962_42928" x1="24.1733" y1="24.5744" x2="12.7978" y2="24.2544" gradientUnits="userSpaceOnUse">
<stop stop-color="#6768AB"/>
<stop offset="1" stop-color="#F73458"/>
</linearGradient>
</defs>
</svg>
