<svg xmlns="http://www.w3.org/2000/svg" width="140" height="140" viewBox="0 0 140 140"><defs><style>.a{fill:#090909;}.b{fill:#fff;opacity:0.1;}.c{fill:#84838b;}</style></defs><g transform="translate(-60 -587)"><circle class="a" cx="70" cy="70" r="70" transform="translate(60 587)"/><g transform="translate(95 622)"><circle class="b" cx="42" cy="42" r="42" transform="translate(-7 -7)"/></g><g transform="translate(113.706 640.707)"><path class="c" d="M38.163,14.667H10.825a2.159,2.159,0,0,0-2.158,2.158v1.44a2.159,2.159,0,0,0,2.158,2.158h27.34a2.159,2.159,0,0,0,2.158-2.158v-1.44A2.16,2.16,0,0,0,38.163,14.667Z" transform="translate(-8.667 -1.717)"/><path class="c" d="M14.667,10.825v27.34a2.159,2.159,0,0,0,2.158,2.158h1.44a2.159,2.159,0,0,0,2.158-2.158V10.825a2.159,2.159,0,0,0-2.158-2.158h-1.44A2.156,2.156,0,0,0,14.667,10.825Z" transform="translate(-1.717 -8.667)"/></g></g></svg>