<svg xmlns="http://www.w3.org/2000/svg" width="62.262" height="65.455" viewBox="0 0 62.262 65.455">
  <g id="Group_13511" data-name="Group 13511" transform="translate(-8827.738 -22611.25)">
    <g id="Group_13508" data-name="Group 13508" transform="translate(8827.738 22611.25)">
      <rect id="Rectangle_993" data-name="Rectangle 993" width="62.262" height="65.454" rx="19" transform="translate(0)" fill="#84838b"/>
      <g id="Group_3231" data-name="Group 3231" transform="translate(18.397 15.125)">
        <path id="Shape_6" data-name="Shape 6" d="M697.522,251.218c-1.318,0-3.255-.979-6.424-2.643-1.7-.894-4.275-2.245-4.96-2.245-.713,0-3.41,1.314-5.2,2.183-4.806,2.341-6.889,3.212-8.158,2.41a1.708,1.708,0,0,1-.784-1.48v-26.9a5.585,5.585,0,0,1,5.532-5.623h16.3a5.585,5.585,0,0,1,5.532,5.623v26.9a1.711,1.711,0,0,1-.8,1.5A1.928,1.928,0,0,1,697.522,251.218Z" transform="translate(-672 -216.915)" fill="#fa0815" stroke="#84838b" stroke-width="1.5"/>
      </g>
    </g>
  </g>
</svg>
