<svg id="Group_2553" data-name="Group 2553" xmlns="http://www.w3.org/2000/svg" width="95" height="95" viewBox="0 0 95 95">
  <rect id="Rectangle_719" data-name="Rectangle 719" width="95" height="95" rx="14" opacity="0.7"/>
  <path id="Shape_6" data-name="Shape 6" d="M712.139,270.863c-2.073,0-5.119-1.539-10.1-4.157-2.677-1.407-6.723-3.531-7.8-3.531-1.121,0-5.363,2.067-8.171,3.434-7.558,3.682-10.835,5.051-12.831,3.791A2.686,2.686,0,0,1,672,268.072V225.758a8.783,8.783,0,0,1,8.7-8.843h25.63a8.783,8.783,0,0,1,8.7,8.843v42.313a2.69,2.69,0,0,1-1.264,2.364A3.033,3.033,0,0,1,712.139,270.863Z" transform="translate(-645.722 -195.901)" fill="#FA0815" stroke="#FA0815" stroke-width="6"/>
</svg>
