<svg xmlns="http://www.w3.org/2000/svg" width="65.511" height="65.511" viewBox="0 0 65.511 65.511"><defs><style>.a,.b{fill:#84838b;stroke:#84838b;}.b{stroke-width:2px;}</style></defs><g transform="translate(1 1)"><g transform="translate(29.295 14.734)"><path class="a" d="M249.944,141.409l-8.855-6.641V121.239a2.46,2.46,0,0,0-4.92,0V136a2.455,2.455,0,0,0,.984,1.968l9.839,7.379a2.46,2.46,0,0,0,2.952-3.936Z" transform="translate(-236.169 -118.779)"/></g><path class="b" d="M31.755,0A31.755,31.755,0,1,0,63.511,31.755,31.79,31.79,0,0,0,31.755,0Zm0,58.591A26.836,26.836,0,1,1,58.591,31.755,26.869,26.869,0,0,1,31.755,58.591Z"/></g></svg>