<svg xmlns="http://www.w3.org/2000/svg" width="40" height="40.184" viewBox="0 0 40 40.184">
  <g id="Group_3824" data-name="Group 3824" transform="translate(-69 -1022.999)">
    <g id="delete_2_" data-name="delete (2)" transform="translate(-17.081 1106.999)">
      <path id="Exclusion_1" data-name="Exclusion 1" d="M20,40.183A19.823,19.823,0,0,1,5.858,34.3a20.158,20.158,0,0,1,0-28.414,19.936,19.936,0,0,1,28.285,0,20.158,20.158,0,0,1,0,28.414A19.824,19.824,0,0,1,20,40.183Zm.009-14.966a.518.518,0,0,1,.369.154L26.183,31.2a.521.521,0,0,0,.738,0l4.148-4.166a.526.526,0,0,0,0-.741l-5.8-5.83a.526.526,0,0,1,0-.741l5.8-5.83a.527.527,0,0,0,0-.742L26.921,8.986a.519.519,0,0,0-.738,0l-5.805,5.829a.519.519,0,0,1-.738,0l-5.8-5.829a.519.519,0,0,0-.738,0L8.949,13.151a.526.526,0,0,0,0,.742l5.805,5.83a.526.526,0,0,1,0,.741l-5.805,5.83a.524.524,0,0,0,0,.741L13.1,31.2a.521.521,0,0,0,.738,0l5.8-5.829A.516.516,0,0,1,20.008,25.217Z" transform="translate(86.081 -83.999)" fill="#fff"/>
    </g>
  </g>
</svg>
