<svg width="14" height="13" viewBox="0 0 14 13" fill="none" xmlns="http://www.w3.org/2000/svg">
<path d="M1.96745 7.27149L6.60252 11.6256C6.65436 11.6744 6.68028 11.6987 6.70496 11.7168C6.88082 11.8455 7.11983 11.8455 7.29569 11.7168C7.32037 11.6987 7.34629 11.6744 7.39813 11.6256L12.0332 7.27149C13.3373 6.04641 13.4957 4.03042 12.3989 2.61673L12.1926 2.35091C10.8805 0.659735 8.24675 0.943358 7.32477 2.87512C7.19454 3.14799 6.80612 3.14799 6.67588 2.87512C5.75391 0.943358 3.12014 0.659735 1.80802 2.35091L1.60178 2.61673C0.504957 4.03042 0.663328 6.04641 1.96745 7.27149Z" stroke="black" stroke-width="1.5"/>
</svg>
