<svg xmlns="http://www.w3.org/2000/svg" width="68" height="68" viewBox="0 0 68 68">
  <g id="Group_13323" data-name="Group 13323" transform="translate(-1073.979 -576.979)">
    <rect id="Rectangle_3984" data-name="Rectangle 3984" width="68" height="68" rx="20" transform="translate(1073.979 576.979)" fill="#84838b" opacity="0.7"/>
    <g id="flag" transform="translate(1092.122 592.857)">
      <g id="Group_13201" data-name="Group 13201" transform="translate(0)">
        <path id="Path_35273" data-name="Path 35273" d="M63.008,2.442a1.135,1.135,0,0,0-1.049-.11c-.077.032-7.492,2.966-13.725.027C42.883-.169,36.989,1.013,34.25,1.812V1.125a1.125,1.125,0,1,0-2.25,0V34.881a1.125,1.125,0,1,0,2.25,0V22.173c1.994-.65,7.9-2.2,13.023.223a16.992,16.992,0,0,0,7.289,1.533A24.033,24.033,0,0,0,62.8,22.423a1.129,1.129,0,0,0,.7-1.044v-18A1.131,1.131,0,0,0,63.008,2.442Zm-1.753,18.14c-2.005.65-7.912,2.19-13.023-.223-5.349-2.525-11.243-1.343-13.982-.545V4.172c1.994-.65,7.9-2.2,13.023.223,5.345,2.523,11.243,1.343,13.982.542Z" transform="translate(-32)"/>
      </g>
    </g>
  </g>
</svg>
