<svg xmlns="http://www.w3.org/2000/svg" width="125.49" height="112.549" viewBox="0 0 125.49 112.549">
  <g id="upload-big-arrow" transform="translate(0 -23.714)" opacity="0.2">
    <g id="Group_3150" data-name="Group 3150" transform="translate(28.495 23.714)">
      <path id="Path_2974" data-name="Path 2974" d="M109.624,63.16h12.7v37.674a6.918,6.918,0,0,0,6.918,6.918h18.882a6.918,6.918,0,0,0,6.918-6.918V63.16h12.7a5.193,5.193,0,0,0,3.672-8.869L142.354,25.232a5.206,5.206,0,0,0-7.35,0l-29.05,29.058a5.2,5.2,0,0,0,3.671,8.869Z" transform="translate(-104.431 -23.714)"/>
    </g>
    <g id="Group_3151" data-name="Group 3151" transform="translate(0 77.281)">
      <path id="Path_2975" data-name="Path 2975" d="M119.251,220.029a6.238,6.238,0,0,0-6.235,6.24v26.09a14.193,14.193,0,0,1-14.178,14.174H26.653a14.189,14.189,0,0,1-14.174-14.174v-26.09a6.24,6.24,0,1,0-12.479,0v26.09a26.683,26.683,0,0,0,26.653,26.653H98.837a26.684,26.684,0,0,0,26.653-26.653v-26.09A6.239,6.239,0,0,0,119.251,220.029Z" transform="translate(0 -220.029)"/>
    </g>
  </g>
</svg>
