<svg width="26" height="26" viewBox="0 0 26 26" fill="none" xmlns="http://www.w3.org/2000/svg">
<path d="M21.6667 12.3335C21.6667 8.56226 21.6667 6.67664 20.4951 5.50507C19.3236 4.3335 17.4379 4.3335 13.6667 4.3335H12.3334C8.56214 4.3335 6.67652 4.3335 5.50495 5.50507C4.33337 6.67664 4.33337 8.56226 4.33337 12.3335V19.6668C4.33337 20.6096 4.33337 21.081 4.62627 21.3739C4.91916 21.6668 5.39056 21.6668 6.33337 21.6668H13.6667C17.4379 21.6668 19.3236 21.6668 20.4951 20.4953C21.6667 19.3237 21.6667 17.4381 21.6667 13.6668V12.3335Z" stroke="#23204A" stroke-width="1.5"/>
<path d="M9.75 10.8335L16.25 10.8335" stroke="#23204A" stroke-width="1.5" stroke-linecap="round" stroke-linejoin="round"/>
<path d="M9.75 15.1665H13" stroke="#23204A" stroke-width="1.5" stroke-linecap="round" stroke-linejoin="round"/>
</svg>
