<svg xmlns="http://www.w3.org/2000/svg" xmlns:xlink="http://www.w3.org/1999/xlink" width="84.066" height="84.066" viewBox="0 0 84.066 84.066"><defs><style>.a,.d{fill:#fff;}.a{stroke:#707070;}.b{clip-path:url(#a);}.c{fill:#3b5999;}</style><clipPath id="a"><rect class="a" width="84.066" height="84.066" rx="42"/></clipPath></defs><g class="b"><g transform="translate(0.418 0.174)"><path class="c" d="M72.875,0H10.411A10.419,10.419,0,0,0,0,10.411V72.875A10.421,10.421,0,0,0,10.411,83.285H72.875A10.423,10.423,0,0,0,83.285,72.875V10.411A10.421,10.421,0,0,0,72.875,0Z"/><path class="d" d="M35.027,30.527V20.116c0-2.873,2.332-2.6,5.205-2.6h5.205V4.5H35.027A15.613,15.613,0,0,0,19.411,20.116V30.527H9V43.54H19.411V72.169H35.027V43.54h7.808L48.04,30.527Z" transform="translate(13.122 12.232)"/></g></g></svg>