<svg width="17" height="18" viewBox="0 0 17 18" fill="none" xmlns="http://www.w3.org/2000/svg">
<path d="M8.5 0.5C3.8165 0.5 0 4.3165 0 9C0 13.6835 3.8165 17.5 8.5 17.5C13.1835 17.5 17 13.6835 17 9C17 4.3165 13.1835 0.5 8.5 0.5ZM11.356 10.955C11.6025 11.2015 11.6025 11.6095 11.356 11.856C11.2285 11.9835 11.067 12.043 10.9055 12.043C10.744 12.043 10.5825 11.9835 10.455 11.856L8.5 9.901L6.545 11.856C6.4175 11.9835 6.256 12.043 6.0945 12.043C5.933 12.043 5.7715 11.9835 5.644 11.856C5.3975 11.6095 5.3975 11.2015 5.644 10.955L7.599 9L5.644 7.045C5.3975 6.7985 5.3975 6.3905 5.644 6.144C5.8905 5.8975 6.2985 5.8975 6.545 6.144L8.5 8.099L10.455 6.144C10.7015 5.8975 11.1095 5.8975 11.356 6.144C11.6025 6.3905 11.6025 6.7985 11.356 7.045L9.401 9L11.356 10.955Z" fill="#23204A"/>
</svg>
