<svg xmlns="http://www.w3.org/2000/svg" width="215.467" height="238.786" viewBox="0 0 215.467 238.786"><defs><style>.a{fill:#212123;}</style></defs><g transform="translate(-25)"><path class="a" d="M276.161,81H259.838V237.237a21.011,21.011,0,0,1-20.987,20.987H105v16.79a7,7,0,0,0,7,7H276.161a7,7,0,0,0,7-7V88A7,7,0,0,0,276.161,81Z" transform="translate(-42.69 -43.223)"/><path class="a" d="M203.156,194.013V7a7,7,0,0,0-7-7H32a7,7,0,0,0-7,7V194.013a7,7,0,0,0,7,7H196.161A7,7,0,0,0,203.156,194.013ZM54.848,67.158a7,7,0,0,1,7-7h37.31a7,7,0,0,1,7,7v67.158a7,7,0,0,1-7,7H61.844a7,7,0,0,1-7-7Zm111.464,104H61.844a7,7,0,0,1,0-13.991H166.313a7,7,0,0,1,0,13.991Zm0-29.848H129a7,7,0,0,1,0-13.991h37.31a7,7,0,0,1,0,13.991Zm0-33.579H129a7,7,0,0,1,0-13.991h37.31a7,7,0,0,1,0,13.991Zm0-29.848H129a7,7,0,0,1,0-13.991h37.31a7,7,0,0,1,0,13.991Zm0-33.579H61.844a7,7,0,0,1,0-13.991H166.313a7,7,0,0,1,0,13.991Z"/><path class="a" d="M119,159h23.319v53.167H119Z" transform="translate(-50.16 -84.846)"/></g></svg>