<svg xmlns="http://www.w3.org/2000/svg" width="53.961" height="53.295" viewBox="0 0 53.961 53.295">
  <g id="Group_14780" data-name="Group 14780" transform="translate(1158 -56.09)">
    <path id="Rounded_Rectangle_5" data-name="Rounded Rectangle 5" d="M47.243,52.263l-8.1-8.1c-1.3-1.3-.143-2.689,1.428-4.26s2.956-2.73,4.26-1.428l8.1,8.106a4.17,4.17,0,0,1-.094,5.594,4.011,4.011,0,0,1-2.853,1.124A3.912,3.912,0,0,1,47.243,52.263ZM6.448,37.576A22.011,22.011,0,1,1,37.576,6.448,22.011,22.011,0,1,1,6.448,37.576Zm.01-15.564A15.555,15.555,0,1,0,22.012,6.456,15.573,15.573,0,0,0,6.457,22.012Z" transform="translate(-1158 56.089)" fill="#84838b"/>
  </g>
</svg>
