<svg xmlns="http://www.w3.org/2000/svg" width="456.248" height="456.265" viewBox="0 0 456.248 456.265"><defs><style>.a{fill:#e01335;opacity:0.5;}.b{opacity:0.2;}.c{fill:#d0cde1;}.d{fill:#01232b;}</style></defs><path class="a" d="M718.247,340.124a227.347,227.347,0,0,1-18.371,89.832l-.756,1.741A228.5,228.5,0,0,1,450.54,564.826q-2.055-.364-4.1-.756A226.085,226.085,0,0,1,405.171,551.9q-3.25-1.306-6.452-2.706c-1.458-.634-2.916-1.289-4.36-1.964A228.4,228.4,0,0,1,262,340.124C262,214.136,364.136,112,490.124,112S718.247,214.136,718.247,340.124Z" transform="translate(-262 -112)"/><path class="b" d="M494.714,635.156q-2.055-.364-4.1-.756c-.891-25.856-3.948-78.925-14.376-134.505-5.7-30.419-13.62-61.6-24.6-89.474a278.474,278.474,0,0,0-12.871-28.239c-11.1-20.956-24.554-38.6-40.873-50.552l2.4-3.28q20.359,14.923,36.594,41.9,4.87,8.079,9.354,17.238,4.809,9.8,9.172,20.808,2.784,7.006,5.379,14.5Q472.091,455.32,480,497.02q1.751,9.213,3.334,18.878A957.163,957.163,0,0,1,494.714,635.156Z" transform="translate(-306.175 -182.331)"/><path class="b" d="M444.087,706.109c-1.458-.634-2.916-1.289-4.36-1.964-1.411-15.321-4-34.327-8.74-52.367a171.807,171.807,0,0,0-7.971-23.757c-5.406-12.655-12.405-23.413-21.456-30.048l2.4-3.273c9.476,6.938,16.785,17.906,22.434,30.736,6.365,14.457,10.61,31.283,13.438,47.359C441.934,684.735,443.257,696.269,444.087,706.109Z" transform="translate(-307.368 -268.915)"/><circle class="b" cx="20.307" cy="20.307" r="20.307" transform="translate(48.711 108.591)"/><circle class="b" cx="20.307" cy="20.307" r="20.307" transform="translate(55.251 283.401)"/><path class="b" d="M483.175,333.442c-4.306,24.3,5.2,46.294,5.2,46.294s16.488-17.392,20.794-41.687-5.2-46.294-5.2-46.294S487.482,309.147,483.175,333.442Z" transform="translate(-333.535 -170.434)"/><path class="b" d="M365.676,424.826c23.173,8.474,46.46,3.036,46.46,3.036s-14.285-19.176-37.459-27.65-46.459-3.036-46.459-3.036S342.5,416.352,365.676,424.826Z" transform="translate(-283.526 -204.146)"/><path class="b" d="M365.26,658.37c16.243,5.939,32.587,2.065,32.587,2.065s-9.99-13.5-26.232-19.443-32.587-2.065-32.587-2.065S349.017,652.431,365.26,658.37Z" transform="translate(-287.04 -282.888)"/><circle class="c" cx="88.935" cy="88.935" r="88.935" transform="translate(138.721 100.772)"/><path class="c" d="M547.833,480.579s11.117,52.8,11.117,58.363,52.8,30.571,52.8,30.571L659,561.176l16.675-50.026s-27.792-41.688-27.792-58.363Z" transform="translate(-354.918 -222.782)"/><path class="d" d="M740.589,561.7l-.756,1.741A228.5,228.5,0,0,1,491.252,696.573q-2.055-.364-4.1-.756a226.083,226.083,0,0,1-41.265-12.169q-3.25-1.306-6.452-2.706c-1.458-.634-2.916-1.289-4.36-1.964a227.855,227.855,0,0,1-37.289-21.786L387.24,626.611l5.926-4.522,12.189-9.307,13.006-9.928,3.381-2.585,51.031-38.956,3.766-2.875,26.524-20.248.007-.007s28.684,46.738,70.374,32.842,40.779-53.744,40.779-53.744Z" transform="translate(-302.713 -243.747)"/><path class="d" d="M474.961,263.23s28.236-61.179,82.356-47.061,84.709,35.3,87.062,56.473-1.176,52.943-1.176,52.943-5.883-43.531-43.531-34.119S503.2,293.82,503.2,293.82l-9.412,84.71s-10.589-15.295-22.354-5.883S437.312,282.055,474.961,263.23Z" transform="translate(-324.429 -145.176)"/><path class="d" d="M440.449,736.308Q437.2,735,434,733.6c-1.458-.634-2.916-1.289-4.36-1.964a228.688,228.688,0,0,1-59.116-39.618A79.971,79.971,0,0,1,381.8,679.27h41.69l6.25,21.017Z" transform="translate(-297.277 -296.407)"/><path class="d" d="M855.444,576.32l35.764,6.317A228.086,228.086,0,0,1,852.9,642.415Z" transform="translate(-454.088 -262.94)"/></svg>