<svg width="30" height="30" viewBox="0 0 30 30" fill="none" xmlns="http://www.w3.org/2000/svg">
<path d="M14.5996 6.96203L15 7.49715L15.4004 6.96203C16.5729 5.39473 18.4524 4.375 20.55 4.375C24.109 4.375 27 7.2738 27 10.8625C27 12.2956 26.7714 13.6187 26.3743 14.8461L26.3732 14.8493C25.4215 17.861 23.4729 20.284 21.3757 22.0864C19.2763 23.8907 17.0567 25.0483 15.6139 25.5391L15.6139 25.5391L15.6086 25.541C15.4662 25.5912 15.2455 25.625 15 25.625C14.7545 25.625 14.5338 25.5912 14.3914 25.541L14.3914 25.541L14.3861 25.5391C12.9433 25.0483 10.7237 23.8907 8.62433 22.0864C6.52712 20.284 4.57846 17.861 3.62676 14.8493L3.62677 14.8493L3.62572 14.8461C3.22864 13.6187 3 12.2956 3 10.8625C3 7.2738 5.89098 4.375 9.45 4.375C11.5476 4.375 13.4271 5.39473 14.5996 6.96203Z" fill="white" stroke="white"/>
</svg>
