<svg width="73" height="73" viewBox="0 0 73 73" fill="none" xmlns="http://www.w3.org/2000/svg">
<path d="M36.75 65.0479C35.82 65.0479 34.92 64.928 34.17 64.658C22.71 60.728 4.5 46.7779 4.5 26.1679C4.5 15.6679 12.99 7.14795 23.43 7.14795C28.5 7.14795 33.24 9.12795 36.75 12.6679C40.26 9.12795 45 7.14795 50.07 7.14795C60.51 7.14795 69 15.6979 69 26.1679C69 46.8079 50.79 60.728 39.33 64.658C38.58 64.928 37.68 65.0479 36.75 65.0479ZM23.43 11.6479C15.48 11.6479 9 18.1579 9 26.1679C9 46.6579 28.71 58.0579 35.64 60.4279C36.18 60.6079 37.35 60.6079 37.89 60.4279C44.79 58.0579 64.53 46.688 64.53 26.1679C64.53 18.1579 58.05 11.6479 50.1 11.6479C45.54 11.6479 41.31 13.7779 38.58 17.4679C37.74 18.6079 35.82 18.6079 34.98 17.4679C32.19 13.7479 27.99 11.6479 23.43 11.6479Z" fill="white"/>
</svg>
