<svg id="remove" xmlns="http://www.w3.org/2000/svg" width="43.676" height="43.676" viewBox="0 0 43.676 43.676">
  <path id="Path_35682" data-name="Path 35682" d="M21.838,0A21.838,21.838,0,1,0,43.676,21.838,21.862,21.862,0,0,0,21.838,0Zm0,0" fill="#e01335"/>
  <path id="Path_35683" data-name="Path 35683" d="M172.089,169.515a1.82,1.82,0,1,1-2.573,2.573l-5.468-5.469-5.468,5.469A1.82,1.82,0,1,1,156,169.515l5.469-5.468L156,158.578A1.82,1.82,0,0,1,158.578,156l5.468,5.469L169.515,156a1.82,1.82,0,0,1,2.573,2.573l-5.469,5.468Zm0,0" transform="translate(-142.209 -142.209)" fill="#fafafa"/>
</svg>
