<svg width="18" height="18" viewBox="0 0 18 18" fill="none" xmlns="http://www.w3.org/2000/svg">
<path d="M9 0.5C4.3165 0.5 0.5 4.3165 0.5 9C0.5 13.6835 4.3165 17.5 9 17.5C13.6835 17.5 17.5 13.6835 17.5 9C17.5 4.3165 13.6835 0.5 9 0.5ZM11.856 10.955C12.1025 11.2015 12.1025 11.6095 11.856 11.856C11.7285 11.9835 11.567 12.043 11.4055 12.043C11.244 12.043 11.0825 11.9835 10.955 11.856L9 9.901L7.045 11.856C6.9175 11.9835 6.756 12.043 6.5945 12.043C6.433 12.043 6.2715 11.9835 6.144 11.856C5.8975 11.6095 5.8975 11.2015 6.144 10.955L8.099 9L6.144 7.045C5.8975 6.7985 5.8975 6.3905 6.144 6.144C6.3905 5.8975 6.7985 5.8975 7.045 6.144L9 8.099L10.955 6.144C11.2015 5.8975 11.6095 5.8975 11.856 6.144C12.1025 6.3905 12.1025 6.7985 11.856 7.045L9.901 9L11.856 10.955Z" fill="#23204A"/>
</svg>
