<svg xmlns="http://www.w3.org/2000/svg" width="137" height="137" viewBox="0 0 137 137"><defs><style>.a,.b{fill:#fff;}.a{opacity:0.08;}</style></defs><g transform="translate(-781 -1205)"><circle class="a" cx="68.5" cy="68.5" r="68.5" transform="translate(781 1205)"/><g transform="translate(822.909 1251.464)"><g transform="translate(0 0)"><g transform="translate(0 0)"><circle class="b" cx="10.969" cy="10.969" r="10.969" transform="translate(15.357 13.163)"/><path class="b" d="M48.265,49.249H41.307a3.273,3.273,0,0,1-2.328-.964l-4.011-4.011a5.45,5.45,0,0,0-3.879-1.607H21.562a5.45,5.45,0,0,0-3.879,1.607l-4.011,4.011a3.273,3.273,0,0,1-2.328.964H4.388A4.392,4.392,0,0,0,0,53.636v28.52a4.392,4.392,0,0,0,4.388,4.388H48.265a4.392,4.392,0,0,0,4.388-4.388V53.636A4.392,4.392,0,0,0,48.265,49.249ZM26.326,79.962A13.163,13.163,0,1,1,39.489,66.8,13.178,13.178,0,0,1,26.326,79.962ZM43.877,60.218a2.194,2.194,0,1,1,2.194-2.194A2.2,2.2,0,0,1,43.877,60.218Z" transform="translate(0 -42.667)"/></g></g></g></g></svg>