<svg xmlns="http://www.w3.org/2000/svg" width="36.607" height="32.832" viewBox="0 0 36.607 32.832"><defs><style>.a{fill:#fa0815;}</style></defs><g transform="translate(8.312 0)"><path class="a" d="M105.946,35.221h3.7v10.99a2.018,2.018,0,0,0,2.018,2.018h5.508a2.018,2.018,0,0,0,2.018-2.018V35.221h3.7a1.515,1.515,0,0,0,1.071-2.587l-8.476-8.477a1.519,1.519,0,0,0-2.144,0l-8.474,8.477a1.516,1.516,0,0,0,1.071,2.587Z" transform="translate(-104.431 -23.714)"/></g><g transform="translate(0 15.626)"><path class="a" d="M34.787,220.029a1.82,1.82,0,0,0-1.819,1.82v7.611a4.14,4.14,0,0,1-4.136,4.135H7.775A4.139,4.139,0,0,1,3.64,229.46v-7.611a1.82,1.82,0,1,0-3.64,0v7.611a7.784,7.784,0,0,0,7.775,7.775H28.832a7.784,7.784,0,0,0,7.775-7.775v-7.611A1.82,1.82,0,0,0,34.787,220.029Z" transform="translate(0 -220.029)"/></g></svg>