<svg width="300" height="300" viewBox="0 0 300 300" fill="none" xmlns="http://www.w3.org/2000/svg">
<path d="M64.7018 115.602C63.8786 116.978 62.1558 117.56 60.674 117.857C58.7807 118.245 56.8226 118.348 54.9057 118.518L53.7915 118.792C53.3656 118.923 53.0095 119.219 52.8021 119.613C52.5946 120.008 52.5529 120.469 52.686 120.894C53.3755 123.266 54.3239 125.556 55.5143 127.721L53.7503 129.485C53.2505 128.808 53.227 127.624 52.5567 127.738C51.9128 127.094 51.1484 126.78 50.3576 127.641C48.8111 129.332 49.061 132.845 51.3336 133.815L50.825 136.347C50.4633 138.171 48.8634 139.487 47.003 139.489L47.394 136.494C44.748 137.831 41.7463 134.938 41.955 132.554C42.0903 130.919 41.7198 129.79 40.5115 128.606C40.4321 128.526 40.9172 128.232 40.8437 128.153C40.5027 127.121 40.4556 125.915 40.7937 125.233C41.3817 124.016 43.1134 123.305 42.3167 121.976C41.9669 121.397 41.7119 120.766 41.5611 120.106C41.2374 118.337 41.6952 116.514 42.8165 115.108C43.9925 113.697 45.9035 114.076 47.4646 113.576C49.3668 112.988 50.2458 110.951 52.2362 110.322C53.227 110.007 54.1443 110.151 55.1351 110.378C55.973 110.572 56.802 110.789 57.6252 111.048C58.4484 111.307 59.1717 111.521 59.9772 111.28C61.0415 110.986 61.8618 109.992 63.0231 109.984C63.6025 109.97 64.1697 110.151 64.6342 110.498C65.4927 112.042 65.4986 114.282 64.7018 115.602Z" fill="url(#paint0_linear_546_122094)"/>
<path d="M28.3164 155.41C28.3164 155.41 -3.69142 120.106 43.4456 102.49C46.1789 101.487 49.0277 100.834 51.9246 100.544C59.448 99.7438 76.0796 96.9009 77.9965 87.2988" stroke="#CCDDE2" stroke-width="1.28544"/>
<path d="M162.68 105.988V105.98" stroke="#CCDDE2" stroke-width="1.28544"/>
<path d="M78.6963 169.554V169.545" stroke="#23204A" stroke-width="1.28544"/>
<path d="M53.6711 129.25C53.3578 128.709 52.985 128.204 52.5598 127.745C51.9159 127.101 51.1515 126.786 50.3606 127.648C48.8142 129.338 49.0641 132.852 51.3367 133.822L50.8281 136.353C50.4664 138.178 48.8665 139.494 47.0061 139.496" stroke="#23204A" stroke-width="1.28544" stroke-linecap="round" stroke-linejoin="round"/>
<path d="M45.583 150.697C45.7124 149.715 46.0328 147.137 46.3415 144.679C46.6355 142.401 46.8972 140.207 47.0001 139.484L47.394 136.494" stroke="#23204A" stroke-width="1.28544" stroke-linecap="round" stroke-linejoin="round"/>
<path d="M63.7347 121.236C63.7347 121.236 59.9803 121.421 59.2542 124.529" stroke="#23204A" stroke-width="1.28544"/>
<path d="M65.0989 129.447C66.122 129.421 67.4509 129.271 67.9331 128.233L65.3459 125.378C64.7148 124.679 64.3414 123.785 64.2875 122.844C64.1846 121.265 64.3698 118.76 62.8586 117.093" stroke="#23204A" stroke-width="1.28544"/>
<ellipse rx="1.14366" ry="0.970199" transform="matrix(0.670557 -0.741858 0.74186 0.670555 62.1666 124.844)" fill="#23204A"/>
<path d="M62.6321 148.198L60.6829 138.749" stroke="#23204A" stroke-width="1.32079"/>
<path d="M112.045 190.725L99.482 200.997C114.597 224.047 103.157 228.278 103.157 228.278C100.938 228.702 98.6972 229.004 96.445 229.18C85.5199 229.968 74.3126 227.149 65.3074 220.834C47.0794 208.045 31.2034 182.449 39.6706 160.164C40.3831 158.279 41.2535 156.457 42.2725 154.719C43.1506 153.208 44.2687 151.849 45.583 150.697C50.2814 146.584 56.9547 145.607 62.635 148.201C63.6996 148.687 64.7064 149.29 65.6367 150C70.3966 153.643 74.7242 158.82 78.4551 164.253C81.7678 169.167 84.7487 174.296 87.378 179.606C88.1042 181.055 88.7627 182.425 89.3449 183.681C94.6222 181.546 99.0469 177.921 103.163 174.005C98.1854 183.296 112.045 190.725 112.045 190.725Z" fill="#353642"/>
<path d="M103.254 198.24C103.013 198.425 102.763 198.619 102.513 198.804" stroke="#23204A" stroke-width="1.32079"/>
<path d="M66.113 159.188C69.445 165.567 72.777 171.959 76.109 178.362C78.6227 183.196 82.871 186.18 88.8539 183.889C95.3631 181.396 100.614 176.631 105.471 171.774C110.328 166.917 115.249 162.272 122.261 161.019C131.325 159.399 139.901 164.338 146.075 170.58C147.053 171.56 147.23 173.083 146.501 174.261C146.042 175.001 145.284 175.505 144.423 175.641C143.563 175.777 142.686 175.532 142.021 174.969C139.096 172.473 134.336 168.863 131.025 168.816" stroke="#23204A" stroke-width="1.32079"/>
<path d="M121.994 177.38C123.011 178.06 124.422 178.812 125.598 178.812" stroke="#23204A" stroke-width="1.32079"/>
<path d="M135.03 170.054C137.199 171.127 137.99 174.267 136.458 176.142C134.516 178.552 132.083 180.521 129.32 181.917C126.298 183.425 124.357 182.505 121.382 180.664" stroke="#23204A" stroke-width="1.32079"/>
<path d="M130.008 172.867C130.008 172.867 134.306 173.931 134.192 178.103C134.184 178.281 134.152 178.457 134.098 178.627" stroke="#23204A" stroke-width="1.32079"/>
<path d="M126.971 175.496C126.971 175.496 132.736 179.221 129.993 181.564" stroke="#23204A" stroke-width="1.32079"/>
<path d="M238.341 190.096C231.55 208.762 212.537 209.288 210.361 209.288C211.273 207.368 211.52 203.996 209.523 198.087C212.263 194.086 212.208 188.799 209.385 184.857C209.412 184.833 209.426 184.801 209.45 184.777C210.401 184.719 211.344 184.577 212.269 184.351C215.55 183.569 222.018 181.852 227.152 179.435C230.633 177.792 234.693 180.426 234.396 184.269C234.396 184.319 234.396 184.366 234.378 184.422C235.758 184.421 237.05 185.094 237.84 186.225C238.63 187.356 238.817 188.801 238.341 190.096Z" fill="url(#paint1_linear_546_122094)"/>
<path d="M151.191 233.875C148.904 237.8 145.343 241.143 141.903 244.059C129.794 254.308 113.973 259.512 98.0974 259.715C82.1685 259.512 66.2896 254.291 54.1238 244.133C15.6833 212.034 22.6306 174.134 28.8487 156.585C29.0677 155.979 29.3641 155.402 29.7307 154.871C30.714 153.433 32.2652 152.483 33.9937 152.261C37.2571 152.711 40.2206 155.418 39.6973 159.611C39.6973 159.772 39.6326 159.996 39.6179 160.158C31.1566 182.443 47.0384 208.038 65.2547 220.827C73.519 226.628 83.6385 229.48 93.6933 229.295H93.808C94.6704 229.277 95.5318 229.237 96.3922 229.174C102.04 228.762 107.529 227.41 112.965 225.773C119.345 223.864 125.654 221.551 132.028 219.931C134.268 219.36 136.514 218.811 138.772 218.296C140.075 218.029 141.408 217.937 142.735 218.023C150.565 218.552 156.065 225.514 151.191 233.875Z" fill="#D7E8F0"/>
<path d="M153.125 233.875C150.838 237.8 147.275 241.143 143.835 244.059C131.243 254.726 114.629 259.935 98.0886 259.715C82.1597 259.512 66.2807 254.291 54.115 244.133C15.6833 212.034 22.6306 174.134 28.8487 156.585C29.0677 155.979 29.3641 155.402 29.7307 154.871C30.714 153.433 32.2652 152.483 33.9937 152.261C37.2571 152.711 40.2206 155.418 39.6973 159.611C39.6973 159.772 39.6326 159.996 39.6179 160.158C31.1566 182.443 47.0384 208.038 65.2547 220.827C73.519 226.628 83.6385 229.48 93.6933 229.295H93.808C95.323 229.318 96.8293 229.278 98.3267 229.174C103.974 228.762 109.461 227.41 114.9 225.773C121.279 223.864 127.589 221.551 133.962 219.931C136.2 219.36 138.449 218.811 140.704 218.296C141.374 218.159 142.053 218.068 142.735 218.023C151.538 217.432 158.394 224.838 153.125 233.875Z" fill="#D7E8F0"/>
<path d="M100.743 259.662L104.612 265.136C104.612 265.136 128.023 266.048 140.836 276.802C143.206 278.793 141.789 282.659 138.696 282.659C137.92 282.661 137.169 282.388 136.576 281.888C133.551 279.348 121.994 271.363 95.8511 271.122C70.3789 270.884 60.6093 278.766 57.9074 281.638C57.2846 282.294 56.4186 282.663 55.5143 282.659H55.0115C51.8363 282.659 50.4928 278.648 53.0006 276.702C63.6963 268.385 87.672 265.733 87.672 265.733L91.7645 259.559" fill="#353642"/>
<path d="M204.352 229.307C204.352 229.307 211.523 236.119 209.285 257.237C209.122 258.744 208.598 260.191 207.756 261.453L206.977 262.629C205.7 264.542 203.773 265.929 201.553 266.533C196.87 267.812 188.373 270.775 183.125 276.391C180.908 278.769 182.558 282.644 185.809 282.644C187.041 282.647 188.192 282.034 188.876 281.009C191.013 277.793 197.484 270.963 213.093 271.108C230.697 271.269 237.789 278.269 240.061 281.286C240.698 282.139 241.699 282.642 242.763 282.644C244.108 282.641 245.323 281.842 245.858 280.609C246.393 279.375 246.146 277.942 245.23 276.958C238.365 269.499 229.968 266.718 225.335 265.686C223.007 265.184 220.95 263.831 219.569 261.891C218.512 260.394 217.911 258.624 217.838 256.793C217.579 250.245 217.444 234.352 221.88 229.313" fill="#353642"/>
<path d="M113.024 225.782C125.633 219.66 139.319 215.644 152.775 211.864C166.317 208.059 179.991 204.74 193.706 201.621C199.186 200.377 204.716 199.269 210.17 197.866" stroke="#23204A" stroke-width="1.28544"/>
<path d="M124.854 178.727H124.863H124.869" stroke="#23204A" stroke-width="1.28544"/>
<path d="M123.44 177.93C122.649 178.712 119.827 182.89 119.118 183.639C115.226 187.811 111.091 191.75 106.735 195.435C105.638 196.346 104.477 197.287 103.254 198.239C103.013 198.425 102.763 198.619 102.513 198.804C94.2223 205.096 83.4031 211.152 73.4071 207.271C73.1425 207.174 72.8838 207.062 72.628 206.948C57.2959 200.083 46.5796 182.89 45.6447 166.293C45.6124 165.752 45.5947 165.214 45.5889 164.682C45.5065 160.146 46.1769 155.609 50.5281 153.216" stroke="#23204A" stroke-width="1.28544"/>
<path d="M39.6942 160.099L39.7559 159.617C40.732 151.791 29.6188 149.151 26.9816 156.586C20.7665 174.132 13.8163 212.023 52.2656 244.127C77.0822 264.857 117.26 265.001 141.983 244.06C145.422 241.146 148.983 237.798 151.273 233.873C157.068 223.947 148.218 215.989 138.237 218.432" stroke="#23204A" stroke-width="1.28544"/>
<path d="M100.743 259.662L104.612 265.137C104.612 265.137 128.023 266.048 140.836 276.803C143.206 278.793 141.789 282.659 138.696 282.659C137.92 282.662 137.169 282.389 136.576 281.889C133.551 279.349 121.994 271.364 95.8511 271.123C70.3789 270.884 60.6093 278.767 57.9074 281.639C57.2846 282.295 56.4186 282.664 55.5143 282.659H55.0115C51.8363 282.659 50.4928 278.649 53.0006 276.703C63.6963 268.385 87.672 265.734 87.672 265.734L91.7645 259.56" stroke="#23204A" stroke-width="1.28544"/>
<path d="M87.6721 179.135C97.4858 176.489 101.528 162.645 103.157 153.337" stroke="#23204A" stroke-width="1.28544"/>
<path d="M78.4463 164.262C83.9899 163.536 88.7584 159.983 91.0383 154.878C91.514 153.865 91.4813 152.687 90.9501 151.702C89.88 149.721 88.2835 147.425 88.6628 145.049C88.9362 143.373 90.3151 142.194 91.8968 141.815C92.6986 141.605 93.5427 141.619 94.337 141.856C95.3009 142.13 96.091 142.821 96.4891 143.741C96.8742 144.643 96.4156 145.537 95.707 146.125C94.9985 146.713 94.1694 146.922 93.3051 147.157C93.1933 147.189 92.8876 147.254 92.5495 147.319" stroke="#23204A" stroke-width="1.28544"/>
<path d="M210.158 197.861C210.158 197.861 229.504 193.809 233.137 187.973C233.819 186.909 234.243 185.701 234.378 184.445" stroke="#23204A" stroke-width="1.28544"/>
<path d="M114.967 187.894C148.709 184.31 186.794 184.839 186.794 184.839H208.168C209.549 184.841 210.926 184.679 212.269 184.357C215.55 183.575 222.018 181.861 227.151 179.441C230.632 177.798 234.693 180.432 234.396 184.277C234.396 184.325 234.396 184.375 234.378 184.43C235.754 184.431 237.044 185.102 237.833 186.23C238.623 187.358 238.812 188.8 238.341 190.093C231.132 209.905 210.158 209.285 210.158 209.285C207.477 209.365 204.802 209.47 202.117 209.609C178.471 210.758 155.033 214.077 132.09 219.937C125.716 221.557 119.406 223.868 113.027 225.779C107.588 227.422 102.093 228.766 96.445 229.177C85.5199 229.968 74.3127 227.146 65.3074 220.831C45.583 206.989 28.6074 178.13 42.2725 154.704C47.0971 146.437 58.0221 144.173 65.6367 150C76.3765 158.217 84.9555 174.226 89.3566 183.669" stroke="#23204A" stroke-width="1.28544"/>
<path d="M237.894 229.307H190.937" stroke="#23204A" stroke-width="1.28544"/>
<path d="M181.458 219.822C181.473 214.59 185.71 210.351 190.942 210.335H237.906C243.14 210.349 247.379 214.589 247.393 219.822" stroke="#23204A" stroke-width="1.28544"/>
<path d="M248.317 223.186C248.321 224.811 247.678 226.371 246.528 227.52C245.378 228.669 243.818 229.312 242.193 229.307H186.627C183.733 229.033 181.592 226.493 181.811 223.595C182.031 220.696 184.53 218.508 187.432 218.673H242.998C245 218.67 246.877 219.648 248.02 221.292C248.216 221.904 248.317 222.543 248.317 223.186Z" fill="#D7E8F0"/>
<path fill-rule="evenodd" clip-rule="evenodd" d="M248.317 223.186C248.322 224.811 247.678 226.371 246.528 227.52C245.379 228.669 243.818 229.312 242.193 229.307H186.627C184.407 229.355 182.336 228.199 181.212 226.285C180.088 224.37 180.088 221.998 181.212 220.083C182.336 218.169 184.407 217.013 186.627 217.062H242.193C244.847 217.06 247.199 218.768 248.02 221.292C248.217 221.904 248.317 222.543 248.317 223.186V223.186Z" stroke="#23204A" stroke-width="1.28544"/>
<path d="M103.051 153.12L102.94 154.063C102.834 154.95 102.083 155.617 101.19 155.619H95.0841C94.1915 155.617 93.4404 154.95 93.3348 154.063L92.5469 147.301C92.885 147.237 93.1907 147.172 93.3024 147.14C94.1668 146.904 95.0047 146.705 95.7044 146.108C96.4041 145.511 96.8804 144.638 96.4865 143.723C96.0884 142.804 95.2983 142.112 94.3344 141.839C93.5401 141.602 92.696 141.588 91.8942 141.798L91.709 140.187C91.6539 139.689 91.813 139.191 92.1468 138.817C92.4805 138.444 92.9573 138.23 93.4583 138.229H102.828C103.328 138.23 103.804 138.445 104.138 138.818C104.471 139.192 104.629 139.689 104.574 140.187L104.357 142.024" stroke="#23204A" stroke-width="1.28544"/>
<path d="M103.866 146.225L103.857 146.29" stroke="#23204A" stroke-width="1.28544"/>
<path d="M103.407 150.109V150.083" stroke="#23204A" stroke-width="1.28544"/>
<path d="M103.495 150.109C103.469 150.104 103.442 150.104 103.416 150.109C103.379 150.105 103.341 150.105 103.304 150.109C102.514 150.112 101.858 150.719 101.795 151.506C101.731 152.294 102.281 152.999 103.06 153.128C103.222 153.161 103.389 153.161 103.551 153.128C104.285 153.011 104.955 152.641 105.445 152.082C106.097 151.008 106.55 149.826 106.782 148.592C106.786 148.579 106.786 148.566 106.782 148.554C106.962 147.644 107.03 146.716 106.985 145.79C106.985 145.393 106.935 144.999 106.888 144.614C106.704 143.291 105.676 142.244 104.357 142.036C104.325 142.036 104.286 142.036 104.254 142.018C103.019 141.865 101.288 142.333 100.967 143.726C100.673 144.984 102.037 146.063 103.157 146.16C103.157 146.16 103.451 146.199 103.866 146.225C104.695 146.281 106.074 146.272 106.985 145.79C107.119 145.72 107.245 145.637 107.362 145.54" stroke="#23204A" stroke-width="1.28544"/>
<path d="M104.783 146.293H104.58H103.013H102.322C101.353 146.296 100.554 147.056 100.503 148.025C100.455 148.964 101.126 149.786 102.055 149.93C104.084 150.256 106.4 150.324 106.797 148.507" stroke="#23204A" stroke-width="1.28544"/>
<path d="M204.352 229.307C204.352 229.307 211.523 236.119 209.285 257.237C209.122 258.744 208.598 260.191 207.757 261.453L206.978 262.629C205.7 264.542 203.773 265.929 201.553 266.533C196.87 267.812 188.373 270.775 183.125 276.391C180.909 278.769 182.558 282.644 185.81 282.644C187.041 282.647 188.192 282.034 188.876 281.009C191.013 277.793 197.484 270.963 213.093 271.108C230.697 271.269 237.789 278.269 240.061 281.286C240.698 282.139 241.699 282.642 242.763 282.644C244.108 282.641 245.323 281.842 245.858 280.609C246.393 279.375 246.147 277.942 245.23 276.958C238.365 269.499 229.968 266.718 225.335 265.686C223.007 265.184 220.951 263.831 219.57 261.891C218.512 260.394 217.911 258.624 217.838 256.793C217.579 250.245 217.444 234.352 221.88 229.313" stroke="#23204A" stroke-width="1.28544"/>
<path fill-rule="evenodd" clip-rule="evenodd" d="M189.446 179.947V180.423C189.446 183.684 186.818 184.245 184.548 184.301L140.622 185.324C138.696 185.371 137.076 183.689 137.035 181.584V181.496C137.035 179.438 138.552 177.718 140.451 177.674C140.451 177.674 165.027 176.98 184.054 176.457C184.419 177.61 185.301 178.497 186.406 179.194C187.322 179.742 188.381 180.004 189.446 179.947V179.947Z" stroke="#23204A" stroke-width="1.28544"/>
<path fill-rule="evenodd" clip-rule="evenodd" d="M212.796 133.465C212.798 134.002 212.675 134.531 212.437 135.012L192.792 175.284C192.325 176.23 191.465 176.922 190.44 177.174C189.629 177.382 188.77 177.295 188.018 176.927C186.786 176.321 186.009 175.066 186.015 173.693C186.017 173.528 186.029 173.363 186.051 173.2C186.103 172.835 186.212 172.481 186.374 172.15L206.016 131.872C206.747 130.384 208.407 129.596 210.022 129.971C211.637 130.347 212.78 131.787 212.778 133.445L212.796 133.465Z" stroke="#23204A" stroke-width="1.28544"/>
<path d="M53.7535 129.491C53.73 129.408 53.6976 129.329 53.6712 129.249C53.6447 129.17 53.6065 129.079 53.583 128.991" stroke="#23204A" stroke-width="1.28544" stroke-linecap="round" stroke-linejoin="round"/>
<path d="M53.7534 129.494L54.3561 128.888L55.5086 127.721" stroke="#23204A" stroke-width="1.28544" stroke-linecap="round" stroke-linejoin="round"/>
<path d="M60.5361 131.087C60.5361 131.087 61.3094 133.395 64.264 133.551" stroke="#23204A" stroke-width="1.28544"/>
<path d="M47.3942 136.494C44.7482 137.831 41.7465 134.938 41.9552 132.554C42.0905 130.919 41.72 129.79 40.5117 128.606C40.4323 128.526 40.3588 128.444 40.2883 128.365C39.347 127.34 39.1257 125.846 39.7297 124.593C40.2794 123.314 41.4643 122.564 40.6411 121.185C40.2799 120.589 40.0159 119.939 39.859 119.259C39.5268 117.437 39.9996 115.559 41.1556 114.111C42.3668 112.641 44.3396 113.047 45.9595 112.533C47.9087 111.912 48.8201 109.816 50.8664 109.172C51.8895 108.852 52.8391 108.996 53.8622 109.228C54.7237 109.431 55.588 109.657 56.4259 109.922C57.2638 110.186 58.0282 110.413 58.8661 110.163C59.9628 109.843 60.8065 108.834 62.0002 108.825C63.1938 108.816 64.1111 109.519 64.6462 110.501C65.4929 112.042 65.4988 114.282 64.702 115.611C63.8788 116.987 62.156 117.569 60.6742 117.866C58.7809 118.254 56.8228 118.357 54.9059 118.527L53.7917 118.801C52.9091 119.074 52.4146 120.011 52.6862 120.894C53.3757 123.266 54.3242 125.556 55.5145 127.721" stroke="#23204A" stroke-width="1.28544"/>
<path d="M55.5088 136.832C55.5088 136.832 61.3417 141.104 64.6669 138.749C67.992 136.394 66.1134 129.491 66.1134 129.491" stroke="#23204A" stroke-width="1.28544" stroke-linecap="round" stroke-linejoin="round"/>
<path d="M96.7245 135.279C96.7245 135.279 94.2461 133.603 95.822 131.892C97.3978 130.181 95.2986 127.923 95.2986 127.923" stroke="#23204A" stroke-width="1.28544"/>
<path d="M99.012 135.57C99.012 135.57 100.652 134.462 99.6 133.327C98.5474 132.192 99.9498 130.681 99.9498 130.681" stroke="#23204A" stroke-width="1.28544"/>
<circle cx="110.316" cy="87.2843" r="32.3165" stroke="#CCDDE2" stroke-width="1.28544"/>
<ellipse cx="141.289" cy="128.991" rx="12.0246" ry="12.0246" fill="url(#paint2_linear_546_122094)"/>
<path d="M145.243 124.975C145.074 124.584 144.846 124.221 144.567 123.899C143.581 122.733 141.883 122.481 140.601 123.311C139.782 123.845 139.26 124.731 139.19 125.707C137.889 125.23 136.431 125.671 135.613 126.789C134.795 127.906 134.815 129.43 135.662 130.525C136.523 131.648 137.987 132.386 139.313 132.816C140.009 133.038 140.725 133.19 141.451 133.268C141.818 133.31 143.914 133.592 144.097 133.268C145.405 131.222 146.334 127.474 145.243 124.975Z" fill="white"/>
<g opacity="0.72">
<circle cx="171.259" cy="117.392" r="6.62088" fill="url(#paint3_linear_546_122094)"/>
<path d="M174.131 118.566C174.295 118.399 174.432 118.207 174.537 117.998C174.928 117.252 174.702 116.332 174.011 115.852C173.568 115.546 173.008 115.466 172.497 115.634C172.468 114.872 171.937 114.221 171.197 114.039C170.456 113.856 169.684 114.185 169.304 114.846C168.944 115.575 168.804 116.392 168.901 117.198C168.934 117.597 169.007 117.991 169.119 118.374C169.175 118.571 169.469 119.697 169.668 119.733C170.983 119.953 173.088 119.645 174.131 118.566Z" fill="white"/>
</g>
<path d="M161.334 161.942C158.696 160.694 157.569 157.545 158.816 154.907L161.579 149.065C162.827 146.428 165.976 145.3 168.614 146.548L174.456 149.311C177.093 150.558 178.22 153.707 176.973 156.345L174.21 162.187C172.963 164.825 169.813 165.952 167.176 164.704L161.334 161.942Z" fill="url(#paint4_linear_546_122094)"/>
<path d="M175.369 157.103L173.091 161.921C172.096 164.011 169.601 164.905 167.505 163.924L161.725 161.189C159.637 160.193 158.744 157.698 159.726 155.603L159.879 155.28C161.448 154.028 164.162 152.34 165.153 154.636C166.579 157.952 168.434 156.882 170.804 155.495C172.782 154.325 175.158 153.933 175.369 157.103Z" fill="white"/>
<ellipse cx="166.417" cy="150.203" rx="1.77869" ry="1.7787" fill="white"/>
<path d="M196.764 126.83C197.118 127.475 197.374 128.168 197.525 128.888C198.073 131.566 197.171 134.335 195.15 136.176C194.362 136.873 193.359 137.417 192.563 138.146C191.981 138.647 191.553 139.303 191.328 140.036C191.287 140.287 191.186 140.524 191.034 140.727C190.569 141.227 190.114 140.433 189.711 140.298C189.062 140.087 188.357 140.121 187.732 140.395C184.342 141.813 180.423 140.645 178.36 137.604C176.298 134.563 176.664 130.49 179.236 127.865C180.467 126.609 182.079 125.807 183.646 124.99C185.016 124.263 186.38 123.49 187.867 123.055C191.354 122.011 195.076 123.749 196.764 126.83Z" fill="url(#paint5_linear_546_122094)"/>
<ellipse cx="182.722" cy="134.236" rx="1.67579" ry="1.6758" fill="white"/>
<ellipse cx="187.235" cy="131.822" rx="1.6758" ry="1.6758" fill="white"/>
<circle cx="191.469" cy="129.559" r="1.6758" fill="white"/>
<path d="M140.375 75.4033C140.375 75.4033 151.408 109.531 193.883 107.687C207.995 105.923 224.791 107.687 239.747 127.385C262.482 157.35 253.353 190.731 243.022 211.919" stroke="#CCDDE2" stroke-width="1.32079"/>
<g opacity="0.54">
<path d="M201.771 88.8065C201.729 89.3212 201.649 89.8322 201.532 90.3353L200.209 96.0741C199.804 97.8381 199.348 99.6845 198.09 100.972C195.738 103.371 191.828 102.821 188.558 102.095L180.532 100.314C178.689 99.905 176.816 99.4845 175.164 98.5702C173.511 97.6559 172.077 96.1594 171.694 94.3101C171.4 92.946 171.715 91.5348 172.015 90.1765L173.226 84.6669C173.629 82.8618 174.082 80.9567 175.384 79.6425C177.704 77.3052 181.558 77.8373 184.763 78.5341L192.983 80.3216C197.94 81.3918 202.165 83.6909 201.771 88.8065Z" fill="url(#paint6_linear_546_122094)"/>
<path d="M190.702 88.9597C191.401 89.6102 191.701 90.5848 191.486 91.516C191.272 92.4471 190.577 93.1931 189.664 93.4726L187.218 94.2223L184.772 94.972C183.858 95.2513 182.865 95.0224 182.166 94.3712C181.467 93.72 181.168 92.7455 181.382 91.8144L181.97 89.3213L182.543 86.8311C182.756 85.8995 183.451 85.1527 184.364 84.8725C185.278 84.5922 186.272 84.8211 186.971 85.4728L188.843 87.2162L190.702 88.9597Z" fill="white"/>
</g>
<path d="M28.4253 282.644H282.3" stroke="#23204A" stroke-width="1.32079"/>
<defs>
<linearGradient id="paint0_linear_546_122094" x1="71.7996" y1="148.592" x2="39.5684" y2="147.831" gradientUnits="userSpaceOnUse">
<stop stop-color="#6768AB"/>
<stop offset="1" stop-color="#F73458"/>
</linearGradient>
<linearGradient id="paint1_linear_546_122094" x1="246.274" y1="218.651" x2="208.291" y2="217.623" gradientUnits="userSpaceOnUse">
<stop stop-color="#6768AB"/>
<stop offset="1" stop-color="#F73458"/>
</linearGradient>
<linearGradient id="paint2_linear_546_122094" x1="159.631" y1="148.435" x2="128.365" y2="147.555" gradientUnits="userSpaceOnUse">
<stop stop-color="#6768AB"/>
<stop offset="1" stop-color="#F73458"/>
</linearGradient>
<linearGradient id="paint3_linear_546_122094" x1="181.358" y1="128.098" x2="164.143" y2="127.614" gradientUnits="userSpaceOnUse">
<stop stop-color="#6768AB"/>
<stop offset="1" stop-color="#F73458"/>
</linearGradient>
<linearGradient id="paint4_linear_546_122094" x1="185.893" y1="149.772" x2="175.866" y2="169.518" gradientUnits="userSpaceOnUse">
<stop stop-color="#6768AB"/>
<stop offset="1" stop-color="#F73458"/>
</linearGradient>
<linearGradient id="paint5_linear_546_122094" x1="203.108" y1="146.622" x2="176.263" y2="145.767" gradientUnits="userSpaceOnUse">
<stop stop-color="#6768AB"/>
<stop offset="1" stop-color="#F73458"/>
</linearGradient>
<linearGradient id="paint6_linear_546_122094" x1="209.734" y1="110.359" x2="170.462" y2="109.012" gradientUnits="userSpaceOnUse">
<stop stop-color="#6768AB"/>
<stop offset="1" stop-color="#F73458"/>
</linearGradient>
</defs>
</svg>
