<svg xmlns="http://www.w3.org/2000/svg" width="84" height="84" viewBox="0 0 84 84">
  <g id="Group_3823" data-name="Group 3823" transform="translate(-47 -1001)">
    <circle id="Ellipse_127" data-name="Ellipse 127" cx="42" cy="42" r="42" transform="translate(47 1001)" fill="#121212" opacity="0.9"/>
    <g id="insert-picture-icon" transform="translate(69 1014.65)">
      <path id="Path_3049" data-name="Path 3049" d="M35.478,9.35H4.524A4.529,4.529,0,0,0,0,13.876V42.325a4.526,4.526,0,0,0,4.524,4.521H35.478A4.524,4.524,0,0,0,40,42.325V13.876A4.527,4.527,0,0,0,35.478,9.35Zm-9.612,6.732a4.37,4.37,0,1,1-4.37,4.37A4.37,4.37,0,0,1,25.866,16.082Zm8.193,26.583H6.566a1.236,1.236,0,0,1-1.2-1.95l7.5-14.854a1.263,1.263,0,0,1,2.312-.215L22.718,35.5a1.849,1.849,0,0,0,2.864.181l1.845-1.868a1.756,1.756,0,0,1,2.789.236l4.777,6.823C35.683,41.862,35.266,42.664,34.059,42.664Z" fill="#fff"/>
    </g>
  </g>
</svg>
