<svg xmlns="http://www.w3.org/2000/svg" width="102.381" height="109.228" viewBox="0 0 102.381 109.228">
  <g id="Group_13722" data-name="Group 13722" transform="translate(-129 -2321.772)">
    <path id="Path_35644" data-name="Path 35644" d="M21.221,101.366a2.425,2.425,0,0,0-2.652.529l-7.282,7.282A24.511,24.511,0,0,1,15.861,75.34a3.248,3.248,0,0,0-4.068-5.064A30.988,30.988,0,0,0,6.662,113.8l-5.948,5.95a2.434,2.434,0,0,0,1.721,4.156H20.289a2.436,2.436,0,0,0,2.435-2.435V103.615a2.437,2.437,0,0,0-1.5-2.249Zm0,0" transform="translate(279.682 2410.121) rotate(135)" fill="#707070" stroke="#fff" stroke-width="1"/>
    <rect id="Rectangle_4146" data-name="Rectangle 4146" width="69" height="69" transform="translate(129 2362)" fill="#707070"/>
  </g>
</svg>
