<svg width="300" height="300" viewBox="0 0 300 300" fill="none" xmlns="http://www.w3.org/2000/svg">
<ellipse cx="177.618" cy="131.196" rx="2.55192" ry="2.49018" fill="#CCDDE2"/>
<ellipse cx="184.78" cy="136.811" rx="3.0723" ry="2.9988" fill="#CCDDE2"/>
<path d="M239.429 236.854L253.041 251.716V185.307" stroke="#CCDDE2" stroke-width="1.26542"/>
<path d="M253.041 242.299L265.348 231.482" stroke="#CCDDE2" stroke-width="1.26542"/>
<path d="M253.041 215.36L244.651 205.966" stroke="#CCDDE2" stroke-width="1.26542"/>
<path d="M253.041 206.907L259.195 203.2" stroke="#CCDDE2" stroke-width="1.26542"/>
<path d="M253.041 189.161C253.041 188.035 248.846 180.077 248.846 180.077" stroke="#CCDDE2" stroke-width="1.26542"/>
<path d="M239.723 256.558C240.129 256.578 240.361 256.584 240.361 256.584L243.924 256.649C246.655 256.691 248.846 258.916 248.846 261.647V280.574" stroke="#CCDDE2" stroke-width="1.26542"/>
<path d="M208.815 247.276L219.225 258.643V207.854" stroke="#CCDDE2" stroke-width="1.26542"/>
<path d="M222.157 248.864L219.226 251.439" stroke="#CCDDE2" stroke-width="1.26542"/>
<path d="M219.225 230.839L212.807 223.653" stroke="#CCDDE2" stroke-width="1.26542"/>
<path d="M219.226 224.374L223.933 221.54" stroke="#CCDDE2" stroke-width="1.26542"/>
<path d="M219.225 210.8C219.225 209.938 216.015 203.855 216.015 203.855" stroke="#CCDDE2" stroke-width="1.26542"/>
<path d="M228.713 234.702C227.487 232.773 226.855 230.797 228.257 229.569C229.118 228.813 231.147 228.722 232.682 228.266" stroke="#CCDDE2" stroke-width="1.26542"/>
<path d="M220.937 194.068C221.599 194.636 222.161 195.312 222.598 196.068C225.038 200.231 223.935 205.329 223.924 209.886C223.909 213.414 224.988 216.462 227.848 218.62C230.415 220.558 233.402 222.304 234.469 225.541C234.53 225.722 234.574 225.908 234.602 226.097" stroke="#CCDDE2" stroke-width="1.26542"/>
<path d="M203.508 261.65C205.479 262.121 207.497 262.364 209.524 262.373L212.252 262.414C214.337 262.45 216.009 264.15 216.009 266.236V280.71" stroke="#CCDDE2" stroke-width="1.26542"/>
<path d="M203.391 222.956C206.666 216.977 211.805 219.928 213.237 214.081C214.163 210.259 212.999 206.143 213.278 202.271C213.328 201.603 213.426 200.94 213.572 200.286" stroke="#CCDDE2" stroke-width="1.26542"/>
<path d="M222.221 266.607C222.22 265.464 222.677 264.369 223.49 263.566C224.303 262.764 225.404 262.32 226.546 262.335L228.636 262.37C232.535 262.209 236.057 263.17 239.632 258.775L239.723 258.66C236.63 258.466 223.209 257.155 222.157 248.864C221.863 246.612 222.553 244.342 223.503 242.322C226.237 236.504 230.515 231.368 234.419 226.302C236.145 224.062 238.091 222.004 239.535 219.54C240.461 217.973 241.916 215.318 240.238 213.743C238.259 211.887 232.517 213.175 231.814 210.059C231.727 209.507 231.787 208.942 231.988 208.421C234.766 199.957 243.348 201.071 245.218 193.427C246.432 188.429 244.909 183.064 245.268 177.986C245.515 174.564 246.923 170.251 249.14 167.608C251.971 164.215 255.581 166.682 257.454 169.881C260.647 175.323 259.218 181.985 259.186 187.95C259.186 192.566 260.588 196.547 264.328 199.366C267.68 201.897 271.593 204.185 272.98 208.418C274.494 213.034 266.992 211.826 264.86 213.684C261.012 217.05 268.891 224.806 271.087 227.028C276.585 232.614 287.201 242.693 279.734 251.871C275.056 257.622 270.449 256.367 265.357 256.575L262.617 256.54C261.124 256.522 259.685 257.103 258.623 258.152C257.561 259.202 256.963 260.633 256.963 262.126" stroke="#CCDDE2" stroke-width="1.26542"/>
<path d="M24.9971 281.124C24.9971 281.124 21.7837 276.203 21.7837 265.125C21.7837 254.047 26.7817 249.128 26.7817 249.128C21.3603 264.922 32.5235 281.124 32.5235 281.124C32.8616 280.516 36.075 275.95 36.4131 267.83C36.4131 267.83 39.456 274.798 36.9188 281.124" stroke="#CCDDE2" stroke-width="1.26542" stroke-linejoin="round"/>
<path d="M112.33 281.124C112.33 281.124 114.464 278.664 114.464 273.125C114.464 267.586 111.151 265.125 111.151 265.125C114.744 273.028 107.329 281.124 107.329 281.124C105.763 279.252 104.856 276.916 104.748 274.477C104.748 274.477 102.734 277.955 104.43 281.124" stroke="#CCDDE2" stroke-width="1.26542" stroke-linejoin="round"/>
<path d="M84.3088 246.138C84.5453 248.042 84.3851 249.974 83.8384 251.812C81.8863 258.442 75.5711 262.42 69.7264 260.703C63.8817 258.986 60.7477 252.215 62.7028 245.586C64.6579 238.956 70.9671 234.978 76.8148 236.698C77.325 236.849 77.8225 237.041 78.3024 237.271L72.2137 247.817C71.8723 248.473 72.1077 249.281 72.7478 249.651C73.3879 250.021 74.2059 249.822 74.6039 249.199L80.5985 238.788C82.2875 240.329 83.4772 242.34 84.0148 244.562L84.3088 246.138Z" fill="#D7E8F0"/>
<path d="M188.711 246.138C188.948 248.042 188.787 249.974 188.241 251.812C186.289 258.442 179.973 262.42 174.129 260.703C168.284 258.986 165.15 252.215 167.105 245.586C169.06 238.956 175.369 234.978 181.217 236.698C181.727 236.849 182.225 237.041 182.705 237.271L176.616 247.817C176.275 248.473 176.51 249.281 177.15 249.651C177.79 250.021 178.608 249.822 179.006 249.199L185.001 238.788C186.69 240.329 187.88 242.34 188.417 244.562L188.711 246.138Z" fill="#D7E8F0"/>
<path d="M66.0571 231.373C69.9556 229.13 74.4979 228.401 78.8755 229.692C79.6824 229.929 80.4689 230.231 81.2275 230.594L71.5902 247.291C71.3996 247.622 71.2983 247.997 71.2962 248.378C71.2996 249.367 71.9649 250.231 72.9199 250.487C73.8749 250.742 74.8828 250.327 75.3799 249.472L84.8731 233.029C87.5461 235.47 89.4288 238.654 90.2798 242.172" stroke="#CCDDE2" stroke-width="1.26542"/>
<path d="M67.6801 267.682C58.4456 264.96 53.4682 254.246 56.567 243.756C56.6064 243.609 56.6535 243.464 56.7081 243.321" stroke="#CCDDE2" stroke-width="1.26542"/>
<path d="M90.7414 244.633C91.1177 247.646 90.8634 250.705 89.9946 253.615" stroke="#CCDDE2" stroke-width="1.26542"/>
<path d="M170.46 231.373C174.358 229.13 178.9 228.401 183.278 229.692C184.085 229.929 184.872 230.231 185.63 230.594L175.99 247.291C175.799 247.622 175.698 247.996 175.696 248.378C175.694 249.37 176.36 250.238 177.317 250.495C178.275 250.751 179.285 250.332 179.78 249.472L189.273 233.029" stroke="#CCDDE2" stroke-width="1.26542"/>
<path d="M172.071 267.682C162.836 264.96 157.859 254.246 160.958 243.756C160.997 243.609 161.044 243.464 161.099 243.321" stroke="#CCDDE2" stroke-width="1.26542"/>
<path d="M195.144 244.633C195.519 247.646 195.264 250.705 194.394 253.615" stroke="#CCDDE2" stroke-width="1.26542"/>
<path d="M188.711 246.138C188.948 248.042 188.787 249.974 188.241 251.812C186.289 258.442 179.973 262.42 174.129 260.703C168.284 258.986 165.15 252.215 167.105 245.586C169.06 238.956 175.369 234.978 181.217 236.698C181.727 236.849 182.225 237.041 182.705 237.271L176.616 247.817C176.275 248.473 176.51 249.281 177.15 249.651C177.79 250.021 178.608 249.822 179.006 249.199L185.001 238.788C186.69 240.329 187.88 242.34 188.417 244.562L188.711 246.138Z" fill="#D7E8F0"/>
<path d="M94.2518 204.81L90.6679 211.017L81.2922 193.347C84.294 198.992 88.6893 202.567 94.2518 204.81Z" fill="#23204A"/>
<path d="M142.738 162.739C142.641 162.801 142.544 162.871 142.444 162.942C142.426 162.923 142.409 162.902 142.394 162.88L142.738 162.739Z" fill="#23204A"/>
<path d="M101.369 206.907C98.9373 206.429 96.5545 205.728 94.2517 204.811L101.369 206.907Z" fill="#23204A"/>
<path d="M132.845 234.275L128.638 241.989H98.7175L101.117 237.929L103.136 234.522L103.275 234.284L132.845 234.275Z" fill="#23204A"/>
<path d="M122.152 248.264V248.299H110.322L110.301 248.264H122.152Z" fill="#23204A"/>
<path d="M122.152 248.264V248.299H118.989V255.978H114.508L110.322 248.299L110.301 248.264H122.152Z" fill="#23204A"/>
<path d="M144.429 255.978H125.307V248.264H139.872L144.429 255.978Z" fill="#23204A"/>
<path d="M138.105 255.978V258.174C138.105 260.447 136.262 262.29 133.989 262.29H125.304V255.978H138.105Z" fill="url(#paint0_linear_546_121961)"/>
<path d="M125.304 245.144V248.287H122.155H110.31L110.331 248.322C108.057 248.322 106.215 246.48 106.215 244.206V242.019H122.167C123.891 242.029 125.288 243.42 125.304 245.144Z" fill="url(#paint1_linear_546_121961)"/>
<path d="M125.307 248.287V248.293L122.152 248.287L118.989 248.278L110.301 248.264H122.152V248.272L125.301 248.287H125.307Z" fill="#23204A"/>
<path d="M129.57 248.299H118.989V248.264L122.152 248.272L125.301 248.287H125.307L129.57 248.299Z" fill="#23204A"/>
<path d="M204.943 207.862V208.562H204.537L204.943 207.862Z" fill="#23204A"/>
<path d="M101.369 206.907L94.6574 218.534L92.182 222.824L76.5 249.99C75.503 251.715 73.2963 252.305 71.5711 251.308C69.8459 250.311 69.2555 248.104 70.2525 246.379L86.1726 218.796L90.6679 211.014L94.2517 204.808L101.369 206.907Z" fill="#23204A"/>
<path d="M213.654 191.81C213.654 192.443 213.487 193.065 213.169 193.612L212.09 195.494C209.373 195.923 206.548 196.708 209.9 199.289L204.952 207.862L204.546 208.562L196.405 222.674L180.62 249.99C179.597 251.658 177.431 252.208 175.736 251.229C174.041 250.25 173.435 248.099 174.37 246.379L190.351 218.696L196.208 208.562H152.023L157.374 198.466H202.038L206.927 190.002C207.743 188.586 209.41 187.896 210.988 188.32C212.566 188.743 213.663 190.176 213.66 191.81H213.654Z" fill="#23204A"/>
<path d="M142.738 162.739C142.641 162.801 142.544 162.871 142.444 162.942C142.426 162.923 142.409 162.902 142.394 162.88L142.738 162.739Z" fill="#23204A"/>
<path d="M79.3166 188.696C75.1447 187.855 69.7851 187.076 67.2626 183.201C66.9039 182.66 66.4541 182.025 66.3571 181.364C66.3433 181.287 66.3364 181.209 66.3365 181.131C66.2953 179.835 67.8447 179.917 68.8384 180.073C71.211 180.438 73.5424 180.955 75.8797 181.511C76.5736 181.672 77.2615 181.84 77.9377 182.008C78.1303 184.284 78.5932 186.529 79.3166 188.696Z" fill="#23204A"/>
<path d="M204.125 186.909C202.259 191.945 198.472 191.966 198.41 191.966C191.196 190.26 184.094 188.105 177.148 185.515C158.308 178.377 148.042 169.933 142.456 162.942C142.55 162.869 142.648 162.802 142.75 162.739L142.412 162.88C142.427 162.902 142.443 162.923 142.462 162.942C137.064 166.658 134.124 172.268 132.531 177.442C132.437 177.763 132.322 178.077 132.187 178.383C132.181 178.4 132.174 178.417 132.166 178.433L131.837 179.127C131.835 179.137 131.83 179.147 131.822 179.153C130.814 181.091 127.777 183.684 125.842 184.604L90.4944 184.342L75.8797 181.511C73.56 180.955 71.208 180.438 68.856 180.073C67.8594 179.918 66.31 179.835 66.3511 181.132C66.3511 179.441 67.2331 178.286 68.2504 177.057C69.3382 175.74 70.4279 174.425 71.5197 173.112C77.626 165.823 83.5737 158.412 89.7065 151.15C91.2147 149.359 92.7523 147.607 94.3929 145.946C100.135 140.11 106.776 134.986 114.053 131.199C126.886 124.537 136.576 122.491 144.335 123.534L144.587 123.57C162.227 126.086 169.839 144.605 181.828 160.649C184.704 164.491 189.684 168.034 194.556 170.874L204.846 176.052C204.843 176.072 204.843 176.093 204.846 176.113C205.169 180.767 204.978 184.589 204.125 186.909Z" fill="#23204A"/>
<path d="M142.738 162.739C142.641 162.801 142.544 162.871 142.444 162.942C142.426 162.923 142.409 162.902 142.394 162.88L142.738 162.739Z" fill="#23204A"/>
<path d="M17.7002 281.118H278.443" stroke="#23204A" stroke-width="1.26542"/>
<path d="M132.634 177.944H148.271C157.447 177.944 163.324 187.711 159.026 195.817L138.64 234.272H103.522L118.389 208.506" stroke="#23204A" stroke-width="1.26542"/>
<path d="M137.914 234.275L145.811 248.263H140.116H125.551" stroke="#23204A" stroke-width="1.26542"/>
<path d="M90.912 211.016L81.354 193.003" stroke="#23204A" stroke-width="1.26542"/>
<path d="M103.381 234.513L94.9016 218.534" stroke="#23204A" stroke-width="1.26542"/>
<path d="M136.012 148.959C136.012 148.959 137.482 177.239 198.654 191.968C198.654 191.968 206.475 192.189 204.828 176.063" stroke="#23204A" stroke-width="1.26542"/>
<path d="M134.844 208.561H125.257C103.989 208.561 87.8779 207.091 80.8631 191.965C80.3674 190.902 79.9364 189.811 79.5724 188.696C78.853 186.528 78.3941 184.283 78.2053 182.007" stroke="#23204A" stroke-width="1.26542"/>
<path fill-rule="evenodd" clip-rule="evenodd" d="M133.089 234.275L128.882 241.989H98.9619L101.361 237.929L103.381 234.513L103.522 234.275L133.089 234.275Z" stroke="#23204A" stroke-width="1.26542"/>
<path fill-rule="evenodd" clip-rule="evenodd" d="M122.397 248.263V248.298H110.569L110.545 248.263H122.397Z" stroke="#23204A" stroke-width="1.26542"/>
<path fill-rule="evenodd" clip-rule="evenodd" d="M122.397 248.263V248.298H119.236V255.978H114.753L110.569 248.298L110.545 248.263H122.397Z" stroke="#23204A" stroke-width="1.26542"/>
<path fill-rule="evenodd" clip-rule="evenodd" d="M144.673 255.978H125.551V248.263H140.116L144.673 255.978Z" stroke="#23204A" stroke-width="1.26542"/>
<path fill-rule="evenodd" clip-rule="evenodd" d="M138.349 255.978V258.174C138.349 260.447 136.506 262.29 134.233 262.29H125.551V255.978H138.349Z" stroke="#23204A" stroke-width="1.26542"/>
<path d="M122.397 241.989C123.233 241.988 124.036 242.321 124.628 242.912C125.22 243.504 125.552 244.307 125.551 245.144V262.308H122.391C120.648 262.308 119.235 260.896 119.233 259.153V248.298H122.397" stroke="#23204A" stroke-width="1.26542"/>
<path d="M122.397 241.989H106.444V244.177C106.444 246.45 108.287 248.293 110.56 248.293L110.537 248.257L125.531 248.287" stroke="#23204A" stroke-width="1.26542"/>
<path fill-rule="evenodd" clip-rule="evenodd" d="M129.82 248.295L130.52 248.298H119.236V248.263L129.82 248.295Z" stroke="#23204A" stroke-width="1.26542"/>
<path d="M213.863 191.313C213.715 190.212 213.063 189.242 212.099 188.69C211.27 188.211 210.285 188.08 209.361 188.327C208.436 188.574 207.647 189.179 207.168 190.007L202.282 198.472H157.626L152.267 208.568H196.452L174.617 246.379C173.972 247.496 173.972 248.872 174.617 249.989C175.262 251.106 176.454 251.795 177.743 251.795C179.033 251.795 180.225 251.106 180.87 249.989L204.787 208.562L205.193 207.862L209.864 199.777" stroke="#23204A" stroke-width="1.26542"/>
<path d="M205.19 208.562H204.781L205.19 207.862V208.562Z" fill="url(#paint2_linear_546_121961)"/>
<path d="M101.614 206.907L92.426 222.824L76.7411 249.99C76.0962 251.106 74.9049 251.793 73.6159 251.792C72.327 251.792 71.1362 251.104 70.4922 249.987C69.8481 248.871 69.8487 247.495 70.4936 246.379L86.4166 218.796L94.4958 204.808" stroke="#23204A" stroke-width="1.26542"/>
<path fill-rule="evenodd" clip-rule="evenodd" d="M100.902 256.828C95.7953 274.159 79.2813 284.567 64.0256 280.072C48.77 275.576 40.538 257.877 45.6506 240.552C50.7633 223.227 67.2685 212.798 82.5271 217.3C83.8613 217.695 85.162 218.197 86.4167 218.799L70.4936 246.379C69.8487 247.495 69.8482 248.87 70.4922 249.987C71.1362 251.103 72.327 251.792 73.616 251.792C74.9049 251.793 76.0962 251.105 76.7411 249.989L92.426 222.824C96.7596 226.69 99.8525 231.97 101.361 237.93L98.9617 241.99H102.131C102.753 246.968 102.334 252.02 100.902 256.828V256.828Z" stroke="#23204A" stroke-width="1.26542"/>
<ellipse cx="177.67" cy="248.676" rx="32.7222" ry="28.8002" transform="rotate(-73.58 177.67 248.676)" stroke="#23204A" stroke-width="1.26542"/>
<path d="M66.5776 181.129C66.5629 179.441 67.4596 178.286 68.4709 177.054L71.7432 173.109C77.8466 165.823 83.8119 158.409 89.9329 151.144C91.4353 149.362 92.9758 147.616 94.6134 145.946C100.361 140.11 106.997 134.983 114.276 131.199C156.58 109.222 164.765 137.508 182.046 160.649C186.212 166.217 194.794 171.153 201.071 174.246C209.05 178.18 226.943 183.607 219.913 196.296C218.47 198.892 211.179 202.706 208.871 198.692C206.71 194.941 213.869 194.641 213.869 191.319C213.869 188.767 212.105 187.729 210.047 187.168C206.36 186.159 208.15 186.412 204.372 186.386" stroke="#23204A" stroke-width="1.26542"/>
<path d="M79.5606 188.697C75.3887 187.856 70.0321 187.077 67.5066 183.202C67.1479 182.661 66.701 182.026 66.6011 181.364C66.3629 179.827 68.0329 179.912 69.0854 180.074C76.0738 181.138 82.7858 183.602 89.8271 184.231C91.7881 184.407 93.7667 184.489 95.7365 184.489H123.308C127.671 184.472 131.511 181.61 132.775 177.433C134.409 172.168 137.423 166.447 142.985 162.733" stroke="#23204A" stroke-width="1.26542"/>
<path d="M169.636 137.349L166.482 138.208" stroke="#23204A" stroke-width="1.26542"/>
<path d="M167.863 126.709C167.587 126.709 151.905 122.843 144.558 123.531" stroke="#23204A" stroke-width="1.26542"/>
<path d="M187.685 138.581C187.422 138.908 187.142 139.22 186.844 139.516C186.832 139.536 186.815 139.552 186.794 139.563C186.283 140.083 186.418 139.872 185.801 140.322C185.795 140.334 185.784 140.343 185.771 140.348C185.739 140.384 185.701 140.415 185.659 140.439C186.443 139.202 187.131 137.906 187.717 136.564C188.741 134.727 189.549 132.657 188.42 132.054C186.506 131.037 186.441 127.244 187.053 125.154C187.053 125.154 187.053 125.154 187.053 125.139C187.12 124.901 187.206 124.669 187.312 124.446C187.312 124.446 187.312 124.425 187.312 124.419C187.425 124.18 187.507 123.927 187.556 123.667C191.096 128.576 191.016 134.5 187.685 138.581Z" fill="url(#paint3_linear_546_121961)"/>
<path d="M187.526 121.314C191.792 126.392 191.936 132.833 188.388 137.19C188.124 137.517 187.843 137.829 187.547 138.125C187.534 138.145 187.517 138.161 187.497 138.172C186.974 138.709 186.406 139.201 185.8 139.642C185.795 139.656 185.784 139.666 185.771 139.672V139.672C185.738 139.707 185.7 139.737 185.659 139.763C185.365 139.981 185.057 140.183 184.733 140.38C184.307 140.645 183.851 140.898 183.381 141.13C180.829 142.385 177.862 143.115 175.149 142.306C172.914 141.633 171.062 139.954 169.857 137.937C169.082 136.596 168.527 135.14 168.21 133.624" stroke="#23204A" stroke-width="1.26542"/>
<path d="M187.315 124.422C187.315 124.422 187.315 124.442 187.315 124.448C187.238 124.686 187.153 124.919 187.056 125.142V125.157C186.231 127.057 184.637 128.518 182.672 129.176C182.602 129.202 182.525 129.223 182.449 129.246C181.909 129.39 181.352 129.458 180.794 129.449C180.562 129.449 180.329 129.429 180.1 129.399C179.062 129.27 178.078 128.864 177.251 128.223C177.069 128.082 176.898 127.926 176.74 127.759C176.692 127.716 176.648 127.67 176.607 127.62C175.934 126.877 175.378 125.874 174.39 125.677C173.697 125.545 172.997 125.874 172.406 126.265C170.348 127.647 169.084 129.843 168.487 132.239C168.025 127.276 169.545 122.402 173.949 119.597C175.232 118.793 176.654 118.236 178.142 117.954L181.417 117.777C181.967 117.822 182.513 117.904 183.052 118.024C184.722 118.395 186.383 119.2 187.385 120.57C187.526 121.006 187.606 121.459 187.623 121.917V122.034C187.665 122.842 187.56 123.651 187.315 124.422Z" fill="url(#paint4_linear_546_121961)"/>
<path d="M180.717 116.381C181.266 116.425 181.811 116.508 182.349 116.628C184.139 117.028 185.912 117.918 186.879 119.468C187.004 119.667 187.112 119.875 187.203 120.091C187.202 120.096 187.202 120.101 187.203 120.106C187.203 120.121 187.217 120.147 187.232 120.182C187.289 120.311 187.338 120.442 187.379 120.576C187.519 121.012 187.6 121.465 187.617 121.923V122.04C187.653 122.846 187.543 123.652 187.294 124.419C187.294 124.419 187.294 124.439 187.294 124.445C187.217 124.683 187.132 124.916 187.035 125.139V125.154C186.21 127.054 184.617 128.515 182.652 129.173C182.581 129.199 182.505 129.22 182.428 129.243C181.889 129.387 181.331 129.455 180.773 129.446C180.541 129.446 180.308 129.426 180.079 129.396C179.041 129.267 178.057 128.861 177.23 128.22C177.048 128.079 176.877 127.924 176.719 127.756C176.671 127.713 176.627 127.667 176.586 127.618C175.913 126.874 175.358 125.871 174.37 125.674C173.676 125.542 172.976 125.871 172.385 126.262C170.327 127.644 169.063 129.84 168.466 132.236C168.346 132.679 168.254 133.128 168.193 133.583C168.013 132.808 167.881 132.022 167.799 131.231C167.211 126.124 168.704 121.061 173.226 118.195C174.516 117.384 175.946 116.823 177.442 116.54" stroke="#23204A" stroke-width="1.26542" stroke-linecap="square" stroke-linejoin="bevel"/>
<path d="M180.717 116.381C180.423 116.36 180.129 116.346 179.862 116.346C179.791 115.428 178.927 116.39 178.121 115.681C179.077 113.344 176.789 111.389 175.416 110.66C172.688 109.216 169.469 108.122 166.341 108.458C162.372 108.893 160.669 112.012 158.138 114.632C155.298 117.572 150.865 118.374 146.778 118.192C144.197 118.074 141.486 117.569 139.519 115.893C139.316 115.719 139.128 115.534 138.931 115.346C138.413 114.232 138.136 113.02 138.117 111.792C138.126 109.432 138.876 107.136 140.263 105.227C142.027 102.704 144.638 100.817 147.507 99.6817C150.398 98.5821 153.472 98.0414 156.565 98.0883C163.064 98.0778 169.416 100.024 174.793 103.674C176.607 104.928 178.222 106.449 179.582 108.184C179.582 108.184 179.582 108.205 179.603 108.211C181.082 110.816 181.72 113.682 180.717 116.381Z" fill="url(#paint5_linear_546_121961)"/>
<path d="M186.5 121.482C186.631 121.876 186.737 122.279 186.815 122.687L186.5 121.482Z" fill="url(#paint6_linear_546_121961)"/>
<path d="M187.203 120.091C187.201 120.096 187.201 120.101 187.203 120.106C187.42 120.732 187.565 121.381 187.632 122.041C187.689 122.583 187.662 123.132 187.553 123.666C187.504 123.927 187.422 124.18 187.309 124.419C187.309 124.419 187.309 124.44 187.309 124.445C187.203 124.669 187.117 124.901 187.05 125.139C187.05 125.139 187.05 125.139 187.05 125.154C186.438 127.244 186.503 131.034 188.417 132.054C189.546 132.657 188.737 134.727 187.714 136.564C187.092 137.663 186.405 138.723 185.656 139.739" stroke="#23204A" stroke-width="1.26542"/>
<path fill-rule="evenodd" clip-rule="evenodd" d="M180.717 116.381C180.423 116.36 180.129 116.346 179.862 116.346C179.05 116.337 178.24 116.408 177.442 116.557C178.368 115.646 178.597 114.714 178.395 113.85C178.086 112.547 176.789 111.389 175.416 110.66C172.688 109.216 169.469 108.122 166.341 108.458C162.372 108.893 160.669 112.012 158.138 114.632C155.298 117.572 150.864 118.374 146.778 118.192C144.196 118.074 141.486 117.569 139.519 115.893C139.316 115.719 139.128 115.534 138.931 115.346C137.519 113.798 136.729 111.782 136.714 109.687C136.723 107.328 137.474 105.032 138.86 103.124C140.624 100.599 143.235 98.7145 146.104 97.5767C148.996 96.4795 152.07 95.9398 155.163 95.9862C161.662 95.9755 168.013 97.922 173.391 101.572C175.743 103.186 178.095 105.541 179.582 108.187C179.582 108.187 179.582 108.208 179.603 108.214C181.082 110.816 181.72 113.682 180.717 116.381V116.381Z" stroke="#23204A" stroke-width="1.26542"/>
<path d="M181.199 134.003C181.199 134.003 179.729 136.735 179.382 136.996C179.035 137.258 178.5 136.297 178.5 136.297" stroke="#23204A" stroke-width="1.26542"/>
<path fill-rule="evenodd" clip-rule="evenodd" d="M179.738 139.642C178.915 140.151 177.845 140.263 176.901 140.295C175.387 140.345 174.893 139.078 174.887 137.731C174.906 137.003 174.998 136.279 175.163 135.57C175.678 136.543 176.207 137.528 176.977 138.316C177.748 139.104 178.677 139.354 179.738 139.642V139.642Z" stroke="#23204A" stroke-width="1.26542"/>
<path d="M182.963 129.908C182.963 129.908 181.787 126.212 178.339 126.277" stroke="#23204A" stroke-width="1.26542"/>
<ellipse cx="177.618" cy="131.196" rx="3.62796" ry="3.54271" stroke="#23204A" stroke-width="1.26542"/>
<ellipse cx="184.78" cy="136.811" rx="3.62796" ry="3.5427" stroke="#23204A" stroke-width="1.26542"/>
<path fill-rule="evenodd" clip-rule="evenodd" d="M182.402 134.944C182.988 134.234 183.862 133.825 184.783 133.83V133.821C185.475 133.82 186.147 134.051 186.691 134.477C187.318 134.964 187.722 135.684 187.81 136.473C187.898 137.262 187.663 138.053 187.159 138.666C186.087 139.952 184.187 140.154 182.869 139.122C182.246 138.635 181.844 137.918 181.757 137.132C181.669 136.345 181.901 135.557 182.402 134.944ZM186.327 134.95C185.887 134.604 185.343 134.416 184.783 134.418C184.039 134.413 183.332 134.742 182.857 135.315C182.455 135.805 182.268 136.438 182.339 137.068C182.41 137.699 182.733 138.274 183.234 138.663C184.3 139.497 185.835 139.334 186.703 138.296C187.104 137.805 187.291 137.174 187.22 136.544C187.149 135.914 186.827 135.339 186.327 134.95Z" fill="white"/>
<path d="M180.447 133.412L181.952 134.594" stroke="#23204A" stroke-width="1.26542"/>
<path d="M176.842 130.302L177.045 130.316C177.983 130.384 178.769 131.05 178.991 131.963" stroke="#23204A" stroke-width="1.26542"/>
<path d="M183.704 136.211H183.91C184.847 136.28 185.633 136.945 185.856 137.857" stroke="#23204A" stroke-width="1.26542"/>
<ellipse cx="210.399" cy="190.916" rx="5.08327" ry="5.08326" fill="url(#paint7_linear_546_121961)"/>
<ellipse cx="210.399" cy="190.916" rx="5.08327" ry="5.08326" stroke="#23204A" stroke-width="1.26542"/>
<ellipse cx="210.399" cy="190.916" rx="5.08327" ry="5.08326" stroke="#23204A" stroke-width="1.26542"/>
<path d="M121.17 122.72C121.17 122.72 102.06 126.836 86.9871 147.516" stroke="#23204A" stroke-width="1.26542"/>
<path d="M205.313 225.117C205.313 225.117 211.681 233.384 211.099 245.144" stroke="#23204A" stroke-width="1.26542"/>
<path d="M66.0924 190.775H50.6663" stroke="#23204A" stroke-width="1.26542"/>
<path d="M61.6206 187.694H67.0273" stroke="#23204A" stroke-width="1.26542"/>
<defs>
<linearGradient id="paint0_linear_546_121961" x1="141.467" y1="264.237" x2="124.866" y2="263.291" gradientUnits="userSpaceOnUse">
<stop stop-color="#6768AB"/>
<stop offset="1" stop-color="#F73458"/>
</linearGradient>
<linearGradient id="paint1_linear_546_121961" x1="130.318" y1="250.267" x2="105.66" y2="248.166" gradientUnits="userSpaceOnUse">
<stop stop-color="#6768AB"/>
<stop offset="1" stop-color="#F73458"/>
</linearGradient>
<linearGradient id="paint2_linear_546_121961" x1="205.297" y1="208.778" x2="204.766" y2="208.769" gradientUnits="userSpaceOnUse">
<stop stop-color="#6768AB"/>
<stop offset="1" stop-color="#F73458"/>
</linearGradient>
<linearGradient id="paint3_linear_546_121961" x1="191.389" y1="145.614" x2="185.485" y2="145.569" gradientUnits="userSpaceOnUse">
<stop stop-color="#6768AB"/>
<stop offset="1" stop-color="#F73458"/>
</linearGradient>
<linearGradient id="paint4_linear_546_121961" x1="192.682" y1="136.701" x2="167.704" y2="135.767" gradientUnits="userSpaceOnUse">
<stop stop-color="#6768AB"/>
<stop offset="1" stop-color="#F73458"/>
</linearGradient>
<linearGradient id="paint5_linear_546_121961" x1="192.52" y1="124.427" x2="136.664" y2="121.064" gradientUnits="userSpaceOnUse">
<stop stop-color="#6768AB"/>
<stop offset="1" stop-color="#F73458"/>
</linearGradient>
<linearGradient id="paint6_linear_546_121961" x1="186.897" y1="123.059" x2="186.488" y2="123.056" gradientUnits="userSpaceOnUse">
<stop stop-color="#6768AB"/>
<stop offset="1" stop-color="#F73458"/>
</linearGradient>
<linearGradient id="paint7_linear_546_121961" x1="218.153" y1="199.135" x2="204.936" y2="198.764" gradientUnits="userSpaceOnUse">
<stop stop-color="#6768AB"/>
<stop offset="1" stop-color="#F73458"/>
</linearGradient>
</defs>
</svg>
