<svg width="26" height="26" viewBox="0 0 26 26" fill="none" xmlns="http://www.w3.org/2000/svg">
<path d="M17.5 3.5H17.7C19.4913 3.5 20.387 3.5 20.9435 4.0565C21.5 4.61299 21.5 5.50866 21.5 7.3V7.5" stroke="#23204A" stroke-width="1.5" stroke-linecap="round"/>
<path d="M17.5 20.5H17.7C19.4913 20.5 20.387 20.5 20.9435 19.9435C21.5 19.387 21.5 18.4913 21.5 16.7V16.5" stroke="#23204A" stroke-width="1.5" stroke-linecap="round"/>
<path d="M6.5 3.5H6.3C4.50866 3.5 3.61299 3.5 3.0565 4.0565C2.5 4.61299 2.5 5.50866 2.5 7.3V7.5" stroke="#23204A" stroke-width="1.5" stroke-linecap="round"/>
<path d="M6.5 20.5H6.3C4.50866 20.5 3.61299 20.5 3.0565 19.9435C2.5 19.387 2.5 18.4913 2.5 16.7V16.5" stroke="#23204A" stroke-width="1.5" stroke-linecap="round"/>
<path d="M6.90396 17.2188C7.39364 16.512 8.1093 15.9095 8.99179 15.4849C9.87432 15.0603 10.8835 14.8334 11.9166 14.8334C12.9497 14.8334 13.9589 15.0603 14.8415 15.4849C15.724 15.9095 16.4396 16.512 16.9293 17.2188" stroke="#23204A" stroke-width="1.5" stroke-linecap="round"/>
<path d="M14.4166 9.75C14.4166 11.1307 13.2973 12.25 11.9166 12.25C10.5359 12.25 9.41663 11.1307 9.41663 9.75C9.41663 8.36929 10.5359 7.25 11.9166 7.25C13.2973 7.25 14.4166 8.36929 14.4166 9.75Z" stroke="#23204A" stroke-width="1.5" stroke-linecap="round"/>
</svg>
