<svg width="290" height="328" viewBox="0 0 290 328" fill="none" xmlns="http://www.w3.org/2000/svg">
<path d="M22.9248 24.9639H31.4697C31.3558 27.4378 30.6885 29.6188 29.4678 31.5068C28.2471 33.3949 26.5544 34.8678 24.3896 35.9258C22.2412 36.9674 19.7021 37.4883 16.7725 37.4883C14.3962 37.4883 12.2721 37.0895 10.4004 36.292C8.54492 35.4945 6.96615 34.347 5.66406 32.8496C4.37826 31.3522 3.39355 29.5374 2.70996 27.4053C2.04264 25.2731 1.70898 22.8724 1.70898 20.2031V18.2744C1.70898 15.6051 2.05892 13.2044 2.75879 11.0723C3.47493 8.92383 4.48405 7.10091 5.78613 5.60352C7.10449 4.08984 8.68327 2.93424 10.5225 2.13672C12.3617 1.33919 14.4043 0.94043 16.6504 0.94043C19.7428 0.94043 22.3551 1.49382 24.4873 2.60059C26.6195 3.70736 28.2715 5.22917 29.4434 7.16602C30.6152 9.08659 31.307 11.2757 31.5186 13.7334H22.9736C22.9411 12.3988 22.7132 11.2839 22.29 10.3887C21.8669 9.47721 21.1995 8.79362 20.2881 8.33789C19.3766 7.88216 18.1641 7.6543 16.6504 7.6543C15.5924 7.6543 14.6729 7.84961 13.8916 8.24023C13.1104 8.63086 12.4593 9.24935 11.9385 10.0957C11.4176 10.9421 11.027 12.0407 10.7666 13.3916C10.5225 14.7262 10.4004 16.3376 10.4004 18.2256V20.2031C10.4004 22.0911 10.5143 23.7025 10.7422 25.0371C10.9701 26.3717 11.3363 27.4622 11.8408 28.3086C12.3454 29.1549 12.9964 29.7816 13.7939 30.1885C14.6077 30.5791 15.6006 30.7744 16.7725 30.7744C18.0745 30.7744 19.1732 30.571 20.0684 30.1641C20.9635 29.7409 21.6553 29.1061 22.1436 28.2598C22.6318 27.3971 22.8923 26.2985 22.9248 24.9639ZM50.5615 30.5791V10.584H58.8135V37H51.0986L50.5615 30.5791ZM51.3428 25.208L53.4912 25.1592C53.4912 26.9333 53.2796 28.5771 52.8564 30.0908C52.4333 31.5882 51.8066 32.8903 50.9766 33.9971C50.1628 35.1038 49.1536 35.9665 47.9492 36.585C46.7611 37.1872 45.3857 37.4883 43.8232 37.4883C42.5212 37.4883 41.3249 37.3092 40.2344 36.9512C39.1602 36.5768 38.2324 35.999 37.4512 35.2178C36.6699 34.4202 36.0596 33.403 35.6201 32.166C35.1969 30.9128 34.9854 29.4154 34.9854 27.6738V10.584H43.2129V27.7227C43.2129 28.3086 43.2861 28.8132 43.4326 29.2363C43.5791 29.6595 43.7907 30.0176 44.0674 30.3105C44.3441 30.5872 44.6859 30.7988 45.0928 30.9453C45.516 31.0755 45.9961 31.1406 46.5332 31.1406C47.7702 31.1406 48.7386 30.8802 49.4385 30.3594C50.1383 29.8385 50.6266 29.1305 50.9033 28.2354C51.1963 27.3402 51.3428 26.3311 51.3428 25.208ZM77.1973 29.5781C77.1973 29.1224 77.0426 28.7318 76.7334 28.4062C76.4404 28.0645 75.9196 27.7552 75.1709 27.4785C74.4222 27.1855 73.3724 26.8926 72.0215 26.5996C70.7357 26.3229 69.5231 25.9567 68.3838 25.501C67.2607 25.0452 66.276 24.4919 65.4297 23.8408C64.5833 23.1898 63.916 22.4167 63.4277 21.5215C62.9557 20.6263 62.7197 19.6009 62.7197 18.4453C62.7197 17.3223 62.9557 16.2643 63.4277 15.2715C63.916 14.2624 64.624 13.3753 65.5518 12.6104C66.4958 11.8291 67.6432 11.2188 68.9941 10.7793C70.3451 10.3236 71.8831 10.0957 73.6084 10.0957C75.9847 10.0957 78.0355 10.4619 79.7607 11.1943C81.486 11.9105 82.8125 12.9196 83.7402 14.2217C84.6842 15.5075 85.1562 16.9967 85.1562 18.6895H76.9287C76.9287 18.0221 76.8148 17.4525 76.5869 16.9805C76.3753 16.5085 76.0254 16.1504 75.5371 15.9062C75.0488 15.6458 74.3978 15.5156 73.584 15.5156C73.0143 15.5156 72.4935 15.6214 72.0215 15.833C71.5658 16.0446 71.1995 16.3376 70.9229 16.7119C70.6462 17.0863 70.5078 17.5257 70.5078 18.0303C70.5078 18.3883 70.5892 18.7139 70.752 19.0068C70.931 19.2835 71.1995 19.5439 71.5576 19.7881C71.9157 20.016 72.3714 20.2275 72.9248 20.4229C73.4782 20.6019 74.1455 20.7646 74.9268 20.9111C76.7008 21.2367 78.361 21.7005 79.9072 22.3027C81.4535 22.9049 82.7067 23.7594 83.667 24.8662C84.6436 25.973 85.1318 27.4622 85.1318 29.334C85.1318 30.5059 84.8633 31.5882 84.3262 32.5811C83.7891 33.5576 83.016 34.4202 82.0068 35.1689C80.9977 35.9014 79.7852 36.471 78.3691 36.8779C76.9531 37.2848 75.3581 37.4883 73.584 37.4883C71.0612 37.4883 68.929 37.0407 67.1875 36.1455C65.446 35.234 64.1276 34.0947 63.2324 32.7275C62.3535 31.3441 61.9141 29.9443 61.9141 28.5283H69.5801C69.6126 29.3421 69.8079 30.0094 70.166 30.5303C70.5404 31.0511 71.0368 31.4336 71.6553 31.6777C72.2738 31.9219 72.9899 32.0439 73.8037 32.0439C74.5524 32.0439 75.1709 31.9382 75.6592 31.7266C76.1637 31.515 76.5462 31.2301 76.8066 30.8721C77.0671 30.4977 77.1973 30.0664 77.1973 29.5781ZM102.905 10.584V16.2969H86.9873V10.584H102.905ZM90.332 4.0166H98.5596V28.3818C98.5596 29.0817 98.641 29.627 98.8037 30.0176C98.9665 30.3919 99.2432 30.6605 99.6338 30.8232C100.041 30.9697 100.578 31.043 101.245 31.043C101.717 31.043 102.108 31.0348 102.417 31.0186C102.726 30.986 103.019 30.9453 103.296 30.8965V36.7803C102.596 37.0081 101.864 37.179 101.099 37.293C100.334 37.4232 99.5199 37.4883 98.6572 37.4883C96.8994 37.4883 95.3939 37.2116 94.1406 36.6582C92.9036 36.1048 91.9596 35.234 91.3086 34.0459C90.6576 32.8577 90.332 31.3115 90.332 29.4072V4.0166ZM104.419 24.0605V23.5479C104.419 21.611 104.696 19.8288 105.249 18.2012C105.802 16.5573 106.616 15.1331 107.69 13.9287C108.765 12.7243 110.091 11.7884 111.67 11.1211C113.249 10.4375 115.072 10.0957 117.139 10.0957C119.222 10.0957 121.053 10.4375 122.632 11.1211C124.227 11.7884 125.562 12.7243 126.636 13.9287C127.71 15.1331 128.524 16.5573 129.077 18.2012C129.631 19.8288 129.907 21.611 129.907 23.5479V24.0605C129.907 25.9811 129.631 27.7633 129.077 29.4072C128.524 31.0348 127.71 32.459 126.636 33.6797C125.562 34.8841 124.235 35.82 122.656 36.4873C121.077 37.1546 119.255 37.4883 117.188 37.4883C115.12 37.4883 113.289 37.1546 111.694 36.4873C110.099 35.82 108.765 34.8841 107.69 33.6797C106.616 32.459 105.802 31.0348 105.249 29.4072C104.696 27.7633 104.419 25.9811 104.419 24.0605ZM112.646 23.5479V24.0605C112.646 25.0534 112.72 25.9811 112.866 26.8438C113.013 27.7064 113.257 28.4632 113.599 29.1143C113.94 29.749 114.404 30.2454 114.99 30.6035C115.576 30.9616 116.309 31.1406 117.188 31.1406C118.05 31.1406 118.766 30.9616 119.336 30.6035C119.922 30.2454 120.386 29.749 120.728 29.1143C121.069 28.4632 121.313 27.7064 121.46 26.8438C121.606 25.9811 121.68 25.0534 121.68 24.0605V23.5479C121.68 22.5876 121.606 21.6842 121.46 20.8379C121.313 19.9753 121.069 19.2184 120.728 18.5674C120.386 17.9001 119.922 17.3792 119.336 17.0049C118.75 16.6305 118.018 16.4434 117.139 16.4434C116.276 16.4434 115.552 16.6305 114.966 17.0049C114.396 17.3792 113.94 17.9001 113.599 18.5674C113.257 19.2184 113.013 19.9753 112.866 20.8379C112.72 21.6842 112.646 22.5876 112.646 23.5479ZM141.87 16.1748V37H133.643V10.584H141.357L141.87 16.1748ZM140.869 22.8887L138.989 22.9375C138.989 21.082 139.209 19.373 139.648 17.8105C140.088 16.248 140.739 14.889 141.602 13.7334C142.464 12.5778 143.522 11.6826 144.775 11.0479C146.045 10.4131 147.51 10.0957 149.17 10.0957C150.326 10.0957 151.375 10.2747 152.319 10.6328C153.263 10.9746 154.077 11.5199 154.761 12.2686C155.444 13.001 155.965 13.9613 156.323 15.1494C156.698 16.3213 156.885 17.7292 156.885 19.373V37H148.657V20.4229C148.657 19.2998 148.527 18.4535 148.267 17.8838C148.022 17.3141 147.664 16.9316 147.192 16.7363C146.72 16.541 146.143 16.4434 145.459 16.4434C144.743 16.4434 144.1 16.6061 143.53 16.9316C142.961 17.2572 142.472 17.7129 142.065 18.2988C141.675 18.8685 141.374 19.5439 141.162 20.3252C140.967 21.1064 140.869 21.9609 140.869 22.8887ZM155.957 22.8887L153.662 22.9375C153.662 21.082 153.866 19.373 154.272 17.8105C154.696 16.248 155.322 14.889 156.152 13.7334C156.999 12.5778 158.049 11.6826 159.302 11.0479C160.555 10.4131 162.012 10.0957 163.672 10.0957C164.876 10.0957 165.983 10.2747 166.992 10.6328C168.001 10.9909 168.872 11.5687 169.604 12.3662C170.337 13.1637 170.907 14.2217 171.313 15.54C171.72 16.8421 171.924 18.4535 171.924 20.374V37H163.672V20.374C163.672 19.2835 163.542 18.4616 163.281 17.9082C163.037 17.3385 162.679 16.9561 162.207 16.7607C161.735 16.5492 161.174 16.4434 160.522 16.4434C159.741 16.4434 159.066 16.6061 158.496 16.9316C157.926 17.2572 157.446 17.7129 157.056 18.2988C156.681 18.8685 156.405 19.5439 156.226 20.3252C156.047 21.1064 155.957 21.9609 155.957 22.8887ZM7.51953 88.3232L15.0635 83.6113C16.0726 82.9603 16.6911 82.3499 16.9189 81.7803C17.1631 81.1943 17.2852 80.6247 17.2852 80.0713C17.2852 79.404 17.041 78.7773 16.5527 78.1914C16.0807 77.5892 15.4134 77.2881 14.5508 77.2881C13.916 77.2881 13.3789 77.4346 12.9395 77.7275C12.5163 78.0042 12.1908 78.3786 11.9629 78.8506C11.7513 79.3226 11.6455 79.8516 11.6455 80.4375C11.6455 81.1699 11.849 81.9105 12.2559 82.6592C12.6628 83.4079 13.1999 84.1973 13.8672 85.0273C14.5508 85.8574 15.3076 86.7689 16.1377 87.7617L32.8613 107H23.6816L10.0586 91.5215C8.93555 90.0892 7.95898 88.7708 7.12891 87.5664C6.3151 86.362 5.68034 85.1901 5.22461 84.0508C4.76888 82.9115 4.54102 81.7396 4.54102 80.5352C4.54102 78.6634 4.94792 77.0114 5.76172 75.5791C6.5918 74.1305 7.75553 72.9993 9.25293 72.1855C10.7666 71.3555 12.5407 70.9404 14.5752 70.9404C16.4632 70.9404 18.099 71.3311 19.4824 72.1123C20.8822 72.8936 21.9645 73.9352 22.7295 75.2373C23.4945 76.5231 23.877 77.9391 23.877 79.4854C23.877 80.5596 23.6735 81.5768 23.2666 82.5371C22.8597 83.4974 22.2982 84.3763 21.582 85.1738C20.8822 85.9714 20.0765 86.6956 19.165 87.3467L11.0107 93.0352C10.6852 93.4421 10.4167 93.8571 10.2051 94.2803C10.0098 94.6872 9.86328 95.1022 9.76562 95.5254C9.68424 95.9486 9.64355 96.4043 9.64355 96.8926C9.64355 97.7389 9.82259 98.4876 10.1807 99.1387C10.5387 99.7734 11.0107 100.27 11.5967 100.628C12.1989 100.986 12.8499 101.165 13.5498 101.165C14.8682 101.165 16.1377 100.88 17.3584 100.311C18.5954 99.7246 19.7021 98.9027 20.6787 97.8447C21.6553 96.7868 22.4284 95.5254 22.998 94.0605C23.5677 92.5957 23.8525 90.9844 23.8525 89.2266H30.7373C30.7373 91.1471 30.542 92.9782 30.1514 94.7197C29.777 96.445 29.1504 98.04 28.2715 99.5049C27.4089 100.97 26.2451 102.256 24.7803 103.362C24.6989 103.411 24.5443 103.509 24.3164 103.655C24.1048 103.785 23.9502 103.875 23.8525 103.924C22.1436 105.145 20.459 106.048 18.7988 106.634C17.1387 107.22 15.2018 107.513 12.9883 107.513C10.5957 107.513 8.52865 107.081 6.78711 106.219C5.06185 105.356 3.72721 104.168 2.7832 102.654C1.83919 101.141 1.36719 99.4072 1.36719 97.4541C1.36719 96.0706 1.6276 94.8662 2.14844 93.8408C2.66927 92.7992 3.39355 91.8389 4.32129 90.96C5.24902 90.0811 6.3151 89.2021 7.51953 88.3232ZM57.2021 80.584V107H48.9502V80.584H57.2021ZM48.4619 73.7725C48.4619 72.6006 48.8851 71.6403 49.7314 70.8916C50.5778 70.1429 51.6764 69.7686 53.0273 69.7686C54.3783 69.7686 55.4769 70.1429 56.3232 70.8916C57.1696 71.6403 57.5928 72.6006 57.5928 73.7725C57.5928 74.9443 57.1696 75.9046 56.3232 76.6533C55.4769 77.402 54.3783 77.7764 53.0273 77.7764C51.6764 77.7764 50.5778 77.402 49.7314 76.6533C48.8851 75.9046 48.4619 74.9443 48.4619 73.7725ZM70.3613 86.2236V107H62.1338V80.584H69.8486L70.3613 86.2236ZM69.3848 92.8887L67.4561 92.9375C67.4561 90.9193 67.7002 89.1208 68.1885 87.542C68.6768 85.9469 69.3685 84.596 70.2637 83.4893C71.1589 82.3825 72.2249 81.5443 73.4619 80.9746C74.7152 80.3887 76.1068 80.0957 77.6367 80.0957C78.8574 80.0957 79.9723 80.2747 80.9814 80.6328C82.0068 80.9909 82.8857 81.5687 83.6182 82.3662C84.3669 83.1637 84.9365 84.2217 85.3271 85.54C85.734 86.8421 85.9375 88.4535 85.9375 90.374V107H77.6611V90.3496C77.6611 89.2917 77.5146 88.486 77.2217 87.9326C76.9287 87.363 76.5055 86.9723 75.9521 86.7607C75.3988 86.5492 74.7233 86.4434 73.9258 86.4434C73.0794 86.4434 72.3633 86.6061 71.7773 86.9316C71.1914 87.2572 70.7194 87.7129 70.3613 88.2988C70.0195 88.8685 69.7673 89.5439 69.6045 90.3252C69.458 91.1064 69.3848 91.9609 69.3848 92.8887ZM104.419 80.584V86.2969H88.501V80.584H104.419ZM91.8457 74.0166H100.073V98.3818C100.073 99.0817 100.155 99.627 100.317 100.018C100.48 100.392 100.757 100.66 101.147 100.823C101.554 100.97 102.091 101.043 102.759 101.043C103.231 101.043 103.621 101.035 103.931 101.019C104.24 100.986 104.533 100.945 104.81 100.896V106.78C104.11 107.008 103.377 107.179 102.612 107.293C101.847 107.423 101.034 107.488 100.171 107.488C98.4131 107.488 96.9076 107.212 95.6543 106.658C94.4173 106.105 93.4733 105.234 92.8223 104.046C92.1712 102.858 91.8457 101.312 91.8457 99.4072V74.0166ZM120.483 107.488C118.335 107.488 116.414 107.155 114.722 106.487C113.029 105.804 111.597 104.868 110.425 103.68C109.269 102.492 108.382 101.124 107.764 99.5781C107.161 98.0319 106.86 96.3962 106.86 94.6709V93.7432C106.86 91.8063 107.129 90.016 107.666 88.3721C108.203 86.7119 109.001 85.2633 110.059 84.0264C111.117 82.7894 112.443 81.8291 114.038 81.1455C115.633 80.4456 117.489 80.0957 119.604 80.0957C121.476 80.0957 123.153 80.3968 124.634 80.999C126.115 81.6012 127.368 82.4639 128.394 83.5869C129.435 84.71 130.225 86.069 130.762 87.6641C131.315 89.2591 131.592 91.0495 131.592 93.0352V96.3799H110.01V91.2285H123.56V90.5938C123.576 89.7148 123.421 88.9661 123.096 88.3477C122.786 87.7292 122.331 87.2572 121.729 86.9316C121.126 86.6061 120.394 86.4434 119.531 86.4434C118.636 86.4434 117.896 86.6387 117.31 87.0293C116.74 87.4199 116.292 87.957 115.967 88.6406C115.658 89.3079 115.438 90.0811 115.308 90.96C115.177 91.8389 115.112 92.7666 115.112 93.7432V94.6709C115.112 95.6475 115.243 96.5345 115.503 97.332C115.78 98.1296 116.17 98.8132 116.675 99.3828C117.196 99.9362 117.814 100.368 118.53 100.677C119.263 100.986 120.093 101.141 121.021 101.141C122.144 101.141 123.25 100.929 124.341 100.506C125.431 100.083 126.367 99.3828 127.148 98.4062L130.884 102.85C130.347 103.615 129.582 104.355 128.589 105.071C127.612 105.787 126.44 106.373 125.073 106.829C123.706 107.269 122.176 107.488 120.483 107.488ZM143.237 87.127V107H135.01V80.584H142.7L143.237 87.127ZM151.05 80.3887L150.903 88.0303C150.578 87.9977 150.138 87.957 149.585 87.9082C149.032 87.8594 148.568 87.835 148.193 87.835C147.233 87.835 146.403 87.9489 145.703 88.1768C145.02 88.3883 144.45 88.7139 143.994 89.1533C143.555 89.5765 143.229 90.1136 143.018 90.7646C142.822 91.4157 142.733 92.1725 142.749 93.0352L141.26 92.0586C141.26 90.2845 141.431 88.6732 141.772 87.2246C142.131 85.7598 142.635 84.4984 143.286 83.4404C143.937 82.3662 144.727 81.5443 145.654 80.9746C146.582 80.3887 147.624 80.0957 148.779 80.0957C149.186 80.0957 149.585 80.1201 149.976 80.1689C150.382 80.2178 150.741 80.291 151.05 80.3887ZM166.187 107.488C164.038 107.488 162.118 107.155 160.425 106.487C158.732 105.804 157.3 104.868 156.128 103.68C154.972 102.492 154.085 101.124 153.467 99.5781C152.865 98.0319 152.563 96.3962 152.563 94.6709V93.7432C152.563 91.8063 152.832 90.016 153.369 88.3721C153.906 86.7119 154.704 85.2633 155.762 84.0264C156.82 82.7894 158.146 81.8291 159.741 81.1455C161.336 80.4456 163.192 80.0957 165.308 80.0957C167.179 80.0957 168.856 80.3968 170.337 80.999C171.818 81.6012 173.071 82.4639 174.097 83.5869C175.138 84.71 175.928 86.069 176.465 87.6641C177.018 89.2591 177.295 91.0495 177.295 93.0352V96.3799H155.713V91.2285H169.263V90.5938C169.279 89.7148 169.124 88.9661 168.799 88.3477C168.49 87.7292 168.034 87.2572 167.432 86.9316C166.829 86.6061 166.097 86.4434 165.234 86.4434C164.339 86.4434 163.599 86.6387 163.013 87.0293C162.443 87.4199 161.995 87.957 161.67 88.6406C161.361 89.3079 161.141 90.0811 161.011 90.96C160.881 91.8389 160.815 92.7666 160.815 93.7432V94.6709C160.815 95.6475 160.946 96.5345 161.206 97.332C161.483 98.1296 161.873 98.8132 162.378 99.3828C162.899 99.9362 163.517 100.368 164.233 100.677C164.966 100.986 165.796 101.141 166.724 101.141C167.847 101.141 168.953 100.929 170.044 100.506C171.134 100.083 172.07 99.3828 172.852 98.4062L176.587 102.85C176.05 103.615 175.285 104.355 174.292 105.071C173.315 105.787 172.144 106.373 170.776 106.829C169.409 107.269 167.879 107.488 166.187 107.488ZM194.482 99.5781C194.482 99.1224 194.328 98.7318 194.019 98.4062C193.726 98.0645 193.205 97.7552 192.456 97.4785C191.707 97.1855 190.658 96.8926 189.307 96.5996C188.021 96.3229 186.808 95.9567 185.669 95.501C184.546 95.0452 183.561 94.4919 182.715 93.8408C181.868 93.1898 181.201 92.4167 180.713 91.5215C180.241 90.6263 180.005 89.6009 180.005 88.4453C180.005 87.3223 180.241 86.2643 180.713 85.2715C181.201 84.2624 181.909 83.3753 182.837 82.6104C183.781 81.8291 184.928 81.2188 186.279 80.7793C187.63 80.3236 189.168 80.0957 190.894 80.0957C193.27 80.0957 195.321 80.4619 197.046 81.1943C198.771 81.9105 200.098 82.9196 201.025 84.2217C201.969 85.5075 202.441 86.9967 202.441 88.6895H194.214C194.214 88.0221 194.1 87.4525 193.872 86.9805C193.66 86.5085 193.311 86.1504 192.822 85.9062C192.334 85.6458 191.683 85.5156 190.869 85.5156C190.299 85.5156 189.779 85.6214 189.307 85.833C188.851 86.0446 188.485 86.3376 188.208 86.7119C187.931 87.0863 187.793 87.5257 187.793 88.0303C187.793 88.3883 187.874 88.7139 188.037 89.0068C188.216 89.2835 188.485 89.5439 188.843 89.7881C189.201 90.016 189.657 90.2275 190.21 90.4229C190.763 90.6019 191.431 90.7646 192.212 90.9111C193.986 91.2367 195.646 91.7005 197.192 92.3027C198.739 92.9049 199.992 93.7594 200.952 94.8662C201.929 95.973 202.417 97.4622 202.417 99.334C202.417 100.506 202.148 101.588 201.611 102.581C201.074 103.558 200.301 104.42 199.292 105.169C198.283 105.901 197.07 106.471 195.654 106.878C194.238 107.285 192.643 107.488 190.869 107.488C188.346 107.488 186.214 107.041 184.473 106.146C182.731 105.234 181.413 104.095 180.518 102.728C179.639 101.344 179.199 99.9443 179.199 98.5283H186.865C186.898 99.3421 187.093 100.009 187.451 100.53C187.826 101.051 188.322 101.434 188.94 101.678C189.559 101.922 190.275 102.044 191.089 102.044C191.838 102.044 192.456 101.938 192.944 101.727C193.449 101.515 193.831 101.23 194.092 100.872C194.352 100.498 194.482 100.066 194.482 99.5781ZM220.19 80.584V86.2969H204.272V80.584H220.19ZM207.617 74.0166H215.845V98.3818C215.845 99.0817 215.926 99.627 216.089 100.018C216.252 100.392 216.528 100.66 216.919 100.823C217.326 100.97 217.863 101.043 218.53 101.043C219.002 101.043 219.393 101.035 219.702 101.019C220.011 100.986 220.304 100.945 220.581 100.896V106.78C219.881 107.008 219.149 107.179 218.384 107.293C217.619 107.423 216.805 107.488 215.942 107.488C214.185 107.488 212.679 107.212 211.426 106.658C210.189 106.105 209.245 105.234 208.594 104.046C207.943 102.858 207.617 101.312 207.617 99.4072V74.0166ZM232.153 80.584V107H223.901V80.584H232.153ZM223.413 73.7725C223.413 72.6006 223.836 71.6403 224.683 70.8916C225.529 70.1429 226.628 69.7686 227.979 69.7686C229.329 69.7686 230.428 70.1429 231.274 70.8916C232.121 71.6403 232.544 72.6006 232.544 73.7725C232.544 74.9443 232.121 75.9046 231.274 76.6533C230.428 77.402 229.329 77.7764 227.979 77.7764C226.628 77.7764 225.529 77.402 224.683 76.6533C223.836 75.9046 223.413 74.9443 223.413 73.7725ZM245.312 86.2236V107H237.085V80.584H244.8L245.312 86.2236ZM244.336 92.8887L242.407 92.9375C242.407 90.9193 242.651 89.1208 243.14 87.542C243.628 85.9469 244.32 84.596 245.215 83.4893C246.11 82.3825 247.176 81.5443 248.413 80.9746C249.666 80.3887 251.058 80.0957 252.588 80.0957C253.809 80.0957 254.924 80.2747 255.933 80.6328C256.958 80.9909 257.837 81.5687 258.569 82.3662C259.318 83.1637 259.888 84.2217 260.278 85.54C260.685 86.8421 260.889 88.4535 260.889 90.374V107H252.612V90.3496C252.612 89.2917 252.466 88.486 252.173 87.9326C251.88 87.363 251.457 86.9723 250.903 86.7607C250.35 86.5492 249.674 86.4434 248.877 86.4434C248.031 86.4434 247.314 86.6061 246.729 86.9316C246.143 87.2572 245.671 87.7129 245.312 88.2988C244.971 88.8685 244.718 89.5439 244.556 90.3252C244.409 91.1064 244.336 91.9609 244.336 92.8887ZM282.056 80.584H289.526V105.975C289.526 108.416 288.965 110.483 287.842 112.176C286.719 113.885 285.148 115.179 283.13 116.058C281.128 116.953 278.784 117.4 276.099 117.4C274.91 117.4 273.698 117.246 272.461 116.937C271.224 116.644 270.068 116.204 268.994 115.618C267.92 115.032 267.017 114.308 266.284 113.445L269.727 108.611C270.394 109.36 271.232 109.995 272.241 110.516C273.25 111.053 274.438 111.321 275.806 111.321C276.994 111.321 277.987 111.11 278.784 110.687C279.598 110.263 280.216 109.645 280.64 108.831C281.063 108.034 281.274 107.065 281.274 105.926V86.834L282.056 80.584ZM264.502 94.1094V93.5967C264.502 91.5947 264.746 89.7718 265.234 88.1279C265.739 86.4678 266.455 85.0436 267.383 83.8555C268.327 82.651 269.466 81.7233 270.801 81.0723C272.135 80.4212 273.641 80.0957 275.317 80.0957C277.124 80.0957 278.605 80.4456 279.761 81.1455C280.933 81.8291 281.868 82.7894 282.568 84.0264C283.285 85.2633 283.838 86.7119 284.229 88.3721C284.635 90.016 284.977 91.79 285.254 93.6943V94.3047C284.977 96.0951 284.595 97.7878 284.106 99.3828C283.634 100.962 283.016 102.361 282.251 103.582C281.486 104.803 280.526 105.763 279.37 106.463C278.231 107.146 276.864 107.488 275.269 107.488C273.608 107.488 272.111 107.155 270.776 106.487C269.458 105.82 268.327 104.884 267.383 103.68C266.455 102.475 265.739 101.059 265.234 99.4316C264.746 97.804 264.502 96.0299 264.502 94.1094ZM272.729 93.5967V94.1094C272.729 95.1022 272.819 96.0218 272.998 96.8682C273.193 97.7145 273.486 98.4632 273.877 99.1143C274.268 99.749 274.748 100.245 275.317 100.604C275.903 100.962 276.587 101.141 277.368 101.141C278.556 101.141 279.517 100.888 280.249 100.384C280.981 99.8792 281.51 99.1631 281.836 98.2354C282.161 97.3076 282.3 96.2171 282.251 94.9639V93.0352C282.284 91.9609 282.21 91.0169 282.031 90.2031C281.852 89.373 281.567 88.6813 281.177 88.1279C280.802 87.5745 280.298 87.1595 279.663 86.8828C279.045 86.5898 278.296 86.4434 277.417 86.4434C276.652 86.4434 275.977 86.6224 275.391 86.9805C274.805 87.3385 274.316 87.8431 273.926 88.4941C273.535 89.1289 273.234 89.8857 273.022 90.7646C272.827 91.6273 272.729 92.5713 272.729 93.5967ZM16.1621 169.578C16.1621 169.122 16.0075 168.732 15.6982 168.406C15.4053 168.064 14.8844 167.755 14.1357 167.479C13.387 167.186 12.3372 166.893 10.9863 166.6C9.70052 166.323 8.48796 165.957 7.34863 165.501C6.22559 165.045 5.24089 164.492 4.39453 163.841C3.54818 163.19 2.88086 162.417 2.39258 161.521C1.92057 160.626 1.68457 159.601 1.68457 158.445C1.68457 157.322 1.92057 156.264 2.39258 155.271C2.88086 154.262 3.58887 153.375 4.5166 152.61C5.46061 151.829 6.60807 151.219 7.95898 150.779C9.3099 150.324 10.848 150.096 12.5732 150.096C14.9495 150.096 17.0003 150.462 18.7256 151.194C20.4508 151.91 21.7773 152.92 22.7051 154.222C23.6491 155.507 24.1211 156.997 24.1211 158.689H15.8936C15.8936 158.022 15.7796 157.452 15.5518 156.98C15.3402 156.508 14.9902 156.15 14.502 155.906C14.0137 155.646 13.3626 155.516 12.5488 155.516C11.9792 155.516 11.4583 155.621 10.9863 155.833C10.5306 156.045 10.1644 156.338 9.8877 156.712C9.611 157.086 9.47266 157.526 9.47266 158.03C9.47266 158.388 9.55404 158.714 9.7168 159.007C9.89583 159.284 10.1644 159.544 10.5225 159.788C10.8805 160.016 11.3363 160.228 11.8896 160.423C12.443 160.602 13.1104 160.765 13.8916 160.911C15.6657 161.237 17.3258 161.701 18.8721 162.303C20.4183 162.905 21.6715 163.759 22.6318 164.866C23.6084 165.973 24.0967 167.462 24.0967 169.334C24.0967 170.506 23.8281 171.588 23.291 172.581C22.7539 173.558 21.9808 174.42 20.9717 175.169C19.9626 175.901 18.75 176.471 17.334 176.878C15.918 177.285 14.3229 177.488 12.5488 177.488C10.026 177.488 7.89388 177.041 6.15234 176.146C4.41081 175.234 3.09245 174.095 2.19727 172.728C1.31836 171.344 0.878906 169.944 0.878906 168.528H8.54492C8.57747 169.342 8.77279 170.009 9.13086 170.53C9.50521 171.051 10.0016 171.434 10.6201 171.678C11.2386 171.922 11.9548 172.044 12.7686 172.044C13.5173 172.044 14.1357 171.938 14.624 171.727C15.1286 171.515 15.5111 171.23 15.7715 170.872C16.0319 170.498 16.1621 170.066 16.1621 169.578ZM40.7471 177.488C38.5986 177.488 36.6781 177.155 34.9854 176.487C33.2926 175.804 31.8604 174.868 30.6885 173.68C29.5329 172.492 28.6458 171.124 28.0273 169.578C27.4251 168.032 27.124 166.396 27.124 164.671V163.743C27.124 161.806 27.3926 160.016 27.9297 158.372C28.4668 156.712 29.2643 155.263 30.3223 154.026C31.3802 152.789 32.7067 151.829 34.3018 151.146C35.8968 150.446 37.7523 150.096 39.8682 150.096C41.7399 150.096 43.4163 150.397 44.8975 150.999C46.3786 151.601 47.6318 152.464 48.6572 153.587C49.6989 154.71 50.4883 156.069 51.0254 157.664C51.5788 159.259 51.8555 161.049 51.8555 163.035V166.38H30.2734V161.229H43.8232V160.594C43.8395 159.715 43.6849 158.966 43.3594 158.348C43.0501 157.729 42.5944 157.257 41.9922 156.932C41.39 156.606 40.6576 156.443 39.7949 156.443C38.8997 156.443 38.1592 156.639 37.5732 157.029C37.0036 157.42 36.556 157.957 36.2305 158.641C35.9212 159.308 35.7015 160.081 35.5713 160.96C35.4411 161.839 35.376 162.767 35.376 163.743V164.671C35.376 165.647 35.5062 166.535 35.7666 167.332C36.0433 168.13 36.4339 168.813 36.9385 169.383C37.4593 169.936 38.0778 170.368 38.7939 170.677C39.5264 170.986 40.3564 171.141 41.2842 171.141C42.4072 171.141 43.514 170.929 44.6045 170.506C45.695 170.083 46.6309 169.383 47.4121 168.406L51.1475 172.85C50.6104 173.615 49.8454 174.355 48.8525 175.071C47.876 175.787 46.7041 176.373 45.3369 176.829C43.9697 177.269 42.4398 177.488 40.7471 177.488ZM63.8916 139.5V177H55.6396V139.5H63.8916ZM81.7627 177.488C79.6143 177.488 77.6937 177.155 76.001 176.487C74.3083 175.804 72.876 174.868 71.7041 173.68C70.5485 172.492 69.6615 171.124 69.043 169.578C68.4408 168.032 68.1396 166.396 68.1396 164.671V163.743C68.1396 161.806 68.4082 160.016 68.9453 158.372C69.4824 156.712 70.2799 155.263 71.3379 154.026C72.3958 152.789 73.7223 151.829 75.3174 151.146C76.9124 150.446 78.7679 150.096 80.8838 150.096C82.7555 150.096 84.432 150.397 85.9131 150.999C87.3942 151.601 88.6475 152.464 89.6729 153.587C90.7145 154.71 91.5039 156.069 92.041 157.664C92.5944 159.259 92.8711 161.049 92.8711 163.035V166.38H71.2891V161.229H84.8389V160.594C84.8551 159.715 84.7005 158.966 84.375 158.348C84.0658 157.729 83.61 157.257 83.0078 156.932C82.4056 156.606 81.6732 156.443 80.8105 156.443C79.9154 156.443 79.1748 156.639 78.5889 157.029C78.0192 157.42 77.5716 157.957 77.2461 158.641C76.9368 159.308 76.7171 160.081 76.5869 160.96C76.4567 161.839 76.3916 162.767 76.3916 163.743V164.671C76.3916 165.647 76.5218 166.535 76.7822 167.332C77.0589 168.13 77.4495 168.813 77.9541 169.383C78.4749 169.936 79.0934 170.368 79.8096 170.677C80.542 170.986 81.3721 171.141 82.2998 171.141C83.4229 171.141 84.5296 170.929 85.6201 170.506C86.7106 170.083 87.6465 169.383 88.4277 168.406L92.1631 172.85C91.626 173.615 90.861 174.355 89.8682 175.071C88.8916 175.787 87.7197 176.373 86.3525 176.829C84.9854 177.269 83.4554 177.488 81.7627 177.488ZM107.373 171.141C108.138 171.141 108.789 171.002 109.326 170.726C109.88 170.433 110.295 170.026 110.571 169.505C110.864 168.968 111.003 168.325 110.986 167.576H118.726C118.742 169.562 118.254 171.303 117.261 172.801C116.284 174.282 114.95 175.438 113.257 176.268C111.58 177.081 109.684 177.488 107.568 177.488C105.501 177.488 103.695 177.155 102.148 176.487C100.602 175.804 99.3083 174.86 98.2666 173.655C97.2412 172.435 96.4681 171.01 95.9473 169.383C95.4427 167.755 95.1904 165.989 95.1904 164.085V163.523C95.1904 161.619 95.4427 159.853 95.9473 158.226C96.4681 156.582 97.2412 155.158 98.2666 153.953C99.3083 152.732 100.594 151.788 102.124 151.121C103.67 150.438 105.469 150.096 107.52 150.096C109.717 150.096 111.654 150.511 113.33 151.341C115.023 152.171 116.349 153.375 117.31 154.954C118.27 156.533 118.742 158.445 118.726 160.691H110.986C111.003 159.894 110.881 159.178 110.62 158.543C110.36 157.908 109.953 157.404 109.399 157.029C108.862 156.639 108.171 156.443 107.324 156.443C106.478 156.443 105.794 156.631 105.273 157.005C104.753 157.379 104.354 157.9 104.077 158.567C103.817 159.218 103.638 159.967 103.54 160.813C103.459 161.66 103.418 162.563 103.418 163.523V164.085C103.418 165.062 103.459 165.981 103.54 166.844C103.638 167.69 103.825 168.439 104.102 169.09C104.378 169.725 104.777 170.229 105.298 170.604C105.819 170.962 106.51 171.141 107.373 171.141ZM136.157 150.584V156.297H120.239V150.584H136.157ZM123.584 144.017H131.812V168.382C131.812 169.082 131.893 169.627 132.056 170.018C132.218 170.392 132.495 170.66 132.886 170.823C133.293 170.97 133.83 171.043 134.497 171.043C134.969 171.043 135.36 171.035 135.669 171.019C135.978 170.986 136.271 170.945 136.548 170.896V176.78C135.848 177.008 135.116 177.179 134.351 177.293C133.586 177.423 132.772 177.488 131.909 177.488C130.151 177.488 128.646 177.212 127.393 176.658C126.156 176.105 125.212 175.234 124.561 174.046C123.91 172.858 123.584 171.312 123.584 169.407V144.017ZM152.222 177.488C150.073 177.488 148.153 177.155 146.46 176.487C144.767 175.804 143.335 174.868 142.163 173.68C141.007 172.492 140.12 171.124 139.502 169.578C138.9 168.032 138.599 166.396 138.599 164.671V163.743C138.599 161.806 138.867 160.016 139.404 158.372C139.941 156.712 140.739 155.263 141.797 154.026C142.855 152.789 144.181 151.829 145.776 151.146C147.371 150.446 149.227 150.096 151.343 150.096C153.215 150.096 154.891 150.397 156.372 150.999C157.853 151.601 159.106 152.464 160.132 153.587C161.174 154.71 161.963 156.069 162.5 157.664C163.053 159.259 163.33 161.049 163.33 163.035V166.38H141.748V161.229H155.298V160.594C155.314 159.715 155.16 158.966 154.834 158.348C154.525 157.729 154.069 157.257 153.467 156.932C152.865 156.606 152.132 156.443 151.27 156.443C150.374 156.443 149.634 156.639 149.048 157.029C148.478 157.42 148.031 157.957 147.705 158.641C147.396 159.308 147.176 160.081 147.046 160.96C146.916 161.839 146.851 162.767 146.851 163.743V164.671C146.851 165.647 146.981 166.535 147.241 167.332C147.518 168.13 147.909 168.813 148.413 169.383C148.934 169.936 149.552 170.368 150.269 170.677C151.001 170.986 151.831 171.141 152.759 171.141C153.882 171.141 154.989 170.929 156.079 170.506C157.17 170.083 158.105 169.383 158.887 168.406L162.622 172.85C162.085 173.615 161.32 174.355 160.327 175.071C159.351 175.787 158.179 176.373 156.812 176.829C155.444 177.269 153.914 177.488 152.222 177.488ZM181.86 170.945V139.5H190.137V177H182.715L181.86 170.945ZM165.649 164.109V163.597C165.649 161.595 165.869 159.772 166.309 158.128C166.748 156.468 167.399 155.044 168.262 153.855C169.124 152.651 170.199 151.723 171.484 151.072C172.77 150.421 174.251 150.096 175.928 150.096C177.425 150.096 178.735 150.446 179.858 151.146C180.981 151.829 181.942 152.789 182.739 154.026C183.537 155.263 184.188 156.712 184.692 158.372C185.197 160.016 185.579 161.79 185.84 163.694V164.305C185.579 166.095 185.197 167.788 184.692 169.383C184.188 170.962 183.537 172.361 182.739 173.582C181.942 174.803 180.973 175.763 179.834 176.463C178.711 177.146 177.393 177.488 175.879 177.488C174.202 177.488 172.721 177.155 171.436 176.487C170.166 175.82 169.1 174.884 168.237 173.68C167.391 172.475 166.748 171.059 166.309 169.432C165.869 167.804 165.649 166.03 165.649 164.109ZM173.877 163.597V164.109C173.877 165.102 173.942 166.022 174.072 166.868C174.202 167.715 174.422 168.463 174.731 169.114C175.057 169.749 175.48 170.245 176.001 170.604C176.538 170.962 177.197 171.141 177.979 171.141C179.036 171.141 179.907 170.888 180.591 170.384C181.291 169.879 181.803 169.163 182.129 168.235C182.471 167.308 182.617 166.217 182.568 164.964V163.035C182.601 161.961 182.528 161.017 182.349 160.203C182.17 159.373 181.885 158.681 181.494 158.128C181.12 157.575 180.64 157.16 180.054 156.883C179.484 156.59 178.809 156.443 178.027 156.443C177.262 156.443 176.611 156.622 176.074 156.98C175.553 157.339 175.13 157.843 174.805 158.494C174.479 159.129 174.243 159.886 174.097 160.765C173.95 161.627 173.877 162.571 173.877 163.597ZM13.4766 241.141C14.2415 241.141 14.8926 241.002 15.4297 240.726C15.9831 240.433 16.3981 240.026 16.6748 239.505C16.9678 238.968 17.1061 238.325 17.0898 237.576H24.8291C24.8454 239.562 24.3571 241.303 23.3643 242.801C22.3877 244.282 21.0531 245.438 19.3604 246.268C17.6839 247.081 15.7878 247.488 13.6719 247.488C11.6048 247.488 9.79818 247.155 8.25195 246.487C6.70573 245.804 5.41178 244.86 4.37012 243.655C3.34473 242.435 2.57161 241.01 2.05078 239.383C1.54622 237.755 1.29395 235.989 1.29395 234.085V233.523C1.29395 231.619 1.54622 229.853 2.05078 228.226C2.57161 226.582 3.34473 225.158 4.37012 223.953C5.41178 222.732 6.69759 221.788 8.22754 221.121C9.77376 220.438 11.5723 220.096 13.623 220.096C15.8203 220.096 17.7572 220.511 19.4336 221.341C21.1263 222.171 22.4528 223.375 23.4131 224.954C24.3734 226.533 24.8454 228.445 24.8291 230.691H17.0898C17.1061 229.894 16.984 229.178 16.7236 228.543C16.4632 227.908 16.0563 227.404 15.5029 227.029C14.9658 226.639 14.2741 226.443 13.4277 226.443C12.5814 226.443 11.8978 226.631 11.377 227.005C10.8561 227.379 10.4574 227.9 10.1807 228.567C9.92025 229.218 9.74121 229.967 9.64355 230.813C9.56217 231.66 9.52148 232.563 9.52148 233.523V234.085C9.52148 235.062 9.56217 235.981 9.64355 236.844C9.74121 237.69 9.92839 238.439 10.2051 239.09C10.4818 239.725 10.8805 240.229 11.4014 240.604C11.9222 240.962 12.6139 241.141 13.4766 241.141ZM27.3193 234.061V233.548C27.3193 231.611 27.596 229.829 28.1494 228.201C28.7028 226.557 29.5166 225.133 30.5908 223.929C31.665 222.724 32.9915 221.788 34.5703 221.121C36.1491 220.438 37.972 220.096 40.0391 220.096C42.1224 220.096 43.9535 220.438 45.5322 221.121C47.1273 221.788 48.4619 222.724 49.5361 223.929C50.6104 225.133 51.4242 226.557 51.9775 228.201C52.5309 229.829 52.8076 231.611 52.8076 233.548V234.061C52.8076 235.981 52.5309 237.763 51.9775 239.407C51.4242 241.035 50.6104 242.459 49.5361 243.68C48.4619 244.884 47.1354 245.82 45.5566 246.487C43.9779 247.155 42.1549 247.488 40.0879 247.488C38.0208 247.488 36.1898 247.155 34.5947 246.487C32.9997 245.82 31.665 244.884 30.5908 243.68C29.5166 242.459 28.7028 241.035 28.1494 239.407C27.596 237.763 27.3193 235.981 27.3193 234.061ZM35.5469 233.548V234.061C35.5469 235.053 35.6201 235.981 35.7666 236.844C35.9131 237.706 36.1572 238.463 36.499 239.114C36.8408 239.749 37.3047 240.245 37.8906 240.604C38.4766 240.962 39.209 241.141 40.0879 241.141C40.9505 241.141 41.6667 240.962 42.2363 240.604C42.8223 240.245 43.2861 239.749 43.6279 239.114C43.9697 238.463 44.2139 237.706 44.3604 236.844C44.5068 235.981 44.5801 235.053 44.5801 234.061V233.548C44.5801 232.588 44.5068 231.684 44.3604 230.838C44.2139 229.975 43.9697 229.218 43.6279 228.567C43.2861 227.9 42.8223 227.379 42.2363 227.005C41.6504 226.631 40.918 226.443 40.0391 226.443C39.1764 226.443 38.4521 226.631 37.8662 227.005C37.2965 227.379 36.8408 227.9 36.499 228.567C36.1572 229.218 35.9131 229.975 35.7666 230.838C35.6201 231.684 35.5469 232.588 35.5469 233.548ZM64.5508 226.224V247H56.3232V220.584H64.0381L64.5508 226.224ZM63.5742 232.889L61.6455 232.938C61.6455 230.919 61.8896 229.121 62.3779 227.542C62.8662 225.947 63.5579 224.596 64.4531 223.489C65.3483 222.382 66.4144 221.544 67.6514 220.975C68.9046 220.389 70.2962 220.096 71.8262 220.096C73.0469 220.096 74.1618 220.275 75.1709 220.633C76.1963 220.991 77.0752 221.569 77.8076 222.366C78.5563 223.164 79.126 224.222 79.5166 225.54C79.9235 226.842 80.127 228.453 80.127 230.374V247H71.8506V230.35C71.8506 229.292 71.7041 228.486 71.4111 227.933C71.1182 227.363 70.695 226.972 70.1416 226.761C69.5882 226.549 68.9128 226.443 68.1152 226.443C67.2689 226.443 66.5527 226.606 65.9668 226.932C65.3809 227.257 64.9089 227.713 64.5508 228.299C64.209 228.868 63.9567 229.544 63.7939 230.325C63.6475 231.106 63.5742 231.961 63.5742 232.889ZM98.6084 220.584V226.297H82.6904V220.584H98.6084ZM86.0352 214.017H94.2627V238.382C94.2627 239.082 94.3441 239.627 94.5068 240.018C94.6696 240.392 94.9463 240.66 95.3369 240.823C95.7438 240.97 96.2809 241.043 96.9482 241.043C97.4202 241.043 97.8109 241.035 98.1201 241.019C98.4294 240.986 98.7223 240.945 98.999 240.896V246.78C98.2992 247.008 97.5667 247.179 96.8018 247.293C96.0368 247.423 95.223 247.488 94.3604 247.488C92.6025 247.488 91.097 247.212 89.8438 246.658C88.6068 246.105 87.6628 245.234 87.0117 244.046C86.3607 242.858 86.0352 241.312 86.0352 239.407V214.017ZM114.673 247.488C112.524 247.488 110.604 247.155 108.911 246.487C107.218 245.804 105.786 244.868 104.614 243.68C103.459 242.492 102.572 241.124 101.953 239.578C101.351 238.032 101.05 236.396 101.05 234.671V233.743C101.05 231.806 101.318 230.016 101.855 228.372C102.393 226.712 103.19 225.263 104.248 224.026C105.306 222.789 106.632 221.829 108.228 221.146C109.823 220.446 111.678 220.096 113.794 220.096C115.666 220.096 117.342 220.397 118.823 220.999C120.304 221.601 121.558 222.464 122.583 223.587C123.625 224.71 124.414 226.069 124.951 227.664C125.505 229.259 125.781 231.049 125.781 233.035V236.38H104.199V231.229H117.749V230.594C117.765 229.715 117.611 228.966 117.285 228.348C116.976 227.729 116.52 227.257 115.918 226.932C115.316 226.606 114.583 226.443 113.721 226.443C112.826 226.443 112.085 226.639 111.499 227.029C110.929 227.42 110.482 227.957 110.156 228.641C109.847 229.308 109.627 230.081 109.497 230.96C109.367 231.839 109.302 232.767 109.302 233.743V234.671C109.302 235.647 109.432 236.535 109.692 237.332C109.969 238.13 110.36 238.813 110.864 239.383C111.385 239.936 112.004 240.368 112.72 240.677C113.452 240.986 114.282 241.141 115.21 241.141C116.333 241.141 117.44 240.929 118.53 240.506C119.621 240.083 120.557 239.383 121.338 238.406L125.073 242.85C124.536 243.615 123.771 244.355 122.778 245.071C121.802 245.787 120.63 246.373 119.263 246.829C117.896 247.269 116.366 247.488 114.673 247.488ZM137.207 226.224V247H128.979V220.584H136.694L137.207 226.224ZM136.23 232.889L134.302 232.938C134.302 230.919 134.546 229.121 135.034 227.542C135.522 225.947 136.214 224.596 137.109 223.489C138.005 222.382 139.071 221.544 140.308 220.975C141.561 220.389 142.952 220.096 144.482 220.096C145.703 220.096 146.818 220.275 147.827 220.633C148.853 220.991 149.731 221.569 150.464 222.366C151.213 223.164 151.782 224.222 152.173 225.54C152.58 226.842 152.783 228.453 152.783 230.374V247H144.507V230.35C144.507 229.292 144.36 228.486 144.067 227.933C143.774 227.363 143.351 226.972 142.798 226.761C142.244 226.549 141.569 226.443 140.771 226.443C139.925 226.443 139.209 226.606 138.623 226.932C138.037 227.257 137.565 227.713 137.207 228.299C136.865 228.868 136.613 229.544 136.45 230.325C136.304 231.106 136.23 231.961 136.23 232.889ZM171.265 220.584V226.297H155.347V220.584H171.265ZM158.691 214.017H166.919V238.382C166.919 239.082 167 239.627 167.163 240.018C167.326 240.392 167.603 240.66 167.993 240.823C168.4 240.97 168.937 241.043 169.604 241.043C170.076 241.043 170.467 241.035 170.776 241.019C171.086 240.986 171.379 240.945 171.655 240.896V246.78C170.955 247.008 170.223 247.179 169.458 247.293C168.693 247.423 167.879 247.488 167.017 247.488C165.259 247.488 163.753 247.212 162.5 246.658C161.263 246.105 160.319 245.234 159.668 244.046C159.017 242.858 158.691 241.312 158.691 239.407V214.017ZM185.962 234.061V233.548C185.962 231.611 186.239 229.829 186.792 228.201C187.345 226.557 188.159 225.133 189.233 223.929C190.308 222.724 191.634 221.788 193.213 221.121C194.792 220.438 196.615 220.096 198.682 220.096C200.765 220.096 202.596 220.438 204.175 221.121C205.77 221.788 207.104 222.724 208.179 223.929C209.253 225.133 210.067 226.557 210.62 228.201C211.174 229.829 211.45 231.611 211.45 233.548V234.061C211.45 235.981 211.174 237.763 210.62 239.407C210.067 241.035 209.253 242.459 208.179 243.68C207.104 244.884 205.778 245.82 204.199 246.487C202.62 247.155 200.798 247.488 198.73 247.488C196.663 247.488 194.832 247.155 193.237 246.487C191.642 245.82 190.308 244.884 189.233 243.68C188.159 242.459 187.345 241.035 186.792 239.407C186.239 237.763 185.962 235.981 185.962 234.061ZM194.189 233.548V234.061C194.189 235.053 194.263 235.981 194.409 236.844C194.556 237.706 194.8 238.463 195.142 239.114C195.483 239.749 195.947 240.245 196.533 240.604C197.119 240.962 197.852 241.141 198.73 241.141C199.593 241.141 200.309 240.962 200.879 240.604C201.465 240.245 201.929 239.749 202.271 239.114C202.612 238.463 202.856 237.706 203.003 236.844C203.149 235.981 203.223 235.053 203.223 234.061V233.548C203.223 232.588 203.149 231.684 203.003 230.838C202.856 229.975 202.612 229.218 202.271 228.567C201.929 227.9 201.465 227.379 200.879 227.005C200.293 226.631 199.561 226.443 198.682 226.443C197.819 226.443 197.095 226.631 196.509 227.005C195.939 227.379 195.483 227.9 195.142 228.567C194.8 229.218 194.556 229.975 194.409 230.838C194.263 231.684 194.189 232.588 194.189 233.548ZM223.193 226.224V247H214.966V220.584H222.681L223.193 226.224ZM222.217 232.889L220.288 232.938C220.288 230.919 220.532 229.121 221.021 227.542C221.509 225.947 222.201 224.596 223.096 223.489C223.991 222.382 225.057 221.544 226.294 220.975C227.547 220.389 228.939 220.096 230.469 220.096C231.689 220.096 232.804 220.275 233.813 220.633C234.839 220.991 235.718 221.569 236.45 222.366C237.199 223.164 237.769 224.222 238.159 225.54C238.566 226.842 238.77 228.453 238.77 230.374V247H230.493V230.35C230.493 229.292 230.347 228.486 230.054 227.933C229.761 227.363 229.338 226.972 228.784 226.761C228.231 226.549 227.555 226.443 226.758 226.443C225.911 226.443 225.195 226.606 224.609 226.932C224.023 227.257 223.551 227.713 223.193 228.299C222.852 228.868 222.599 229.544 222.437 230.325C222.29 231.106 222.217 231.961 222.217 232.889ZM252.026 209.5V247H243.774V209.5H252.026ZM265.21 243.899L272.046 220.584H280.884L270.264 250.931C270.036 251.598 269.735 252.314 269.36 253.079C268.986 253.86 268.473 254.601 267.822 255.301C267.171 256.001 266.333 256.57 265.308 257.01C264.299 257.449 263.045 257.669 261.548 257.669C260.75 257.669 260.164 257.628 259.79 257.547C259.432 257.482 258.879 257.36 258.13 257.181V251.297C258.341 251.297 258.521 251.297 258.667 251.297C258.83 251.297 259.009 251.297 259.204 251.297C260.083 251.297 260.783 251.207 261.304 251.028C261.841 250.849 262.248 250.589 262.524 250.247C262.817 249.905 263.045 249.49 263.208 249.002L265.21 243.899ZM263.477 220.584L268.677 239.065L269.58 247.781H264.062L254.663 220.584H263.477ZM12.4023 317H4.12598V288.436C4.12598 286.385 4.54102 284.66 5.37109 283.26C6.20117 281.86 7.37305 280.802 8.88672 280.086C10.4004 279.354 12.1908 278.987 14.2578 278.987C14.974 278.987 15.6494 279.036 16.2842 279.134C16.9189 279.231 17.5374 279.354 18.1396 279.5L18.1641 285.555C17.8711 285.473 17.57 285.416 17.2607 285.384C16.9515 285.351 16.569 285.335 16.1133 285.335C15.3158 285.335 14.6403 285.457 14.0869 285.701C13.5335 285.929 13.1104 286.279 12.8174 286.751C12.5407 287.207 12.4023 287.768 12.4023 288.436V317ZM17.5293 290.584V296.297H0.317383V290.584H17.5293ZM19.458 304.061V303.548C19.458 301.611 19.7347 299.829 20.2881 298.201C20.8415 296.557 21.6553 295.133 22.7295 293.929C23.8037 292.724 25.1302 291.788 26.709 291.121C28.2878 290.438 30.1107 290.096 32.1777 290.096C34.2611 290.096 36.0921 290.438 37.6709 291.121C39.266 291.788 40.6006 292.724 41.6748 293.929C42.749 295.133 43.5628 296.557 44.1162 298.201C44.6696 299.829 44.9463 301.611 44.9463 303.548V304.061C44.9463 305.981 44.6696 307.763 44.1162 309.407C43.5628 311.035 42.749 312.459 41.6748 313.68C40.6006 314.884 39.2741 315.82 37.6953 316.487C36.1165 317.155 34.2936 317.488 32.2266 317.488C30.1595 317.488 28.3285 317.155 26.7334 316.487C25.1383 315.82 23.8037 314.884 22.7295 313.68C21.6553 312.459 20.8415 311.035 20.2881 309.407C19.7347 307.763 19.458 305.981 19.458 304.061ZM27.6855 303.548V304.061C27.6855 305.053 27.7588 305.981 27.9053 306.844C28.0518 307.706 28.2959 308.463 28.6377 309.114C28.9795 309.749 29.4434 310.245 30.0293 310.604C30.6152 310.962 31.3477 311.141 32.2266 311.141C33.0892 311.141 33.8053 310.962 34.375 310.604C34.9609 310.245 35.4248 309.749 35.7666 309.114C36.1084 308.463 36.3525 307.706 36.499 306.844C36.6455 305.981 36.7188 305.053 36.7188 304.061V303.548C36.7188 302.588 36.6455 301.684 36.499 300.838C36.3525 299.975 36.1084 299.218 35.7666 298.567C35.4248 297.9 34.9609 297.379 34.375 297.005C33.7891 296.631 33.0566 296.443 32.1777 296.443C31.3151 296.443 30.5908 296.631 30.0049 297.005C29.4352 297.379 28.9795 297.9 28.6377 298.567C28.2959 299.218 28.0518 299.975 27.9053 300.838C27.7588 301.684 27.6855 302.588 27.6855 303.548ZM56.9092 297.127V317H48.6816V290.584H56.3721L56.9092 297.127ZM64.7217 290.389L64.5752 298.03C64.2497 297.998 63.8102 297.957 63.2568 297.908C62.7035 297.859 62.2396 297.835 61.8652 297.835C60.9049 297.835 60.0749 297.949 59.375 298.177C58.6914 298.388 58.1217 298.714 57.666 299.153C57.2266 299.576 56.901 300.114 56.6895 300.765C56.4941 301.416 56.4046 302.173 56.4209 303.035L54.9316 302.059C54.9316 300.285 55.1025 298.673 55.4443 297.225C55.8024 295.76 56.307 294.498 56.958 293.44C57.609 292.366 58.3984 291.544 59.3262 290.975C60.2539 290.389 61.2956 290.096 62.4512 290.096C62.8581 290.096 63.2568 290.12 63.6475 290.169C64.0544 290.218 64.4124 290.291 64.7217 290.389ZM88.1104 313.899L94.9463 290.584H103.784L93.1641 320.931C92.9362 321.598 92.6351 322.314 92.2607 323.079C91.8864 323.86 91.3737 324.601 90.7227 325.301C90.0716 326.001 89.2334 326.57 88.208 327.01C87.1989 327.449 85.9456 327.669 84.4482 327.669C83.6507 327.669 83.0648 327.628 82.6904 327.547C82.3324 327.482 81.779 327.36 81.0303 327.181V321.297C81.2419 321.297 81.4209 321.297 81.5674 321.297C81.7301 321.297 81.9092 321.297 82.1045 321.297C82.9834 321.297 83.6833 321.207 84.2041 321.028C84.7412 320.849 85.1481 320.589 85.4248 320.247C85.7178 319.905 85.9456 319.49 86.1084 319.002L88.1104 313.899ZM86.377 290.584L91.5771 309.065L92.4805 317.781H86.9629L77.5635 290.584H86.377ZM104.517 304.061V303.548C104.517 301.611 104.793 299.829 105.347 298.201C105.9 296.557 106.714 295.133 107.788 293.929C108.862 292.724 110.189 291.788 111.768 291.121C113.346 290.438 115.169 290.096 117.236 290.096C119.32 290.096 121.151 290.438 122.729 291.121C124.325 291.788 125.659 292.724 126.733 293.929C127.808 295.133 128.621 296.557 129.175 298.201C129.728 299.829 130.005 301.611 130.005 303.548V304.061C130.005 305.981 129.728 307.763 129.175 309.407C128.621 311.035 127.808 312.459 126.733 313.68C125.659 314.884 124.333 315.82 122.754 316.487C121.175 317.155 119.352 317.488 117.285 317.488C115.218 317.488 113.387 317.155 111.792 316.487C110.197 315.82 108.862 314.884 107.788 313.68C106.714 312.459 105.9 311.035 105.347 309.407C104.793 307.763 104.517 305.981 104.517 304.061ZM112.744 303.548V304.061C112.744 305.053 112.817 305.981 112.964 306.844C113.11 307.706 113.354 308.463 113.696 309.114C114.038 309.749 114.502 310.245 115.088 310.604C115.674 310.962 116.406 311.141 117.285 311.141C118.148 311.141 118.864 310.962 119.434 310.604C120.02 310.245 120.483 309.749 120.825 309.114C121.167 308.463 121.411 307.706 121.558 306.844C121.704 305.981 121.777 305.053 121.777 304.061V303.548C121.777 302.588 121.704 301.684 121.558 300.838C121.411 299.975 121.167 299.218 120.825 298.567C120.483 297.9 120.02 297.379 119.434 297.005C118.848 296.631 118.115 296.443 117.236 296.443C116.374 296.443 115.649 296.631 115.063 297.005C114.494 297.379 114.038 297.9 113.696 298.567C113.354 299.218 113.11 299.975 112.964 300.838C112.817 301.684 112.744 302.588 112.744 303.548ZM149.097 310.579V290.584H157.349V317H149.634L149.097 310.579ZM149.878 305.208L152.026 305.159C152.026 306.933 151.815 308.577 151.392 310.091C150.968 311.588 150.342 312.89 149.512 313.997C148.698 315.104 147.689 315.966 146.484 316.585C145.296 317.187 143.921 317.488 142.358 317.488C141.056 317.488 139.86 317.309 138.77 316.951C137.695 316.577 136.768 315.999 135.986 315.218C135.205 314.42 134.595 313.403 134.155 312.166C133.732 310.913 133.521 309.415 133.521 307.674V290.584H141.748V307.723C141.748 308.309 141.821 308.813 141.968 309.236C142.114 309.66 142.326 310.018 142.603 310.311C142.879 310.587 143.221 310.799 143.628 310.945C144.051 311.076 144.531 311.141 145.068 311.141C146.305 311.141 147.274 310.88 147.974 310.359C148.674 309.839 149.162 309.131 149.438 308.235C149.731 307.34 149.878 306.331 149.878 305.208Z" fill="url(#paint0_linear_355_105063)"/>
<defs>
<linearGradient id="paint0_linear_355_105063" x1="401.528" y1="606.536" x2="-12.0701" y2="598.748" gradientUnits="userSpaceOnUse">
<stop stop-color="#6768AB"/>
<stop offset="1" stop-color="#F73458"/>
</linearGradient>
</defs>
</svg>
