<svg xmlns="http://www.w3.org/2000/svg" width="158" height="158" viewBox="0 0 158 158">
  <g id="Group_3543" data-name="Group 3543" transform="translate(-46 -2484)">
    <circle id="Ellipse_106" data-name="Ellipse 106" cx="79" cy="79" r="79" transform="translate(46 2484)" fill="#f7f7f7"/>
    <g id="play-button" transform="translate(95.265 2533.265)">
      <g id="Group_2625" data-name="Group 2625">
        <g id="Group_2624" data-name="Group 2624">
          <path id="Path_2877" data-name="Path 2877" d="M50.79,8.714A29.752,29.752,0,0,0,8.714,50.79a29.764,29.764,0,0,0,36.432,4.426,2.324,2.324,0,0,0-2.409-3.976A25.326,25.326,0,1,1,50.6,43.685a2.324,2.324,0,0,0,3.865,2.584A29.679,29.679,0,0,0,50.79,8.714Z" fill="#393737"/>
          <path id="Path_2878" data-name="Path 2878" d="M174.877,145.987a5.238,5.238,0,0,0-7.862,4.544v15.221a5.224,5.224,0,0,0,7.862,4.543l13.115-7.61a5.256,5.256,0,0,0,0-9.087Z" transform="translate(-147.605 -128.389)" fill="#393737"/>
        </g>
      </g>
    </g>
  </g>
</svg>
