<svg xmlns="http://www.w3.org/2000/svg" width="93.198" height="93.197" viewBox="0 0 93.198 93.197">
  <g id="Group_3823" data-name="Group 3823" transform="translate(-982.166 -823.219) rotate(-45)">
    <path id="back" d="M60.747,92.325l-19.815-19.8a3.5,3.5,0,0,1,0-4.782l19.815-19.8a3.23,3.23,0,0,1,4.568,4.568L47.679,70.131,65.315,87.757a3.23,3.23,0,0,1-4.568,4.568Z" transform="translate(29.646 1272.369)" fill="#fff"/>
    <path id="back-2" data-name="back" d="M45.5,92.326l19.815-19.8a3.5,3.5,0,0,0,0-4.782L45.5,47.937a3.23,3.23,0,0,0-4.568,4.568L58.567,70.132,40.932,87.758A3.23,3.23,0,0,0,45.5,92.326Z" transform="translate(88.892 1272.369)" fill="#fff"/>
  </g>
</svg>
