<svg width="26" height="26" viewBox="0 0 26 26" fill="none" xmlns="http://www.w3.org/2000/svg">
<path d="M15.4375 4.33325H10.5625C7.11535 4.33325 5.39178 4.33325 4.32089 5.42114C3.25 6.50903 3.25 8.25996 3.25 11.7618V14.238C3.25 17.7399 3.25 19.4908 4.32089 20.5787C5.39178 21.6666 7.11535 21.6666 10.5625 21.6666H15.4375C18.8846 21.6666 20.6082 21.6666 21.6791 20.5787C22.75 19.4908 22.75 17.7399 22.75 14.238V11.7618C22.75 8.25996 22.75 6.50903 21.6791 5.42114C20.6082 4.33325 18.8846 4.33325 15.4375 4.33325Z" stroke="#23204A" stroke-width="1.5"/>
<path d="M7.58325 8.66675H10.8333" stroke="#23204A" stroke-width="1.5" stroke-linecap="round"/>
<path d="M16.25 15.3333V14.9999C16.25 14.0571 16.25 13.5857 16.5429 13.2928C16.8358 12.9999 17.3072 12.9999 18.25 12.9999H20.75C21.6928 12.9999 22.1642 12.9999 22.4571 13.2928C22.75 13.5857 22.75 14.0571 22.75 14.9999V15.3333C22.75 16.2761 22.75 16.7475 22.4571 17.0404C22.1642 17.3333 21.6928 17.3333 20.75 17.3333H18.25C17.3072 17.3333 16.8358 17.3333 16.5429 17.0404C16.25 16.7475 16.25 16.2761 16.25 15.3333Z" stroke="#23204A" stroke-width="1.5"/>
</svg>
