<svg xmlns="http://www.w3.org/2000/svg" width="80.879" height="56.616" viewBox="0 0 80.879 56.616"><defs><style>.a{fill:#84838b;}.b{fill:#0e0e0e;}</style></defs><path class="a" d="M163.739,93.88a10.13,10.13,0,0,0-7.151-7.15c-6.307-1.69-31.6-1.69-31.6-1.69s-25.291,0-31.6,1.69a10.13,10.13,0,0,0-7.151,7.15c-1.69,6.307-1.69,19.467-1.69,19.467s0,13.16,1.69,19.467a10.129,10.129,0,0,0,7.151,7.15c6.307,1.69,31.6,1.69,31.6,1.69s25.291,0,31.6-1.69a10.129,10.129,0,0,0,7.151-7.15c1.69-6.307,1.69-19.467,1.69-19.467S165.429,100.187,163.739,93.88Z" transform="translate(-84.55 -85.039)"/><path class="b" d="M133.144,133.6l21.012-12.132-21.012-12.132Z" transform="translate(-100.792 -93.16)"/></svg>