<svg width="26" height="26" viewBox="0 0 26 26" fill="none" xmlns="http://www.w3.org/2000/svg">
<path d="M5.25 18.4166H9.75C9.98214 18.4166 10.0982 18.4166 10.1962 18.423C11.6985 18.5215 12.8951 19.7181 12.9936 21.2204C13 21.3184 13 21.4344 13 21.6666V10.3333C13 7.50482 13 6.09061 12.1213 5.21193C11.2426 4.33325 9.82843 4.33325 7 4.33325H5.25C4.30719 4.33325 3.83579 4.33325 3.54289 4.62615C3.25 4.91904 3.25 5.39044 3.25 6.33325V16.4166C3.25 17.3594 3.25 17.8308 3.54289 18.1237C3.83579 18.4166 4.30719 18.4166 5.25 18.4166Z" stroke="#23204A" stroke-width="1.5"/>
<path d="M20.75 18.4166H16.25C16.0179 18.4166 15.9018 18.4166 15.8038 18.423C14.3015 18.5215 13.1049 19.7181 13.0064 21.2204C13 21.3184 13 21.4344 13 21.6666V10.3333C13 7.50482 13 6.09061 13.8787 5.21193C14.7574 4.33325 16.1716 4.33325 19 4.33325H20.75C21.6928 4.33325 22.1642 4.33325 22.4571 4.62615C22.75 4.91904 22.75 5.39044 22.75 6.33325V16.4166C22.75 17.3594 22.75 17.8308 22.4571 18.1237C22.1642 18.4166 21.6928 18.4166 20.75 18.4166Z" stroke="#23204A" stroke-width="1.5"/>
</svg>
