<svg xmlns="http://www.w3.org/2000/svg" width="175" height="175" ><defs><style>.a,.d{fill:#4285f4;}.b,.h{fill:none;}.c{fill:#fff;}.d,.e,.f,.g,.h{fill-rule:evenodd;}.e{fill:#34a853;}.f{fill:#fbbc05;}.g{fill:#ea4335;}</style></defs><g transform="translate(-3 -3)"><g transform="translate(3 3)"><rect class="a" width="175" height="175" rx="25"/><rect class="b" width="175" height="175" rx="2"/><rect class="b" width="175" height="175" rx="2"/><rect class="b" width="175" height="175" rx="2"/><g transform="translate(4.375 4.375)"><rect class="c" width="167" height="167" rx="25" transform="translate(-0.375 -0.375)"/><rect class="b" width="167" height="167" rx="1" transform="translate(-0.375 -0.375)"/><rect class="b" width="167" height="167" rx="1" transform="translate(-0.375 -0.375)"/><rect class="b" width="167" height="167" rx="1" transform="translate(-0.375 -0.375)"/></g><g transform="translate(48.125 48.125)"><path class="d" d="M46.8,15.418a45.269,45.269,0,0,0-.716-8.054H9V22.595H30.191a18.113,18.113,0,0,1-7.857,11.884v9.879H35.059C42.5,37.5,46.8,27.409,46.8,15.418Z" transform="translate(30.375 24.852)"/><path class="e" d="M36.144,42.6c10.631,0,19.544-3.526,26.059-9.54L49.478,23.185a23.666,23.666,0,0,1-13.334,3.759A23.466,23.466,0,0,1,14.112,10.71H.957v10.2A39.36,39.36,0,0,0,36.144,42.6Z" transform="translate(3.231 36.146)"/><path class="f" d="M17.343,30.122a23.278,23.278,0,0,1,0-14.963V4.958H4.188a39.425,39.425,0,0,0,0,35.366l13.155-10.2Z" transform="translate(0 16.734)"/><path class="g" d="M36.144,15.661A21.272,21.272,0,0,1,51.2,21.549L62.49,10.255A37.841,37.841,0,0,0,36.144,0,39.36,39.36,0,0,0,.957,21.692l13.155,10.2A23.466,23.466,0,0,1,36.144,15.661Z" transform="translate(3.231)"/><path class="h" d="M0,0H78.75V78.75H0Z"/></g></g></g></svg>
