<svg xmlns="http://www.w3.org/2000/svg" width="69.713" height="85.672" viewBox="0 0 69.713 85.672"><path d="M230.868,174.364a19.47,19.47,0,0,1,9.274-16.337,19.932,19.932,0,0,0-15.706-8.493c-6.607-.692-13.014,3.937-16.38,3.937-3.434,0-8.618-3.887-14.2-3.772a20.919,20.919,0,0,0-17.6,10.736c-7.612,13.175-1.933,32.539,5.356,43.193,3.648,5.213,7.908,11.043,13.489,10.836,5.459-.228,7.5-3.48,14.088-3.48,6.529,0,8.44,3.48,14.13,3.348,5.855-.093,9.545-5.238,13.068-10.5a43.056,43.056,0,0,0,5.969-12.148A18.815,18.815,0,0,1,230.868,174.364Z" transform="translate(-172.639 -128.796)"/><path d="M195.149,157.405a19.177,19.177,0,0,0,4.386-13.738,19.485,19.485,0,0,0-12.622,6.532,18.233,18.233,0,0,0-4.5,13.225A16.137,16.137,0,0,0,195.149,157.405Z" transform="translate(-147.671 -143.667)"/></svg>