<svg xmlns="http://www.w3.org/2000/svg" width="57.724" height="57.743" viewBox="0 0 57.724 57.743">
  <g id="pen_1_" data-name="pen (1)" transform="translate(0 0)">
    <path id="Path_2996" data-name="Path 2996" d="M.522,368.368a1.689,1.689,0,0,0,1.624,2.154,1.575,1.575,0,0,0,.463-.068l15.766-4.5L5.022,352.6Zm0,0" transform="translate(-0.406 -312.835)" fill="#84838b"/>
    <path id="Path_2997" data-name="Path 2997" d="M1.74,369.777a1.736,1.736,0,0,1-1.669-2.222L4.6,351.7l13.489,13.489L2.214,369.71a1.707,1.707,0,0,1-.474.068ZM4.65,351.9.173,367.578a1.628,1.628,0,0,0,1.567,2.075,1.569,1.569,0,0,0,.451-.067l15.676-4.477Zm0,0" transform="translate(0 -312.034)" fill="#84838b"/>
    <path id="Path_2998" data-name="Path 2998" d="M357.26,9.15,350.1,1.989a5.091,5.091,0,0,0-7.184-.011l-3.586,3.586L353.663,19.9l3.586-3.586a5.092,5.092,0,0,0,.011-7.161Zm0,0" transform="translate(-301.059 -0.444)" fill="#84838b"/>
    <path id="Path_2999" data-name="Path 2999" d="M353.143,19.533,338.73,5.12l3.62-3.62a5.119,5.119,0,0,1,7.241,0l7.162,7.161a5.12,5.12,0,0,1,0,7.24ZM338.888,5.12l14.256,14.256,3.541-3.542a5.009,5.009,0,0,0,0-7.082l-7.162-7.173a5.023,5.023,0,0,0-7.094,0Zm0,0" transform="translate(-300.528 0)" fill="#84838b"/>
    <path id="Path_3000" data-name="Path 3000" d="M57.8,95.961,87.175,66.59l14.338,14.338L72.143,110.3Zm0,0" transform="translate(-51.286 -59.08)" fill="#84838b"/>
    <path id="Path_3001" data-name="Path 3001" d="M71.456,109.769,57.032,95.345,86.49,65.9,100.9,80.311ZM57.2,95.345,71.456,109.6l29.289-29.289L86.49,66.056Zm0,0" transform="translate(-50.6 -58.466)" fill="#84838b"/>
  </g>
</svg>
