<svg width="376" height="273" viewBox="0 0 376 273" fill="none" xmlns="http://www.w3.org/2000/svg">
<path d="M13.2153 243.995C9.39012 240.868 5.39741 237.881 1.85144 234.446C0.204104 232.855 -1.33155 231.124 -2.50423 229.141C-3.1185 228.136 -3.62107 227.047 -3.98405 225.93C-4.29118 225.009 -4.59831 223.585 -3.2581 223.445C-2.75552 223.39 -2.22502 223.501 -1.75037 223.641C-1.21987 223.78 -0.9965 222.971 -1.527 222.831C-3.1185 222.44 -5.40802 222.552 -5.15673 224.786C-4.8496 227.298 -3.20226 229.867 -1.69452 231.794C2.21442 236.82 7.74278 240.589 12.629 244.582C13.0478 244.917 13.6341 244.33 13.2153 243.995Z" fill="#E8E8E8"/>
<path d="M-1.3879 222.971C-3.00732 221.045 -4.26377 218.811 -4.98971 216.382C-5.32476 215.293 -5.46437 214.176 -5.79942 213.115C-6.02279 212.445 -6.4416 211.831 -5.82734 211.244C-5.54813 210.993 -5.12932 210.825 -4.82218 210.602C-3.87287 209.96 -3.34237 209.206 -4.51505 208.396C-5.18516 207.95 -6.02279 207.866 -6.74874 207.503C-7.72597 206.972 -8.47984 206.107 -9.03826 205.185C-10.2109 203.287 -10.8531 201.053 -11.5511 198.959C-12.3888 196.474 -13.1985 193.933 -13.9244 191.42C-15.3763 186.339 -16.5769 181.201 -17.5542 176.036C-17.6379 176.203 -17.7496 176.371 -17.8334 176.538C-12.5842 174.807 -7.363 179.247 -3.62158 182.402C0.23152 185.641 3.69373 189.354 6.73712 193.375C13.0193 201.751 17.4029 211.412 20.1392 221.491C21.8145 227.662 22.8755 234 23.4618 240.366C23.5176 240.896 24.3553 240.896 24.2994 240.366C22.2612 218.392 14.1641 196.139 -3.17485 181.648C-7.13963 178.353 -12.5005 173.914 -18.0288 175.729C-18.2522 175.812 -18.3639 176.008 -18.308 176.231C-17.275 181.76 -15.9627 187.232 -14.3712 192.649C-13.6173 195.19 -12.8355 197.703 -11.97 200.188C-11.2719 202.198 -10.6298 204.348 -9.40123 206.107C-8.92657 206.777 -8.39608 207.391 -7.72597 207.866C-6.91626 208.452 -5.96695 208.508 -5.15724 209.011C-4.09624 209.653 -5.6319 210.155 -6.19032 210.546C-6.60913 210.853 -7.00002 211.216 -7.08379 211.775C-7.19547 212.612 -6.46952 213.59 -6.27408 214.371C-5.99487 215.572 -5.74358 216.745 -5.29684 217.917C-4.48713 219.984 -3.34237 221.882 -1.9184 223.585C-1.63919 223.976 -1.05285 223.39 -1.3879 222.971Z" fill="#E8E8E8"/>
<path d="M-13.3382 180.531C-1.66725 193.71 7.40708 209.094 13.3263 225.679C14.9737 230.286 16.3418 234.977 17.4866 239.723C17.6262 240.254 18.408 240.031 18.2963 239.5C14.164 222.301 6.73697 205.911 -3.53796 191.476C-6.3859 187.455 -9.45722 183.602 -12.724 179.917C-13.1149 179.554 -13.7012 180.14 -13.3382 180.531Z" fill="#E8E8E8"/>
<path d="M-1.61126 217.443C0.203606 217.387 1.71134 218.337 3.19115 219.23C4.53136 220.04 5.84365 220.85 7.12802 221.743C9.78051 223.586 12.1817 225.764 13.7732 228.612C14.0245 229.086 14.7505 228.668 14.4992 228.193C12.8239 225.233 10.311 222.944 7.54683 221.045C6.09494 220.04 4.55928 219.091 3.02363 218.197C1.57174 217.332 0.0919218 216.606 -1.63918 216.634C-2.14176 216.606 -2.14176 217.443 -1.61126 217.443Z" fill="#E8E8E8"/>
<path d="M9.50083 212.416C8.74696 207.893 8.77489 203.314 9.58459 198.819C9.66836 198.288 8.85865 198.065 8.77489 198.595C7.93726 203.258 7.90933 207.977 8.69112 212.64C8.77489 213.17 9.58459 212.947 9.50083 212.416Z" fill="#E8E8E8"/>
<path d="M8.07707 193.291C8.66341 187.763 9.83609 182.234 11.7906 177.041C13.4379 172.657 15.8949 168.358 20.111 166.012C19.8877 165.901 19.6922 165.761 19.4688 165.649C19.9156 173.411 24.4667 180.308 24.6621 188.098C24.7738 187.958 24.8576 187.819 24.9693 187.707C23.9083 187.986 22.8473 188.265 21.7863 188.544C21.4792 188.628 21.3675 189.019 21.5908 189.242C22.8752 190.471 23.1265 192.202 23.1823 193.905C23.2103 194.799 23.6849 199.127 22.6518 199.406C22.4005 199.489 22.2609 199.797 22.4005 200.02C25.4998 204.99 24.0758 210.881 23.2103 216.242C22.3168 221.77 22.2051 227.355 22.8473 232.883C22.9031 233.414 23.7408 233.414 23.6849 232.883C22.959 226.657 23.3219 220.542 24.3829 214.399C25.2485 209.429 25.9465 204.096 23.1544 199.573C23.0707 199.769 22.9869 199.992 22.9031 200.188C23.657 199.992 23.9083 199.406 24.02 198.68C24.2154 197.34 24.0758 195.86 24.0479 194.52C24.02 192.398 23.7966 190.192 22.1772 188.656C22.1213 188.88 22.0655 189.131 21.9817 189.354C23.0427 189.075 24.1037 188.796 25.1647 188.517C25.3323 188.461 25.4719 188.293 25.4719 188.126C25.2764 180.308 20.7532 173.439 20.2786 165.677C20.2506 165.37 19.9435 165.147 19.6364 165.314C15.4761 167.632 12.9632 171.736 11.2321 176.064C9.02638 181.564 7.79786 187.456 7.18359 193.347C7.18359 193.822 8.02122 193.822 8.07707 193.291Z" fill="#E8E8E8"/>
<path d="M18.2123 169.838C15.2247 181.146 13.6891 192.817 13.6611 204.515C13.6611 205.046 14.4988 205.046 14.4988 204.515C14.5267 192.872 16.0344 181.313 18.994 170.061C19.1616 169.53 18.3519 169.307 18.2123 169.838Z" fill="#E8E8E8"/>
<path d="M346.033 153.113C347.82 158.864 349.161 164.728 349.998 170.703C350.417 173.718 350.724 176.79 350.864 179.833C350.92 180.615 350.948 181.425 350.975 182.206C351.003 182.681 350.864 183.463 351.031 183.91C351.199 184.328 351.785 184.608 352.12 184.887C352.707 185.361 353.293 185.836 353.851 186.311C353.879 186.087 353.907 185.864 353.935 185.641C353.153 186.115 352.399 186.339 351.478 186.367C351.283 186.367 351.143 186.506 351.087 186.674C350.277 189.187 350.864 191.839 352.679 193.794C352.79 193.542 352.874 193.319 352.986 193.068C350.082 192.956 350.026 196.306 350.305 198.373C350.696 201.248 351.255 204.124 352.064 206.916C353.684 212.389 356.392 217.582 360.832 221.324C361.25 221.659 361.837 221.072 361.418 220.737C357.676 217.582 355.164 213.338 353.544 208.731C352.79 206.553 352.204 204.32 351.757 202.086C351.394 200.215 349.579 193.794 352.986 193.905C353.377 193.933 353.516 193.459 353.293 193.179C351.701 191.448 351.199 189.103 351.925 186.897C351.785 187.009 351.646 187.093 351.534 187.204C352.595 187.204 353.488 186.953 354.41 186.367C354.605 186.227 354.717 185.892 354.493 185.696C353.46 184.859 352.036 184.133 351.869 182.737C351.701 181.257 351.757 179.721 351.646 178.242C351.45 175.477 351.171 172.713 350.752 169.949C349.914 164.169 348.602 158.473 346.871 152.889C346.676 152.359 345.866 152.582 346.033 153.113Z" fill="#E8E8E8"/>
<path d="M347.402 154.369C346.257 152.861 348.407 151.745 349.663 152.052C350.92 152.387 351.953 153.392 352.818 154.285C354.41 155.905 355.666 157.804 356.755 159.786C359.017 163.862 360.915 168.218 362.591 172.546C366.025 181.453 368.398 190.778 369.655 200.216C370.353 205.576 370.716 210.965 370.716 216.354C370.716 216.884 371.553 216.884 371.553 216.354C371.553 205.13 370.018 193.933 367.002 183.156C365.522 177.907 363.707 172.769 361.558 167.743C359.575 163.109 357.453 158.139 354.047 154.341C352.679 152.806 350.361 150.432 348.072 151.242C346.676 151.717 345.754 153.504 346.704 154.788C347.011 155.207 347.737 154.816 347.402 154.369Z" fill="#E8E8E8"/>
<path d="M367.504 185.055C368.928 180.28 370.576 175.618 372.446 171.011C373.424 168.637 374.457 166.264 375.574 163.947C376.104 162.858 376.635 161.741 377.193 160.652C377.556 159.954 378.645 156.883 379.79 157.162C380.125 157.246 380.348 156.966 380.292 156.659C380.013 154.928 381.968 153.448 383.001 152.303C383.922 151.298 384.815 150.293 385.737 149.288C387.636 147.222 389.506 145.156 391.405 143.062C391.181 143.006 390.93 142.95 390.707 142.866C393.583 149.986 392.829 157.776 391.154 165.091C390.288 168.833 389.199 172.546 388.278 176.288C387.636 178.884 386.937 182.821 383.754 183.38C383.531 183.408 383.419 183.687 383.475 183.882C384.285 187.205 382.051 190.276 380.571 193.068C379.175 195.693 377.891 198.401 376.718 201.165C374.429 206.554 372.614 212.11 371.246 217.778C371.106 218.309 371.916 218.532 372.056 218.002C373.563 211.719 375.629 205.605 378.282 199.713C379.538 196.921 380.934 194.185 382.414 191.505C383.754 189.075 384.983 186.507 384.313 183.687C384.229 183.854 384.117 184.022 384.034 184.189C386.742 183.715 387.915 180.978 388.613 178.577C389.758 174.557 390.791 170.424 391.768 166.348C393.639 158.586 394.644 150.237 391.572 142.643C391.461 142.364 391.098 142.196 390.874 142.447C388.501 145.044 386.128 147.669 383.754 150.265C382.638 151.494 381.437 152.666 380.404 153.979C379.734 154.872 379.371 155.71 379.538 156.827C379.706 156.659 379.873 156.492 380.041 156.324C378.031 155.822 377.053 159.116 376.383 160.429C375.043 163.081 373.787 165.761 372.642 168.47C370.352 173.775 368.398 179.247 366.751 184.776C366.527 185.334 367.337 185.557 367.504 185.055Z" fill="#E8E8E8"/>
<path d="M389.338 150.292C380.627 166.542 371.748 183.294 369.654 201.862C369.598 202.392 370.436 202.392 370.492 201.862C372.586 183.434 381.437 166.793 390.064 150.711C390.344 150.236 389.618 149.817 389.338 150.292Z" fill="#E8E8E8"/>
<path d="M353.014 161.461C359.798 179.415 363.847 198.345 365.048 217.499C365.075 218.029 365.913 218.029 365.885 217.499C364.685 198.261 360.636 179.275 353.823 161.238C353.628 160.763 352.818 160.959 353.014 161.461Z" fill="#E8E8E8"/>
<path d="M0.203461 152.471C17.2353 149.428 34.8255 149.595 51.8015 152.974C60.2057 154.649 68.4424 157.078 76.372 160.261C84.6645 163.584 92.622 167.577 100.747 171.262C131.404 185.167 164.212 194.269 197.633 198.234C216.591 200.495 235.745 201.082 254.787 200.021C255.318 199.993 255.318 199.155 254.787 199.183C220.612 201.11 186.185 197.62 153.071 188.936C136.458 184.58 120.18 178.912 104.461 172.016C96.3076 168.442 88.3501 164.421 80.1693 160.931C72.3514 157.609 64.2822 154.928 56.0176 153.03C37.6735 148.842 18.5196 148.367 -0.0199066 151.689C-0.550406 151.745 -0.327038 152.555 0.203461 152.471Z" fill="#E8E8E8"/>
<path d="M152.094 188.321C167.981 189.131 183.31 183.407 198.247 178.828C213.883 174.053 229.575 169.418 245.294 164.895C260.93 160.4 276.566 155.681 292.453 152.079C308.284 148.506 324.422 146.802 340.644 146.328C358.709 145.769 376.774 146.579 394.811 147.417C395.342 147.445 395.342 146.607 394.811 146.579C362.953 145.127 330.677 143.703 299.182 149.818C283.211 152.917 267.575 157.664 251.939 162.103C236.22 166.598 220.528 171.205 204.865 175.924C196.181 178.549 187.526 181.397 178.786 183.798C170.075 186.199 161.14 187.93 152.066 187.483C151.563 187.455 151.563 188.293 152.094 188.321Z" fill="#E8E8E8"/>
<path d="M84.3012 159.674C95.33 162.857 106.778 160.651 117.779 158.529C129.561 156.268 141.456 154.732 153.462 154.257C177.25 153.364 200.899 156.77 224.604 157.719C237.727 158.25 250.906 157.943 263.861 155.793C264.392 155.709 264.168 154.899 263.638 154.983C240.324 158.864 216.647 156.547 193.249 154.788C181.55 153.894 169.823 153.14 158.069 153.336C146.425 153.531 134.782 154.648 123.279 156.686C110.547 158.92 97.3124 162.606 84.4967 158.892C83.9941 158.725 83.7707 159.534 84.3012 159.674Z" fill="#E8E8E8"/>
<path d="M133.722 213.477C137.296 211.998 141.149 211.244 145.03 211.355C148.632 211.467 151.871 212.64 155.361 213.366C157.958 213.924 160.555 213.924 162.649 212.081C163.458 211.383 164.156 210.657 165.329 211.02C166.195 211.272 166.921 211.858 167.73 212.221C168.68 212.668 169.657 212.835 170.662 212.64C173.063 212.165 174.878 210.183 176.972 209.038C180.518 207.139 183.924 209.68 187.387 210.602C194.59 212.528 202.296 211.942 209.668 211.858C218.742 211.774 227.844 211.83 236.863 210.713C237.393 210.657 237.393 209.82 236.863 209.876C228.766 210.853 220.585 210.909 212.432 210.993C204.67 211.076 196.461 211.802 188.811 210.071C187.024 209.68 185.348 209.094 183.645 208.396C182.165 207.782 180.63 207.195 179.01 207.419C176.47 207.754 174.571 209.764 172.421 210.993C171.304 211.635 170.076 212.081 168.791 211.718C167.395 211.3 166.25 210.071 164.715 210.015C163.263 209.987 162.565 211.16 161.504 211.914C160.024 212.947 158.153 212.975 156.422 212.696C152.737 212.109 149.302 210.685 145.533 210.518C141.429 210.322 137.324 211.076 133.499 212.668C132.997 212.863 133.22 213.673 133.722 213.477Z" fill="#E8E8E8"/>
<path d="M151.536 188.572C152.038 188.656 152.513 188.768 153.015 188.851C153.546 188.963 153.741 188.237 153.239 188.042C152.932 187.93 152.625 187.818 152.289 187.707C151.843 187.539 151.536 188.265 151.954 188.46C154.523 189.801 157.204 190.862 159.996 191.615C160.526 191.755 160.75 190.945 160.219 190.806C157.483 190.08 154.886 189.047 152.373 187.734C152.262 187.986 152.15 188.237 152.038 188.488C152.345 188.6 152.652 188.712 152.987 188.823C153.071 188.544 153.127 188.293 153.211 188.014C152.708 187.93 152.234 187.818 151.731 187.734C151.228 187.651 151.005 188.46 151.536 188.572Z" fill="#E8E8E8"/>
<path d="M114.009 227.271C113.395 226.545 112.836 225.791 112.362 224.953C112.138 224.534 111.859 224.088 111.72 223.613C111.524 223.306 111.496 222.943 111.608 222.58C111.524 222.189 111.636 221.882 111.915 221.659C112.334 220.514 111.831 219.313 111.552 218.14C111.133 216.298 110.714 214.455 110.296 212.612C110.072 211.635 109.849 210.686 109.653 209.708C109.542 209.262 109.458 208.843 109.346 208.396C109.179 207.614 109.011 207.251 109.598 206.609C109.877 206.023 110.296 205.911 110.854 206.358C111.105 206.609 111.357 206.86 111.608 207.112C111.887 207.475 112.083 207.893 112.306 208.284C112.697 209.01 113.088 209.736 113.451 210.462C114.316 212.193 115.07 213.98 115.712 215.795C116.941 219.201 117.778 222.72 118.281 226.321C118.421 226.154 118.56 225.958 118.672 225.791C118.728 225.847 118.756 225.93 118.812 225.986C118.951 225.456 118.141 225.232 118.002 225.763C117.89 226.265 118.141 226.628 118.672 226.628C118.979 226.628 119.119 226.377 119.063 226.098C118.421 221.491 117.22 216.996 115.377 212.724C114.512 210.713 113.59 208.48 112.306 206.693C111.608 205.716 110.351 204.822 109.151 205.52C107.783 206.302 108.425 208.229 108.704 209.429C109.263 211.886 109.821 214.343 110.351 216.8C110.603 217.973 111.133 219.285 111.189 220.486C111.217 221.463 110.407 221.91 110.547 222.887C110.826 224.702 112.194 226.545 113.339 227.885C113.758 228.248 114.344 227.662 114.009 227.271Z" fill="#E8E8E8"/>
<path d="M116.578 215.264C116.159 212.751 116.215 210.183 116.801 207.698C116.941 207.056 117.136 206.441 117.36 205.827C117.751 204.766 118.309 204.878 118.868 205.66C119.594 206.693 120.152 207.837 120.571 209.01C122.274 213.868 121.52 219.09 120.794 224.032C120.71 224.562 121.52 224.785 121.604 224.255C122.525 218.029 123.475 210.965 119.705 205.408C119.286 204.794 118.728 203.761 117.862 203.901C116.941 204.068 116.634 205.324 116.383 206.05C115.377 209.094 115.21 212.333 115.74 215.46C115.88 216.018 116.69 215.795 116.578 215.264Z" fill="#E8E8E8"/>
<path d="M118.086 208.842C118.924 213.198 119.231 217.581 119.092 221.993C119.064 222.523 119.901 222.523 119.929 221.993C120.097 217.498 119.734 213.03 118.896 208.619C118.784 208.088 118.003 208.312 118.086 208.842Z" fill="#E8E8E8"/>
<path d="M15.3927 149.315C14.583 147.528 12.7681 146.271 11.6234 144.708C10.3669 142.977 9.30591 141.106 8.27283 139.263C8.18907 139.459 8.10531 139.682 8.02155 139.877C13.6337 138.872 16.8725 144.401 17.9614 149.063C18.0731 149.594 18.8828 149.371 18.7711 148.84C17.5705 143.675 13.885 138.007 7.79818 139.068C7.51897 139.124 7.4352 139.459 7.54689 139.682C8.57997 141.553 9.61304 143.423 10.8974 145.127C12.0422 146.69 13.885 148.002 14.6667 149.734C14.8901 150.236 15.6161 149.817 15.3927 149.315Z" fill="#E8E8E8"/>
<path d="M17.8217 144.82C18.2406 140.436 22.4287 137.7 24.0481 133.819C23.8527 133.903 23.6293 133.986 23.4339 134.07C25.3046 135.271 23.9085 139.626 23.378 141.302C22.5962 143.759 21.3119 145.992 19.6645 147.947C19.3295 148.366 19.9158 148.952 20.2509 148.533C22.317 146.104 23.7968 143.284 24.5507 140.185C25.0254 138.23 25.9188 134.684 23.8527 133.344C23.6014 133.177 23.3222 133.372 23.2384 133.595C21.5632 137.616 17.4309 140.241 16.9841 144.82C16.9283 145.35 17.7659 145.35 17.8217 144.82Z" fill="#E8E8E8"/>
<path d="M265.761 157.496C265.509 156.854 265.258 156.212 265.007 155.57C264.867 155.262 264.755 154.927 264.616 154.62C264.448 154.397 264.448 154.146 264.588 153.894C264.839 154.118 265.342 153.978 265.314 153.587C265.174 152.191 265.035 150.767 264.895 149.371C264.867 149.036 264.532 147.724 264.728 147.472C265.593 146.272 266.179 148.254 266.263 148.561C267.017 151.13 266.989 154.09 266.961 156.742C266.961 157.273 267.799 157.273 267.799 156.742C267.827 154.564 267.715 152.414 267.408 150.265C267.212 148.896 266.989 146.914 265.649 146.104C264.783 145.574 264.057 146.132 263.89 147.054C263.722 147.947 264.002 149.008 264.085 149.874C264.197 151.102 264.337 152.331 264.448 153.559C264.7 153.448 264.923 153.364 265.174 153.252C264.7 152.805 263.974 152.889 263.694 153.503C263.499 153.922 263.667 154.369 263.806 154.788C264.141 155.765 264.588 156.714 264.951 157.692C265.146 158.222 265.956 157.999 265.761 157.496Z" fill="#E8E8E8"/>
<path d="M267.631 152.945C267.519 149.036 268.329 145.211 270.032 141.665C269.809 141.693 269.585 141.721 269.362 141.749C271.177 143.256 269.976 147.333 269.669 149.287C269.25 151.912 268.72 154.536 268.05 157.105C267.91 157.636 268.72 157.859 268.86 157.329C269.669 154.201 270.283 151.018 270.73 147.807C271.009 145.741 271.819 142.698 269.948 141.134C269.753 140.967 269.418 140.967 269.278 141.218C267.519 144.876 266.654 148.841 266.765 152.917C266.821 153.475 267.659 153.475 267.631 152.945Z" fill="#E8E8E8"/>
<path d="M121.102 238.411C122.861 236.624 125.597 239.026 127.636 238.914C128.613 238.858 129.506 238.495 130.4 238.188C131.6 237.797 132.745 237.658 134.002 237.769C138.972 238.188 143.802 238.551 148.8 238.216C149.33 238.188 149.33 237.35 148.8 237.378C146.092 237.546 143.411 237.602 140.703 237.49C137.966 237.378 135.119 236.708 132.41 236.904C131.321 236.987 130.316 237.35 129.283 237.685C127.775 238.16 126.631 238.076 125.179 237.546C123.587 236.96 121.8 236.485 120.488 237.825C120.125 238.216 120.711 238.802 121.102 238.411Z" fill="#E8E8E8"/>
<path d="M68.3588 245.196C70.3132 243.074 73.7475 242.934 75.8137 244.945C75.8416 244.721 75.8695 244.498 75.8974 244.275C74.4455 244.973 72.9657 245.28 71.3742 245.196C70.8437 245.168 70.8437 246.006 71.3742 246.034C73.1333 246.117 74.7527 245.782 76.3442 245.001C76.5955 244.889 76.6234 244.526 76.4279 244.33C74.0267 242.013 70.034 242.125 67.7724 244.582C67.4094 245.001 67.9958 245.587 68.3588 245.196Z" fill="#E8E8E8"/>
<path d="M30.4419 229.7C30.4978 229.477 30.6653 229.337 30.8887 229.337C31.0841 229.309 31.2796 229.281 31.4471 229.254C31.8938 229.198 32.3126 229.226 32.7594 229.281C33.6249 229.393 34.4067 229.7 35.1606 230.175C35.1885 229.924 35.2164 229.672 35.2723 229.421C34.2392 229.784 33.2061 229.868 32.1172 229.7C31.5867 229.617 31.3633 230.426 31.8938 230.51C33.1223 230.705 34.295 230.622 35.4956 230.231C35.8307 230.119 35.9144 229.672 35.6073 229.477C34.1554 228.556 32.2568 228.109 30.5536 228.583C29.6322 228.835 28.9063 230.259 30.2186 230.538C30.7491 230.622 30.9724 229.812 30.4419 229.7Z" fill="#E8E8E8"/>
<path d="M53.5602 37.687C46.915 35.3417 42.1684 28.8919 41.4425 21.9117C40.6886 14.708 44.7372 7.83946 50.824 4.15389C57.3854 0.189104 66.711 0.161182 72.0998 6.1642C74.8639 9.20759 76.5671 13.3678 77.5723 17.3047C78.6054 21.3532 78.7729 25.8485 76.4555 29.5062C74.1101 33.1638 69.9219 35.2021 65.9851 36.7377C61.8248 38.3851 56.827 39.6694 52.7505 37.1007C52.3038 36.8215 51.885 37.5474 52.3317 37.8266C55.9893 40.1162 60.4009 39.5298 64.3098 38.2454C68.135 36.989 72.1835 35.23 75.1432 32.382C81.7604 26.044 79.0521 15.5736 74.9198 8.62125C72.742 4.93568 69.4752 2.22734 65.315 1.1105C61.3502 0.0494984 57.1062 0.412472 53.3368 1.94813C46.4124 4.79607 40.9958 11.4413 40.549 19.0358C40.0464 27.4121 45.4352 35.7046 53.3368 38.4967C53.8394 38.6922 54.0628 37.8825 53.5602 37.687Z" fill="#E8E8E8"/>
<path d="M263.499 199.769C282.541 198.569 301.472 196 320.123 192.063C325.512 190.918 330.872 189.662 336.205 188.294C336.736 188.154 336.512 187.344 335.982 187.484C317.498 192.203 298.679 195.609 279.693 197.591C274.304 198.15 268.916 198.596 263.527 198.932C262.968 198.959 262.968 199.797 263.499 199.769Z" fill="#E8E8E8"/>
<path d="M219.859 219.928C222.316 220.347 224.829 220.319 227.258 219.733C228.765 219.37 229.854 218.783 231.418 219.286C232.395 219.593 233.317 219.705 234.322 219.509C235.439 219.286 236.472 218.728 237.421 218.113C238.454 217.415 239.487 216.438 240.744 216.187C242.195 215.908 243.508 217.052 244.904 217.359C245.909 217.583 246.942 217.555 247.947 217.387C248.478 217.304 248.254 216.494 247.724 216.578C245.965 216.885 244.597 216.438 243.005 215.74C242.335 215.433 241.693 215.265 240.939 215.321C238.677 215.572 237.114 217.694 235.02 218.448C233.679 218.923 232.591 218.755 231.278 218.337C230.273 218.03 229.547 218.197 228.57 218.504C225.806 219.37 222.986 219.621 220.138 219.146C219.579 219.035 219.328 219.844 219.859 219.928Z" fill="#E8E8E8"/>
<path d="M81.5091 256.253C103.204 256.253 124.898 256.253 146.593 256.253C147.682 256.253 147.682 254.578 146.593 254.578C124.898 254.578 103.204 254.578 81.5091 254.578C80.4202 254.578 80.4202 256.253 81.5091 256.253Z" fill="#161616"/>
<path d="M151.256 255.75C153.797 255.75 156.338 255.75 158.879 255.75C159.968 255.75 159.968 254.075 158.879 254.075C156.338 254.075 153.797 254.075 151.256 254.075C150.167 254.075 150.167 255.75 151.256 255.75Z" fill="#161616"/>
<path d="M164.519 255.499C165.329 255.499 166.166 255.499 166.976 255.499C168.065 255.499 168.065 253.824 166.976 253.824C166.166 253.824 165.329 253.824 164.519 253.824C163.43 253.824 163.43 255.499 164.519 255.499Z" fill="#161616"/>
<path d="M11.5116 262.396C27.5662 262.396 43.5928 262.396 59.6474 262.396C60.7363 262.396 60.7363 260.721 59.6474 260.721C43.5928 260.721 27.5662 260.721 11.5116 260.721C10.4506 260.721 10.4506 262.396 11.5116 262.396Z" fill="#161616"/>
<path d="M64.3104 262.396C68.4985 262.396 72.6588 262.396 76.8469 262.396C77.9359 262.396 77.9359 260.721 76.8469 260.721C72.6588 260.721 68.4985 260.721 64.3104 260.721C63.2494 260.721 63.2494 262.396 64.3104 262.396Z" fill="#161616"/>
<path d="M83.9669 261.893C84.2182 261.893 84.4695 261.893 84.6928 261.893C85.1396 261.893 85.5584 261.502 85.5305 261.055C85.5025 260.609 85.1675 260.218 84.6928 260.218C84.4415 260.218 84.1903 260.218 83.9669 260.218C83.5201 260.218 83.1013 260.609 83.1293 261.055C83.1572 261.502 83.4922 261.893 83.9669 261.893Z" fill="#161616"/>
<path d="M2.68876 262.619C3.2751 262.619 3.83352 262.619 4.41986 262.619C5.50878 262.619 5.50878 260.943 4.41986 260.943C3.83352 260.943 3.2751 260.943 2.68876 260.943C1.59984 260.943 1.59984 262.619 2.68876 262.619Z" fill="#161616"/>
<path d="M223.935 231.934C246.439 231.934 268.944 231.934 291.476 231.934C292.565 231.934 292.565 230.259 291.476 230.259C268.971 230.259 246.467 230.259 223.935 230.259C222.846 230.259 222.846 231.934 223.935 231.934Z" fill="#161616"/>
<path d="M300.299 230.957C320.681 230.957 341.063 230.957 361.446 230.957C362.535 230.957 362.535 229.281 361.446 229.281C341.063 229.281 320.681 229.281 300.299 229.281C299.238 229.281 299.238 230.957 300.299 230.957Z" fill="#161616"/>
<path d="M366.863 230.454C368.51 230.454 370.129 230.454 371.777 230.454C372.866 230.454 372.866 228.778 371.777 228.778C370.129 228.778 368.51 228.778 366.863 228.778C365.774 228.778 365.774 230.454 366.863 230.454Z" fill="#161616"/>
<path d="M345.251 221.127C349.914 221.127 354.577 221.127 359.24 221.127C360.329 221.127 360.329 219.452 359.24 219.452C354.577 219.452 349.914 219.452 345.251 219.452C344.162 219.452 344.162 221.127 345.251 221.127Z" fill="#161616"/>
<path d="M363.903 220.876C365.048 220.876 366.193 220.876 367.337 220.876C368.426 220.876 368.426 219.201 367.337 219.201C366.193 219.201 365.048 219.201 363.903 219.201C362.842 219.201 362.842 220.876 363.903 220.876Z" fill="#161616"/>
<path d="M210.421 236.848C216.396 236.848 222.371 236.848 228.346 236.848C229.435 236.848 229.435 235.173 228.346 235.173C222.371 235.173 216.396 235.173 210.421 235.173C209.36 235.173 209.36 236.848 210.421 236.848Z" fill="#161616"/>
<path d="M234.74 236.596C237.28 236.596 239.821 236.596 242.362 236.596C243.451 236.596 243.451 234.921 242.362 234.921C239.821 234.921 237.28 234.921 234.74 234.921C233.651 234.921 233.651 236.596 234.74 236.596Z" fill="#161616"/>
<path d="M245.797 240.785C247.528 240.785 249.231 240.785 250.963 240.785C252.051 240.785 252.051 239.109 250.963 239.109C249.231 239.109 247.528 239.109 245.797 239.109C244.708 239.109 244.708 240.785 245.797 240.785Z" fill="#161616"/>
<path d="M126.881 100.788C125.876 99.5319 129.674 98.7501 130.288 98.4988C131.488 97.9683 132.242 96.9911 132.521 95.7067C132.801 94.3944 132.521 92.9984 132.912 91.714C133.499 89.8154 135.677 89.927 137.296 90.0108C138.385 90.0666 138.357 88.3914 137.296 88.3355C135.453 88.2239 133.331 88.2797 132.047 89.7874C130.902 91.1276 131.125 92.9425 130.986 94.5898C130.874 96.0697 130.316 96.7956 128.864 97.2144C128.026 97.4657 127.189 97.6053 126.491 98.1358C125.206 99.0572 124.676 100.677 125.709 101.961C126.351 102.827 127.552 101.626 126.881 100.788Z" fill="#161616"/>
<path d="M132.829 102.185C132.075 101.292 133.806 100.398 134.364 100.063C135.118 99.6164 135.76 99.1976 136.319 98.5275C137.464 97.1594 138.217 94.5627 140.284 94.451C141.345 94.3952 141.373 92.7199 140.284 92.7758C136.849 92.9433 136.57 96.5172 134.225 98.1925C133.22 98.8905 132.019 99.2814 131.377 100.398C130.79 101.403 130.902 102.492 131.628 103.358C132.326 104.195 133.527 102.995 132.829 102.185Z" fill="#161616"/>
<path d="M263.666 11.804C263.554 13.5909 262.158 15.7409 263.833 17.2486C265.285 18.533 267.1 17.5836 268.748 17.6953C270.562 17.8349 269.781 19.5102 269.557 20.7387C269.39 21.6601 269.306 22.6653 269.725 23.5587C270.395 24.9548 272.21 25.8483 273.55 24.8431C274.388 24.2009 273.55 22.749 272.712 23.3912C271.344 24.4243 271.065 21.9393 271.205 21.1855C271.344 20.3757 271.623 19.566 271.651 18.7284C271.679 17.5557 271.065 16.6343 269.976 16.2434C268.636 15.7688 267.435 16.2993 266.095 16.2714C263.666 16.2155 265.285 13.2559 265.369 11.804C265.425 10.7151 263.75 10.7151 263.666 11.804Z" fill="#161616"/>
<path d="M273.271 13.7309C272.573 15.2386 271.903 17.0256 273.02 18.5333C273.438 19.0917 273.997 19.4268 274.667 19.5385C275.114 19.5943 275.7 19.3988 276.091 19.5664C276.733 19.8177 277.096 20.5715 276.789 21.2416C276.314 22.2189 277.766 23.0565 278.241 22.0793C278.827 20.8228 278.604 19.3709 277.487 18.4495C276.873 17.947 276.314 17.947 275.56 17.8632C273.522 17.6677 274.081 15.9646 274.723 14.5964C275.169 13.6192 273.718 12.7536 273.271 13.7309Z" fill="#161616"/>
<path d="M362.256 71.6385C361.641 70.047 363.121 67.7575 364.992 68.3438C366.416 68.8185 367.058 70.9404 366.109 72.1131C365.439 72.9508 366.611 74.1234 367.281 73.2858C369.013 71.1917 368.147 67.5341 365.439 66.7244C362.451 65.8309 359.575 69.2373 360.664 72.0573C361.027 73.0904 362.647 72.6436 362.256 71.6385Z" fill="#161616"/>
<path d="M36.3054 137.924C36.1378 135.941 38.6507 134.824 39.7117 136.695C40.6052 138.315 38.8462 139.739 37.3105 139.208C36.3054 138.845 35.8586 140.464 36.8638 140.827C39.963 141.944 42.8947 138.426 41.024 135.634C39.0137 132.647 34.3509 134.406 34.658 137.924C34.7139 138.985 36.3891 139.013 36.3054 137.924Z" fill="#161616"/>
<path d="M46.0217 59.6613C45.3795 60.7223 45.3237 62.0904 46.1613 63.0677C46.5801 63.5423 47.1665 63.8495 47.7807 63.9612C48.6463 64.1008 49.2885 63.6261 50.0423 63.9891C50.7962 64.38 50.6287 64.8546 50.7124 65.6364C50.7404 66.1111 50.7683 66.5578 50.8241 67.0325C50.88 67.535 50.9358 68.0376 51.2988 68.4285C51.6338 68.7915 52.0526 68.9311 52.5273 69.0149C52.8624 69.0707 53.1974 69.0428 53.5604 69.0428C53.8396 69.0428 54.1467 69.0428 54.4259 69.0986C54.9564 69.2382 55.1798 69.6012 55.124 70.1317C54.7051 70.4388 55.096 71.1648 55.5428 70.8576C56.3804 70.2434 56.1012 69.2941 55.3752 68.6798C55.0402 68.4006 54.6772 68.261 54.2305 68.2051C52.7786 68.0097 51.941 68.5681 51.6059 66.5299C51.4384 65.5247 51.8014 63.4307 50.7683 62.7605C50.2936 62.4534 49.8748 62.593 49.4001 62.7885C48.6463 63.0956 48.032 63.3469 47.2502 62.8722C46.1892 62.23 46.1613 60.9736 46.7477 60.0243C47.0269 59.6334 46.3009 59.2146 46.0217 59.6613Z" fill="#EC615B"/>
<path d="M57.3016 62.9832C56.7431 63.9604 56.073 65.4403 56.9386 66.4454C57.497 67.1155 58.4463 67.0318 59.1723 67.4506C60.317 68.0928 60.8475 69.433 60.6242 70.6894C60.5404 71.2199 61.3501 71.4433 61.4339 70.9128C61.6572 69.6563 61.378 68.4278 60.5125 67.4785C60.1495 67.0597 59.6748 66.7525 59.1723 66.5292C58.5859 66.2779 57.5808 65.9708 57.3853 65.2448C57.2457 64.7143 57.8041 63.8208 58.0275 63.402C58.2788 62.9274 57.5529 62.5086 57.3016 62.9832Z" fill="#EC615B"/>
<path d="M214.469 151.158C213.52 149.203 215.307 146.914 217.429 147.668C219.635 148.449 219.551 151.465 217.457 152.303C216.954 152.498 217.178 153.308 217.68 153.112C220.389 152.023 220.751 148.142 217.931 146.97C215.028 145.741 212.459 148.896 213.771 151.605C213.995 152.079 214.721 151.632 214.469 151.158Z" fill="#EC615B"/>
<path d="M111.637 144.541C109.85 144.178 112.726 142.251 113.033 142.056C113.48 141.749 113.898 141.413 114.122 140.883C114.876 139.18 113.508 135.773 116.523 135.606C117.054 135.578 117.054 134.74 116.523 134.768C115.35 134.824 114.485 135.466 113.954 136.471C113.089 138.091 114.122 140.297 112.447 141.413C111.497 142.056 110.492 142.474 110.38 143.731C110.325 144.485 110.632 145.155 111.413 145.322C111.944 145.462 112.167 144.652 111.637 144.541Z" fill="#EC615B"/>
<path d="M116.997 142.111C116.215 141.022 116.662 139.486 117.974 139.067C118.868 138.788 119.538 138.928 120.04 138.006C120.543 137.057 120.459 135.94 121.018 134.963C121.716 133.707 122.888 132.841 124.229 132.422C124.731 132.255 124.536 131.445 124.005 131.613C122.749 132.003 121.66 132.701 120.85 133.735C120.431 134.265 120.068 134.879 119.845 135.549C119.538 136.443 119.677 137.643 118.672 138.118C118.058 138.425 117.444 138.258 116.857 138.704C116.467 138.984 116.187 139.402 116.02 139.821C115.629 140.743 115.713 141.72 116.299 142.53C116.578 142.976 117.304 142.558 116.997 142.111Z" fill="#EC615B"/>
<path d="M88.6016 13.7027C88.099 12.6975 90.2489 13.0605 90.3327 13.0884C90.6398 13.2001 90.9469 13.4514 91.2261 13.6189C91.6729 13.8702 92.1755 14.1215 92.7059 14.1494C93.404 14.1773 93.9903 13.8702 94.4371 13.3676C95.7214 11.804 95.2468 7.75549 98.2622 8.9561C99.1557 9.31907 100.161 9.84957 101.138 9.40283C101.92 9.03986 102.087 8.25807 101.976 7.47628C101.92 7.08539 101.473 6.3036 101.585 5.91271C101.808 5.15884 102.506 5.103 103.037 5.35429C103.288 5.46597 103.511 5.6335 103.791 5.71726C104.628 6.02439 105.438 5.96855 105.941 5.18676C106.22 4.74002 105.494 4.32121 105.215 4.76795C104.656 5.66142 102.422 3.81863 101.417 4.37705C100.608 4.79587 100.636 5.6335 100.831 6.41529C101.054 7.33668 101.613 8.67689 99.9096 8.64897C99.1557 8.64897 98.4577 8.00678 97.7317 7.86718C96.8662 7.69965 96.0844 7.92302 95.526 8.59312C94.1299 10.2405 94.6604 14.5403 91.4216 12.7813C90.4723 12.2787 89.6905 11.7761 88.6295 12.2508C87.8198 12.6137 87.4289 13.3118 87.8477 14.1215C88.1269 14.5961 88.8249 14.1773 88.6016 13.7027Z" fill="#5222D0"/>
<path d="M121.856 36.4862C120.599 36.1791 120.432 34.5597 121.046 33.6103C121.912 32.2701 123.95 32.3539 125.318 32.6052C127.607 33.024 129.729 33.9175 132.047 33.0519C134.281 32.2143 135.956 30.3994 138.469 30.3436C141.093 30.2877 143.578 31.4325 146.231 31.3487C150.866 31.2091 155.082 28.9196 159.521 27.8586C162.146 27.2164 164.714 27.1606 167.339 27.8307C169.852 28.4729 172.197 29.506 174.71 30.1202C177.335 30.7903 179.931 30.6786 182.584 30.4553C185.488 30.2319 188.475 30.0085 191.1 31.5163C191.044 31.3487 190.96 31.2091 190.904 31.0416C189.508 35.146 184.985 36.8213 180.992 37.0446C175.995 37.3238 171.136 35.509 166.11 35.7044C161.029 35.8999 156.729 38.9991 151.731 39.4738C146.622 39.9763 141.791 37.5472 136.71 37.6868C131.544 37.8264 124.815 40.6464 120.739 36.0395C120.376 35.6486 119.79 36.2349 120.153 36.6258C123.363 40.2276 128.445 39.5854 132.717 38.9433C135.872 38.4686 138.748 38.4407 141.903 39.0549C144.583 39.5854 147.264 40.3114 150 40.3672C155.528 40.5068 160.191 36.9329 165.636 36.57C171.136 36.207 176.469 38.4128 181.97 37.7985C186.074 37.3518 190.346 35.4252 191.742 31.2371C191.798 31.0695 191.714 30.8462 191.547 30.7624C186.632 27.8865 180.713 30.5949 175.436 29.3943C172.532 28.7242 169.824 27.4398 166.892 26.8255C164.351 26.2671 161.839 26.4067 159.326 27.021C156.645 27.6632 154.104 28.7242 151.48 29.5339C148.464 30.4553 145.589 30.7345 142.461 30.0923C139.976 29.5618 137.687 29.143 135.342 30.3157C134.253 30.8741 133.247 31.628 132.131 32.1305C130.232 32.9682 128.417 32.4656 126.491 31.9909C124.452 31.5163 121.381 31.1812 120.236 33.4428C119.51 34.8668 120.013 36.905 121.688 37.2959C122.163 37.4076 122.386 36.5979 121.856 36.4862Z" fill="#E8E8E8"/>
<path d="M5.592 79.5123C9.38926 79.0097 12.9911 80.9642 16.7604 80.4895C18.2961 80.2941 19.72 79.624 21.144 79.0376C21.8141 78.7584 22.5121 78.5071 23.2381 78.3396C24.6062 78.0325 25.8347 78.3955 27.1749 78.6747C30.9164 79.4844 35.1045 78.5909 38.8459 78.0604C40.6887 77.8091 42.5036 77.5299 44.3464 77.2228C46.4404 76.8598 48.5345 76.3014 50.6286 76.078C52.8344 75.8546 55.431 76.8319 54.5375 79.5402C53.7837 81.8577 50.9637 82.5278 48.8417 82.6953C45.1561 82.9745 41.4984 81.9135 37.8129 82.6115C34.3786 83.2537 31.3073 85.0407 27.9847 86.0179C26.1419 86.5763 24.2991 86.7997 22.4005 86.5484C20.5018 86.2692 18.7149 85.7945 16.7604 85.9341C12.7956 86.1854 8.57955 88.5029 4.61477 87.5815C2.18564 87.023 0.929195 84.7894 2.10188 82.4719C3.24664 80.2382 5.87121 79.6519 8.16074 79.6519C8.69124 79.6519 8.69124 78.8143 8.16074 78.8143C4.94982 78.8143 1.15256 80.2103 0.817511 83.8959C0.51038 87.3023 3.8609 88.6983 6.73677 88.5866C8.83084 88.5029 10.897 87.8886 12.9352 87.4139C15.5877 86.7997 18.0169 86.5763 20.6973 87.0789C22.6797 87.4419 24.5225 87.6373 26.5328 87.2464C28.5989 86.8555 30.5534 86.0179 32.4799 85.2361C34.4344 84.4543 36.4168 83.6446 38.5109 83.3375C40.9679 82.9745 43.425 83.3654 45.882 83.505C49.0929 83.7004 54.2025 83.5608 55.3752 79.7636C55.794 78.3955 55.4869 76.804 54.2863 75.9105C53.1136 75.0449 51.5221 75.1008 50.1539 75.2683C45.1282 75.9663 40.1861 77.1111 35.1045 77.6695C32.2566 77.9766 29.5203 78.3396 26.7282 77.6695C24.4666 77.1111 22.6797 77.502 20.5577 78.3675C19.4408 78.8143 18.3519 79.3168 17.1792 79.5402C15.7273 79.8194 14.2196 79.624 12.7677 79.3727C10.3944 78.9259 8.07698 78.3117 5.67577 78.6188C5.06151 78.7305 5.06151 79.5681 5.592 79.5123Z" fill="#E8E8E8"/>
<path d="M345.809 112.711C340.532 114.553 334.362 110.198 330.565 106.903C330.509 107.126 330.453 107.378 330.369 107.601C333.05 106.512 335.87 106.456 338.717 106.624C341.538 106.763 344.358 106.959 347.178 107.043C353.181 107.21 359.212 107.07 365.187 106.624C368.286 106.4 371.357 106.093 374.428 105.73C375.936 105.535 377.751 105.172 379.175 105.87C381.157 106.875 380.99 109.053 379.091 109.891C378.114 110.309 377.053 110.449 376.02 110.644C374.401 110.924 372.781 111.231 371.162 111.51C368.202 112.04 365.242 112.571 362.255 113.101C360.552 113.409 358.849 113.716 357.145 114.023C355.554 114.302 353.907 114.721 352.259 114.749C349.467 114.777 347.373 112.32 344.581 112.627C344.05 112.683 344.05 113.52 344.581 113.464C346.172 113.269 347.429 114.135 348.797 114.777C349.914 115.307 351.003 115.586 352.231 115.586C355.442 115.558 358.765 114.581 361.92 113.995C365.326 113.381 368.76 112.766 372.167 112.152C373.786 111.873 375.406 111.566 377.025 111.287C378.114 111.091 379.259 110.84 380.208 110.198C381.8 109.109 381.855 107.098 380.515 105.786C378.421 103.72 374.819 104.809 372.279 105.088C365.41 105.842 358.486 106.233 351.561 106.205C347.764 106.205 343.967 106.065 340.169 105.814C336.791 105.619 333.357 105.451 330.174 106.735C329.922 106.847 329.727 107.21 329.978 107.433C333.999 110.924 340.421 115.419 346.033 113.464C346.535 113.353 346.34 112.543 345.809 112.711Z" fill="#E8E8E8"/>
<path d="M217.764 260.217C217.513 258.626 219.774 258.877 220.668 259.184C221.366 259.408 222.036 259.687 222.762 259.771C224.493 259.994 226.196 259.408 227.816 258.877C229.379 258.347 231.026 257.76 232.702 257.928C234.712 258.123 236.331 259.771 236.024 261.893C235.689 264.098 233.428 265.131 231.417 264.517C230.049 264.098 228.849 263.233 227.425 263.009C224.409 262.563 221.254 265.187 218.35 263.791C217.876 263.568 217.429 264.266 217.932 264.517C219.663 265.355 221.394 264.964 223.153 264.461C224.27 264.154 225.442 263.763 226.615 263.791C227.983 263.819 229.1 264.489 230.301 264.992C232.004 265.718 233.791 265.857 235.298 264.629C236.583 263.596 237.141 261.948 236.75 260.357C235.578 255.75 230.273 257.174 227.09 258.235C225.582 258.737 223.99 259.212 222.371 258.877C221.338 258.654 220.361 258.011 219.244 258.039C217.904 258.067 216.703 259.045 216.926 260.441C217.038 260.971 217.848 260.748 217.764 260.217Z" fill="#E8E8E8"/>
<path d="M185.572 250.92C186.912 249.663 188.755 249.133 190.57 249.524C191.323 249.691 193.418 250.25 192.105 251.255C191.407 251.785 189.872 251.73 189.034 251.73C188.503 251.73 188.503 252.567 189.034 252.567C190.262 252.567 192.412 252.511 193.334 251.534C194.116 250.696 193.222 249.775 192.468 249.356C190.067 247.96 186.968 248.491 184.985 250.333C184.594 250.696 185.181 251.283 185.572 250.92Z" fill="#E8E8E8"/>
<path d="M170.047 269.431C169.823 269.348 169.628 269.264 169.405 269.18C169.377 269.403 169.349 269.627 169.321 269.85C171.024 268.622 172.951 269.515 174.765 269.934C176.301 270.297 177.641 270.129 179.149 269.766C181.02 269.32 182.918 269.04 184.845 268.929C185.738 268.873 186.632 268.845 187.525 268.817C188.363 268.789 190.457 268.37 189.731 269.794C188.866 271.497 186.353 271.553 184.817 271.051C183.505 270.632 182.276 270.018 180.88 270.353C179.428 270.688 178.2 271.609 176.692 271.916C174.682 272.335 172.699 272.14 170.773 271.442C170.27 271.274 170.047 272.056 170.549 272.251C172.448 272.921 174.43 273.145 176.441 272.81C178.702 272.419 180.713 270.66 183.058 271.302C184.733 271.777 186.101 272.531 187.888 272C189.033 271.665 190.653 270.66 190.876 269.375C191.155 267.868 189.284 267.924 188.307 267.951C186.046 268.007 183.756 268.119 181.494 268.454C180.266 268.649 179.093 268.985 177.893 269.208C176.413 269.487 175.212 269.208 173.788 268.817C172.113 268.342 170.382 268.063 168.874 269.124C168.651 269.292 168.595 269.571 168.79 269.794C169.209 270.269 169.656 270.381 170.242 270.269C170.801 270.157 170.577 269.348 170.047 269.431Z" fill="#E8E8E8"/>
<path d="M285.361 253.432C286.98 252.762 288.684 252.399 290.443 252.427C292.257 252.455 293.793 253.153 295.524 253.544C298.065 254.158 299.964 252.595 302.03 251.394C305.297 249.467 308.535 250.724 311.942 251.422C314.371 251.924 316.968 252.008 319.062 250.528C319.508 250.221 319.09 249.495 318.643 249.802C316.018 251.701 312.779 250.78 309.904 250.082C307.195 249.439 304.515 249.076 301.974 250.473C300.857 251.087 299.824 251.896 298.651 252.427C296.864 253.237 295.412 252.595 293.681 252.092C290.861 251.282 287.874 251.506 285.165 252.622C284.635 252.818 284.858 253.628 285.361 253.432Z" fill="#E8E8E8"/>
<path d="M91.2258 115.95C93.7108 115 98.0665 120.11 100.216 123.46C103.511 128.514 104.042 132.926 105.661 143.145C106.275 147.109 107.28 153.392 108.649 161.321C111.106 163.722 112.027 166.068 112.39 167.52C112.893 169.39 113.032 171.792 112.39 172.015C111.692 172.266 110.463 169.921 109.961 170.144C109.291 170.451 111.469 174.221 110.156 175.952C108.816 177.711 103.79 177.432 101.166 174.835C98.7087 172.406 99.6859 169.307 99.295 161.908C99.1554 159.395 98.7645 152.554 96.6704 145.797C94.1017 137.56 91.4213 137.142 89.9135 129.854C88.8526 124.717 88.5454 116.983 91.2258 115.95Z" fill="white" stroke="#161616" stroke-width="2"/>
<path opacity="0.15" d="M94.9115 123.153C96.4471 122.818 99.1276 129.771 99.2951 130.162C101.752 136.583 100.579 139.32 101.668 148.785C102.562 156.491 103.064 160.875 105.549 166.291C107.951 171.485 110.743 174.528 109.682 175.924C108.621 177.348 104.46 175.98 101.194 174.668C100.887 173.97 100.44 172.881 100.077 171.54C99.1555 168.274 99.2113 165.677 99.2113 164.421C99.2113 163.723 99.1834 155.625 97.5919 148.561C96.7264 144.792 96.3355 145.351 95.3303 141.442C93.1245 132.954 93.2083 123.516 94.9115 123.153Z" fill="#6D6C6C"/>
<path opacity="0.17" d="M98.6805 136.667C98.9876 139.571 99.3785 143.899 99.5461 149.176C99.7973 157.301 99.4065 164.058 99.1831 164.058C98.9876 164.058 99.2389 159.199 98.1779 152.554C97.4799 148.143 96.4468 144.569 95.665 142.195C96.1955 141.665 96.8377 140.939 97.4241 139.934C98.15 138.649 98.513 137.477 98.6805 136.667Z" fill="#6D6C6C"/>
<path d="M96.7547 235.703C96.0288 237.043 95.9171 238.495 97.5923 251.143C97.7878 252.707 97.9832 253.991 98.0949 254.885C102.367 255.555 108.398 256.085 115.546 255.387C119.873 254.969 124.927 254.494 125.206 252.847C125.43 251.506 122.498 249.105 109.096 244.526C108.482 240.059 107.839 235.591 107.225 231.124C99.3793 231.655 97.341 234.67 96.7547 235.703Z" fill="#161616"/>
<path d="M79.9182 156.1C82.5428 159.674 86.2842 164.812 90.6678 171.094C101.054 185.948 106.248 193.375 108.063 198.345C113.423 213.059 112.027 227.355 111.497 232.213C111.19 235.005 110.799 237.295 110.492 238.858C108.37 239.668 105.326 240.561 101.613 240.868C98.2903 241.148 95.4423 240.84 93.3482 240.478C92.7061 236.68 92.1755 232.408 91.9243 227.773C91.5613 220.877 91.8963 214.706 92.5385 209.429C85.3628 203.929 80.7279 198.261 77.9079 194.324C70.3692 183.686 68.3589 174.472 67.1583 168.553C65.4551 160.344 66.6278 158.111 67.7167 156.938C71.3465 153.169 79.2202 155.877 79.9182 156.1Z" fill="white" stroke="#161616" stroke-width="2"/>
<path opacity="0.19" d="M80.7282 179.666C83.604 182.095 87.3455 185.697 90.9752 190.639C91.9803 192.035 96.1406 197.982 99.7982 207.531C104.824 220.766 105.243 233.107 105.019 240.087C103.791 240.534 102.06 241.008 99.9937 241.176C97.2295 241.371 94.9679 240.897 93.516 240.45C92.6225 235.005 91.9524 228.723 91.8966 221.743C91.8687 217.22 92.0641 213.004 92.4271 209.151C91.7291 208.76 78.2432 201.165 78.4107 188.461C78.4386 184.915 79.5555 181.9 80.7282 179.666Z" fill="#6D6C6C"/>
<path opacity="0.15" d="M84.3293 201.053C84.9436 200.215 92.6219 202.56 95.6653 208.256C97.9548 212.528 96.112 215.823 96.1958 221.91C96.2516 226.461 97.4243 232.938 102.478 240.784C99.5463 240.728 96.6146 240.673 93.655 240.617C92.8453 235.423 92.2031 229.504 92.0355 222.999C91.8959 217.861 92.0635 213.115 92.3985 208.787C91.3096 208.228 89.9135 207.363 88.4337 206.078C86.7864 204.627 83.8826 201.667 84.3293 201.053Z" fill="#6D6C6C"/>
<path d="M47.4189 233.496C45.2969 234.865 44.9339 236.763 43.0074 240.951C41.6672 243.855 39.6568 247.736 36.5576 252.148C38.3166 254.13 41.2483 256.894 45.5482 258.932C51.4395 261.725 59.7041 263.065 60.9885 260.636C62.3566 258.011 55.1809 251.785 53.031 249.942C53.6174 248.63 54.5667 246.536 55.7394 243.995C58.8386 237.349 59.4528 236.372 58.9503 235.172C57.7776 232.324 51.272 231.039 47.4189 233.496Z" fill="#161616"/>
<path d="M56.3814 149.789C54.7062 154.396 53.003 159.003 51.3277 163.582C48.5636 171.567 49.7642 177.096 50.6576 179.748C51.6349 182.68 53.3381 185.193 56.7165 190.191C59.3411 194.044 61.7144 197.143 63.4455 199.293C59.9833 202.895 56.0464 207.558 52.3329 213.421C47.335 221.351 44.3754 228.806 42.5605 234.641C44.2079 235.897 46.6929 237.489 49.9596 238.69C53.6173 240.03 56.8561 240.337 59.0619 240.365C62.9429 237.377 68.2479 232.714 73.1899 225.874C77.0709 220.541 82.2922 213.365 83.9674 203.314C86.8154 186.198 77.5177 172.265 74.1951 167.296C68.192 158.277 60.9884 152.805 56.3814 149.789Z" fill="white" stroke="#161616" stroke-width="2"/>
<path d="M68.1361 159.841C70.2861 162.828 72.4081 165.844 74.4463 168.887C74.6976 168.748 74.9209 168.608 75.1722 168.468C73.3574 166.039 71.7379 163.443 70.3419 160.734C70.1465 160.93 69.951 161.125 69.7556 161.321C70.9003 162.102 71.5425 163.275 72.2405 164.42C73.0502 165.76 73.8879 167.1 74.6976 168.44C76.2891 171.037 77.8806 173.662 79.4721 176.258C79.7234 176.119 79.9467 175.979 80.198 175.84C77.7689 172.042 75.3398 168.245 72.8827 164.448C72.6035 164.001 71.8776 164.42 72.1568 164.867C75.1722 169.892 78.2156 174.89 81.2311 179.916C81.5103 180.391 82.2362 179.972 81.957 179.497C79.7513 175.756 77.5734 171.986 75.3677 168.245C75.1443 168.413 74.9209 168.58 74.6976 168.748C77.8527 172.238 78.4111 177.319 81.8454 180.586C82.2362 180.949 82.8226 180.363 82.4317 180C78.9974 176.761 78.439 171.651 75.2839 168.161C74.9489 167.798 74.3904 168.273 74.6138 168.664C76.8196 172.405 78.9974 176.175 81.2032 179.916C81.4545 179.776 81.6778 179.637 81.9291 179.497C78.9136 174.471 75.8703 169.474 72.8548 164.448C72.6035 164.587 72.3801 164.727 72.1288 164.867C74.558 168.664 76.9871 172.461 79.4441 176.258C79.7234 176.705 80.4493 176.286 80.1701 175.84C78.3832 172.908 76.5962 169.976 74.8093 167.072C73.497 164.894 72.2964 162.074 70.1185 160.595C69.7556 160.343 69.3647 160.818 69.5322 161.181C70.9282 163.889 72.5197 166.458 74.3625 168.915C74.6697 169.334 75.3956 168.943 75.0885 168.496C73.0502 165.425 70.9562 162.41 68.7783 159.45C68.555 158.975 67.829 159.394 68.1361 159.841Z" fill="white"/>
<path opacity="0.2" d="M69.8954 161.07C68.4435 163.164 66.4332 166.626 65.5677 171.177C62.9152 184.97 74.0836 191.085 71.5986 203.175C70.2863 209.541 66.9637 208.954 59.5367 222.189C55.7674 228.918 53.3662 234.837 51.9422 238.858C50.1274 238.299 48.145 237.573 46.0509 236.624C44.8224 236.066 43.6776 235.507 42.6445 234.921C44.2919 229.784 46.7768 223.585 50.5183 216.94C54.7623 209.429 59.4251 203.566 63.3619 199.238C62.273 197.842 60.6536 195.72 58.7829 193.067C53.6175 185.752 50.9929 182.011 50.1274 177.711C49.1501 172.964 49.9598 168.916 50.5183 166.179C51.3559 162.047 52.7799 158.808 53.9246 156.603C59.2296 158.082 64.5625 159.59 69.8954 161.07Z" fill="#6D6C6C"/>
<path opacity="0.17" d="M63.3334 159.366C60.1784 162.968 56.0461 168.887 56.3811 176.035C56.8837 187.231 67.9404 191.503 66.3489 200.689C65.9022 203.23 62.3841 207.307 55.3201 215.376C51.4391 219.815 48.1444 223.361 45.8828 225.734C47.6139 221.49 50.1268 216.409 53.7565 211.048C56.9675 206.301 60.2621 202.504 63.1938 199.517C62.3283 198.204 60.7926 195.859 58.8661 192.955C52.1371 182.848 50.8248 181.256 50.071 177.738C49.1775 173.606 49.7638 170.116 50.2106 167.519C51.0203 162.689 52.7235 158.975 54.0078 156.63C57.1071 157.523 60.2342 158.445 63.3334 159.366Z" fill="#6D6C6C"/>
<path d="M77.7686 110.784C73.8038 113.13 66.2651 118.295 60.5134 127.788C53.1981 139.878 53.1981 151.689 53.4494 156.268C54.8175 156.714 56.2136 157.161 57.6375 157.58C67.1586 160.428 76.3725 162.354 85.0839 163.583C85.8098 161.098 86.5916 158.585 87.4293 155.988C88.6857 152.163 89.998 148.506 91.3382 145.016C95.9731 142.614 97.5925 139.515 98.123 138.231C100.273 133.205 98.2347 127.956 96.0289 122.288C94.8004 119.105 94.1582 117.485 92.6226 115.754C87.8202 110.31 79.8906 110.645 77.7686 110.784Z" fill="#EC615B"/>
<path opacity="0.27" d="M87.1775 117.402C79.5551 118.407 75.4786 121.869 73.8313 123.488C64.5336 132.674 67.7445 148.171 68.6101 152.359C69.3919 156.128 70.5645 159.144 71.4859 161.182C65.5946 159.59 59.7312 157.971 53.8399 156.379C53.4769 152.108 53.1139 141.135 59.452 129.436C65.3433 118.602 73.8034 113.046 77.5727 110.868C78.1032 110.896 78.6337 110.952 79.1642 110.98C79.9739 111.929 80.9512 112.934 82.1518 113.967C83.9387 115.531 85.6977 116.62 87.1775 117.402Z" fill="#6D6C6C"/>
<path opacity="0.2" d="M62.7469 124.41C61.9651 128.515 61.323 134.462 62.1606 141.498C63.1657 149.762 65.8182 156.156 67.8844 160.177C63.082 158.948 58.2516 157.72 53.4492 156.519C53.2259 152.666 53.3375 146.887 55.1803 140.241C57.1906 132.982 60.4295 127.677 62.7469 124.41Z" fill="#6D6C6C"/>
<path d="M298.791 216.66C297.032 220.597 297.367 224.283 297.647 226.014C303.147 228.443 308.033 229.56 311.775 230.118C313.003 230.314 328.192 232.464 329.672 228.303C330.035 227.27 329.449 226.209 328.862 225.176C325.595 219.452 317.331 219.117 316.214 219.089C315.907 213.142 312.082 208.731 308.173 208.424C302.644 208.005 299.182 215.795 298.791 216.66Z" fill="#161616"/>
<path d="M306.051 120.612C309.681 125.834 314.567 133.959 318.113 144.736C323.892 162.298 322.943 177.041 322.301 185.389C321.742 192.816 320.235 203.37 316.019 215.544C314.874 216.27 309.82 219.285 303.426 217.917C299.629 217.107 297.06 215.097 295.832 213.98C298.093 209.01 300.83 201.527 301.863 192.202C303.007 182.039 301.611 174.081 299.769 163.862C295.58 140.771 289.801 132.004 294.799 125.554C297.2 122.427 301.304 121.031 306.051 120.612Z" fill="white" stroke="#161616" stroke-width="2"/>
<path opacity="0.16" d="M308.033 133.372C309.932 142.614 311.44 153.224 312.026 165.007C313.031 185.919 310.77 203.956 307.838 218.001C306.582 218.168 303.538 218.364 300.299 216.744C298.373 215.767 297.061 214.483 296.307 213.589C299.797 205.548 301.053 198.707 301.556 194.1C302.338 186.869 301.695 181.061 300.495 170.228C299.797 163.89 298.987 158.696 298.401 155.15C301.612 147.919 304.823 140.632 308.033 133.372Z" fill="#6D6C6C"/>
<path opacity="0.22" d="M301.919 147.276C304.32 153.531 307.922 165.453 306.693 180.614C305.52 195.217 300.383 206.078 297.116 211.83C302.589 196.026 302.868 186.338 302.03 180.335C301.807 178.799 300.858 172.712 299.769 163.75C299.322 160.036 298.987 156.993 298.791 155.038C299.852 152.442 300.886 149.845 301.919 147.276Z" fill="#6D6C6C"/>
<path d="M258.389 204.571C256.072 205.716 255.374 207.587 252.191 213.646C250.069 217.666 248.282 220.877 247.109 222.943C250.683 225.512 256.351 228.89 263.918 230.677C268.385 231.738 277.683 233.218 278.744 230.677C279.917 227.857 270.368 221.352 266.347 218.727C270.479 214.707 270.675 208.871 267.883 205.884C265.509 203.343 261.209 203.175 258.389 204.571Z" fill="#161616"/>
<path d="M298.875 120.026C308.089 128.151 297.311 155.234 288.46 176.901C284.635 186.254 278.66 199.796 269.865 215.627C268.329 215.851 263.722 216.297 258.808 213.645C253.866 210.992 251.716 206.832 251.074 205.464C253.643 201.025 256.742 195.049 259.702 187.762C260.874 184.886 265.928 172.043 268.776 153.894C269.893 146.718 270.898 137.253 270.759 126.001C272.406 124.326 281.592 115.307 292.453 117.373C294.1 117.68 296.809 118.211 298.875 120.026Z" fill="white" stroke="#161616" stroke-width="2"/>
<path d="M301.862 131.194C301.834 132.171 301.807 133.149 301.807 134.126C302.086 134.126 302.365 134.126 302.644 134.126C302.505 132.562 302.588 131.082 302.895 129.547C302.616 129.519 302.337 129.463 302.086 129.435C302.253 132.73 301.499 136.192 300.913 139.431C300.327 142.698 299.545 145.936 298.624 149.119C298.903 149.203 299.154 149.259 299.433 149.343C300.969 143.535 302.253 137.7 303.314 131.78C303.398 131.25 302.588 131.027 302.505 131.557C301.444 137.448 300.159 143.312 298.624 149.119C298.484 149.65 299.294 149.873 299.433 149.343C300.41 145.992 301.192 142.558 301.807 139.124C302.365 135.996 303.091 132.618 302.923 129.435C302.895 128.988 302.197 128.849 302.114 129.323C301.779 130.915 301.695 132.506 301.834 134.126C301.89 134.656 302.672 134.684 302.672 134.126C302.7 133.149 302.728 132.171 302.728 131.194C302.728 130.664 301.89 130.664 301.862 131.194Z" fill="white"/>
<path d="M298.317 147.36C298.345 149.51 298.401 151.66 298.429 153.81C298.429 154.34 299.266 154.34 299.266 153.81C299.238 151.66 299.183 149.51 299.155 147.36C299.127 146.802 298.289 146.802 298.317 147.36Z" fill="white"/>
<path opacity="0.19" d="M286.701 128.709C286.785 134.321 286.478 141.971 284.831 150.85C283.072 160.26 280.391 167.547 276.482 178.52C273.299 187.511 271.764 190.191 268.525 200.159C266.543 206.218 265.146 211.299 264.253 214.706C262.717 214.51 259.534 213.868 256.351 211.495C253.392 209.289 251.884 206.664 251.214 205.296C256.351 196.278 259.618 188.376 261.684 182.624C268.078 164.839 269.586 149.371 270.451 139.849C270.814 135.885 271.01 132.59 271.094 130.44C276.287 129.854 281.508 129.295 286.701 128.709Z" fill="#6D6C6C"/>
<path opacity="0.24" d="M283.825 129.519C281.648 139.095 279.135 146.634 277.152 151.911C275.533 156.267 273.048 162.13 268.106 173.829C266.291 178.157 265.37 180.307 264.923 181.284C262.187 187.427 257.803 196.054 250.795 206.218C257.077 194.937 264.281 178.855 268.106 158.584C270.033 148.365 270.731 139.04 270.814 130.97C270.786 130.943 270.786 130.943 283.825 129.519Z" fill="#6D6C6C"/>
<path d="M292.649 60.8611C293.095 61.95 293.877 63.5415 295.301 65.1609C296.334 66.3336 297.647 67.8413 299.601 68.4277C303.398 69.6003 307.084 66.5849 307.586 66.1661C311.272 68.3439 314.958 70.5217 318.615 72.6996C318.95 77.2507 318.978 84.1193 317.191 92.1326C315.488 99.755 313.841 100.676 312.501 108.076C310.462 119.188 311.97 129.1 311.467 129.128C311.384 129.128 311.272 128.905 311.049 127.704C296.669 128.793 282.29 129.882 267.911 130.971C267.492 122.343 267.548 115.084 267.715 109.723C267.939 101.347 268.609 91.2112 271.401 79.4565C273.383 71.0522 274.947 68.2043 277.32 65.9706C282.457 61.0844 289.494 60.7773 292.649 60.8611Z" fill="#5222D0"/>
<path opacity="0.3" d="M309.29 67.1709C308.815 72.2804 307.922 79.875 306.219 88.9772C305.716 91.7135 304.292 99.2521 303.147 102.938C301.751 107.461 296.307 120.388 269.67 130.887C277.795 129.937 286.171 129.1 294.743 128.402C300.104 127.955 305.409 127.564 310.63 127.257C312.473 120.695 314.176 113.268 315.405 105.06C317.275 92.6349 317.638 81.4106 317.331 71.9454C314.651 70.3539 311.97 68.7624 309.29 67.1709Z" fill="#32198E"/>
<path d="M297.786 44.0533C296.809 49.0512 296.362 54.5796 292.313 60.6943C291.755 61.5319 291.28 62.1741 290.945 62.5929C291.28 63.263 294.826 70.1316 302.365 71.1646C306.665 71.751 310.043 70.1036 311.328 69.4056C311.132 67.7304 311.021 65.72 311.188 63.4584C311.411 60.1358 312.109 57.3717 312.807 55.2776C316.046 54.8588 319.257 54.44 322.496 54.0211C323.138 52.5972 323.753 51.1732 324.395 49.7213C325.288 49.6934 326.154 49.6655 327.047 49.6375C326.377 47.6831 325.372 44.5838 324.199 40.7587C322.021 33.555 322.049 32.522 320.877 30.9025C317.638 26.4631 310.378 23.6431 305.604 26.0164C300.997 28.278 299.601 34.7277 297.786 44.0533Z" fill="white" stroke="#161616" stroke-width="2"/>
<path d="M326.907 49.2458C325.316 49.2737 323.752 49.1621 322.189 48.9387C321.658 48.8549 321.435 49.6646 321.965 49.7484C323.613 49.9997 325.232 50.1114 326.907 50.0834C327.466 50.0834 327.466 49.2458 326.907 49.2458Z" fill="#161616"/>
<path d="M328.024 36.4307C326.6 35.6489 324.897 36.0956 323.976 37.4079C323.668 37.8546 324.394 38.2734 324.702 37.8267C325.344 36.9053 326.628 36.6261 327.605 37.1566C328.08 37.4079 328.499 36.6819 328.024 36.4307Z" fill="#161616"/>
<path d="M327.299 41.4567C327.438 40.8145 327.41 40.1723 327.103 39.586C326.88 39.1672 326.405 38.6646 325.875 38.888C325.316 39.1113 325.344 39.8931 325.456 40.3678C325.567 40.9541 325.875 41.4846 326.321 41.8755C326.573 42.0989 327.047 41.9593 327.047 41.5684C327.047 40.8704 326.88 40.2561 326.573 39.6139C326.349 39.1393 325.623 39.5581 325.847 40.0327C326.07 40.5074 326.182 41.01 326.21 41.5405C326.461 41.4288 326.684 41.345 326.936 41.2333C326.461 40.8424 326.293 40.3399 326.265 39.7535C326.293 39.6977 326.265 39.6418 326.182 39.6418C326.238 39.6698 326.293 39.7256 326.321 39.7814C326.405 39.8931 326.489 40.0606 326.517 40.2003C326.628 40.5353 326.628 40.8424 326.545 41.1775C326.349 41.7638 327.159 41.9872 327.299 41.4567Z" fill="#161616"/>
<path d="M319.927 37.5475C318.308 37.017 316.605 37.6871 315.655 39.0832C315.348 39.5299 316.074 39.9487 316.381 39.502C317.107 38.4131 318.447 37.9663 319.704 38.3572C320.206 38.4968 320.43 37.715 319.927 37.5475Z" fill="#161616"/>
<path d="M320.374 42.2107C320.43 41.4568 320.123 40.2842 319.341 39.977C318.308 39.5582 318.308 41.0101 318.42 41.6244C318.559 42.2386 319.062 43.3834 319.899 42.9087C320.234 42.7133 320.29 42.3503 320.179 42.0153C319.983 41.4848 319.676 41.0101 319.453 40.5075C319.229 40.675 319.006 40.8426 318.782 41.0101C318.894 41.1218 318.978 41.2335 319.006 41.401C319.145 41.9315 319.955 41.7081 319.816 41.1776C319.732 40.8705 319.592 40.6471 319.369 40.4238C319.006 40.0887 318.503 40.5075 318.699 40.9263C318.81 41.1218 318.894 41.3172 319.006 41.5406C319.09 41.7081 319.173 42.0153 319.313 42.1549C319.369 42.3503 319.425 42.3503 319.508 42.1549C319.481 42.099 319.425 42.0153 319.397 41.9594C319.313 41.7919 319.257 41.6244 319.229 41.4289C319.201 41.2614 319.229 41.038 319.173 40.8705C319.201 40.7588 319.173 40.7309 319.145 40.8705C319.201 40.9543 319.285 41.038 319.313 41.1218C319.508 41.4568 319.564 41.8477 319.536 42.2386C319.481 42.7412 320.318 42.7412 320.374 42.2107Z" fill="#161616"/>
<path d="M321.993 32.6892C321.77 31.2094 321.183 28.8082 319.62 26.3232C319.061 25.4577 317.861 23.587 315.962 22.3305C312.332 19.9293 306.748 20.1248 302.672 23.0565C298.707 25.9323 296.725 31.0977 297.59 36.2073C305.743 35.0346 313.868 33.8619 321.993 32.6892Z" fill="#EC615B"/>
<path d="M335.34 30.0089C322.803 31.6004 310.295 33.1919 297.758 34.7834C296.167 34.9788 296.167 37.4917 297.758 37.2963C310.295 35.7048 322.803 34.1133 335.34 32.5218C336.903 32.3263 336.931 29.8134 335.34 30.0089Z" fill="#161616"/>
<path d="M305.716 35.8721C307.922 36.6818 309.206 38.2174 310.714 40.0602C313.869 43.9133 312.92 45.3373 315.153 47.7385C318.671 51.5637 322.245 49.3021 325.4 53.0435C328.081 56.2265 327.718 60.5263 327.606 61.4756C327.494 62.4249 327.02 66.2501 323.921 68.8747C321.24 71.1363 317.582 71.6668 317.359 71.1642C317.275 70.9688 317.582 70.522 319.565 69.1818C318.979 69.6007 318.085 70.1032 316.884 70.3266C315.516 70.5779 314.232 70.3266 314.204 70.1311C314.204 69.9915 314.93 69.9915 315.488 69.3773C315.823 69.0143 315.963 68.5955 316.047 68.2325C314.958 68.9585 313.562 69.5727 312.25 69.1818C308.676 68.0929 308.033 60.0796 307.81 57.4271C307.14 48.8274 309.597 44.1367 306.61 41.1212C306.358 40.8699 305.158 39.6414 303.845 39.8927C302.17 40.1998 300.886 42.8244 301.444 44.5555C301.919 46.0353 303.594 46.4541 303.482 46.7333C303.315 47.0963 300.495 46.5379 298.122 44.6393C297.256 43.9412 296.558 43.3828 296.195 42.3497C295.553 40.5628 296.307 38.5246 297.312 37.324C299.406 34.8111 303.315 34.9786 305.716 35.8721Z" fill="#161616" stroke="#161616" stroke-width="2"/>
<path opacity="0.22" d="M302.393 46.9561C302.924 47.012 303.678 47.0399 303.734 46.8444C303.762 46.7607 303.566 46.6211 303.566 46.6211C303.566 46.6211 304.208 47.4308 304.99 47.5425C305.381 47.5983 305.688 47.4587 305.911 47.347C304.487 50.3346 303.036 53.9643 301.835 58.1524C300.579 62.4802 299.88 66.445 299.518 69.8234C298.289 69.4325 296.055 68.5391 293.989 66.5287C292.481 65.0769 291.616 63.5412 291.113 62.5081C292.789 59.9952 293.766 57.7895 294.352 56.2817C294.883 54.8857 295.078 53.9643 296.027 50.7813C296.809 48.2126 297.423 46.0906 297.842 44.6387C298.066 44.8341 298.401 45.1413 298.847 45.4484C299.49 45.8951 300.746 46.7607 302.393 46.9561Z" fill="#6D6C6C"/>
<path d="M311.411 20.8226C308.144 21.4648 305.715 24.0894 305.352 27.1886C304.906 30.8742 307.614 33.3871 307.865 33.6104C304.403 34.0292 300.941 34.476 297.479 34.8948C297.423 34.0851 297.395 32.9682 297.59 31.6839C298.26 27.5516 300.662 25.0108 301.164 24.4803C301.974 23.6426 304.822 20.9343 309.038 20.683C310.015 20.6272 310.825 20.7388 311.411 20.8226Z" fill="#B74949"/>
<path d="M317.777 72.4208C320.011 72.0857 322.301 75.9667 323.362 77.7537C329.504 88.1961 326.935 100.258 326.154 103.776C325.539 106.54 324.395 111.426 320.821 116.815C317.414 122.008 313.394 125.219 310.825 126.978C306.525 128.626 298.707 130.887 289.298 129.352C286.031 128.821 283.183 127.928 280.81 126.978C276.789 127.23 272.769 127.453 268.748 127.704C268.106 127.593 267.212 127.425 266.151 127.034C264.867 126.56 263.638 126.085 263.638 125.638C263.638 125.136 265.035 124.354 271.847 123.293C271.512 123.349 267.045 124.214 264.057 121.087C261.265 118.183 261.098 113.213 263.22 111.259C265.007 109.612 267.91 110.338 273.215 111.761C278.465 113.158 282.681 115.056 285.752 116.676C286.925 117.206 296.055 121.143 304.403 116.341C310.769 112.683 312.891 106.121 313.394 104.307C315.404 97.103 311.746 94.5621 313.059 84.1476C313.226 82.3607 314.427 72.8954 317.777 72.4208Z" fill="white" stroke="#161616" stroke-width="2"/>
<path d="M262.159 117.486C265.397 117.737 268.497 118.519 271.456 119.859C271.931 120.082 272.378 119.356 271.875 119.133C268.776 117.709 265.537 116.871 262.159 116.62C261.628 116.62 261.628 117.458 262.159 117.486Z" fill="#161616"/>
<path d="M261.963 114.079C265.677 113.967 268.832 116.229 272.294 117.29C272.796 117.457 273.02 116.648 272.517 116.48C268.999 115.391 265.788 113.13 261.963 113.241C261.433 113.269 261.405 114.107 261.963 114.079Z" fill="#161616"/>
<path d="M265.537 111.12C268.58 111.371 271.261 112.823 273.885 114.303C274.36 114.554 274.779 113.856 274.304 113.577C271.54 112.041 268.748 110.561 265.537 110.282C264.979 110.226 264.979 111.064 265.537 111.12Z" fill="#161616"/>
<path opacity="0.18" d="M314.371 77.5585C312.723 84.1758 317.107 88.6431 318.587 96.2097C318.838 97.5499 320.82 108.411 315.013 116.117C308.535 124.717 295.692 125.024 293.179 125.108C286.617 125.276 284.132 123.349 273.857 123.879C272.88 123.935 263.945 124.438 263.862 125.694C263.834 126.364 266.319 127.118 268.189 127.37C270.646 127.705 271.931 127.146 275.058 126.895C276.398 126.783 278.325 126.699 280.698 126.895C283.546 128.068 287.231 129.212 291.643 129.659C292.844 129.771 296.585 130.106 301.387 129.408C301.387 129.408 305.408 128.849 308.591 127.733C316.493 124.996 324.311 113.465 326.516 100.9C329.001 86.7445 323.473 76.0787 320.374 73.7054C319.955 73.3703 318.754 72.4489 317.498 72.7561C315.46 73.2028 314.622 76.5254 314.371 77.5585Z" fill="#6D6C6C"/>
<path opacity="0.17" d="M326.154 85.9619C325.707 85.9619 325.707 91.2948 324.479 97.9959C323.725 102.072 322.189 110.365 318.476 116.145C311.858 126.447 298.344 128.765 293.207 129.379C297.619 129.993 304.403 130.133 311.021 126.615C325.372 118.965 326.768 100.509 327.019 97.1582C327.41 91.5182 326.601 85.9619 326.154 85.9619Z" fill="#6D6C6C"/>
<path d="M85.0557 191.615C96.615 181.34 108.23 171.121 119.901 160.985C141.903 141.859 164.1 122.985 186.521 104.334C184.762 99.1123 182.5 90.0659 183.84 79.065C184.259 75.5749 187.833 49.8597 211.398 36.5693C213.353 35.4524 240.408 20.8218 265.76 36.9602C282.485 47.5981 291.141 67.0032 289.102 85.9615C286.087 114.134 261.07 126.615 259.618 127.313C241.581 135.912 219.886 133.371 203.72 120.807C179.429 140.798 155.193 160.818 130.986 180.893C120.376 189.688 109.794 198.483 99.2116 207.306C97.0059 206.245 93.3482 204.123 90.0535 200.242C87.2893 197.003 85.8375 193.765 85.0557 191.615Z" fill="#161616"/>
<ellipse cx="237.03" cy="81.271" rx="44.2827" ry="42.4399" fill="white" stroke="#161616" stroke-width="2"/>
<path d="M240.632 41.1764C232.535 58.3199 224.019 75.2959 215.112 92.0485C212.599 96.7672 210.058 101.486 207.49 106.177C207.238 106.651 207.964 107.07 208.216 106.595C217.346 89.9545 226.085 73.1181 234.405 56.0583C236.751 51.2559 239.068 46.4256 241.386 41.5673C241.609 41.1206 240.883 40.7018 240.632 41.1764Z" fill="#E8E8E8"/>
<path d="M254.286 45.3365C245.407 59.3528 236.975 73.6205 228.961 88.1394C228.71 88.6141 229.436 89.0329 229.687 88.5582C237.701 74.0393 246.133 59.7717 255.012 45.7553C255.291 45.3086 254.565 44.8898 254.286 45.3365Z" fill="#E8E8E8"/>
<path d="M227.481 93.0542C223.796 100.23 219.859 107.294 215.643 114.19C215.364 114.665 216.09 115.084 216.369 114.609C220.557 107.713 224.522 100.649 228.207 93.473C228.459 92.9983 227.733 92.5516 227.481 93.0542Z" fill="#E8E8E8"/>
<path d="M242.977 72.1121C238.286 80.9352 233.624 89.7582 228.933 98.5812C228.682 99.0559 229.408 99.4747 229.659 99.0001C234.35 90.177 239.012 81.354 243.703 72.5309C243.954 72.0563 243.229 71.6375 242.977 72.1121Z" fill="#E8E8E8"/>
<path opacity="0.08" d="M235.718 38.6914C232.619 39.8082 212.208 47.4586 205.675 67.9526C204.921 70.3259 202.576 77.9763 204.335 86.8272C207.713 103.692 224.577 117.345 246.635 121.924C244.96 122.482 242.614 123.152 239.711 123.515C222.176 125.721 208.579 113.771 206.987 112.347C203.525 109.192 192.831 98.4703 192.636 81.4943C192.608 80.0145 192.692 63.2619 205.396 51.1721C212.795 44.136 221.45 41.5673 225.08 40.5342C229.324 39.3336 233.038 38.8869 235.718 38.6914Z" fill="#6D6C6C"/>
<path d="M72.3237 124.829C74.334 124.577 77.3495 124.549 79.5552 126.336C84.3018 130.19 80.6442 138.566 82.9895 147.417C84.246 152.163 87.5686 158.557 97.2292 164.895C101.054 166.822 104.237 168.274 106.443 169.279C109.598 170.703 111.609 171.513 111.581 172.602C111.553 173.69 109.57 174.5 108.146 174.975C109.85 176.566 110.715 178.577 110.129 180.112C109.682 181.313 108.453 181.899 107.085 182.569C105.522 183.351 104.209 183.519 102.702 183.714C99.8817 184.077 98.4857 184.245 97.2013 183.714C95.2189 182.876 94.3255 181.034 93.0132 178.381C92.2872 176.929 91.3937 174.668 90.9191 171.736C87.764 170.284 83.2408 167.771 78.7455 163.555C76.9865 161.908 60.6806 146.272 65.8181 132.758C66.5999 130.86 68.2472 127.788 72.3237 124.829Z" fill="white" stroke="#161616" stroke-width="2"/>
<path d="M97.2853 180.253C97.9834 181.788 99.0444 183.073 100.412 184.106C100.831 184.441 101.25 183.715 100.831 183.38C99.6028 182.458 98.6535 181.23 98.0113 179.834C97.7879 179.359 97.062 179.778 97.2853 180.253Z" fill="#161616"/>
<path d="M100.635 179.805C101.473 181.425 102.729 182.765 104.265 183.77C104.712 184.049 105.13 183.323 104.684 183.044C103.26 182.151 102.115 180.894 101.333 179.387C101.11 178.912 100.384 179.331 100.635 179.805Z" fill="#161616"/>
<path d="M104.154 177.906C104.936 179.554 106.276 180.866 107.923 181.648C108.398 181.871 108.845 181.145 108.342 180.922C106.806 180.196 105.606 179.023 104.88 177.488C104.628 176.985 103.93 177.404 104.154 177.906Z" fill="#161616"/>
<path opacity="0.2" d="M73.0218 124.885C72.4076 127.649 71.7375 132.005 72.3238 137.254C73.8595 150.544 82.4591 159.311 83.8831 160.735C90.975 167.771 95.6099 166.822 98.4299 173.104C99.1838 174.78 100.524 178.577 104.154 180.559C105.578 181.313 106.918 181.592 107.811 181.704C107.337 182.095 106.555 182.625 105.522 183.072C103.791 183.826 102.283 183.854 99.9098 183.882C98.1507 183.91 97.2573 183.91 96.4755 183.547C94.8281 182.793 94.0463 181.229 93.7392 180.448C92.6224 177.432 91.5335 174.417 90.4166 171.401C84.972 168.609 77.2658 163.639 71.179 155.123C68.6382 151.577 64.3942 145.49 64.7572 138.175C64.9247 134.853 65.9857 132.535 66.237 131.977C68.2194 127.872 71.5141 125.75 73.0218 124.885Z" fill="#6D6C6C"/>
<path opacity="0.32" d="M65.1207 139.879C65.2883 139.823 66.3493 143.173 68.4433 147.082C73.5529 156.743 80.924 162.662 86.2011 166.794C88.6023 168.665 90.6405 170.061 91.9249 170.927C93.4885 173.551 94.382 175.813 94.9125 177.46C95.3592 178.828 95.6105 180.057 96.6436 181.341C97.7046 182.737 99.0727 183.519 100.078 183.966C99.324 183.994 98.1792 183.938 96.9786 183.38C94.6891 182.319 93.6839 180.113 92.6229 177.767C92.0087 176.427 91.2827 174.417 90.8918 171.82C76.3171 164.449 70.8445 155.151 68.7784 150.74C66.6564 146.217 64.8974 139.99 65.1207 139.879Z" fill="#6D6C6C"/>
<path d="M88.2389 99.3353C86.2565 100.117 87.4292 104.026 84.2462 107.572C82.6826 109.331 80.784 110.169 79.4717 110.643C80.3093 111.9 81.9567 113.938 84.665 115.557C86.5915 116.73 88.4343 117.289 89.7187 117.54C90.1375 116.786 90.8355 115.613 91.7011 114.217C94.8003 109.331 95.9172 108.801 96.0847 107.181C96.5035 103.216 90.7797 98.3302 88.2389 99.3353Z" fill="white" stroke="#161616" stroke-width="2"/>
<path d="M87.8753 106.874C89.0201 109.163 90.2207 111.425 92.1193 113.184C92.5102 113.547 93.0966 112.96 92.7057 112.598C90.8629 110.894 89.7181 108.661 88.6013 106.455C88.35 105.98 87.6241 106.399 87.8753 106.874Z" fill="#161616"/>
<path d="M87.0373 105.366C88.3217 107.879 89.7177 110.364 92.1748 111.9C92.5936 112.151 93.0124 111.592 92.6773 111.229C91.8676 110.364 91.03 109.498 90.2482 108.633C90.0528 108.828 89.8573 109.024 89.6619 109.219C90.1365 109.722 90.6391 110.196 91.1975 110.587C91.393 110.727 92.0072 111.006 92.1189 111.174C92.2864 111.453 92.1189 111.9 92.0351 112.179C92.3144 112.263 92.5656 112.318 92.8449 112.402C92.8728 112.263 92.8728 112.123 92.9007 112.011C92.9565 111.648 92.5098 111.257 92.2027 111.592C92.2027 111.285 92.1189 110.978 91.9235 110.727C91.6722 110.867 91.4488 111.006 91.1975 111.146C91.5046 111.565 91.8118 111.983 92.1189 112.402C92.3423 112.235 92.5656 112.067 92.789 111.9C92.5377 111.62 92.3423 111.341 92.1468 111.034C91.8955 110.671 91.1975 110.894 91.393 111.369C91.5605 111.732 91.6163 111.872 91.8676 112.179C92.2027 112.598 92.789 112.011 92.454 111.592C92.3702 111.453 92.2864 111.313 92.2027 111.146C91.9514 111.257 91.7001 111.369 91.4488 111.481C91.7001 111.844 91.9514 112.179 92.2306 112.514C92.5377 112.877 93.1799 112.402 92.9007 112.011C92.5936 111.592 92.2864 111.174 91.9793 110.755C91.6722 110.308 91.03 110.699 91.2534 111.174C91.5326 111.732 92.091 113.044 92.8449 112.207C92.6215 112.067 92.3702 111.928 92.1468 111.788C92.1189 111.928 92.1189 112.067 92.091 112.179C92.0072 112.709 92.7611 112.933 92.9007 112.402C93.0961 111.732 93.5708 111.425 93.0124 110.755C92.7611 110.448 92.3423 110.308 92.0351 110.113C91.393 109.694 90.8345 109.191 90.304 108.633C89.9411 108.242 89.3547 108.828 89.7177 109.219C90.5274 110.085 91.3371 110.95 92.1468 111.816C92.3144 111.592 92.4819 111.369 92.6494 111.146C90.332 109.694 89.0476 107.293 87.8191 104.919C87.5119 104.445 86.786 104.891 87.0373 105.366Z" fill="#161616"/>
<path d="M113.926 91.936C113.367 94.421 112.222 98.1065 109.598 101.904C104.991 108.577 98.7366 111.397 96.0562 112.43C94.5205 111.844 92.5102 110.811 90.6116 109.052C85.4183 104.221 85.0274 97.604 84.9715 95.9008C84.4131 95.7612 83.6034 95.454 82.9054 94.7839C81.1184 93.0528 80.6996 89.6185 82.347 88.1946C84.2177 86.5752 87.7916 88.5575 88.1825 88.753C89.048 89.2276 89.6623 89.814 90.0532 90.2607C91.5888 85.6258 95.2744 82.1357 99.658 81.4098C105.633 80.4325 112.167 84.7882 113.926 91.936Z" fill="white" stroke="#161616" stroke-width="2"/>
<path d="M107.169 98.6097C106.052 101.123 104.405 103.272 102.283 105.032C101.864 105.367 102.45 105.953 102.869 105.618C105.075 103.831 106.75 101.625 107.895 99.0285C108.118 98.5259 107.392 98.1071 107.169 98.6097Z" fill="#161616"/>
<path d="M101.222 103.16C101.111 104.109 101.446 105.03 102.088 105.728C102.451 106.119 103.037 105.533 102.674 105.142C102.172 104.584 101.976 103.913 102.06 103.16C102.116 102.629 101.278 102.629 101.222 103.16Z" fill="#161616"/>
<path d="M99.5188 98.3855C100.245 97.3804 101.11 96.4869 102.088 95.6772C101.864 95.5376 101.613 95.398 101.39 95.2584C101.027 96.3752 100.245 97.2687 99.2117 97.8271C99.3792 98.0505 99.5468 98.2739 99.7143 98.4972C100.356 97.7154 100.999 96.9616 101.641 96.1798C101.976 95.761 101.39 95.1746 101.054 95.5934C100.412 96.3752 99.7701 97.1291 99.1279 97.9109C98.8208 98.2739 99.2117 98.8044 99.6305 98.581C100.859 97.9109 101.753 96.822 102.199 95.5097C102.339 95.0629 101.808 94.8675 101.501 95.0909C100.468 95.9285 99.5747 96.8778 98.8208 97.9667C98.4858 98.4135 99.2117 98.8323 99.5188 98.3855Z" fill="#161616"/>
<path d="M108.789 100.843C109.151 100.229 109.626 99.6984 110.157 99.2237C109.933 99.0841 109.682 98.9445 109.459 98.8049C109.207 99.6425 108.705 100.396 107.979 100.927C108.174 101.094 108.398 101.234 108.593 101.402C108.761 100.955 109.012 100.536 109.319 100.173C109.654 99.7542 109.068 99.1679 108.733 99.5867C108.342 100.089 108.035 100.592 107.811 101.178C107.672 101.513 108.146 101.876 108.426 101.653C109.319 100.983 109.961 100.117 110.268 99.0562C110.408 98.6374 109.877 98.3861 109.57 98.6374C108.984 99.1399 108.481 99.7542 108.063 100.424C107.755 100.871 108.481 101.29 108.789 100.843Z" fill="#161616"/>
<path d="M96.6432 96.3199C97.062 97.2971 97.2853 98.3023 97.2853 99.3353C97.2853 99.6145 97.7042 99.6145 97.7042 99.3353C97.7042 98.2185 97.4529 97.1296 97.0061 96.0965C96.8944 95.8452 96.5315 96.0686 96.6432 96.3199Z" fill="#161616"/>
<path d="M95.4699 95.5932C95.7491 96.04 95.9445 96.4867 96.1121 96.9614C96.1958 97.2127 96.5867 97.101 96.503 96.8497C96.3354 96.3192 96.1121 95.8445 95.8328 95.3699C95.6932 95.1465 95.3303 95.3699 95.4699 95.5932Z" fill="#161616"/>
<path d="M101.92 93.3045C102.953 92.9974 103.931 93.6954 103.959 94.7844C103.959 95.1752 104.601 95.2032 104.601 94.7844C104.545 93.3045 103.205 92.2994 101.753 92.6903C101.362 92.802 101.529 93.4162 101.92 93.3045Z" fill="#161616"/>
<path d="M109.403 97.4087C109.85 97.1295 110.38 97.1016 110.855 97.3808C111.19 97.6042 111.525 97.0458 111.162 96.8503C110.52 96.4594 109.71 96.4594 109.096 96.8782C108.761 97.1016 109.068 97.6321 109.403 97.4087Z" fill="#161616"/>
<path d="M95.7635 104.326C97.0915 104.682 98.2108 105.58 98.8905 106.791C99.1556 107.271 98.4251 107.686 98.16 107.206C97.5822 106.171 96.68 105.448 95.5349 105.132C95.0064 104.978 95.235 104.171 95.7635 104.326Z" fill="#161616"/>
<path d="M90.0254 91.3777C90.6396 90.3167 92.1195 88.0551 94.9674 86.4915C96.9219 85.4026 98.7647 85.0955 99.8815 84.9838C100.496 85.7935 101.501 86.8545 102.981 87.5246C106.471 89.1161 109.291 87.022 111.357 88.4181C112.446 89.144 113.535 90.9031 113.116 95.7055C114.959 97.6041 116.187 97.7158 116.857 97.5762C119.65 97.0178 121.66 90.7355 119.901 86.1565C119.37 84.7884 118.672 84.0066 112.753 79.2879C104.405 72.6427 103.372 72.2518 102.283 72.0005C96.531 70.6603 91.4494 73.5641 90.5838 74.0667C89.467 74.7089 89.2157 75.016 82.8218 81.745C77.8518 86.9662 77.3772 87.4409 76.9304 88.7252C75.7577 91.9641 75.9811 96.6548 78.9687 100.089C81.7887 103.3 85.5859 103.775 86.5632 103.886C86.1444 102.937 85.6976 101.597 85.4743 99.9495C85.195 97.8275 85.4743 96.0684 85.7255 94.9237C85.5301 94.7841 84.4133 93.8627 84.3295 92.2991C84.2737 91.1543 84.8042 89.7025 86.0327 89.2278C87.4008 88.6973 89.2715 89.507 90.0254 91.3777Z" fill="#5222D0"/>
<path d="M88.8248 77.3334C87.6801 75.0718 84.3295 74.7368 83.7432 74.6809C79.0804 74.2063 75.339 78.3665 73.1332 80.7956C69.2243 85.1234 70.3411 86.4077 66.5438 91.629C61.5181 98.5534 57.7487 98.8605 56.9669 103.635C56.9111 103.998 56.2131 108.8 59.3961 111.704C62.1323 114.217 66.5438 114.245 69.4476 112.737C73.3845 110.699 73.0494 106.595 75.8974 99.6981C81.4816 86.2402 91.0306 81.6891 88.8248 77.3334Z" fill="#5222D0"/>
<path opacity="0.12" d="M93.3197 87.4971C92.4262 89.7308 91.3652 93.2767 91.4211 97.7162C91.5048 104.808 94.4086 110.001 95.8605 112.235C94.269 111.565 91.6165 110.141 89.2991 107.349C88.3498 106.204 86.1161 103.496 85.5297 99.3356C85.2505 97.4649 85.418 95.9013 85.5856 94.8403C85.418 94.7007 84.2733 93.6676 84.3291 92.0482C84.357 90.9872 84.9155 89.5632 86.1161 89.1444C87.4563 88.6698 89.2991 89.5353 90.025 91.406C90.3042 90.8476 90.6951 90.1496 91.2815 89.4236C92.0074 88.5581 92.7333 87.9438 93.3197 87.4971Z" fill="#6D6C6C"/>
<path opacity="0.13" d="M88.4061 107.935C88.1827 108.438 87.9314 108.94 87.6243 109.443C86.2283 111.788 84.4134 113.352 82.9894 114.301C82.4868 113.994 81.8167 113.519 81.1466 112.794C80.4207 112.012 79.9739 111.23 79.7227 110.672C80.8116 110.336 83.5199 109.303 85.3627 106.595C86.0049 105.618 86.3958 104.669 86.6191 103.887C87.2055 105.255 87.7918 106.595 88.4061 107.935Z" fill="#6D6C6C"/>
<path opacity="0.18" d="M85.949 94.3652C86.0886 96.2918 86.4516 98.8047 87.4009 101.625C88.7132 105.45 90.6118 108.27 92.0637 110.057C90.6118 108.884 88.8807 107.125 87.4847 104.668C86.5633 103.021 85.1952 100.647 85.3627 97.4086C85.4185 96.1522 85.6977 95.0912 85.949 94.3652Z" fill="#6D6C6C"/>
<path opacity="0.32" d="M90.2207 74.7646C89.048 75.9094 81.7327 83.2806 82.7378 93.7509C83.1566 98.2183 84.9436 101.597 86.228 103.579C85.3345 103.523 83.6034 103.328 81.7327 102.239C79.862 101.15 78.801 99.726 78.3263 99.0001C77.9633 98.4137 77.5166 97.4644 77.2374 96.2638C77.2374 96.2638 76.7348 93.9185 77.6562 91.0147C78.6334 87.8317 83.045 81.6332 90.2207 74.7646Z" fill="#32198E"/>
<path opacity="0.33" d="M75.1154 79.2886C75.7576 79.7074 72.2117 87.1623 68.3027 93.6679C64.7847 99.5034 63.0536 101.123 62.8023 104.697C62.551 108.41 64.1146 111.593 65.5106 113.743C64.8126 113.799 62.188 113.883 59.8985 112.068C58.642 111.063 57.9719 109.89 57.6648 109.164C56.9947 107.21 56.4084 104.362 57.581 101.681C58.3628 99.8664 59.2842 99.7268 62.1601 96.823C64.7009 94.2543 67.2138 91.7135 69.0566 87.9441C70.0059 86.0176 70.3409 84.6215 71.9604 82.4437C73.0214 80.9918 74.7525 79.0373 75.1154 79.2886Z" fill="#32198E"/>
</svg>
