<svg width="25" height="25" viewBox="0 0 25 25" fill="none" xmlns="http://www.w3.org/2000/svg">
<path d="M14.4674 22.2298C13.2874 22.2298 11.6174 21.3998 10.2974 17.4298L9.57744 15.2698L7.41744 14.5498C3.45744 13.2298 2.62744 11.5598 2.62744 10.3798C2.62744 9.2098 3.45744 7.5298 7.41744 6.1998L15.9074 3.3698C18.0274 2.6598 19.7974 2.8698 20.8874 3.9498C21.9774 5.0298 22.1874 6.8098 21.4774 8.9298L18.6474 17.4198C17.3174 21.3998 15.6474 22.2298 14.4674 22.2298ZM7.88744 7.6298C5.10744 8.5598 4.11744 9.6598 4.11744 10.3798C4.11744 11.0998 5.10744 12.1998 7.88744 13.1198L10.4074 13.9598C10.6274 14.0298 10.8074 14.2098 10.8774 14.4298L11.7174 16.9498C12.6374 19.7298 13.7474 20.7198 14.4674 20.7198C15.1874 20.7198 16.2874 19.7298 17.2174 16.9498L20.0474 8.4598C20.5574 6.9198 20.4674 5.6598 19.8174 5.0098C19.1674 4.3598 17.9074 4.2798 16.3774 4.7898L7.88744 7.6298Z" fill="white"/>
<path d="M10.3576 14.9999C10.1676 14.9999 9.97761 14.9299 9.82761 14.7799C9.53761 14.4899 9.53761 14.0099 9.82761 13.7199L13.4076 10.1299C13.6976 9.83985 14.1776 9.83985 14.4676 10.1299C14.7576 10.4199 14.7576 10.8999 14.4676 11.1899L10.8876 14.7799C10.7476 14.9299 10.5476 14.9999 10.3576 14.9999Z" fill="white"/>
</svg>
