<svg xmlns="http://www.w3.org/2000/svg" width="140" height="140" viewBox="0 0 140 140">
  <g id="Group_14894" data-name="Group 14894" transform="translate(-249 -2387)">
    <g id="Ellipse_1263" data-name="Ellipse 1263" transform="translate(249 2387)" fill="#6c6c6f" stroke="#707070" stroke-width="1">
      <circle cx="70" cy="70" r="70" stroke="none"/>
      <circle cx="70" cy="70" r="69.5" fill="none"/>
    </g>
    <g id="Group_13707" data-name="Group 13707" transform="translate(262.697 2400.02)">
      <path id="ribbon" d="M49.763,0H7.413A1.254,1.254,0,0,0,6.158,1.255v57.8a1.254,1.254,0,0,0,2.124.9L28.588,40.409,48.893,59.961a1.254,1.254,0,0,0,2.124-.9V1.255A1.255,1.255,0,0,0,49.763,0ZM48.508,56.108,29.457,37.764a1.252,1.252,0,0,0-1.739,0L8.668,56.108V2.51h39.84Z" transform="translate(27.715 26.824)" fill="#fff" stroke="#fff" stroke-width="1"/>
    </g>
  </g>
</svg>
