<svg xmlns="http://www.w3.org/2000/svg" width="42.391" height="50.434" viewBox="0 0 42.391 50.434"><defs><style>.a{fill:#fff;}</style></defs><path class="a" d="M479.119,323.548c-2.3-9.147-11.27-15.918-21.138-15.918-9.853,0-18.825,6.772-21.121,15.918a2.261,2.261,0,0,0,2.218,2.772H476.9A2.261,2.261,0,0,0,479.119,323.548Z" transform="translate(-436.794 -275.887)"/><path class="a" d="M455.6,317.309a13.515,13.515,0,1,0-13.515-13.515A13.515,13.515,0,0,0,455.6,317.309Zm0-23.167a9.652,9.652,0,1,1-9.652,9.652A9.651,9.651,0,0,1,455.6,294.143Z" transform="translate(-434.404 -290.28)"/></svg>