<svg xmlns="http://www.w3.org/2000/svg" width="158" height="158" viewBox="0 0 158 158"><defs><style>.a{fill:#0e0e0e;}.b{fill:#fff;}</style></defs><g transform="translate(-46 -2484)"><circle class="a" cx="79" cy="79" r="79" transform="translate(46 2484)"/><g transform="translate(95.265 2533.265)"><path class="b" d="M50.79,8.714A29.752,29.752,0,0,0,8.714,50.79a29.764,29.764,0,0,0,36.432,4.426,2.324,2.324,0,0,0-2.409-3.976A25.326,25.326,0,1,1,50.6,43.685a2.324,2.324,0,0,0,3.865,2.584A29.679,29.679,0,0,0,50.79,8.714Z"/><path class="b" d="M174.877,145.987a5.238,5.238,0,0,0-7.862,4.544v15.221a5.224,5.224,0,0,0,7.862,4.543l13.115-7.61a5.256,5.256,0,0,0,0-9.087Z" transform="translate(-147.605 -128.389)"/></g></g></svg>