<svg width="32" height="32" viewBox="0 0 32 32" fill="none" xmlns="http://www.w3.org/2000/svg">
<path d="M25.7675 7.70428C26.6663 9.04947 26.6663 10.9221 26.6663 14.6673C26.6663 18.4125 26.6663 20.2852 25.7675 21.6304C25.3784 22.2127 24.8784 22.7127 24.296 23.1018C23.1209 23.887 21.5433 23.9863 18.6663 23.9988V24.0006L17.1922 26.9488C16.7009 27.9316 15.2985 27.9316 14.8071 26.9488L13.333 24.0006V23.9988C10.4561 23.9863 8.87843 23.887 7.7033 23.1018C7.12095 22.7127 6.62095 22.2127 6.23184 21.6304C5.33301 20.2852 5.33301 18.4125 5.33301 14.6673C5.33301 10.9221 5.33301 9.04947 6.23184 7.70428C6.62095 7.12193 7.12095 6.62193 7.7033 6.23281C9.04849 5.33398 10.9211 5.33398 14.6663 5.33398H17.333C21.0782 5.33398 22.9509 5.33398 24.296 6.23281C24.8784 6.62193 25.3784 7.12193 25.7675 7.70428Z" stroke="white" stroke-width="1.5" stroke-linecap="round" stroke-linejoin="round"/>
<path d="M12 12L20 12" stroke="white" stroke-width="1.5" stroke-linecap="round" stroke-linejoin="round"/>
<path d="M12 17.334H16" stroke="white" stroke-width="1.5" stroke-linecap="round" stroke-linejoin="round"/>
</svg>
