<svg xmlns="http://www.w3.org/2000/svg" width="53.229" height="54.684" viewBox="0 0 53.229 54.684">
  <g id="write" transform="translate(-6.806)">
    <g id="Group_14731" data-name="Group 14731" transform="translate(6.806 3.626)">
      <g id="Group_14730" data-name="Group 14730" transform="translate(0)">
        <path id="Path_35817" data-name="Path 35817" d="M57.857,42.388,32.625,67.62a1.626,1.626,0,0,1-.762.429L21.81,70.518a1.627,1.627,0,0,1-1.968-1.968L22.311,58.5a1.626,1.626,0,0,1,.429-.762L46.525,33.952H15.477a8.68,8.68,0,0,0-8.671,8.671V76.338a8.68,8.68,0,0,0,8.671,8.67H49.192a8.68,8.68,0,0,0,8.67-8.67V42.623C57.863,42.544,57.859,42.466,57.857,42.388Z" transform="translate(-6.806 -33.952)" fill="#84838b"/>
      </g>
    </g>
    <g id="Group_14733" data-name="Group 14733" transform="translate(27.583)">
      <g id="Group_14732" data-name="Group 14732" transform="translate(0)">
        <path id="Path_35818" data-name="Path 35818" d="M233.263,3.238l-2.7-2.7a1.825,1.825,0,0,0-2.578,0L201.344,27.169a1.624,1.624,0,0,1,.311.241l4.992,4.992.014.015,26.6-26.6A1.826,1.826,0,0,0,233.263,3.238Z" transform="translate(-201.344)" fill="#84838b"/>
      </g>
    </g>
    <g id="Group_14735" data-name="Group 14735" transform="translate(23.643 29.409)">
      <g id="Group_14734" data-name="Group 14734">
        <path id="Path_35819" data-name="Path 35819" d="M166.4,275.661a1.625,1.625,0,0,1-.236-.3l-1.715,6.983,6.93-1.7Z" transform="translate(-164.451 -275.36)" fill="#84838b"/>
      </g>
    </g>
  </g>
</svg>
