<svg width="26" height="26" viewBox="0 0 26 26" fill="none" xmlns="http://www.w3.org/2000/svg">
<path d="M3.24843 14.9444C2.71972 13.994 2.45537 13.5188 2.45537 12.9999C2.45537 12.4811 2.71972 12.0059 3.24843 11.0554L4.80026 8.26575L6.44027 5.52699C6.99902 4.5939 7.27839 4.12735 7.72772 3.86793C8.17705 3.60851 8.72079 3.59983 9.80825 3.58249L13.0001 3.53158L16.1919 3.58249C17.2794 3.59983 17.8231 3.60851 18.2724 3.86793C18.7218 4.12735 19.0011 4.5939 19.5599 5.52699L21.1999 8.26575L22.7517 11.0554C23.2804 12.0059 23.5448 12.4811 23.5448 12.9999C23.5448 13.5188 23.2804 13.994 22.7517 14.9444L21.1999 17.7341L19.5599 20.4728C19.0011 21.4059 18.7218 21.8725 18.2724 22.1319C17.8231 22.3913 17.2794 22.4 16.1919 22.4173L13.0001 22.4683L9.80825 22.4173C8.72079 22.4 8.17706 22.3913 7.72773 22.1319C7.2784 21.8725 6.99902 21.4059 6.44027 20.4728L4.80026 17.7341L3.24843 14.9444Z" stroke="#23204A" stroke-width="1.5"/>
<circle cx="13" cy="13" r="3.25" stroke="#23204A" stroke-width="1.5"/>
</svg>
