<svg width="25" height="24" viewBox="0 0 25 24" fill="none" xmlns="http://www.w3.org/2000/svg">
<g clip-path="url(#clip0_5742_39488)">
<g filter="url(#filter0_d_5742_39488)">
<path d="M5.81892 11.5714C5.81892 11.9953 5.69324 12.4096 5.45778 12.762C5.22232 13.1143 4.88765 13.389 4.4961 13.5512C4.10454 13.7134 3.67368 13.7558 3.25801 13.6731C2.84234 13.5904 2.46052 13.3864 2.16083 13.0867C1.86115 12.787 1.65706 12.4052 1.57438 11.9895C1.4917 11.5738 1.53413 11.143 1.69632 10.7514C1.85851 10.3599 2.13316 10.0252 2.48555 9.78973C2.83794 9.55427 3.25224 9.42859 3.67606 9.42859C4.24438 9.42859 4.78943 9.65435 5.19129 10.0562C5.59315 10.4581 5.81892 11.0031 5.81892 11.5714ZM20.8189 9.42859C20.3951 9.42859 19.9808 9.55427 19.6284 9.78973C19.276 10.0252 19.0014 10.3599 18.8392 10.7514C18.677 11.143 18.6346 11.5738 18.7172 11.9895C18.7999 12.4052 19.004 12.787 19.3037 13.0867C19.6034 13.3864 19.9852 13.5904 20.4009 13.6731C20.8165 13.7558 21.2474 13.7134 21.639 13.5512C22.0305 13.389 22.3652 13.1143 22.6006 12.762C22.8361 12.4096 22.9618 11.9953 22.9618 11.5714C22.9618 11.0031 22.736 10.4581 22.3341 10.0562C21.9323 9.65435 21.3872 9.42859 20.8189 9.42859ZM12.2475 9.42859C11.8237 9.42859 11.4094 9.55427 11.057 9.78973C10.7046 10.0252 10.4299 10.3599 10.2677 10.7514C10.1056 11.143 10.0631 11.5738 10.1458 11.9895C10.2285 12.4052 10.4326 12.787 10.7323 13.0867C11.0319 13.3864 11.4138 13.5904 11.8294 13.6731C12.2451 13.7558 12.676 13.7134 13.0675 13.5512C13.4591 13.389 13.7937 13.1143 14.0292 12.762C14.2647 12.4096 14.3903 11.9953 14.3903 11.5714C14.3903 11.0031 14.1646 10.4581 13.7627 10.0562C13.3609 9.65435 12.8158 9.42859 12.2475 9.42859Z" fill="white"/>
</g>
</g>
<defs>
<filter id="filter0_d_5742_39488" x="-3.4668" y="6.42859" width="29.4285" height="12.2858" filterUnits="userSpaceOnUse" color-interpolation-filters="sRGB">
<feFlood flood-opacity="0" result="BackgroundImageFix"/>
<feColorMatrix in="SourceAlpha" type="matrix" values="0 0 0 0 0 0 0 0 0 0 0 0 0 0 0 0 0 0 127 0" result="hardAlpha"/>
<feOffset dx="-1" dy="1"/>
<feGaussianBlur stdDeviation="2"/>
<feComposite in2="hardAlpha" operator="out"/>
<feColorMatrix type="matrix" values="0 0 0 0 0 0 0 0 0 0 0 0 0 0 0 0 0 0 0.1 0"/>
<feBlend mode="normal" in2="BackgroundImageFix" result="effect1_dropShadow_5742_39488"/>
<feBlend mode="normal" in="SourceGraphic" in2="effect1_dropShadow_5742_39488" result="shape"/>
</filter>
<clipPath id="clip0_5742_39488">
<rect width="24" height="24" fill="white" transform="translate(0.247559)"/>
</clipPath>
</defs>
</svg>
