<svg width="241" height="329" viewBox="0 0 241 329" fill="none" xmlns="http://www.w3.org/2000/svg">
<path d="M19.9219 2.45312V38H11.3525V2.45312H19.9219ZM30.6152 2.45312V9.06934H0.90332V2.45312H30.6152ZM41.9189 0.5V38H33.6914V0.5H41.9189ZM40.9424 23.8887L39.0137 23.9375C39.0137 22.082 39.2415 20.373 39.6973 18.8105C40.153 17.248 40.804 15.889 41.6504 14.7334C42.4967 13.5778 43.514 12.6826 44.7021 12.0479C45.8903 11.4131 47.2087 11.0957 48.6572 11.0957C49.9593 11.0957 51.1475 11.2829 52.2217 11.6572C53.3122 12.0316 54.248 12.6338 55.0293 13.4639C55.8268 14.2939 56.4372 15.3763 56.8604 16.7109C57.2998 18.0456 57.5195 19.6732 57.5195 21.5938V38H49.2432V21.5449C49.2432 20.4707 49.0885 19.6406 48.7793 19.0547C48.4863 18.4525 48.0632 18.0374 47.5098 17.8096C46.9564 17.5654 46.2809 17.4434 45.4834 17.4434C44.5231 17.4434 43.7419 17.6061 43.1396 17.9316C42.5374 18.2572 42.0736 18.7129 41.748 19.2988C41.4388 19.8685 41.2272 20.5439 41.1133 21.3252C40.9993 22.1064 40.9424 22.9609 40.9424 23.8887ZM74.8779 38.4883C72.7295 38.4883 70.8089 38.1546 69.1162 37.4873C67.4235 36.8037 65.9912 35.8678 64.8193 34.6797C63.6637 33.4915 62.7767 32.1243 62.1582 30.5781C61.556 29.0319 61.2549 27.3962 61.2549 25.6709V24.7432C61.2549 22.8063 61.5234 21.016 62.0605 19.3721C62.5977 17.7119 63.3952 16.2633 64.4531 15.0264C65.5111 13.7894 66.8376 12.8291 68.4326 12.1455C70.0277 11.4456 71.8831 11.0957 73.999 11.0957C75.8708 11.0957 77.5472 11.3968 79.0283 11.999C80.5094 12.6012 81.7627 13.4639 82.7881 14.5869C83.8298 15.71 84.6191 17.069 85.1562 18.6641C85.7096 20.2591 85.9863 22.0495 85.9863 24.0352V27.3799H64.4043V22.2285H77.9541V21.5938C77.9704 20.7148 77.8158 19.9661 77.4902 19.3477C77.181 18.7292 76.7253 18.2572 76.123 17.9316C75.5208 17.6061 74.7884 17.4434 73.9258 17.4434C73.0306 17.4434 72.29 17.6387 71.7041 18.0293C71.1344 18.4199 70.6868 18.957 70.3613 19.6406C70.0521 20.3079 69.8324 21.0811 69.7021 21.96C69.5719 22.8389 69.5068 23.7666 69.5068 24.7432V25.6709C69.5068 26.6475 69.637 27.5345 69.8975 28.332C70.1742 29.1296 70.5648 29.8132 71.0693 30.3828C71.5902 30.9362 72.2087 31.3675 72.9248 31.6768C73.6572 31.986 74.4873 32.1406 75.415 32.1406C76.5381 32.1406 77.6449 31.929 78.7354 31.5059C79.8258 31.0827 80.7617 30.3828 81.543 29.4062L85.2783 33.8496C84.7412 34.6146 83.9762 35.3551 82.9834 36.0713C82.0068 36.7874 80.835 37.3734 79.4678 37.8291C78.1006 38.2686 76.5706 38.4883 74.8779 38.4883ZM109.814 30.1387L114.697 11.584H119.849L118.018 20.8857L113.184 38H109.058L109.814 30.1387ZM107.886 11.584L110.913 29.9922L111.255 38H106.25L100 11.584H107.886ZM124.194 29.6016L127.246 11.584H135.132L128.931 38H123.926L124.194 29.6016ZM120.435 11.584L125.366 30.0898L126.123 38H121.948L117.212 20.9346L115.454 11.584H120.435ZM137.085 25.0605V24.5479C137.085 22.611 137.362 20.8288 137.915 19.2012C138.468 17.5573 139.282 16.1331 140.356 14.9287C141.431 13.7243 142.757 12.7884 144.336 12.1211C145.915 11.4375 147.738 11.0957 149.805 11.0957C151.888 11.0957 153.719 11.4375 155.298 12.1211C156.893 12.7884 158.228 13.7243 159.302 14.9287C160.376 16.1331 161.19 17.5573 161.743 19.2012C162.297 20.8288 162.573 22.611 162.573 24.5479V25.0605C162.573 26.9811 162.297 28.7633 161.743 30.4072C161.19 32.0348 160.376 33.459 159.302 34.6797C158.228 35.8841 156.901 36.82 155.322 37.4873C153.743 38.1546 151.921 38.4883 149.854 38.4883C147.786 38.4883 145.955 38.1546 144.36 37.4873C142.765 36.82 141.431 35.8841 140.356 34.6797C139.282 33.459 138.468 32.0348 137.915 30.4072C137.362 28.7633 137.085 26.9811 137.085 25.0605ZM145.312 24.5479V25.0605C145.312 26.0534 145.386 26.9811 145.532 27.8438C145.679 28.7064 145.923 29.4632 146.265 30.1143C146.606 30.749 147.07 31.2454 147.656 31.6035C148.242 31.9616 148.975 32.1406 149.854 32.1406C150.716 32.1406 151.432 31.9616 152.002 31.6035C152.588 31.2454 153.052 30.749 153.394 30.1143C153.735 29.4632 153.979 28.7064 154.126 27.8438C154.272 26.9811 154.346 26.0534 154.346 25.0605V24.5479C154.346 23.5876 154.272 22.6842 154.126 21.8379C153.979 20.9753 153.735 20.2184 153.394 19.5674C153.052 18.9001 152.588 18.3792 152.002 18.0049C151.416 17.6305 150.684 17.4434 149.805 17.4434C148.942 17.4434 148.218 17.6305 147.632 18.0049C147.062 18.3792 146.606 18.9001 146.265 19.5674C145.923 20.2184 145.679 20.9753 145.532 21.8379C145.386 22.6842 145.312 23.5876 145.312 24.5479ZM174.536 18.127V38H166.309V11.584H173.999L174.536 18.127ZM182.349 11.3887L182.202 19.0303C181.877 18.9977 181.437 18.957 180.884 18.9082C180.33 18.8594 179.867 18.835 179.492 18.835C178.532 18.835 177.702 18.9489 177.002 19.1768C176.318 19.3883 175.749 19.7139 175.293 20.1533C174.854 20.5765 174.528 21.1136 174.316 21.7646C174.121 22.4157 174.032 23.1725 174.048 24.0352L172.559 23.0586C172.559 21.2845 172.729 19.6732 173.071 18.2246C173.429 16.7598 173.934 15.4984 174.585 14.4404C175.236 13.3662 176.025 12.5443 176.953 11.9746C177.881 11.3887 178.923 11.0957 180.078 11.0957C180.485 11.0957 180.884 11.1201 181.274 11.1689C181.681 11.2178 182.039 11.291 182.349 11.3887ZM193.872 0.5V38H185.62V0.5H193.872ZM214.136 31.9453V0.5H222.412V38H214.99L214.136 31.9453ZM197.925 25.1094V24.5967C197.925 22.5947 198.145 20.7718 198.584 19.1279C199.023 17.4678 199.674 16.0436 200.537 14.8555C201.4 13.651 202.474 12.7233 203.76 12.0723C205.046 11.4212 206.527 11.0957 208.203 11.0957C209.701 11.0957 211.011 11.4456 212.134 12.1455C213.257 12.8291 214.217 13.7894 215.015 15.0264C215.812 16.2633 216.463 17.7119 216.968 19.3721C217.472 21.016 217.855 22.79 218.115 24.6943V25.3047C217.855 27.0951 217.472 28.7878 216.968 30.3828C216.463 31.9616 215.812 33.3613 215.015 34.582C214.217 35.8027 213.249 36.763 212.109 37.4629C210.986 38.1465 209.668 38.4883 208.154 38.4883C206.478 38.4883 204.997 38.1546 203.711 37.4873C202.441 36.82 201.375 35.8841 200.513 34.6797C199.666 33.4753 199.023 32.0592 198.584 30.4316C198.145 28.804 197.925 27.0299 197.925 25.1094ZM206.152 24.5967V25.1094C206.152 26.1022 206.217 27.0218 206.348 27.8682C206.478 28.7145 206.698 29.4632 207.007 30.1143C207.332 30.749 207.756 31.2454 208.276 31.6035C208.813 31.9616 209.473 32.1406 210.254 32.1406C211.312 32.1406 212.183 31.8883 212.866 31.3838C213.566 30.8792 214.079 30.1631 214.404 29.2354C214.746 28.3076 214.893 27.2171 214.844 25.9639V24.0352C214.876 22.9609 214.803 22.0169 214.624 21.2031C214.445 20.373 214.16 19.6813 213.77 19.1279C213.395 18.5745 212.915 18.1595 212.329 17.8828C211.759 17.5898 211.084 17.4434 210.303 17.4434C209.538 17.4434 208.887 17.6224 208.35 17.9805C207.829 18.3385 207.406 18.8431 207.08 19.4941C206.755 20.1289 206.519 20.8857 206.372 21.7646C206.226 22.6273 206.152 23.5713 206.152 24.5967ZM16.04 101.359V90.4707C16.04 89.722 15.9342 89.0791 15.7227 88.542C15.5111 88.0049 15.1774 87.5898 14.7217 87.2969C14.266 86.9876 13.6556 86.833 12.8906 86.833C12.2721 86.833 11.7432 86.9388 11.3037 87.1504C10.8643 87.362 10.5306 87.6794 10.3027 88.1025C10.0749 88.5257 9.96094 89.0628 9.96094 89.7139H1.7334C1.7334 88.4932 2.00195 87.362 2.53906 86.3203C3.09245 85.2624 3.8737 84.3428 4.88281 83.5615C5.9082 82.7803 7.12891 82.1781 8.54492 81.7549C9.97721 81.3154 11.5723 81.0957 13.3301 81.0957C15.4297 81.0957 17.3014 81.4456 18.9453 82.1455C20.6055 82.8454 21.9157 83.8952 22.876 85.2949C23.8363 86.6784 24.3164 88.4199 24.3164 90.5195V101.335C24.3164 103.06 24.4141 104.37 24.6094 105.266C24.8047 106.145 25.0814 106.918 25.4395 107.585V108H17.1875C16.7969 107.186 16.5039 106.193 16.3086 105.021C16.1296 103.833 16.04 102.613 16.04 101.359ZM17.041 91.8623L17.0898 96.2568H13.4521C12.6872 96.2568 12.0361 96.3626 11.499 96.5742C10.9782 96.7858 10.555 97.0788 10.2295 97.4531C9.92025 97.8112 9.69238 98.2181 9.5459 98.6738C9.41569 99.1296 9.35059 99.6097 9.35059 100.114C9.35059 100.603 9.46452 101.042 9.69238 101.433C9.93652 101.807 10.262 102.1 10.6689 102.312C11.0758 102.523 11.5316 102.629 12.0361 102.629C12.9476 102.629 13.7207 102.458 14.3555 102.116C15.0065 101.758 15.5029 101.327 15.8447 100.822C16.1865 100.318 16.3574 99.8457 16.3574 99.4062L18.1641 102.775C17.8385 103.426 17.4642 104.086 17.041 104.753C16.6341 105.42 16.1214 106.039 15.5029 106.608C14.9007 107.162 14.1602 107.618 13.2812 107.976C12.4023 108.317 11.3363 108.488 10.083 108.488C8.4554 108.488 6.95801 108.155 5.59082 107.487C4.23991 106.82 3.15755 105.892 2.34375 104.704C1.52995 103.5 1.12305 102.116 1.12305 100.554C1.12305 99.1865 1.36719 97.9658 1.85547 96.8916C2.36003 95.8174 3.11686 94.9059 4.12598 94.1572C5.13509 93.4085 6.4209 92.8389 7.9834 92.4482C9.5459 92.0576 11.3851 91.8623 13.501 91.8623H17.041ZM42.7979 81.584V87.2969H26.8799V81.584H42.7979ZM30.2246 75.0166H38.4521V99.3818C38.4521 100.082 38.5335 100.627 38.6963 101.018C38.859 101.392 39.1357 101.66 39.5264 101.823C39.9333 101.97 40.4704 102.043 41.1377 102.043C41.6097 102.043 42.0003 102.035 42.3096 102.019C42.6188 101.986 42.9118 101.945 43.1885 101.896V107.78C42.4886 108.008 41.7562 108.179 40.9912 108.293C40.2262 108.423 39.4124 108.488 38.5498 108.488C36.792 108.488 35.2865 108.212 34.0332 107.658C32.7962 107.105 31.8522 106.234 31.2012 105.046C30.5501 103.858 30.2246 102.312 30.2246 100.407V75.0166ZM66.626 104.899L73.4619 81.584H82.2998L71.6797 111.931C71.4518 112.598 71.1507 113.314 70.7764 114.079C70.402 114.86 69.8893 115.601 69.2383 116.301C68.5872 117.001 67.749 117.57 66.7236 118.01C65.7145 118.449 64.4613 118.669 62.9639 118.669C62.1663 118.669 61.5804 118.628 61.2061 118.547C60.848 118.482 60.2946 118.36 59.5459 118.181V112.297C59.7575 112.297 59.9365 112.297 60.083 112.297C60.2458 112.297 60.4248 112.297 60.6201 112.297C61.499 112.297 62.1989 112.207 62.7197 112.028C63.2568 111.849 63.6637 111.589 63.9404 111.247C64.2334 110.905 64.4613 110.49 64.624 110.002L66.626 104.899ZM64.8926 81.584L70.0928 100.065L70.9961 108.781H65.4785L56.0791 81.584H64.8926ZM83.0322 95.0605V94.5479C83.0322 92.611 83.3089 90.8288 83.8623 89.2012C84.4157 87.5573 85.2295 86.1331 86.3037 84.9287C87.3779 83.7243 88.7044 82.7884 90.2832 82.1211C91.862 81.4375 93.6849 81.0957 95.752 81.0957C97.8353 81.0957 99.6663 81.4375 101.245 82.1211C102.84 82.7884 104.175 83.7243 105.249 84.9287C106.323 86.1331 107.137 87.5573 107.69 89.2012C108.244 90.8288 108.521 92.611 108.521 94.5479V95.0605C108.521 96.9811 108.244 98.7633 107.69 100.407C107.137 102.035 106.323 103.459 105.249 104.68C104.175 105.884 102.848 106.82 101.27 107.487C99.6908 108.155 97.8678 108.488 95.8008 108.488C93.7337 108.488 91.9027 108.155 90.3076 107.487C88.7126 106.82 87.3779 105.884 86.3037 104.68C85.2295 103.459 84.4157 102.035 83.8623 100.407C83.3089 98.7633 83.0322 96.9811 83.0322 95.0605ZM91.2598 94.5479V95.0605C91.2598 96.0534 91.333 96.9811 91.4795 97.8438C91.626 98.7064 91.8701 99.4632 92.2119 100.114C92.5537 100.749 93.0176 101.245 93.6035 101.604C94.1895 101.962 94.9219 102.141 95.8008 102.141C96.6634 102.141 97.3796 101.962 97.9492 101.604C98.5352 101.245 98.999 100.749 99.3408 100.114C99.6826 99.4632 99.9268 98.7064 100.073 97.8438C100.22 96.9811 100.293 96.0534 100.293 95.0605V94.5479C100.293 93.5876 100.22 92.6842 100.073 91.8379C99.9268 90.9753 99.6826 90.2184 99.3408 89.5674C98.999 88.9001 98.5352 88.3792 97.9492 88.0049C97.3633 87.6305 96.6309 87.4434 95.752 87.4434C94.8893 87.4434 94.165 87.6305 93.5791 88.0049C93.0094 88.3792 92.5537 88.9001 92.2119 89.5674C91.8701 90.2184 91.626 90.9753 91.4795 91.8379C91.333 92.6842 91.2598 93.5876 91.2598 94.5479ZM127.612 101.579V81.584H135.864V108H128.149L127.612 101.579ZM128.394 96.208L130.542 96.1592C130.542 97.9333 130.33 99.5771 129.907 101.091C129.484 102.588 128.857 103.89 128.027 104.997C127.214 106.104 126.204 106.966 125 107.585C123.812 108.187 122.437 108.488 120.874 108.488C119.572 108.488 118.376 108.309 117.285 107.951C116.211 107.577 115.283 106.999 114.502 106.218C113.721 105.42 113.11 104.403 112.671 103.166C112.248 101.913 112.036 100.415 112.036 98.6738V81.584H120.264V98.7227C120.264 99.3086 120.337 99.8132 120.483 100.236C120.63 100.66 120.841 101.018 121.118 101.311C121.395 101.587 121.737 101.799 122.144 101.945C122.567 102.076 123.047 102.141 123.584 102.141C124.821 102.141 125.789 101.88 126.489 101.359C127.189 100.839 127.677 100.131 127.954 99.2354C128.247 98.3402 128.394 97.3311 128.394 96.208ZM148.706 88.127V108H140.479V81.584H148.169L148.706 88.127ZM156.519 81.3887L156.372 89.0303C156.047 88.9977 155.607 88.957 155.054 88.9082C154.5 88.8594 154.036 88.835 153.662 88.835C152.702 88.835 151.872 88.9489 151.172 89.1768C150.488 89.3883 149.919 89.7139 149.463 90.1533C149.023 90.5765 148.698 91.1136 148.486 91.7646C148.291 92.4157 148.201 93.1725 148.218 94.0352L146.729 93.0586C146.729 91.2845 146.899 89.6732 147.241 88.2246C147.599 86.7598 148.104 85.4984 148.755 84.4404C149.406 83.3662 150.195 82.5443 151.123 81.9746C152.051 81.3887 153.092 81.0957 154.248 81.0957C154.655 81.0957 155.054 81.1201 155.444 81.1689C155.851 81.2178 156.209 81.291 156.519 81.3887ZM12.5 178H4.22363V150.9C4.22363 148.54 4.71191 146.555 5.68848 144.943C6.68132 143.316 8.10547 142.087 9.96094 141.257C11.8164 140.41 14.0625 139.987 16.6992 139.987C18.1966 139.987 19.637 140.118 21.0205 140.378C22.404 140.638 23.8363 140.98 25.3174 141.403L24.1699 147.897C23.2096 147.637 22.2005 147.393 21.1426 147.165C20.1009 146.937 18.7907 146.823 17.2119 146.823C15.7308 146.823 14.5752 147.173 13.7451 147.873C12.915 148.573 12.5 149.582 12.5 150.9V178ZM17.6758 151.584V157.297H0.415039V151.584H17.6758ZM29.0771 151.584V178H20.8252V151.584H29.0771ZM42.2363 157.224V178H34.0088V151.584H41.7236L42.2363 157.224ZM41.2598 163.889L39.3311 163.938C39.3311 161.919 39.5752 160.121 40.0635 158.542C40.5518 156.947 41.2435 155.596 42.1387 154.489C43.0339 153.382 44.0999 152.544 45.3369 151.975C46.5902 151.389 47.9818 151.096 49.5117 151.096C50.7324 151.096 51.8473 151.275 52.8564 151.633C53.8818 151.991 54.7607 152.569 55.4932 153.366C56.2419 154.164 56.8115 155.222 57.2021 156.54C57.609 157.842 57.8125 159.453 57.8125 161.374V178H49.5361V161.35C49.5361 160.292 49.3896 159.486 49.0967 158.933C48.8037 158.363 48.3805 157.972 47.8271 157.761C47.2738 157.549 46.5983 157.443 45.8008 157.443C44.9544 157.443 44.2383 157.606 43.6523 157.932C43.0664 158.257 42.5944 158.713 42.2363 159.299C41.8945 159.868 41.6423 160.544 41.4795 161.325C41.333 162.106 41.2598 162.961 41.2598 163.889ZM78.9795 151.584H86.4502V176.975C86.4502 179.416 85.8887 181.483 84.7656 183.176C83.6426 184.885 82.0719 186.179 80.0537 187.058C78.0518 187.953 75.708 188.4 73.0225 188.4C71.8343 188.4 70.6217 188.246 69.3848 187.937C68.1478 187.644 66.9922 187.204 65.918 186.618C64.8438 186.032 63.9404 185.308 63.208 184.445L66.6504 179.611C67.3177 180.36 68.1559 180.995 69.165 181.516C70.1742 182.053 71.3623 182.321 72.7295 182.321C73.9176 182.321 74.9105 182.11 75.708 181.687C76.5218 181.263 77.1403 180.645 77.5635 179.831C77.9867 179.034 78.1982 178.065 78.1982 176.926V157.834L78.9795 151.584ZM61.4258 165.109V164.597C61.4258 162.595 61.6699 160.772 62.1582 159.128C62.6628 157.468 63.3789 156.044 64.3066 154.855C65.2507 153.651 66.39 152.723 67.7246 152.072C69.0592 151.421 70.5648 151.096 72.2412 151.096C74.0479 151.096 75.529 151.446 76.6846 152.146C77.8564 152.829 78.7923 153.789 79.4922 155.026C80.2083 156.263 80.7617 157.712 81.1523 159.372C81.5592 161.016 81.901 162.79 82.1777 164.694V165.305C81.901 167.095 81.5186 168.788 81.0303 170.383C80.5583 171.962 79.9398 173.361 79.1748 174.582C78.4098 175.803 77.4495 176.763 76.2939 177.463C75.1546 178.146 73.7874 178.488 72.1924 178.488C70.5322 178.488 69.0348 178.155 67.7002 177.487C66.3818 176.82 65.2507 175.884 64.3066 174.68C63.3789 173.475 62.6628 172.059 62.1582 170.432C61.6699 168.804 61.4258 167.03 61.4258 165.109ZM69.6533 164.597V165.109C69.6533 166.102 69.7428 167.022 69.9219 167.868C70.1172 168.715 70.4102 169.463 70.8008 170.114C71.1914 170.749 71.6715 171.245 72.2412 171.604C72.8271 171.962 73.5107 172.141 74.292 172.141C75.4801 172.141 76.4404 171.888 77.1729 171.384C77.9053 170.879 78.4342 170.163 78.7598 169.235C79.0853 168.308 79.2236 167.217 79.1748 165.964V164.035C79.2074 162.961 79.1341 162.017 78.9551 161.203C78.776 160.373 78.4912 159.681 78.1006 159.128C77.7262 158.575 77.2217 158.16 76.5869 157.883C75.9684 157.59 75.2197 157.443 74.3408 157.443C73.5758 157.443 72.9004 157.622 72.3145 157.98C71.7285 158.339 71.2402 158.843 70.8496 159.494C70.459 160.129 70.1579 160.886 69.9463 161.765C69.751 162.627 69.6533 163.571 69.6533 164.597ZM103.979 178.488C101.831 178.488 99.9105 178.155 98.2178 177.487C96.5251 176.804 95.0928 175.868 93.9209 174.68C92.7653 173.492 91.8783 172.124 91.2598 170.578C90.6576 169.032 90.3564 167.396 90.3564 165.671V164.743C90.3564 162.806 90.625 161.016 91.1621 159.372C91.6992 157.712 92.4967 156.263 93.5547 155.026C94.6126 153.789 95.9391 152.829 97.5342 152.146C99.1292 151.446 100.985 151.096 103.101 151.096C104.972 151.096 106.649 151.397 108.13 151.999C109.611 152.601 110.864 153.464 111.89 154.587C112.931 155.71 113.721 157.069 114.258 158.664C114.811 160.259 115.088 162.049 115.088 164.035V167.38H93.5059V162.229H107.056V161.594C107.072 160.715 106.917 159.966 106.592 159.348C106.283 158.729 105.827 158.257 105.225 157.932C104.622 157.606 103.89 157.443 103.027 157.443C102.132 157.443 101.392 157.639 100.806 158.029C100.236 158.42 99.7884 158.957 99.4629 159.641C99.1536 160.308 98.9339 161.081 98.8037 161.96C98.6735 162.839 98.6084 163.767 98.6084 164.743V165.671C98.6084 166.647 98.7386 167.535 98.999 168.332C99.2757 169.13 99.6663 169.813 100.171 170.383C100.692 170.936 101.31 171.368 102.026 171.677C102.759 171.986 103.589 172.141 104.517 172.141C105.64 172.141 106.746 171.929 107.837 171.506C108.927 171.083 109.863 170.383 110.645 169.406L114.38 173.85C113.843 174.615 113.078 175.355 112.085 176.071C111.108 176.787 109.937 177.373 108.569 177.829C107.202 178.269 105.672 178.488 103.979 178.488ZM126.733 158.127V178H118.506V151.584H126.196L126.733 158.127ZM134.546 151.389L134.399 159.03C134.074 158.998 133.634 158.957 133.081 158.908C132.528 158.859 132.064 158.835 131.689 158.835C130.729 158.835 129.899 158.949 129.199 159.177C128.516 159.388 127.946 159.714 127.49 160.153C127.051 160.576 126.725 161.114 126.514 161.765C126.318 162.416 126.229 163.173 126.245 164.035L124.756 163.059C124.756 161.285 124.927 159.673 125.269 158.225C125.627 156.76 126.131 155.498 126.782 154.44C127.433 153.366 128.223 152.544 129.15 151.975C130.078 151.389 131.12 151.096 132.275 151.096C132.682 151.096 133.081 151.12 133.472 151.169C133.879 151.218 134.237 151.291 134.546 151.389ZM145.679 156.662V188.156H137.451V151.584H145.117L145.679 156.662ZM161.89 164.475V164.987C161.89 166.908 161.67 168.69 161.23 170.334C160.791 171.978 160.14 173.41 159.277 174.631C158.415 175.852 157.34 176.804 156.055 177.487C154.785 178.155 153.312 178.488 151.636 178.488C150.057 178.488 148.698 178.138 147.559 177.438C146.419 176.739 145.467 175.77 144.702 174.533C143.937 173.296 143.319 171.88 142.847 170.285C142.375 168.69 142 167.006 141.724 165.231V164.572C142 162.668 142.375 160.902 142.847 159.274C143.319 157.631 143.937 156.198 144.702 154.978C145.467 153.757 146.411 152.805 147.534 152.121C148.674 151.438 150.033 151.096 151.611 151.096C153.288 151.096 154.761 151.413 156.03 152.048C157.316 152.683 158.39 153.594 159.253 154.782C160.132 155.954 160.791 157.362 161.23 159.006C161.67 160.65 161.89 162.473 161.89 164.475ZM153.662 164.987V164.475C153.662 163.449 153.589 162.513 153.442 161.667C153.296 160.804 153.06 160.056 152.734 159.421C152.425 158.786 152.01 158.298 151.489 157.956C150.968 157.614 150.326 157.443 149.561 157.443C148.682 157.443 147.941 157.582 147.339 157.858C146.753 158.119 146.281 158.526 145.923 159.079C145.581 159.616 145.337 160.292 145.19 161.105C145.06 161.903 145.003 162.839 145.02 163.913V165.915C144.987 167.152 145.109 168.243 145.386 169.187C145.662 170.114 146.143 170.839 146.826 171.359C147.51 171.88 148.438 172.141 149.609 172.141C150.391 172.141 151.042 171.962 151.562 171.604C152.083 171.229 152.498 170.716 152.808 170.065C153.117 169.398 153.337 168.633 153.467 167.771C153.597 166.908 153.662 165.98 153.662 164.987ZM173.853 158.127V178H165.625V151.584H173.315L173.853 158.127ZM181.665 151.389L181.519 159.03C181.193 158.998 180.754 158.957 180.2 158.908C179.647 158.859 179.183 158.835 178.809 158.835C177.848 158.835 177.018 158.949 176.318 159.177C175.635 159.388 175.065 159.714 174.609 160.153C174.17 160.576 173.844 161.114 173.633 161.765C173.438 162.416 173.348 163.173 173.364 164.035L171.875 163.059C171.875 161.285 172.046 159.673 172.388 158.225C172.746 156.76 173.25 155.498 173.901 154.44C174.552 153.366 175.342 152.544 176.27 151.975C177.197 151.389 178.239 151.096 179.395 151.096C179.801 151.096 180.2 151.12 180.591 151.169C180.998 151.218 181.356 151.291 181.665 151.389ZM193.188 151.584V178H184.937V151.584H193.188ZM184.448 144.772C184.448 143.601 184.871 142.64 185.718 141.892C186.564 141.143 187.663 140.769 189.014 140.769C190.365 140.769 191.463 141.143 192.31 141.892C193.156 142.64 193.579 143.601 193.579 144.772C193.579 145.944 193.156 146.905 192.31 147.653C191.463 148.402 190.365 148.776 189.014 148.776C187.663 148.776 186.564 148.402 185.718 147.653C184.871 146.905 184.448 145.944 184.448 144.772ZM206.348 157.224V178H198.12V151.584H205.835L206.348 157.224ZM205.371 163.889L203.442 163.938C203.442 161.919 203.687 160.121 204.175 158.542C204.663 156.947 205.355 155.596 206.25 154.489C207.145 153.382 208.211 152.544 209.448 151.975C210.701 151.389 212.093 151.096 213.623 151.096C214.844 151.096 215.959 151.275 216.968 151.633C217.993 151.991 218.872 152.569 219.604 153.366C220.353 154.164 220.923 155.222 221.313 156.54C221.72 157.842 221.924 159.453 221.924 161.374V178H213.647V161.35C213.647 160.292 213.501 159.486 213.208 158.933C212.915 158.363 212.492 157.972 211.938 157.761C211.385 157.549 210.71 157.443 209.912 157.443C209.066 157.443 208.35 157.606 207.764 157.932C207.178 158.257 206.706 158.713 206.348 159.299C206.006 159.868 205.754 160.544 205.591 161.325C205.444 162.106 205.371 162.961 205.371 163.889ZM240.405 151.584V157.297H224.487V151.584H240.405ZM227.832 145.017H236.06V169.382C236.06 170.082 236.141 170.627 236.304 171.018C236.466 171.392 236.743 171.66 237.134 171.823C237.541 171.97 238.078 172.043 238.745 172.043C239.217 172.043 239.608 172.035 239.917 172.019C240.226 171.986 240.519 171.945 240.796 171.896V177.78C240.096 178.008 239.364 178.179 238.599 178.293C237.834 178.423 237.02 178.488 236.157 178.488C234.399 178.488 232.894 178.212 231.641 177.658C230.404 177.105 229.46 176.234 228.809 175.046C228.158 173.858 227.832 172.312 227.832 170.407V145.017ZM16.04 241.359V230.471C16.04 229.722 15.9342 229.079 15.7227 228.542C15.5111 228.005 15.1774 227.59 14.7217 227.297C14.266 226.988 13.6556 226.833 12.8906 226.833C12.2721 226.833 11.7432 226.939 11.3037 227.15C10.8643 227.362 10.5306 227.679 10.3027 228.103C10.0749 228.526 9.96094 229.063 9.96094 229.714H1.7334C1.7334 228.493 2.00195 227.362 2.53906 226.32C3.09245 225.262 3.8737 224.343 4.88281 223.562C5.9082 222.78 7.12891 222.178 8.54492 221.755C9.97721 221.315 11.5723 221.096 13.3301 221.096C15.4297 221.096 17.3014 221.446 18.9453 222.146C20.6055 222.845 21.9157 223.895 22.876 225.295C23.8363 226.678 24.3164 228.42 24.3164 230.52V241.335C24.3164 243.06 24.4141 244.37 24.6094 245.266C24.8047 246.145 25.0814 246.918 25.4395 247.585V248H17.1875C16.7969 247.186 16.5039 246.193 16.3086 245.021C16.1296 243.833 16.04 242.613 16.04 241.359ZM17.041 231.862L17.0898 236.257H13.4521C12.6872 236.257 12.0361 236.363 11.499 236.574C10.9782 236.786 10.555 237.079 10.2295 237.453C9.92025 237.811 9.69238 238.218 9.5459 238.674C9.41569 239.13 9.35059 239.61 9.35059 240.114C9.35059 240.603 9.46452 241.042 9.69238 241.433C9.93652 241.807 10.262 242.1 10.6689 242.312C11.0758 242.523 11.5316 242.629 12.0361 242.629C12.9476 242.629 13.7207 242.458 14.3555 242.116C15.0065 241.758 15.5029 241.327 15.8447 240.822C16.1865 240.318 16.3574 239.846 16.3574 239.406L18.1641 242.775C17.8385 243.426 17.4642 244.086 17.041 244.753C16.6341 245.42 16.1214 246.039 15.5029 246.608C14.9007 247.162 14.1602 247.618 13.2812 247.976C12.4023 248.317 11.3363 248.488 10.083 248.488C8.4554 248.488 6.95801 248.155 5.59082 247.487C4.23991 246.82 3.15755 245.892 2.34375 244.704C1.52995 243.5 1.12305 242.116 1.12305 240.554C1.12305 239.187 1.36719 237.966 1.85547 236.892C2.36003 235.817 3.11686 234.906 4.12598 234.157C5.13509 233.409 6.4209 232.839 7.9834 232.448C9.5459 232.058 11.3851 231.862 13.501 231.862H17.041ZM36.9629 227.224V248H28.7354V221.584H36.4502L36.9629 227.224ZM35.9863 233.889L34.0576 233.938C34.0576 231.919 34.3018 230.121 34.79 228.542C35.2783 226.947 35.9701 225.596 36.8652 224.489C37.7604 223.382 38.8265 222.544 40.0635 221.975C41.3167 221.389 42.7083 221.096 44.2383 221.096C45.459 221.096 46.5739 221.275 47.583 221.633C48.6084 221.991 49.4873 222.569 50.2197 223.366C50.9684 224.164 51.5381 225.222 51.9287 226.54C52.3356 227.842 52.5391 229.453 52.5391 231.374V248H44.2627V231.35C44.2627 230.292 44.1162 229.486 43.8232 228.933C43.5303 228.363 43.1071 227.972 42.5537 227.761C42.0003 227.549 41.3249 227.443 40.5273 227.443C39.681 227.443 38.9648 227.606 38.3789 227.932C37.793 228.257 37.321 228.713 36.9629 229.299C36.6211 229.868 36.3688 230.544 36.2061 231.325C36.0596 232.106 35.9863 232.961 35.9863 233.889ZM65.21 244.899L72.0459 221.584H80.8838L70.2637 251.931C70.0358 252.598 69.7347 253.314 69.3604 254.079C68.986 254.86 68.4733 255.601 67.8223 256.301C67.1712 257.001 66.333 257.57 65.3076 258.01C64.2985 258.449 63.0452 258.669 61.5479 258.669C60.7503 258.669 60.1644 258.628 59.79 258.547C59.432 258.482 58.8786 258.36 58.1299 258.181V252.297C58.3415 252.297 58.5205 252.297 58.667 252.297C58.8298 252.297 59.0088 252.297 59.2041 252.297C60.083 252.297 60.7829 252.207 61.3037 252.028C61.8408 251.849 62.2477 251.589 62.5244 251.247C62.8174 250.905 63.0452 250.49 63.208 250.002L65.21 244.899ZM63.4766 221.584L68.6768 240.065L69.5801 248.781H64.0625L54.6631 221.584H63.4766ZM96.9482 221.584V227.297H81.0303V221.584H96.9482ZM84.375 215.017H92.6025V239.382C92.6025 240.082 92.6839 240.627 92.8467 241.018C93.0094 241.392 93.2861 241.66 93.6768 241.823C94.0837 241.97 94.6208 242.043 95.2881 242.043C95.7601 242.043 96.1507 242.035 96.46 242.019C96.7692 241.986 97.0622 241.945 97.3389 241.896V247.78C96.639 248.008 95.9066 248.179 95.1416 248.293C94.3766 248.423 93.5628 248.488 92.7002 248.488C90.9424 248.488 89.4368 248.212 88.1836 247.658C86.9466 247.105 86.0026 246.234 85.3516 245.046C84.7005 243.858 84.375 242.312 84.375 240.407V215.017ZM108.911 221.584V248H100.659V221.584H108.911ZM100.171 214.772C100.171 213.601 100.594 212.64 101.44 211.892C102.287 211.143 103.385 210.769 104.736 210.769C106.087 210.769 107.186 211.143 108.032 211.892C108.879 212.64 109.302 213.601 109.302 214.772C109.302 215.944 108.879 216.905 108.032 217.653C107.186 218.402 106.087 218.776 104.736 218.776C103.385 218.776 102.287 218.402 101.44 217.653C100.594 216.905 100.171 215.944 100.171 214.772ZM122.29 227.175V248H114.062V221.584H121.777L122.29 227.175ZM121.289 233.889L119.409 233.938C119.409 232.082 119.629 230.373 120.068 228.811C120.508 227.248 121.159 225.889 122.021 224.733C122.884 223.578 123.942 222.683 125.195 222.048C126.465 221.413 127.93 221.096 129.59 221.096C130.745 221.096 131.795 221.275 132.739 221.633C133.683 221.975 134.497 222.52 135.181 223.269C135.864 224.001 136.385 224.961 136.743 226.149C137.118 227.321 137.305 228.729 137.305 230.373V248H129.077V231.423C129.077 230.3 128.947 229.453 128.687 228.884C128.442 228.314 128.084 227.932 127.612 227.736C127.14 227.541 126.562 227.443 125.879 227.443C125.163 227.443 124.52 227.606 123.95 227.932C123.381 228.257 122.892 228.713 122.485 229.299C122.095 229.868 121.794 230.544 121.582 231.325C121.387 232.106 121.289 232.961 121.289 233.889ZM136.377 233.889L134.082 233.938C134.082 232.082 134.285 230.373 134.692 228.811C135.116 227.248 135.742 225.889 136.572 224.733C137.419 223.578 138.468 222.683 139.722 222.048C140.975 221.413 142.432 221.096 144.092 221.096C145.296 221.096 146.403 221.275 147.412 221.633C148.421 221.991 149.292 222.569 150.024 223.366C150.757 224.164 151.326 225.222 151.733 226.54C152.14 227.842 152.344 229.453 152.344 231.374V248H144.092V231.374C144.092 230.284 143.962 229.462 143.701 228.908C143.457 228.339 143.099 227.956 142.627 227.761C142.155 227.549 141.593 227.443 140.942 227.443C140.161 227.443 139.486 227.606 138.916 227.932C138.346 228.257 137.866 228.713 137.476 229.299C137.101 229.868 136.825 230.544 136.646 231.325C136.466 232.106 136.377 232.961 136.377 233.889ZM169.849 248.488C167.7 248.488 165.78 248.155 164.087 247.487C162.394 246.804 160.962 245.868 159.79 244.68C158.634 243.492 157.747 242.124 157.129 240.578C156.527 239.032 156.226 237.396 156.226 235.671V234.743C156.226 232.806 156.494 231.016 157.031 229.372C157.568 227.712 158.366 226.263 159.424 225.026C160.482 223.789 161.808 222.829 163.403 222.146C164.998 221.446 166.854 221.096 168.97 221.096C170.841 221.096 172.518 221.397 173.999 221.999C175.48 222.601 176.733 223.464 177.759 224.587C178.8 225.71 179.59 227.069 180.127 228.664C180.68 230.259 180.957 232.049 180.957 234.035V237.38H159.375V232.229H172.925V231.594C172.941 230.715 172.786 229.966 172.461 229.348C172.152 228.729 171.696 228.257 171.094 227.932C170.492 227.606 169.759 227.443 168.896 227.443C168.001 227.443 167.261 227.639 166.675 228.029C166.105 228.42 165.658 228.957 165.332 229.641C165.023 230.308 164.803 231.081 164.673 231.96C164.543 232.839 164.478 233.767 164.478 234.743V235.671C164.478 236.647 164.608 237.535 164.868 238.332C165.145 239.13 165.535 239.813 166.04 240.383C166.561 240.936 167.179 241.368 167.896 241.677C168.628 241.986 169.458 242.141 170.386 242.141C171.509 242.141 172.616 241.929 173.706 241.506C174.797 241.083 175.732 240.383 176.514 239.406L180.249 243.85C179.712 244.615 178.947 245.355 177.954 246.071C176.978 246.787 175.806 247.373 174.438 247.829C173.071 248.269 171.541 248.488 169.849 248.488ZM192.261 241.799L192.212 247.023C192.212 248.993 191.724 250.938 190.747 252.858C189.787 254.779 188.607 256.35 187.207 257.57L183.032 255.617C183.374 254.868 183.748 254.112 184.155 253.347C184.562 252.598 184.912 251.752 185.205 250.808C185.498 249.864 185.645 248.757 185.645 247.487V241.799H192.261ZM16.04 311.359V300.471C16.04 299.722 15.9342 299.079 15.7227 298.542C15.5111 298.005 15.1774 297.59 14.7217 297.297C14.266 296.988 13.6556 296.833 12.8906 296.833C12.2721 296.833 11.7432 296.939 11.3037 297.15C10.8643 297.362 10.5306 297.679 10.3027 298.103C10.0749 298.526 9.96094 299.063 9.96094 299.714H1.7334C1.7334 298.493 2.00195 297.362 2.53906 296.32C3.09245 295.262 3.8737 294.343 4.88281 293.562C5.9082 292.78 7.12891 292.178 8.54492 291.755C9.97721 291.315 11.5723 291.096 13.3301 291.096C15.4297 291.096 17.3014 291.446 18.9453 292.146C20.6055 292.845 21.9157 293.895 22.876 295.295C23.8363 296.678 24.3164 298.42 24.3164 300.52V311.335C24.3164 313.06 24.4141 314.37 24.6094 315.266C24.8047 316.145 25.0814 316.918 25.4395 317.585V318H17.1875C16.7969 317.186 16.5039 316.193 16.3086 315.021C16.1296 313.833 16.04 312.613 16.04 311.359ZM17.041 301.862L17.0898 306.257H13.4521C12.6872 306.257 12.0361 306.363 11.499 306.574C10.9782 306.786 10.555 307.079 10.2295 307.453C9.92025 307.811 9.69238 308.218 9.5459 308.674C9.41569 309.13 9.35059 309.61 9.35059 310.114C9.35059 310.603 9.46452 311.042 9.69238 311.433C9.93652 311.807 10.262 312.1 10.6689 312.312C11.0758 312.523 11.5316 312.629 12.0361 312.629C12.9476 312.629 13.7207 312.458 14.3555 312.116C15.0065 311.758 15.5029 311.327 15.8447 310.822C16.1865 310.318 16.3574 309.846 16.3574 309.406L18.1641 312.775C17.8385 313.426 17.4642 314.086 17.041 314.753C16.6341 315.42 16.1214 316.039 15.5029 316.608C14.9007 317.162 14.1602 317.618 13.2812 317.976C12.4023 318.317 11.3363 318.488 10.083 318.488C8.4554 318.488 6.95801 318.155 5.59082 317.487C4.23991 316.82 3.15755 315.892 2.34375 314.704C1.52995 313.5 1.12305 312.116 1.12305 310.554C1.12305 309.187 1.36719 307.966 1.85547 306.892C2.36003 305.817 3.11686 304.906 4.12598 304.157C5.13509 303.409 6.4209 302.839 7.9834 302.448C9.5459 302.058 11.3851 301.862 13.501 301.862H17.041ZM36.9629 297.224V318H28.7354V291.584H36.4502L36.9629 297.224ZM35.9863 303.889L34.0576 303.938C34.0576 301.919 34.3018 300.121 34.79 298.542C35.2783 296.947 35.9701 295.596 36.8652 294.489C37.7604 293.382 38.8265 292.544 40.0635 291.975C41.3167 291.389 42.7083 291.096 44.2383 291.096C45.459 291.096 46.5739 291.275 47.583 291.633C48.6084 291.991 49.4873 292.569 50.2197 293.366C50.9684 294.164 51.5381 295.222 51.9287 296.54C52.3356 297.842 52.5391 299.453 52.5391 301.374V318H44.2627V301.35C44.2627 300.292 44.1162 299.486 43.8232 298.933C43.5303 298.363 43.1071 297.972 42.5537 297.761C42.0003 297.549 41.3249 297.443 40.5273 297.443C39.681 297.443 38.9648 297.606 38.3789 297.932C37.793 298.257 37.321 298.713 36.9629 299.299C36.6211 299.868 36.3688 300.544 36.2061 301.325C36.0596 302.106 35.9863 302.961 35.9863 303.889ZM65.21 314.899L72.0459 291.584H80.8838L70.2637 321.931C70.0358 322.598 69.7347 323.314 69.3604 324.079C68.986 324.86 68.4733 325.601 67.8223 326.301C67.1712 327.001 66.333 327.57 65.3076 328.01C64.2985 328.449 63.0452 328.669 61.5479 328.669C60.7503 328.669 60.1644 328.628 59.79 328.547C59.432 328.482 58.8786 328.36 58.1299 328.181V322.297C58.3415 322.297 58.5205 322.297 58.667 322.297C58.8298 322.297 59.0088 322.297 59.2041 322.297C60.083 322.297 60.7829 322.207 61.3037 322.028C61.8408 321.849 62.2477 321.589 62.5244 321.247C62.8174 320.905 63.0452 320.49 63.208 320.002L65.21 314.899ZM63.4766 291.584L68.6768 310.065L69.5801 318.781H64.0625L54.6631 291.584H63.4766ZM91.0645 310.139L95.9473 291.584H101.099L99.2676 300.886L94.4336 318H90.3076L91.0645 310.139ZM89.1357 291.584L92.1631 309.992L92.5049 318H87.5L81.25 291.584H89.1357ZM105.444 309.602L108.496 291.584H116.382L110.181 318H105.176L105.444 309.602ZM101.685 291.584L106.616 310.09L107.373 318H103.198L98.4619 300.935L96.7041 291.584H101.685ZM127.417 280.5V318H119.189V280.5H127.417ZM126.44 303.889L124.512 303.938C124.512 302.082 124.74 300.373 125.195 298.811C125.651 297.248 126.302 295.889 127.148 294.733C127.995 293.578 129.012 292.683 130.2 292.048C131.388 291.413 132.707 291.096 134.155 291.096C135.457 291.096 136.646 291.283 137.72 291.657C138.81 292.032 139.746 292.634 140.527 293.464C141.325 294.294 141.935 295.376 142.358 296.711C142.798 298.046 143.018 299.673 143.018 301.594V318H134.741V301.545C134.741 300.471 134.587 299.641 134.277 299.055C133.984 298.452 133.561 298.037 133.008 297.81C132.454 297.565 131.779 297.443 130.981 297.443C130.021 297.443 129.24 297.606 128.638 297.932C128.035 298.257 127.572 298.713 127.246 299.299C126.937 299.868 126.725 300.544 126.611 301.325C126.497 302.106 126.44 302.961 126.44 303.889ZM160.376 318.488C158.228 318.488 156.307 318.155 154.614 317.487C152.922 316.804 151.489 315.868 150.317 314.68C149.162 313.492 148.275 312.124 147.656 310.578C147.054 309.032 146.753 307.396 146.753 305.671V304.743C146.753 302.806 147.021 301.016 147.559 299.372C148.096 297.712 148.893 296.263 149.951 295.026C151.009 293.789 152.336 292.829 153.931 292.146C155.526 291.446 157.381 291.096 159.497 291.096C161.369 291.096 163.045 291.397 164.526 291.999C166.007 292.601 167.261 293.464 168.286 294.587C169.328 295.71 170.117 297.069 170.654 298.664C171.208 300.259 171.484 302.049 171.484 304.035V307.38H149.902V302.229H163.452V301.594C163.468 300.715 163.314 299.966 162.988 299.348C162.679 298.729 162.223 298.257 161.621 297.932C161.019 297.606 160.286 297.443 159.424 297.443C158.529 297.443 157.788 297.639 157.202 298.029C156.632 298.42 156.185 298.957 155.859 299.641C155.55 300.308 155.33 301.081 155.2 301.96C155.07 302.839 155.005 303.767 155.005 304.743V305.671C155.005 306.647 155.135 307.535 155.396 308.332C155.672 309.13 156.063 309.813 156.567 310.383C157.088 310.936 157.707 311.368 158.423 311.677C159.155 311.986 159.985 312.141 160.913 312.141C162.036 312.141 163.143 311.929 164.233 311.506C165.324 311.083 166.26 310.383 167.041 309.406L170.776 313.85C170.239 314.615 169.474 315.355 168.481 316.071C167.505 316.787 166.333 317.373 164.966 317.829C163.599 318.269 162.069 318.488 160.376 318.488ZM183.13 298.127V318H174.902V291.584H182.593L183.13 298.127ZM190.942 291.389L190.796 299.03C190.47 298.998 190.031 298.957 189.478 298.908C188.924 298.859 188.46 298.835 188.086 298.835C187.126 298.835 186.296 298.949 185.596 299.177C184.912 299.388 184.342 299.714 183.887 300.153C183.447 300.576 183.122 301.114 182.91 301.765C182.715 302.416 182.625 303.173 182.642 304.035L181.152 303.059C181.152 301.285 181.323 299.673 181.665 298.225C182.023 296.76 182.528 295.498 183.179 294.44C183.83 293.366 184.619 292.544 185.547 291.975C186.475 291.389 187.516 291.096 188.672 291.096C189.079 291.096 189.478 291.12 189.868 291.169C190.275 291.218 190.633 291.291 190.942 291.389ZM206.079 318.488C203.931 318.488 202.01 318.155 200.317 317.487C198.625 316.804 197.192 315.868 196.021 314.68C194.865 313.492 193.978 312.124 193.359 310.578C192.757 309.032 192.456 307.396 192.456 305.671V304.743C192.456 302.806 192.725 301.016 193.262 299.372C193.799 297.712 194.596 296.263 195.654 295.026C196.712 293.789 198.039 292.829 199.634 292.146C201.229 291.446 203.084 291.096 205.2 291.096C207.072 291.096 208.748 291.397 210.229 291.999C211.711 292.601 212.964 293.464 213.989 294.587C215.031 295.71 215.82 297.069 216.357 298.664C216.911 300.259 217.188 302.049 217.188 304.035V307.38H195.605V302.229H209.155V301.594C209.172 300.715 209.017 299.966 208.691 299.348C208.382 298.729 207.926 298.257 207.324 297.932C206.722 297.606 205.99 297.443 205.127 297.443C204.232 297.443 203.491 297.639 202.905 298.029C202.336 298.42 201.888 298.957 201.562 299.641C201.253 300.308 201.034 301.081 200.903 301.96C200.773 302.839 200.708 303.767 200.708 304.743V305.671C200.708 306.647 200.838 307.535 201.099 308.332C201.375 309.13 201.766 309.813 202.271 310.383C202.791 310.936 203.41 311.368 204.126 311.677C204.858 311.986 205.688 312.141 206.616 312.141C207.739 312.141 208.846 311.929 209.937 311.506C211.027 311.083 211.963 310.383 212.744 309.406L216.479 313.85C215.942 314.615 215.177 315.355 214.185 316.071C213.208 316.787 212.036 317.373 210.669 317.829C209.302 318.269 207.772 318.488 206.079 318.488Z" fill="url(#paint0_linear_355_105061)"/>
<defs>
<linearGradient id="paint0_linear_355_105061" x1="417.943" y1="607.536" x2="-12.5508" y2="599.098" gradientUnits="userSpaceOnUse">
<stop stop-color="#6768AB"/>
<stop offset="1" stop-color="#F73458"/>
</linearGradient>
</defs>
</svg>
