<svg width="20" height="20" viewBox="0 0 20 20" fill="none" xmlns="http://www.w3.org/2000/svg">
<path d="M16.1046 4.81542C16.6663 5.65616 16.6663 6.82655 16.6663 9.16732C16.6663 11.5081 16.6663 12.6785 16.1046 13.5192C15.8614 13.8832 15.5489 14.1957 15.1849 14.4389C14.4504 14.9296 13.4644 14.9917 11.6663 14.9995V15.0007L10.745 16.8433C10.4379 17.4575 9.56142 17.4575 9.25432 16.8433L8.33301 15.0007V14.9995C6.53492 14.9917 5.5489 14.9296 4.81444 14.4389C4.45047 14.1957 4.13797 13.8832 3.89478 13.5192C3.33301 12.6785 3.33301 11.5081 3.33301 9.16732C3.33301 6.82655 3.33301 5.65616 3.89478 4.81542C4.13797 4.45145 4.45047 4.13895 4.81444 3.89575C5.65519 3.33398 6.82557 3.33398 9.16634 3.33398H10.833C13.1738 3.33398 14.3442 3.33398 15.1849 3.89575C15.5489 4.13895 15.8614 4.45145 16.1046 4.81542Z" fill="white" stroke="#23204A" stroke-width="1.5" stroke-linecap="round" stroke-linejoin="round"/>
<path d="M7.5 7.5L12.5 7.5" stroke="black" stroke-width="1.5" stroke-linecap="round" stroke-linejoin="round"/>
<path d="M7.5 10.834H10" stroke="black" stroke-width="1.5" stroke-linecap="round" stroke-linejoin="round"/>
</svg>
