<svg xmlns="http://www.w3.org/2000/svg" width="68.668" height="47.05" viewBox="0 0 68.668 47.05"><defs><style>.a{fill:#84838b;}</style></defs><path class="a" d="M7.248,47.05H7.155A7.137,7.137,0,0,1,.129,39.812V16.018A1.848,1.848,0,0,1,2.79,14.393L33.224,28.953a1.894,1.894,0,0,0,1.017.272,2.9,2.9,0,0,0,1.2-.272L65.878,14.393a1.848,1.848,0,0,1,2.662,1.626V39.9A7.141,7.141,0,0,1,61.42,47.05ZM33.522,23.138,1.041,7.625A1.812,1.812,0,0,1,.053,5.553,7.431,7.431,0,0,1,7.248,0H61.42a7.431,7.431,0,0,1,7.2,5.553,1.813,1.813,0,0,1-.989,2.072L35.144,23.138a1.891,1.891,0,0,1-1.621,0Z"/></svg>