<svg xmlns="http://www.w3.org/2000/svg" width="87" height="86" viewBox="0 0 87 86">
  <g id="Group_13490" data-name="Group 13490" transform="translate(0.438)">
    <rect id="Rectangle_3984" data-name="Rectangle 3984" width="87" height="86" rx="20" transform="translate(-0.438)" fill="#9b9b9f" opacity="0.7"/>
    <g id="flag" transform="translate(23.244 20.455)">
      <g id="Group_13201" data-name="Group 13201" transform="translate(0)">
        <path id="Path_35273" data-name="Path 35273" d="M71.377,3.1a1.441,1.441,0,0,0-1.332-.14c-.1.04-9.514,3.767-17.43.034C45.82-.214,38.336,1.286,34.858,2.3V1.429a1.429,1.429,0,1,0-2.858,0V44.3a1.429,1.429,0,1,0,2.858,0V28.158c2.532-.826,10.036-2.789,16.538.283a21.578,21.578,0,0,0,9.256,1.946,30.519,30.519,0,0,0,10.465-1.912,1.434,1.434,0,0,0,.892-1.326V4.287A1.436,1.436,0,0,0,71.377,3.1ZM69.151,26.137c-2.546.826-10.048,2.781-16.538-.283-6.793-3.206-14.277-1.706-17.755-.692V5.3c2.532-.826,10.036-2.789,16.538.283,6.787,3.2,14.277,1.706,17.755.689Z" transform="translate(-32)" fill="#fff"/>
      </g>
    </g>
  </g>
</svg>
