<svg width="26" height="26" viewBox="0 0 26 26" fill="none" xmlns="http://www.w3.org/2000/svg">
<path d="M3.25 11.25C3.25 7.47876 3.25 5.59315 4.42157 4.42157C5.59315 3.25 7.47876 3.25 11.25 3.25H14.75C18.5212 3.25 20.4069 3.25 21.5784 4.42157C22.75 5.59315 22.75 7.47876 22.75 11.25V14.75C22.75 18.5212 22.75 20.4069 21.5784 21.5784C20.4069 22.75 18.5212 22.75 14.75 22.75H11.25C7.47876 22.75 5.59315 22.75 4.42157 21.5784C3.25 20.4069 3.25 18.5212 3.25 14.75V11.25Z" stroke="#F73458" stroke-width="1.5"/>
<path d="M11.7408 9.88418L11.41 10.5573L11.41 10.5573L11.7408 9.88418ZM15.5287 11.7456L15.8594 11.0725V11.0725L15.5287 11.7456ZM15.5287 14.2544L15.8594 14.9275L15.5287 14.2544ZM11.7408 16.1158L11.41 15.4427H11.41L11.7408 16.1158ZM11.41 10.5573L15.1979 12.4187L15.8594 11.0725L12.0716 9.21106L11.41 10.5573ZM15.1979 13.5813L11.41 15.4427L12.0716 16.7889L15.8594 14.9275L15.1979 13.5813ZM9 11.3894V14.6106H10.5V11.3894H9ZM11.41 15.4427C11.2173 15.5374 11.0207 15.5129 10.8443 15.3795C10.66 15.2401 10.5 14.9737 10.5 14.6106H9C9 15.4232 9.36424 16.1409 9.93966 16.576C10.5231 17.0171 11.3218 17.1574 12.0716 16.7889L11.41 15.4427ZM15.1979 12.4187C15.364 12.5004 15.5 12.7058 15.5 13C15.5 13.2942 15.364 13.4996 15.1979 13.5813L15.8594 14.9275C16.6551 14.5365 17 13.7239 17 13C17 12.2761 16.6551 11.4635 15.8594 11.0725L15.1979 12.4187ZM12.0716 9.21106C11.3218 8.84262 10.5231 8.98288 9.93966 9.42399C9.36424 9.85907 9 10.5768 9 11.3894H10.5C10.5 11.0263 10.66 10.7599 10.8443 10.6205C11.0207 10.4871 11.2173 10.4626 11.41 10.5573L12.0716 9.21106Z" fill="#F73458"/>
</svg>
