<svg xmlns="http://www.w3.org/2000/svg" width="46.903" height="32.832" viewBox="0 0 46.903 32.832"><defs><style>.a{fill:#fa0815;}.b{fill:#f3f3f3;}</style></defs><path class="a" d="M130.473,90.166a5.875,5.875,0,0,0-4.147-4.147c-3.658-.98-18.325-.98-18.325-.98s-14.667,0-18.325.98a5.875,5.875,0,0,0-4.147,4.147c-.98,3.658-.98,11.289-.98,11.289s0,7.632.98,11.289a5.874,5.874,0,0,0,4.147,4.146c3.658.98,18.325.98,18.325.98s14.667,0,18.325-.98a5.874,5.874,0,0,0,4.147-4.146c.98-3.658.98-11.289.98-11.289S131.453,93.823,130.473,90.166Z" transform="translate(-84.55 -85.039)"/><path class="b" d="M133.144,123.407l12.185-7.035-12.185-7.036Z" transform="translate(-114.383 -99.956)"/></svg>