<svg xmlns="http://www.w3.org/2000/svg" width="65.756" height="87.674" viewBox="0 0 65.756 87.674">
  <g id="mirror" transform="translate(65.756) rotate(90)">
    <path id="Path_35645" data-name="Path 35645" d="M316.956,58.994h0L285.9,2.371a4.567,4.567,0,0,0-8.571,2.2V61.189a4.573,4.573,0,0,0,4.567,4.567h31.051a4.571,4.571,0,0,0,4.007-6.762Zm0,0" transform="translate(-229.841 0)" fill="#707070"/>
    <path id="Path_35646" data-name="Path 35646" d="M35.618,0a4.574,4.574,0,0,0-4,2.371L.563,58.994h0a4.571,4.571,0,0,0,4.007,6.762H35.618a4.573,4.573,0,0,0,4.567-4.567V4.567A4.573,4.573,0,0,0,35.618,0Zm0,0" fill="#707070"/>
  </g>
</svg>
