<svg xmlns="http://www.w3.org/2000/svg" width="53.285" height="53.286" viewBox="0 0 53.285 53.286"><defs><style>.a{fill:#fff;}</style></defs><path class="a" d="M53.119,23.684a1.735,1.735,0,0,0-1.713-1.312,5.882,5.882,0,0,1-4.027-10.238,1.481,1.481,0,0,0,.162-2.01,26.376,26.376,0,0,0-4.221-4.263,1.484,1.484,0,0,0-2.025.164,6.141,6.141,0,0,1-6.645,1.493,5.918,5.918,0,0,1-3.6-5.784A1.478,1.478,0,0,0,29.745.177,26.588,26.588,0,0,0,23.751.161a1.483,1.483,0,0,0-1.319,1.525A5.928,5.928,0,0,1,18.783,7.37a6.157,6.157,0,0,1-6.6-1.5A1.485,1.485,0,0,0,10.177,5.7a26.485,26.485,0,0,0-4.31,4.261,1.482,1.482,0,0,0,.159,2.024,5.9,5.9,0,0,1,1.49,6.648,6.158,6.158,0,0,1-5.8,3.6A1.45,1.45,0,0,0,.18,23.543,26.708,26.708,0,0,0,.168,29.6a1.763,1.763,0,0,0,1.747,1.311A5.844,5.844,0,0,1,7.4,34.562a5.928,5.928,0,0,1-1.49,6.589,1.479,1.479,0,0,0-.162,2.007A26.469,26.469,0,0,0,9.96,47.422a1.482,1.482,0,0,0,2.028-.161,6.131,6.131,0,0,1,6.642-1.494,5.91,5.91,0,0,1,3.605,5.782,1.479,1.479,0,0,0,1.307,1.557,26.528,26.528,0,0,0,5.994.016A1.483,1.483,0,0,0,30.855,51.6,5.922,5.922,0,0,1,34.5,45.916a6.149,6.149,0,0,1,6.6,1.5,1.488,1.488,0,0,0,2.011.168,26.521,26.521,0,0,0,4.31-4.262,1.48,1.48,0,0,0-.159-2.025,5.9,5.9,0,0,1-1.493-6.646,5.964,5.964,0,0,1,5.45-3.612l.33.009a1.483,1.483,0,0,0,1.56-1.307A26.591,26.591,0,0,0,53.119,23.684ZM26.644,42a15.359,15.359,0,1,1,13.187-7.484l-6.726-6.726A9.422,9.422,0,0,0,21.951,15.031a1.067,1.067,0,0,0-.738.743,1.041,1.041,0,0,0,.3,1.018s3.32,3.346,4.431,4.457a.689.689,0,0,1,.1.494l-.01.073a21.236,21.236,0,0,1-.506,3.251l-.071.068-.074.076a20.931,20.931,0,0,1-3.3.513v-.007l-.056.014a.483.483,0,0,1-.053,0,.71.71,0,0,1-.511-.217c-1.156-1.156-4.347-4.324-4.347-4.324a1.085,1.085,0,0,0-.775-.345,1.054,1.054,0,0,0-.993.8A9.423,9.423,0,0,0,28.11,32.787l6.8,6.8A15.282,15.282,0,0,1,26.644,42Z" transform="translate(-0.002 0.001)"/></svg>