<svg xmlns="http://www.w3.org/2000/svg" width="140" height="140" viewBox="0 0 140 140">
  <g id="Group_14872" data-name="Group 14872" transform="translate(-55 -2386)">
    <g id="Ellipse_1264" data-name="Ellipse 1264" transform="translate(55 2386)" fill="#6c6c6f" stroke="#707070" stroke-width="1">
      <circle cx="70" cy="70" r="70" stroke="none"/>
      <circle cx="70" cy="70" r="69.5" fill="none"/>
    </g>
    <g id="flag" transform="translate(97.656 2424.281)">
      <g id="Group_13201" data-name="Group 13201" transform="translate(0)">
        <path id="Path_35273" data-name="Path 35273" d="M86.431,4.286a1.992,1.992,0,0,0-1.841-.194C84.456,4.148,71.44,9.3,60.5,4.14,51.1-.3,40.758,1.778,35.95,3.18v-1.2a1.975,1.975,0,1,0-3.95,0V61.23a1.975,1.975,0,1,0,3.95,0V38.922c3.5-1.142,13.873-3.855,22.86.391A29.827,29.827,0,0,0,71.606,42a42.186,42.186,0,0,0,14.466-2.643A1.983,1.983,0,0,0,87.3,37.528V5.925A1.985,1.985,0,0,0,86.431,4.286ZM83.354,36.129c-3.52,1.142-13.889,3.844-22.86-.391-9.39-4.432-19.736-2.358-24.543-.956V7.324c3.5-1.142,13.873-3.855,22.86.391,9.382,4.428,19.736,2.358,24.543.952Z" transform="translate(-32)" fill="#fff"/>
      </g>
    </g>
  </g>
</svg>
