<svg width="30" height="30" viewBox="0 0 30 30" fill="none" xmlns="http://www.w3.org/2000/svg">
<path fill-rule="evenodd" clip-rule="evenodd" d="M23.2537 6.43652C22.8524 6.50791 22.2942 6.69188 21.4421 6.97592L12.3797 9.99672C10.7543 10.5385 9.58865 10.928 8.78147 11.2855C7.92664 11.6642 7.71313 11.9121 7.66437 12.0334C7.54417 12.3325 7.54417 12.6665 7.66437 12.9656C7.71313 13.0869 7.92664 13.3348 8.78147 13.7135C9.58865 14.071 10.7543 14.4605 12.3797 15.0023C12.4121 15.0131 12.4442 15.0237 12.4758 15.0343C13.026 15.2172 13.4594 15.3612 13.8186 15.6307C14.027 15.787 14.2121 15.9721 14.3684 16.1805C14.6379 16.5398 14.782 16.9731 14.9649 17.5233C14.9754 17.555 14.9861 17.587 14.9969 17.6195C15.5387 19.2448 15.9281 20.4105 16.2857 21.2177C16.6644 22.0725 16.9122 22.286 17.0336 22.3348C17.3327 22.455 17.6667 22.455 17.9658 22.3348C18.0871 22.286 18.335 22.0725 18.7136 21.2177C19.0712 20.4105 19.4607 19.2448 20.0024 17.6195L23.0232 8.55706C23.3073 7.70495 23.4912 7.14681 23.5626 6.74548C23.5964 6.55561 23.5943 6.45708 23.5878 6.41136C23.5421 6.40486 23.4436 6.40274 23.2537 6.43652ZM23.6217 6.4209C23.6211 6.4214 23.6164 6.42014 23.6095 6.41562C23.6189 6.41814 23.6223 6.4204 23.6217 6.4209ZM23.5835 6.38964C23.579 6.38275 23.5778 6.37808 23.5783 6.37747C23.5788 6.37686 23.581 6.38031 23.5835 6.38964ZM22.991 4.95971C23.5214 4.86535 24.1663 4.85353 24.656 5.3432C25.1456 5.83287 25.1338 6.47781 25.0395 7.0082C24.9464 7.53125 24.725 8.19521 24.4654 8.97413L24.4463 9.0314L21.4255 18.0938L21.4112 18.1365C20.8867 19.71 20.4753 20.9444 20.0851 21.8252C19.7125 22.6663 19.2626 23.4302 18.5251 23.7266C17.867 23.9911 17.1323 23.9911 16.4742 23.7266C15.7367 23.4302 15.2868 22.6663 14.9142 21.8252C14.5241 20.9445 14.1126 19.7101 13.5881 18.1366L13.5739 18.0938C13.3431 17.4015 13.2731 17.22 13.1685 17.0806C13.0974 16.9859 13.0133 16.9017 12.9186 16.8307C12.7792 16.7261 12.5977 16.6561 11.9053 16.4253L11.8626 16.411C10.2891 15.8865 9.0547 15.4751 8.17393 15.0849C7.33283 14.7123 6.56894 14.2625 6.27255 13.5249C6.00811 12.8669 6.00811 12.1321 6.27255 11.4741C6.56894 10.7365 7.33283 10.2867 8.17393 9.91407C9.05471 9.5239 10.2891 9.11245 11.8626 8.58795L11.9054 8.5737L20.9678 5.55289L21.025 5.5338C21.804 5.27411 22.4679 5.05275 22.991 4.95971Z" fill="#F73458"/>
<path d="M13.75 16.25L17.5 12.5" stroke="#F73458" stroke-width="1.5" stroke-linecap="round"/>
</svg>
