<svg xmlns="http://www.w3.org/2000/svg" width="51.024" height="48.312" viewBox="0 0 51.024 48.312">
  <g id="Layer_2" data-name="Layer 2" transform="translate(-1 -1.804)">
    <path id="Path_2757" data-name="Path 2757" d="M48.979,18.873a6.667,6.667,0,0,1-5.255-9.014,3.129,3.129,0,0,0-.935-3.521A25.087,25.087,0,0,0,35.3,2a3.146,3.146,0,0,0-3.555.986,6.65,6.65,0,0,1-5.238,2.553,6.65,6.65,0,0,1-5.238-2.553A3.146,3.146,0,0,0,17.719,2a25.206,25.206,0,0,0-6.973,3.912,3.163,3.163,0,0,0-.986,3.623,6.633,6.633,0,0,1-5.528,9.116,3.146,3.146,0,0,0-2.755,2.534A24.049,24.049,0,0,0,1,25.948a24.355,24.355,0,0,0,.323,4A3.146,3.146,0,0,0,4.1,32.581,6.633,6.633,0,0,1,9.5,41.953a3.1,3.1,0,0,0,.867,3.708,25.274,25.274,0,0,0,7.415,4.269,3.4,3.4,0,0,0,1.072.187,3.129,3.129,0,0,0,2.551-1.327,6.582,6.582,0,0,1,5.443-2.857,6.667,6.667,0,0,1,5.34,2.687,3.129,3.129,0,0,0,3.674,1.037,25.512,25.512,0,0,0,6.8-4.065A3.146,3.146,0,0,0,43.588,42a6.633,6.633,0,0,1,5.323-9.167,3.146,3.146,0,0,0,2.67-2.585,24.662,24.662,0,0,0,.442-4.3A24.421,24.421,0,0,0,51.6,21.4a3.112,3.112,0,0,0-2.618-2.529ZM35.016,25.948a8.5,8.5,0,1,1-8.5-8.5,8.5,8.5,0,0,1,8.5,8.5Z" transform="translate(0 0)" fill="#fff"/>
  </g>
</svg>
