<svg xmlns="http://www.w3.org/2000/svg" width="114.639" height="114.637" viewBox="0 0 114.639 114.637">
  <path id="smartphone" d="M55.625,8.511A35.552,35.552,0,0,1,75.814,37.229h5.077A40.594,40.594,0,0,0,40.446,0c-.762,0-1.49.067-2.25.119L51.108,13.03Zm-21.17-2.6a5.077,5.077,0,0,0-7.174,0L5.737,27.449a5.077,5.077,0,0,0,0,7.174L46.419,75.307a5.077,5.077,0,0,0,7.174,0L75.137,53.765a5.077,5.077,0,0,0,0-7.174ZM50.03,71.719,9.325,31.036,30.868,9.494,71.55,50.176Zm-24.759,1A35.551,35.551,0,0,1,5.077,44H0A40.594,40.594,0,0,0,40.446,81.23c.762,0,1.49-.067,2.25-.119l-12.91-12.9-4.519,4.519Z" transform="translate(57.439) rotate(45)" fill="#fff"/>
</svg>
