<svg width="249" height="329" viewBox="0 0 249 329" fill="none" xmlns="http://www.w3.org/2000/svg">
<path d="M21.0205 28.5518C21.0205 27.9984 20.9391 27.502 20.7764 27.0625C20.6136 26.6068 20.3125 26.1836 19.873 25.793C19.4336 25.4023 18.7988 25.0117 17.9688 24.6211C17.1549 24.2142 16.0807 23.791 14.7461 23.3516C13.1836 22.8307 11.6781 22.2448 10.2295 21.5938C8.78092 20.9264 7.48698 20.1533 6.34766 19.2744C5.20833 18.3792 4.30501 17.3376 3.6377 16.1494C2.97038 14.945 2.63672 13.5452 2.63672 11.9502C2.63672 10.4202 2.97852 9.04492 3.66211 7.82422C4.3457 6.58724 5.29785 5.53743 6.51855 4.6748C7.75553 3.7959 9.2041 3.12858 10.8643 2.67285C12.5244 2.20085 14.3392 1.96484 16.3086 1.96484C18.9128 1.96484 21.2077 2.42057 23.1934 3.33203C25.1953 4.22721 26.7578 5.50488 27.8809 7.16504C29.0202 8.80892 29.5898 10.7539 29.5898 13H21.0693C21.0693 12.1048 20.8822 11.3154 20.5078 10.6318C20.1497 9.94824 19.6045 9.41113 18.8721 9.02051C18.1396 8.62988 17.2201 8.43457 16.1133 8.43457C15.0391 8.43457 14.1357 8.59733 13.4033 8.92285C12.6709 9.24837 12.1175 9.68783 11.7432 10.2412C11.3688 10.7783 11.1816 11.3724 11.1816 12.0234C11.1816 12.5605 11.3281 13.0488 11.6211 13.4883C11.9303 13.9115 12.3617 14.3102 12.915 14.6846C13.4847 15.0589 14.1683 15.417 14.9658 15.7588C15.7796 16.1006 16.6911 16.4342 17.7002 16.7598C19.5882 17.362 21.2646 18.0374 22.7295 18.7861C24.2106 19.5186 25.4557 20.3568 26.4648 21.3008C27.4902 22.2285 28.2633 23.2865 28.7842 24.4746C29.3213 25.6628 29.5898 27.0055 29.5898 28.5029C29.5898 30.098 29.2806 31.514 28.6621 32.751C28.0436 33.988 27.1566 35.0378 26.001 35.9004C24.8454 36.7467 23.4619 37.3896 21.8506 37.8291C20.2393 38.2686 18.4408 38.4883 16.4551 38.4883C14.6322 38.4883 12.8337 38.2604 11.0596 37.8047C9.30176 37.3327 7.70671 36.6165 6.27441 35.6562C4.84212 34.6797 3.69466 33.4346 2.83203 31.9209C1.98568 30.391 1.5625 28.5762 1.5625 26.4766H10.1562C10.1562 27.5182 10.2946 28.3971 10.5713 29.1133C10.848 29.8294 11.2549 30.4072 11.792 30.8467C12.3291 31.2699 12.9883 31.5791 13.7695 31.7744C14.5508 31.9535 15.446 32.043 16.4551 32.043C17.5456 32.043 18.4245 31.8883 19.0918 31.5791C19.7591 31.2536 20.2474 30.8304 20.5566 30.3096C20.8659 29.7725 21.0205 29.1865 21.0205 28.5518ZM49.0479 31.5791V11.584H57.2998V38H49.585L49.0479 31.5791ZM49.8291 26.208L51.9775 26.1592C51.9775 27.9333 51.766 29.5771 51.3428 31.0908C50.9196 32.5882 50.293 33.8903 49.4629 34.9971C48.6491 36.1038 47.64 36.9665 46.4355 37.585C45.2474 38.1872 43.8721 38.4883 42.3096 38.4883C41.0075 38.4883 39.8112 38.3092 38.7207 37.9512C37.6465 37.5768 36.7188 36.999 35.9375 36.2178C35.1562 35.4202 34.5459 34.403 34.1064 33.166C33.6833 31.9128 33.4717 30.4154 33.4717 28.6738V11.584H41.6992V28.7227C41.6992 29.3086 41.7725 29.8132 41.9189 30.2363C42.0654 30.6595 42.277 31.0176 42.5537 31.3105C42.8304 31.5872 43.1722 31.7988 43.5791 31.9453C44.0023 32.0755 44.4824 32.1406 45.0195 32.1406C46.2565 32.1406 47.2249 31.8802 47.9248 31.3594C48.6247 30.8385 49.113 30.1305 49.3896 29.2354C49.6826 28.3402 49.8291 27.3311 49.8291 26.208ZM61.9141 0.5H70.1416V31.5059L69.2871 38H61.9141V0.5ZM86.3525 24.499V25.0117C86.3525 27.0137 86.1491 28.8366 85.7422 30.4805C85.3353 32.1243 84.7087 33.5485 83.8623 34.7529C83.016 35.9411 81.9499 36.8607 80.6641 37.5117C79.3783 38.1628 77.8564 38.4883 76.0986 38.4883C74.5036 38.4883 73.1364 38.1465 71.9971 37.4629C70.8577 36.763 69.9056 35.8027 69.1406 34.582C68.3757 33.3451 67.7572 31.9209 67.2852 30.3096C66.8132 28.682 66.4388 26.9404 66.1621 25.085V24.4746C66.4388 22.6354 66.8132 20.9102 67.2852 19.2988C67.7572 17.6712 68.3757 16.2471 69.1406 15.0264C69.9056 13.7894 70.8496 12.8291 71.9727 12.1455C73.112 11.4456 74.471 11.0957 76.0498 11.0957C77.8239 11.0957 79.3538 11.4294 80.6396 12.0967C81.9417 12.764 83.016 13.6999 83.8623 14.9043C84.7087 16.1087 85.3353 17.5247 85.7422 19.1523C86.1491 20.7799 86.3525 22.5622 86.3525 24.499ZM78.125 25.0117V24.499C78.125 23.5387 78.068 22.6354 77.9541 21.7891C77.8402 20.9427 77.6367 20.194 77.3438 19.543C77.0508 18.8919 76.6357 18.3792 76.0986 18.0049C75.5615 17.6305 74.8617 17.4434 73.999 17.4434C73.1201 17.4434 72.3796 17.5898 71.7773 17.8828C71.1914 18.1758 70.7194 18.599 70.3613 19.1523C70.0195 19.6895 69.7754 20.3568 69.6289 21.1543C69.4824 21.9355 69.4173 22.8226 69.4336 23.8154V25.7441C69.401 27.0951 69.5231 28.2507 69.7998 29.2109C70.0765 30.1712 70.5566 30.9036 71.2402 31.4082C71.9238 31.9128 72.8597 32.165 74.0479 32.165C74.9268 32.165 75.6348 31.9941 76.1719 31.6523C76.7253 31.3105 77.1403 30.8223 77.417 30.1875C77.6937 29.5527 77.8809 28.7959 77.9785 27.917C78.0762 27.0381 78.125 26.0697 78.125 25.0117ZM103.857 30.5781C103.857 30.1224 103.703 29.7318 103.394 29.4062C103.101 29.0645 102.58 28.7552 101.831 28.4785C101.082 28.1855 100.033 27.8926 98.6816 27.5996C97.3958 27.3229 96.1833 26.9567 95.0439 26.501C93.9209 26.0452 92.9362 25.4919 92.0898 24.8408C91.2435 24.1898 90.5762 23.4167 90.0879 22.5215C89.6159 21.6263 89.3799 20.6009 89.3799 19.4453C89.3799 18.3223 89.6159 17.2643 90.0879 16.2715C90.5762 15.2624 91.2842 14.3753 92.2119 13.6104C93.1559 12.8291 94.3034 12.2188 95.6543 11.7793C97.0052 11.3236 98.5433 11.0957 100.269 11.0957C102.645 11.0957 104.696 11.4619 106.421 12.1943C108.146 12.9105 109.473 13.9196 110.4 15.2217C111.344 16.5075 111.816 17.9967 111.816 19.6895H103.589C103.589 19.0221 103.475 18.4525 103.247 17.9805C103.035 17.5085 102.686 17.1504 102.197 16.9062C101.709 16.6458 101.058 16.5156 100.244 16.5156C99.6745 16.5156 99.1536 16.6214 98.6816 16.833C98.2259 17.0446 97.8597 17.3376 97.583 17.7119C97.3063 18.0863 97.168 18.5257 97.168 19.0303C97.168 19.3883 97.2493 19.7139 97.4121 20.0068C97.5911 20.2835 97.8597 20.5439 98.2178 20.7881C98.5758 21.016 99.0316 21.2275 99.585 21.4229C100.138 21.6019 100.806 21.7646 101.587 21.9111C103.361 22.2367 105.021 22.7005 106.567 23.3027C108.114 23.9049 109.367 24.7594 110.327 25.8662C111.304 26.973 111.792 28.4622 111.792 30.334C111.792 31.5059 111.523 32.5882 110.986 33.5811C110.449 34.5576 109.676 35.4202 108.667 36.1689C107.658 36.9014 106.445 37.471 105.029 37.8779C103.613 38.2848 102.018 38.4883 100.244 38.4883C97.7214 38.4883 95.5892 38.0407 93.8477 37.1455C92.1061 36.234 90.7878 35.0947 89.8926 33.7275C89.0137 32.3441 88.5742 30.9443 88.5742 29.5283H96.2402C96.2728 30.3421 96.4681 31.0094 96.8262 31.5303C97.2005 32.0511 97.6969 32.4336 98.3154 32.6777C98.9339 32.9219 99.6501 33.0439 100.464 33.0439C101.213 33.0439 101.831 32.9382 102.319 32.7266C102.824 32.515 103.206 32.2301 103.467 31.8721C103.727 31.4977 103.857 31.0664 103.857 30.5781ZM126.807 32.1406C127.572 32.1406 128.223 32.0023 128.76 31.7256C129.313 31.4326 129.728 31.0257 130.005 30.5049C130.298 29.9678 130.436 29.3249 130.42 28.5762H138.159C138.175 30.5618 137.687 32.3034 136.694 33.8008C135.718 35.2819 134.383 36.4375 132.69 37.2676C131.014 38.0814 129.118 38.4883 127.002 38.4883C124.935 38.4883 123.128 38.1546 121.582 37.4873C120.036 36.8037 118.742 35.8597 117.7 34.6553C116.675 33.4346 115.902 32.0104 115.381 30.3828C114.876 28.7552 114.624 26.9893 114.624 25.085V24.5234C114.624 22.6191 114.876 20.8532 115.381 19.2256C115.902 17.5817 116.675 16.1576 117.7 14.9531C118.742 13.7324 120.028 12.7884 121.558 12.1211C123.104 11.4375 124.902 11.0957 126.953 11.0957C129.15 11.0957 131.087 11.5107 132.764 12.3408C134.456 13.1709 135.783 14.3753 136.743 15.9541C137.703 17.5329 138.175 19.4453 138.159 21.6914H130.42C130.436 20.8939 130.314 20.1777 130.054 19.543C129.793 18.9082 129.386 18.4036 128.833 18.0293C128.296 17.6387 127.604 17.4434 126.758 17.4434C125.911 17.4434 125.228 17.6305 124.707 18.0049C124.186 18.3792 123.787 18.9001 123.511 19.5674C123.25 20.2184 123.071 20.9671 122.974 21.8135C122.892 22.6598 122.852 23.5632 122.852 24.5234V25.085C122.852 26.0615 122.892 26.9811 122.974 27.8438C123.071 28.6901 123.258 29.4388 123.535 30.0898C123.812 30.7246 124.211 31.2292 124.731 31.6035C125.252 31.9616 125.944 32.1406 126.807 32.1406ZM149.976 18.127V38H141.748V11.584H149.438L149.976 18.127ZM157.788 11.3887L157.642 19.0303C157.316 18.9977 156.877 18.957 156.323 18.9082C155.77 18.8594 155.306 18.835 154.932 18.835C153.971 18.835 153.141 18.9489 152.441 19.1768C151.758 19.3883 151.188 19.7139 150.732 20.1533C150.293 20.5765 149.967 21.1136 149.756 21.7646C149.561 22.4157 149.471 23.1725 149.487 24.0352L147.998 23.0586C147.998 21.2845 148.169 19.6732 148.511 18.2246C148.869 16.7598 149.373 15.4984 150.024 14.4404C150.675 13.3662 151.465 12.5443 152.393 11.9746C153.32 11.3887 154.362 11.0957 155.518 11.0957C155.924 11.0957 156.323 11.1201 156.714 11.1689C157.121 11.2178 157.479 11.291 157.788 11.3887ZM169.312 11.584V38H161.06V11.584H169.312ZM160.571 4.77246C160.571 3.60059 160.994 2.6403 161.841 1.8916C162.687 1.1429 163.786 0.768555 165.137 0.768555C166.488 0.768555 167.586 1.1429 168.433 1.8916C169.279 2.6403 169.702 3.60059 169.702 4.77246C169.702 5.94434 169.279 6.90462 168.433 7.65332C167.586 8.40202 166.488 8.77637 165.137 8.77637C163.786 8.77637 162.687 8.40202 161.841 7.65332C160.994 6.90462 160.571 5.94434 160.571 4.77246ZM174.463 0.5H182.69V31.5059L181.836 38H174.463V0.5ZM198.901 24.499V25.0117C198.901 27.0137 198.698 28.8366 198.291 30.4805C197.884 32.1243 197.257 33.5485 196.411 34.7529C195.565 35.9411 194.499 36.8607 193.213 37.5117C191.927 38.1628 190.405 38.4883 188.647 38.4883C187.052 38.4883 185.685 38.1465 184.546 37.4629C183.407 36.763 182.454 35.8027 181.689 34.582C180.924 33.3451 180.306 31.9209 179.834 30.3096C179.362 28.682 178.988 26.9404 178.711 25.085V24.4746C178.988 22.6354 179.362 20.9102 179.834 19.2988C180.306 17.6712 180.924 16.2471 181.689 15.0264C182.454 13.7894 183.398 12.8291 184.521 12.1455C185.661 11.4456 187.02 11.0957 188.599 11.0957C190.373 11.0957 191.903 11.4294 193.188 12.0967C194.491 12.764 195.565 13.6999 196.411 14.9043C197.257 16.1087 197.884 17.5247 198.291 19.1523C198.698 20.7799 198.901 22.5622 198.901 24.499ZM190.674 25.0117V24.499C190.674 23.5387 190.617 22.6354 190.503 21.7891C190.389 20.9427 190.186 20.194 189.893 19.543C189.6 18.8919 189.185 18.3792 188.647 18.0049C188.11 17.6305 187.41 17.4434 186.548 17.4434C185.669 17.4434 184.928 17.5898 184.326 17.8828C183.74 18.1758 183.268 18.599 182.91 19.1523C182.568 19.6895 182.324 20.3568 182.178 21.1543C182.031 21.9355 181.966 22.8226 181.982 23.8154V25.7441C181.95 27.0951 182.072 28.2507 182.349 29.2109C182.625 30.1712 183.105 30.9036 183.789 31.4082C184.473 31.9128 185.409 32.165 186.597 32.165C187.476 32.165 188.184 31.9941 188.721 31.6523C189.274 31.3105 189.689 30.8223 189.966 30.1875C190.243 29.5527 190.43 28.7959 190.527 27.917C190.625 27.0381 190.674 26.0697 190.674 25.0117ZM215.356 38.4883C213.208 38.4883 211.287 38.1546 209.595 37.4873C207.902 36.8037 206.47 35.8678 205.298 34.6797C204.142 33.4915 203.255 32.1243 202.637 30.5781C202.035 29.0319 201.733 27.3962 201.733 25.6709V24.7432C201.733 22.8063 202.002 21.016 202.539 19.3721C203.076 17.7119 203.874 16.2633 204.932 15.0264C205.99 13.7894 207.316 12.8291 208.911 12.1455C210.506 11.4456 212.362 11.0957 214.478 11.0957C216.349 11.0957 218.026 11.3968 219.507 11.999C220.988 12.6012 222.241 13.4639 223.267 14.5869C224.308 15.71 225.098 17.069 225.635 18.6641C226.188 20.2591 226.465 22.0495 226.465 24.0352V27.3799H204.883V22.2285H218.433V21.5938C218.449 20.7148 218.294 19.9661 217.969 19.3477C217.66 18.7292 217.204 18.2572 216.602 17.9316C215.999 17.6061 215.267 17.4434 214.404 17.4434C213.509 17.4434 212.769 17.6387 212.183 18.0293C211.613 18.4199 211.165 18.957 210.84 19.6406C210.531 20.3079 210.311 21.0811 210.181 21.96C210.05 22.8389 209.985 23.7666 209.985 24.7432V25.6709C209.985 26.6475 210.116 27.5345 210.376 28.332C210.653 29.1296 211.043 29.8132 211.548 30.3828C212.069 30.9362 212.687 31.3675 213.403 31.6768C214.136 31.986 214.966 32.1406 215.894 32.1406C217.017 32.1406 218.123 31.929 219.214 31.5059C220.304 31.0827 221.24 30.3828 222.021 29.4062L225.757 33.8496C225.22 34.6146 224.455 35.3551 223.462 36.0713C222.485 36.7874 221.313 37.3734 219.946 37.8291C218.579 38.2686 217.049 38.4883 215.356 38.4883ZM237.769 31.7988L237.72 37.0234C237.72 38.9928 237.231 40.9378 236.255 42.8584C235.295 44.779 234.115 46.3496 232.715 47.5703L228.54 45.6172C228.882 44.8685 229.256 44.1117 229.663 43.3467C230.07 42.598 230.42 41.7516 230.713 40.8076C231.006 39.8636 231.152 38.7568 231.152 37.4873V31.7988H237.769ZM16.1621 100.578C16.1621 100.122 16.0075 99.7318 15.6982 99.4062C15.4053 99.0645 14.8844 98.7552 14.1357 98.4785C13.387 98.1855 12.3372 97.8926 10.9863 97.5996C9.70052 97.3229 8.48796 96.9567 7.34863 96.501C6.22559 96.0452 5.24089 95.4919 4.39453 94.8408C3.54818 94.1898 2.88086 93.4167 2.39258 92.5215C1.92057 91.6263 1.68457 90.6009 1.68457 89.4453C1.68457 88.3223 1.92057 87.2643 2.39258 86.2715C2.88086 85.2624 3.58887 84.3753 4.5166 83.6104C5.46061 82.8291 6.60807 82.2188 7.95898 81.7793C9.3099 81.3236 10.848 81.0957 12.5732 81.0957C14.9495 81.0957 17.0003 81.4619 18.7256 82.1943C20.4508 82.9105 21.7773 83.9196 22.7051 85.2217C23.6491 86.5075 24.1211 87.9967 24.1211 89.6895H15.8936C15.8936 89.0221 15.7796 88.4525 15.5518 87.9805C15.3402 87.5085 14.9902 87.1504 14.502 86.9062C14.0137 86.6458 13.3626 86.5156 12.5488 86.5156C11.9792 86.5156 11.4583 86.6214 10.9863 86.833C10.5306 87.0446 10.1644 87.3376 9.8877 87.7119C9.611 88.0863 9.47266 88.5257 9.47266 89.0303C9.47266 89.3883 9.55404 89.7139 9.7168 90.0068C9.89583 90.2835 10.1644 90.5439 10.5225 90.7881C10.8805 91.016 11.3363 91.2275 11.8896 91.4229C12.443 91.6019 13.1104 91.7646 13.8916 91.9111C15.6657 92.2367 17.3258 92.7005 18.8721 93.3027C20.4183 93.9049 21.6715 94.7594 22.6318 95.8662C23.6084 96.973 24.0967 98.4622 24.0967 100.334C24.0967 101.506 23.8281 102.588 23.291 103.581C22.7539 104.558 21.9808 105.42 20.9717 106.169C19.9626 106.901 18.75 107.471 17.334 107.878C15.918 108.285 14.3229 108.488 12.5488 108.488C10.026 108.488 7.89388 108.041 6.15234 107.146C4.41081 106.234 3.09245 105.095 2.19727 103.728C1.31836 102.344 0.878906 100.944 0.878906 99.5283H8.54492C8.57747 100.342 8.77279 101.009 9.13086 101.53C9.50521 102.051 10.0016 102.434 10.6201 102.678C11.2386 102.922 11.9548 103.044 12.7686 103.044C13.5173 103.044 14.1357 102.938 14.624 102.727C15.1286 102.515 15.5111 102.23 15.7715 101.872C16.0319 101.498 16.1621 101.066 16.1621 100.578ZM36.0107 70.5V108H27.7832V70.5H36.0107ZM35.0342 93.8887L33.1055 93.9375C33.1055 92.082 33.3333 90.373 33.7891 88.8105C34.2448 87.248 34.8958 85.889 35.7422 84.7334C36.5885 83.5778 37.6058 82.6826 38.7939 82.0479C39.9821 81.4131 41.3005 81.0957 42.749 81.0957C44.0511 81.0957 45.2393 81.2829 46.3135 81.6572C47.404 82.0316 48.3398 82.6338 49.1211 83.4639C49.9186 84.2939 50.529 85.3763 50.9521 86.7109C51.3916 88.0456 51.6113 89.6732 51.6113 91.5938V108H43.335V91.5449C43.335 90.4707 43.1803 89.6406 42.8711 89.0547C42.5781 88.4525 42.1549 88.0374 41.6016 87.8096C41.0482 87.5654 40.3727 87.4434 39.5752 87.4434C38.6149 87.4434 37.8337 87.6061 37.2314 87.9316C36.6292 88.2572 36.1654 88.7129 35.8398 89.2988C35.5306 89.8685 35.319 90.5439 35.2051 91.3252C35.0911 92.1064 35.0342 92.9609 35.0342 93.8887ZM69.8975 101.359V90.4707C69.8975 89.722 69.7917 89.0791 69.5801 88.542C69.3685 88.0049 69.0348 87.5898 68.5791 87.2969C68.1234 86.9876 67.513 86.833 66.748 86.833C66.1296 86.833 65.6006 86.9388 65.1611 87.1504C64.7217 87.362 64.388 87.6794 64.1602 88.1025C63.9323 88.5257 63.8184 89.0628 63.8184 89.7139H55.5908C55.5908 88.4932 55.8594 87.362 56.3965 86.3203C56.9499 85.2624 57.7311 84.3428 58.7402 83.5615C59.7656 82.7803 60.9863 82.1781 62.4023 81.7549C63.8346 81.3154 65.4297 81.0957 67.1875 81.0957C69.2871 81.0957 71.1589 81.4456 72.8027 82.1455C74.4629 82.8454 75.7731 83.8952 76.7334 85.2949C77.6937 86.6784 78.1738 88.4199 78.1738 90.5195V101.335C78.1738 103.06 78.2715 104.37 78.4668 105.266C78.6621 106.145 78.9388 106.918 79.2969 107.585V108H71.0449C70.6543 107.186 70.3613 106.193 70.166 105.021C69.987 103.833 69.8975 102.613 69.8975 101.359ZM70.8984 91.8623L70.9473 96.2568H67.3096C66.5446 96.2568 65.8936 96.3626 65.3564 96.5742C64.8356 96.7858 64.4124 97.0788 64.0869 97.4531C63.7777 97.8112 63.5498 98.2181 63.4033 98.6738C63.2731 99.1296 63.208 99.6097 63.208 100.114C63.208 100.603 63.3219 101.042 63.5498 101.433C63.7939 101.807 64.1195 102.1 64.5264 102.312C64.9333 102.523 65.389 102.629 65.8936 102.629C66.805 102.629 67.5781 102.458 68.2129 102.116C68.8639 101.758 69.3604 101.327 69.7021 100.822C70.0439 100.318 70.2148 99.8457 70.2148 99.4062L72.0215 102.775C71.696 103.426 71.3216 104.086 70.8984 104.753C70.4915 105.42 69.9788 106.039 69.3604 106.608C68.7581 107.162 68.0176 107.618 67.1387 107.976C66.2598 108.317 65.1937 108.488 63.9404 108.488C62.3128 108.488 60.8154 108.155 59.4482 107.487C58.0973 106.82 57.015 105.892 56.2012 104.704C55.3874 103.5 54.9805 102.116 54.9805 100.554C54.9805 99.1865 55.2246 97.9658 55.7129 96.8916C56.2174 95.8174 56.9743 94.9059 57.9834 94.1572C58.9925 93.4085 60.2783 92.8389 61.8408 92.4482C63.4033 92.0576 65.2425 91.8623 67.3584 91.8623H70.8984ZM91.04 88.127V108H82.8125V81.584H90.5029L91.04 88.127ZM98.8525 81.3887L98.7061 89.0303C98.3805 88.9977 97.9411 88.957 97.3877 88.9082C96.8343 88.8594 96.3704 88.835 95.9961 88.835C95.0358 88.835 94.2057 88.9489 93.5059 89.1768C92.8223 89.3883 92.2526 89.7139 91.7969 90.1533C91.3574 90.5765 91.0319 91.1136 90.8203 91.7646C90.625 92.4157 90.5355 93.1725 90.5518 94.0352L89.0625 93.0586C89.0625 91.2845 89.2334 89.6732 89.5752 88.2246C89.9333 86.7598 90.4378 85.4984 91.0889 84.4404C91.7399 83.3662 92.5293 82.5443 93.457 81.9746C94.3848 81.3887 95.4264 81.0957 96.582 81.0957C96.9889 81.0957 97.3877 81.1201 97.7783 81.1689C98.1852 81.2178 98.5433 81.291 98.8525 81.3887ZM113.989 108.488C111.841 108.488 109.92 108.155 108.228 107.487C106.535 106.804 105.103 105.868 103.931 104.68C102.775 103.492 101.888 102.124 101.27 100.578C100.667 99.0319 100.366 97.3962 100.366 95.6709V94.7432C100.366 92.8063 100.635 91.016 101.172 89.3721C101.709 87.7119 102.507 86.2633 103.564 85.0264C104.622 83.7894 105.949 82.8291 107.544 82.1455C109.139 81.4456 110.994 81.0957 113.11 81.0957C114.982 81.0957 116.659 81.3968 118.14 81.999C119.621 82.6012 120.874 83.4639 121.899 84.5869C122.941 85.71 123.73 87.069 124.268 88.6641C124.821 90.2591 125.098 92.0495 125.098 94.0352V97.3799H103.516V92.2285H117.065V91.5938C117.082 90.7148 116.927 89.9661 116.602 89.3477C116.292 88.7292 115.837 88.2572 115.234 87.9316C114.632 87.6061 113.9 87.4434 113.037 87.4434C112.142 87.4434 111.401 87.6387 110.815 88.0293C110.246 88.4199 109.798 88.957 109.473 89.6406C109.163 90.3079 108.944 91.0811 108.813 91.96C108.683 92.8389 108.618 93.7666 108.618 94.7432V95.6709C108.618 96.6475 108.748 97.5345 109.009 98.332C109.285 99.1296 109.676 99.8132 110.181 100.383C110.701 100.936 111.32 101.368 112.036 101.677C112.769 101.986 113.599 102.141 114.526 102.141C115.649 102.141 116.756 101.929 117.847 101.506C118.937 101.083 119.873 100.383 120.654 99.4062L124.39 103.85C123.853 104.615 123.088 105.355 122.095 106.071C121.118 106.787 119.946 107.373 118.579 107.829C117.212 108.269 115.682 108.488 113.989 108.488ZM154.614 101.359V90.4707C154.614 89.722 154.508 89.0791 154.297 88.542C154.085 88.0049 153.752 87.5898 153.296 87.2969C152.84 86.9876 152.23 86.833 151.465 86.833C150.846 86.833 150.317 86.9388 149.878 87.1504C149.438 87.362 149.105 87.6794 148.877 88.1025C148.649 88.5257 148.535 89.0628 148.535 89.7139H140.308C140.308 88.4932 140.576 87.362 141.113 86.3203C141.667 85.2624 142.448 84.3428 143.457 83.5615C144.482 82.7803 145.703 82.1781 147.119 81.7549C148.551 81.3154 150.146 81.0957 151.904 81.0957C154.004 81.0957 155.876 81.4456 157.52 82.1455C159.18 82.8454 160.49 83.8952 161.45 85.2949C162.41 86.6784 162.891 88.4199 162.891 90.5195V101.335C162.891 103.06 162.988 104.37 163.184 105.266C163.379 106.145 163.656 106.918 164.014 107.585V108H155.762C155.371 107.186 155.078 106.193 154.883 105.021C154.704 103.833 154.614 102.613 154.614 101.359ZM155.615 91.8623L155.664 96.2568H152.026C151.261 96.2568 150.61 96.3626 150.073 96.5742C149.552 96.7858 149.129 97.0788 148.804 97.4531C148.494 97.8112 148.267 98.2181 148.12 98.6738C147.99 99.1296 147.925 99.6097 147.925 100.114C147.925 100.603 148.039 101.042 148.267 101.433C148.511 101.807 148.836 102.1 149.243 102.312C149.65 102.523 150.106 102.629 150.61 102.629C151.522 102.629 152.295 102.458 152.93 102.116C153.581 101.758 154.077 101.327 154.419 100.822C154.761 100.318 154.932 99.8457 154.932 99.4062L156.738 102.775C156.413 103.426 156.038 104.086 155.615 104.753C155.208 105.42 154.696 106.039 154.077 106.608C153.475 107.162 152.734 107.618 151.855 107.976C150.977 108.317 149.91 108.488 148.657 108.488C147.03 108.488 145.532 108.155 144.165 107.487C142.814 106.82 141.732 105.892 140.918 104.704C140.104 103.5 139.697 102.116 139.697 100.554C139.697 99.1865 139.941 97.9658 140.43 96.8916C140.934 95.8174 141.691 94.9059 142.7 94.1572C143.709 93.4085 144.995 92.8389 146.558 92.4482C148.12 92.0576 149.959 91.8623 152.075 91.8623H155.615ZM175.537 87.2236V108H167.31V81.584H175.024L175.537 87.2236ZM174.561 93.8887L172.632 93.9375C172.632 91.9193 172.876 90.1208 173.364 88.542C173.853 86.9469 174.544 85.596 175.439 84.4893C176.335 83.3825 177.401 82.5443 178.638 81.9746C179.891 81.3887 181.283 81.0957 182.812 81.0957C184.033 81.0957 185.148 81.2747 186.157 81.6328C187.183 81.9909 188.062 82.5687 188.794 83.3662C189.543 84.1637 190.112 85.2217 190.503 86.54C190.91 87.8421 191.113 89.4535 191.113 91.374V108H182.837V91.3496C182.837 90.2917 182.69 89.486 182.397 88.9326C182.104 88.363 181.681 87.9723 181.128 87.7607C180.575 87.5492 179.899 87.4434 179.102 87.4434C178.255 87.4434 177.539 87.6061 176.953 87.9316C176.367 88.2572 175.895 88.7129 175.537 89.2988C175.195 89.8685 174.943 90.5439 174.78 91.3252C174.634 92.1064 174.561 92.9609 174.561 93.8887ZM210.864 101.945V70.5H219.141V108H211.719L210.864 101.945ZM194.653 95.1094V94.5967C194.653 92.5947 194.873 90.7718 195.312 89.1279C195.752 87.4678 196.403 86.0436 197.266 84.8555C198.128 83.651 199.202 82.7233 200.488 82.0723C201.774 81.4212 203.255 81.0957 204.932 81.0957C206.429 81.0957 207.739 81.4456 208.862 82.1455C209.985 82.8291 210.946 83.7894 211.743 85.0264C212.541 86.2633 213.192 87.7119 213.696 89.3721C214.201 91.016 214.583 92.79 214.844 94.6943V95.3047C214.583 97.0951 214.201 98.7878 213.696 100.383C213.192 101.962 212.541 103.361 211.743 104.582C210.946 105.803 209.977 106.763 208.838 107.463C207.715 108.146 206.396 108.488 204.883 108.488C203.206 108.488 201.725 108.155 200.439 107.487C199.17 106.82 198.104 105.884 197.241 104.68C196.395 103.475 195.752 102.059 195.312 100.432C194.873 98.804 194.653 97.0299 194.653 95.1094ZM202.881 94.5967V95.1094C202.881 96.1022 202.946 97.0218 203.076 97.8682C203.206 98.7145 203.426 99.4632 203.735 100.114C204.061 100.749 204.484 101.245 205.005 101.604C205.542 101.962 206.201 102.141 206.982 102.141C208.04 102.141 208.911 101.888 209.595 101.384C210.295 100.879 210.807 100.163 211.133 99.2354C211.475 98.3076 211.621 97.2171 211.572 95.9639V94.0352C211.605 92.9609 211.532 92.0169 211.353 91.2031C211.174 90.373 210.889 89.6813 210.498 89.1279C210.124 88.5745 209.644 88.1595 209.058 87.8828C208.488 87.5898 207.812 87.4434 207.031 87.4434C206.266 87.4434 205.615 87.6224 205.078 87.9805C204.557 88.3385 204.134 88.8431 203.809 89.4941C203.483 90.1289 203.247 90.8857 203.101 91.7646C202.954 92.6273 202.881 93.5713 202.881 94.5967ZM12.4023 178H4.12598V149.436C4.12598 147.385 4.54102 145.66 5.37109 144.26C6.20117 142.86 7.37305 141.802 8.88672 141.086C10.4004 140.354 12.1908 139.987 14.2578 139.987C14.974 139.987 15.6494 140.036 16.2842 140.134C16.9189 140.231 17.5374 140.354 18.1396 140.5L18.1641 146.555C17.8711 146.473 17.57 146.416 17.2607 146.384C16.9515 146.351 16.569 146.335 16.1133 146.335C15.3158 146.335 14.6403 146.457 14.0869 146.701C13.5335 146.929 13.1104 147.279 12.8174 147.751C12.5407 148.207 12.4023 148.768 12.4023 149.436V178ZM17.5293 151.584V157.297H0.317383V151.584H17.5293ZM19.458 165.061V164.548C19.458 162.611 19.7347 160.829 20.2881 159.201C20.8415 157.557 21.6553 156.133 22.7295 154.929C23.8037 153.724 25.1302 152.788 26.709 152.121C28.2878 151.438 30.1107 151.096 32.1777 151.096C34.2611 151.096 36.0921 151.438 37.6709 152.121C39.266 152.788 40.6006 153.724 41.6748 154.929C42.749 156.133 43.5628 157.557 44.1162 159.201C44.6696 160.829 44.9463 162.611 44.9463 164.548V165.061C44.9463 166.981 44.6696 168.763 44.1162 170.407C43.5628 172.035 42.749 173.459 41.6748 174.68C40.6006 175.884 39.2741 176.82 37.6953 177.487C36.1165 178.155 34.2936 178.488 32.2266 178.488C30.1595 178.488 28.3285 178.155 26.7334 177.487C25.1383 176.82 23.8037 175.884 22.7295 174.68C21.6553 173.459 20.8415 172.035 20.2881 170.407C19.7347 168.763 19.458 166.981 19.458 165.061ZM27.6855 164.548V165.061C27.6855 166.053 27.7588 166.981 27.9053 167.844C28.0518 168.706 28.2959 169.463 28.6377 170.114C28.9795 170.749 29.4434 171.245 30.0293 171.604C30.6152 171.962 31.3477 172.141 32.2266 172.141C33.0892 172.141 33.8053 171.962 34.375 171.604C34.9609 171.245 35.4248 170.749 35.7666 170.114C36.1084 169.463 36.3525 168.706 36.499 167.844C36.6455 166.981 36.7188 166.053 36.7188 165.061V164.548C36.7188 163.588 36.6455 162.684 36.499 161.838C36.3525 160.975 36.1084 160.218 35.7666 159.567C35.4248 158.9 34.9609 158.379 34.375 158.005C33.7891 157.631 33.0566 157.443 32.1777 157.443C31.3151 157.443 30.5908 157.631 30.0049 158.005C29.4352 158.379 28.9795 158.9 28.6377 159.567C28.2959 160.218 28.0518 160.975 27.9053 161.838C27.7588 162.684 27.6855 163.588 27.6855 164.548ZM57.2998 140.5V178H49.0479V140.5H57.2998ZM71.0693 140.5V178H62.8174V140.5H71.0693ZM75.1221 165.061V164.548C75.1221 162.611 75.3988 160.829 75.9521 159.201C76.5055 157.557 77.3193 156.133 78.3936 154.929C79.4678 153.724 80.7943 152.788 82.373 152.121C83.9518 151.438 85.7747 151.096 87.8418 151.096C89.9251 151.096 91.7562 151.438 93.335 152.121C94.93 152.788 96.2646 153.724 97.3389 154.929C98.4131 156.133 99.2269 157.557 99.7803 159.201C100.334 160.829 100.61 162.611 100.61 164.548V165.061C100.61 166.981 100.334 168.763 99.7803 170.407C99.2269 172.035 98.4131 173.459 97.3389 174.68C96.2646 175.884 94.9382 176.82 93.3594 177.487C91.7806 178.155 89.9577 178.488 87.8906 178.488C85.8236 178.488 83.9925 178.155 82.3975 177.487C80.8024 176.82 79.4678 175.884 78.3936 174.68C77.3193 173.459 76.5055 172.035 75.9521 170.407C75.3988 168.763 75.1221 166.981 75.1221 165.061ZM83.3496 164.548V165.061C83.3496 166.053 83.4229 166.981 83.5693 167.844C83.7158 168.706 83.96 169.463 84.3018 170.114C84.6436 170.749 85.1074 171.245 85.6934 171.604C86.2793 171.962 87.0117 172.141 87.8906 172.141C88.7533 172.141 89.4694 171.962 90.0391 171.604C90.625 171.245 91.0889 170.749 91.4307 170.114C91.7725 169.463 92.0166 168.706 92.1631 167.844C92.3096 166.981 92.3828 166.053 92.3828 165.061V164.548C92.3828 163.588 92.3096 162.684 92.1631 161.838C92.0166 160.975 91.7725 160.218 91.4307 159.567C91.0889 158.9 90.625 158.379 90.0391 158.005C89.4531 157.631 88.7207 157.443 87.8418 157.443C86.9792 157.443 86.2549 157.631 85.6689 158.005C85.0993 158.379 84.6436 158.9 84.3018 159.567C83.96 160.218 83.7158 160.975 83.5693 161.838C83.4229 162.684 83.3496 163.588 83.3496 164.548ZM112.305 170.139L117.188 151.584H122.339L120.508 160.886L115.674 178H111.548L112.305 170.139ZM110.376 151.584L113.403 169.992L113.745 178H108.74L102.49 151.584H110.376ZM126.685 169.602L129.736 151.584H137.622L131.421 178H126.416L126.685 169.602ZM122.925 151.584L127.856 170.09L128.613 178H124.438L119.702 160.935L117.944 151.584H122.925ZM166.772 171.359V160.471C166.772 159.722 166.667 159.079 166.455 158.542C166.243 158.005 165.91 157.59 165.454 157.297C164.998 156.988 164.388 156.833 163.623 156.833C163.005 156.833 162.476 156.939 162.036 157.15C161.597 157.362 161.263 157.679 161.035 158.103C160.807 158.526 160.693 159.063 160.693 159.714H152.466C152.466 158.493 152.734 157.362 153.271 156.32C153.825 155.262 154.606 154.343 155.615 153.562C156.641 152.78 157.861 152.178 159.277 151.755C160.71 151.315 162.305 151.096 164.062 151.096C166.162 151.096 168.034 151.446 169.678 152.146C171.338 152.845 172.648 153.895 173.608 155.295C174.569 156.678 175.049 158.42 175.049 160.52V171.335C175.049 173.06 175.146 174.37 175.342 175.266C175.537 176.145 175.814 176.918 176.172 177.585V178H167.92C167.529 177.186 167.236 176.193 167.041 175.021C166.862 173.833 166.772 172.613 166.772 171.359ZM167.773 161.862L167.822 166.257H164.185C163.42 166.257 162.769 166.363 162.231 166.574C161.711 166.786 161.287 167.079 160.962 167.453C160.653 167.811 160.425 168.218 160.278 168.674C160.148 169.13 160.083 169.61 160.083 170.114C160.083 170.603 160.197 171.042 160.425 171.433C160.669 171.807 160.994 172.1 161.401 172.312C161.808 172.523 162.264 172.629 162.769 172.629C163.68 172.629 164.453 172.458 165.088 172.116C165.739 171.758 166.235 171.327 166.577 170.822C166.919 170.318 167.09 169.846 167.09 169.406L168.896 172.775C168.571 173.426 168.197 174.086 167.773 174.753C167.367 175.42 166.854 176.039 166.235 176.608C165.633 177.162 164.893 177.618 164.014 177.976C163.135 178.317 162.069 178.488 160.815 178.488C159.188 178.488 157.69 178.155 156.323 177.487C154.972 176.82 153.89 175.892 153.076 174.704C152.262 173.5 151.855 172.116 151.855 170.554C151.855 169.187 152.1 167.966 152.588 166.892C153.092 165.817 153.849 164.906 154.858 164.157C155.868 163.409 157.153 162.839 158.716 162.448C160.278 162.058 162.118 161.862 164.233 161.862H167.773ZM17.749 241.579V221.584H26.001V248H18.2861L17.749 241.579ZM18.5303 236.208L20.6787 236.159C20.6787 237.933 20.4671 239.577 20.0439 241.091C19.6208 242.588 18.9941 243.89 18.1641 244.997C17.3503 246.104 16.3411 246.966 15.1367 247.585C13.9486 248.187 12.5732 248.488 11.0107 248.488C9.70866 248.488 8.51237 248.309 7.42188 247.951C6.34766 247.577 5.41992 246.999 4.63867 246.218C3.85742 245.42 3.24707 244.403 2.80762 243.166C2.38444 241.913 2.17285 240.415 2.17285 238.674V221.584H10.4004V238.723C10.4004 239.309 10.4736 239.813 10.6201 240.236C10.7666 240.66 10.9782 241.018 11.2549 241.311C11.5316 241.587 11.8734 241.799 12.2803 241.945C12.7035 242.076 13.1836 242.141 13.7207 242.141C14.9577 242.141 15.9261 241.88 16.626 241.359C17.3258 240.839 17.8141 240.131 18.0908 239.235C18.3838 238.34 18.5303 237.331 18.5303 236.208ZM38.623 227.224V248H30.3955V221.584H38.1104L38.623 227.224ZM37.6465 233.889L35.7178 233.938C35.7178 231.919 35.9619 230.121 36.4502 228.542C36.9385 226.947 37.6302 225.596 38.5254 224.489C39.4206 223.382 40.4867 222.544 41.7236 221.975C42.9769 221.389 44.3685 221.096 45.8984 221.096C47.1191 221.096 48.234 221.275 49.2432 221.633C50.2686 221.991 51.1475 222.569 51.8799 223.366C52.6286 224.164 53.1982 225.222 53.5889 226.54C53.9958 227.842 54.1992 229.453 54.1992 231.374V248H45.9229V231.35C45.9229 230.292 45.7764 229.486 45.4834 228.933C45.1904 228.363 44.7673 227.972 44.2139 227.761C43.6605 227.549 42.985 227.443 42.1875 227.443C41.3411 227.443 40.625 227.606 40.0391 227.932C39.4531 228.257 38.9811 228.713 38.623 229.299C38.2812 229.868 38.029 230.544 37.8662 231.325C37.7197 232.106 37.6465 232.961 37.6465 233.889ZM67.4561 221.584V248H59.2041V221.584H67.4561ZM58.7158 214.772C58.7158 213.601 59.139 212.64 59.9854 211.892C60.8317 211.143 61.9303 210.769 63.2812 210.769C64.6322 210.769 65.7308 211.143 66.5771 211.892C67.4235 212.64 67.8467 213.601 67.8467 214.772C67.8467 215.944 67.4235 216.905 66.5771 217.653C65.7308 218.402 64.6322 218.776 63.2812 218.776C61.9303 218.776 60.8317 218.402 59.9854 217.653C59.139 216.905 58.7158 215.944 58.7158 214.772ZM87.7197 258.156V227.126L88.8672 221.584H95.9961V258.156H87.7197ZM71.5088 235.036V234.523C71.5088 232.521 71.7285 230.699 72.168 229.055C72.6074 227.395 73.2585 225.979 74.1211 224.807C74.9837 223.618 76.0498 222.707 77.3193 222.072C78.6051 221.421 80.0863 221.096 81.7627 221.096C83.3415 221.096 84.6924 221.438 85.8154 222.121C86.9548 222.805 87.9069 223.765 88.6719 225.002C89.4368 226.223 90.0553 227.655 90.5273 229.299C91.0156 230.943 91.3981 232.717 91.6748 234.621V235.231C91.3981 237.022 91.0156 238.715 90.5273 240.31C90.0553 241.905 89.4368 243.321 88.6719 244.558C87.9069 245.778 86.9548 246.739 85.8154 247.438C84.6761 248.138 83.3089 248.488 81.7139 248.488C80.0537 248.488 78.5889 248.155 77.3193 247.487C76.0498 246.804 74.9837 245.86 74.1211 244.655C73.2585 243.435 72.6074 242.01 72.168 240.383C71.7285 238.739 71.5088 236.957 71.5088 235.036ZM79.7363 234.523V235.036C79.7363 236.029 79.8014 236.957 79.9316 237.819C80.0618 238.666 80.2816 239.414 80.5908 240.065C80.9163 240.716 81.3395 241.229 81.8604 241.604C82.3812 241.962 83.0322 242.141 83.8135 242.141C85.0016 242.141 85.9375 241.88 86.6211 241.359C87.3047 240.839 87.7848 240.114 88.0615 239.187C88.3382 238.243 88.4521 237.144 88.4033 235.891V233.962C88.4196 232.888 88.3545 231.944 88.208 231.13C88.0615 230.316 87.8092 229.641 87.4512 229.104C87.1094 228.55 86.6455 228.135 86.0596 227.858C85.4736 227.582 84.7412 227.443 83.8623 227.443C83.0973 227.443 82.4463 227.622 81.9092 227.98C81.3883 228.322 80.9652 228.811 80.6396 229.445C80.3304 230.08 80.1025 230.829 79.9561 231.691C79.8096 232.554 79.7363 233.498 79.7363 234.523ZM116.089 241.579V221.584H124.341V248H116.626L116.089 241.579ZM116.87 236.208L119.019 236.159C119.019 237.933 118.807 239.577 118.384 241.091C117.961 242.588 117.334 243.89 116.504 244.997C115.69 246.104 114.681 246.966 113.477 247.585C112.288 248.187 110.913 248.488 109.351 248.488C108.049 248.488 106.852 248.309 105.762 247.951C104.688 247.577 103.76 246.999 102.979 246.218C102.197 245.42 101.587 244.403 101.147 243.166C100.724 241.913 100.513 240.415 100.513 238.674V221.584H108.74V238.723C108.74 239.309 108.813 239.813 108.96 240.236C109.106 240.66 109.318 241.018 109.595 241.311C109.871 241.587 110.213 241.799 110.62 241.945C111.043 242.076 111.523 242.141 112.061 242.141C113.298 242.141 114.266 241.88 114.966 241.359C115.666 240.839 116.154 240.131 116.431 239.235C116.724 238.34 116.87 237.331 116.87 236.208ZM141.675 248.488C139.526 248.488 137.606 248.155 135.913 247.487C134.22 246.804 132.788 245.868 131.616 244.68C130.461 243.492 129.574 242.124 128.955 240.578C128.353 239.032 128.052 237.396 128.052 235.671V234.743C128.052 232.806 128.32 231.016 128.857 229.372C129.395 227.712 130.192 226.263 131.25 225.026C132.308 223.789 133.634 222.829 135.229 222.146C136.825 221.446 138.68 221.096 140.796 221.096C142.668 221.096 144.344 221.397 145.825 221.999C147.306 222.601 148.56 223.464 149.585 224.587C150.627 225.71 151.416 227.069 151.953 228.664C152.507 230.259 152.783 232.049 152.783 234.035V237.38H131.201V232.229H144.751V231.594C144.767 230.715 144.613 229.966 144.287 229.348C143.978 228.729 143.522 228.257 142.92 227.932C142.318 227.606 141.585 227.443 140.723 227.443C139.827 227.443 139.087 227.639 138.501 228.029C137.931 228.42 137.484 228.957 137.158 229.641C136.849 230.308 136.629 231.081 136.499 231.96C136.369 232.839 136.304 233.767 136.304 234.743V235.671C136.304 236.647 136.434 237.535 136.694 238.332C136.971 239.13 137.362 239.813 137.866 240.383C138.387 240.936 139.006 241.368 139.722 241.677C140.454 241.986 141.284 242.141 142.212 242.141C143.335 242.141 144.442 241.929 145.532 241.506C146.623 241.083 147.559 240.383 148.34 239.406L152.075 243.85C151.538 244.615 150.773 245.355 149.78 246.071C148.804 246.787 147.632 247.373 146.265 247.829C144.897 248.269 143.368 248.488 141.675 248.488ZM15.1123 318.488C12.9639 318.488 11.0433 318.155 9.35059 317.487C7.65788 316.804 6.22559 315.868 5.05371 314.68C3.89811 313.492 3.01107 312.124 2.39258 310.578C1.79036 309.032 1.48926 307.396 1.48926 305.671V304.743C1.48926 302.806 1.75781 301.016 2.29492 299.372C2.83203 297.712 3.62956 296.263 4.6875 295.026C5.74544 293.789 7.07194 292.829 8.66699 292.146C10.262 291.446 12.1175 291.096 14.2334 291.096C16.1051 291.096 17.7816 291.397 19.2627 291.999C20.7438 292.601 21.9971 293.464 23.0225 294.587C24.0641 295.71 24.8535 297.069 25.3906 298.664C25.944 300.259 26.2207 302.049 26.2207 304.035V307.38H4.63867V302.229H18.1885V301.594C18.2048 300.715 18.0501 299.966 17.7246 299.348C17.4154 298.729 16.9596 298.257 16.3574 297.932C15.7552 297.606 15.0228 297.443 14.1602 297.443C13.265 297.443 12.5244 297.639 11.9385 298.029C11.3688 298.42 10.9212 298.957 10.5957 299.641C10.2865 300.308 10.0667 301.081 9.93652 301.96C9.80632 302.839 9.74121 303.767 9.74121 304.743V305.671C9.74121 306.647 9.87142 307.535 10.1318 308.332C10.4085 309.13 10.7992 309.813 11.3037 310.383C11.8245 310.936 12.443 311.368 13.1592 311.677C13.8916 311.986 14.7217 312.141 15.6494 312.141C16.7725 312.141 17.8792 311.929 18.9697 311.506C20.0602 311.083 20.9961 310.383 21.7773 309.406L25.5127 313.85C24.9756 314.615 24.2106 315.355 23.2178 316.071C22.2412 316.787 21.0693 317.373 19.7021 317.829C18.335 318.269 16.805 318.488 15.1123 318.488ZM36.5479 291.584L40.2588 298.859L44.0918 291.584H52.6367L45.7031 304.45L53.0029 318H44.3848L40.2588 310.188L36.1572 318H27.5391L34.8389 304.45L27.9297 291.584H36.5479ZM63.6475 296.662V328.156H55.4199V291.584H63.0859L63.6475 296.662ZM79.8584 304.475V304.987C79.8584 306.908 79.6387 308.69 79.1992 310.334C78.7598 311.978 78.1087 313.41 77.2461 314.631C76.3835 315.852 75.3092 316.804 74.0234 317.487C72.7539 318.155 71.2809 318.488 69.6045 318.488C68.0257 318.488 66.6667 318.138 65.5273 317.438C64.388 316.739 63.4359 315.77 62.6709 314.533C61.9059 313.296 61.2874 311.88 60.8154 310.285C60.3434 308.69 59.9691 307.006 59.6924 305.231V304.572C59.9691 302.668 60.3434 300.902 60.8154 299.274C61.2874 297.631 61.9059 296.198 62.6709 294.978C63.4359 293.757 64.3799 292.805 65.5029 292.121C66.6423 291.438 68.0013 291.096 69.5801 291.096C71.2565 291.096 72.7295 291.413 73.999 292.048C75.2848 292.683 76.359 293.594 77.2217 294.782C78.1006 295.954 78.7598 297.362 79.1992 299.006C79.6387 300.65 79.8584 302.473 79.8584 304.475ZM71.6309 304.987V304.475C71.6309 303.449 71.5576 302.513 71.4111 301.667C71.2646 300.804 71.0286 300.056 70.7031 299.421C70.3939 298.786 69.9788 298.298 69.458 297.956C68.9372 297.614 68.2943 297.443 67.5293 297.443C66.6504 297.443 65.9098 297.582 65.3076 297.858C64.7217 298.119 64.2497 298.526 63.8916 299.079C63.5498 299.616 63.3057 300.292 63.1592 301.105C63.029 301.903 62.972 302.839 62.9883 303.913V305.915C62.9557 307.152 63.0778 308.243 63.3545 309.187C63.6312 310.114 64.1113 310.839 64.7949 311.359C65.4785 311.88 66.4062 312.141 67.5781 312.141C68.3594 312.141 69.0104 311.962 69.5312 311.604C70.0521 311.229 70.4671 310.716 70.7764 310.065C71.0856 309.398 71.3053 308.633 71.4355 307.771C71.5658 306.908 71.6309 305.98 71.6309 304.987ZM96.3135 318.488C94.165 318.488 92.2445 318.155 90.5518 317.487C88.859 316.804 87.4268 315.868 86.2549 314.68C85.0993 313.492 84.2122 312.124 83.5938 310.578C82.9915 309.032 82.6904 307.396 82.6904 305.671V304.743C82.6904 302.806 82.959 301.016 83.4961 299.372C84.0332 297.712 84.8307 296.263 85.8887 295.026C86.9466 293.789 88.2731 292.829 89.8682 292.146C91.4632 291.446 93.3187 291.096 95.4346 291.096C97.3063 291.096 98.9827 291.397 100.464 291.999C101.945 292.601 103.198 293.464 104.224 294.587C105.265 295.71 106.055 297.069 106.592 298.664C107.145 300.259 107.422 302.049 107.422 304.035V307.38H85.8398V302.229H99.3896V301.594C99.4059 300.715 99.2513 299.966 98.9258 299.348C98.6165 298.729 98.1608 298.257 97.5586 297.932C96.9564 297.606 96.224 297.443 95.3613 297.443C94.4661 297.443 93.7256 297.639 93.1396 298.029C92.57 298.42 92.1224 298.957 91.7969 299.641C91.4876 300.308 91.2679 301.081 91.1377 301.96C91.0075 302.839 90.9424 303.767 90.9424 304.743V305.671C90.9424 306.647 91.0726 307.535 91.333 308.332C91.6097 309.13 92.0003 309.813 92.5049 310.383C93.0257 310.936 93.6442 311.368 94.3604 311.677C95.0928 311.986 95.9229 312.141 96.8506 312.141C97.9736 312.141 99.0804 311.929 100.171 311.506C101.261 311.083 102.197 310.383 102.979 309.406L106.714 313.85C106.177 314.615 105.412 315.355 104.419 316.071C103.442 316.787 102.271 317.373 100.903 317.829C99.5361 318.269 98.0062 318.488 96.3135 318.488ZM119.067 298.127V318H110.84V291.584H118.53L119.067 298.127ZM126.88 291.389L126.733 299.03C126.408 298.998 125.968 298.957 125.415 298.908C124.862 298.859 124.398 298.835 124.023 298.835C123.063 298.835 122.233 298.949 121.533 299.177C120.85 299.388 120.28 299.714 119.824 300.153C119.385 300.576 119.059 301.114 118.848 301.765C118.652 302.416 118.563 303.173 118.579 304.035L117.09 303.059C117.09 301.285 117.261 299.673 117.603 298.225C117.961 296.76 118.465 295.498 119.116 294.44C119.767 293.366 120.557 292.544 121.484 291.975C122.412 291.389 123.454 291.096 124.609 291.096C125.016 291.096 125.415 291.12 125.806 291.169C126.213 291.218 126.571 291.291 126.88 291.389ZM138.403 291.584V318H130.151V291.584H138.403ZM129.663 284.772C129.663 283.601 130.086 282.64 130.933 281.892C131.779 281.143 132.878 280.769 134.229 280.769C135.579 280.769 136.678 281.143 137.524 281.892C138.371 282.64 138.794 283.601 138.794 284.772C138.794 285.944 138.371 286.905 137.524 287.653C136.678 288.402 135.579 288.776 134.229 288.776C132.878 288.776 131.779 288.402 130.933 287.653C130.086 286.905 129.663 285.944 129.663 284.772ZM156.274 318.488C154.126 318.488 152.205 318.155 150.513 317.487C148.82 316.804 147.388 315.868 146.216 314.68C145.06 313.492 144.173 312.124 143.555 310.578C142.952 309.032 142.651 307.396 142.651 305.671V304.743C142.651 302.806 142.92 301.016 143.457 299.372C143.994 297.712 144.792 296.263 145.85 295.026C146.908 293.789 148.234 292.829 149.829 292.146C151.424 291.446 153.28 291.096 155.396 291.096C157.267 291.096 158.944 291.397 160.425 291.999C161.906 292.601 163.159 293.464 164.185 294.587C165.226 295.71 166.016 297.069 166.553 298.664C167.106 300.259 167.383 302.049 167.383 304.035V307.38H145.801V302.229H159.351V301.594C159.367 300.715 159.212 299.966 158.887 299.348C158.577 298.729 158.122 298.257 157.52 297.932C156.917 297.606 156.185 297.443 155.322 297.443C154.427 297.443 153.687 297.639 153.101 298.029C152.531 298.42 152.083 298.957 151.758 299.641C151.449 300.308 151.229 301.081 151.099 301.96C150.968 302.839 150.903 303.767 150.903 304.743V305.671C150.903 306.647 151.034 307.535 151.294 308.332C151.571 309.13 151.961 309.813 152.466 310.383C152.987 310.936 153.605 311.368 154.321 311.677C155.054 311.986 155.884 312.141 156.812 312.141C157.935 312.141 159.041 311.929 160.132 311.506C161.222 311.083 162.158 310.383 162.939 309.406L166.675 313.85C166.138 314.615 165.373 315.355 164.38 316.071C163.403 316.787 162.231 317.373 160.864 317.829C159.497 318.269 157.967 318.488 156.274 318.488ZM178.809 297.224V318H170.581V291.584H178.296L178.809 297.224ZM177.832 303.889L175.903 303.938C175.903 301.919 176.147 300.121 176.636 298.542C177.124 296.947 177.816 295.596 178.711 294.489C179.606 293.382 180.672 292.544 181.909 291.975C183.162 291.389 184.554 291.096 186.084 291.096C187.305 291.096 188.42 291.275 189.429 291.633C190.454 291.991 191.333 292.569 192.065 293.366C192.814 294.164 193.384 295.222 193.774 296.54C194.181 297.842 194.385 299.453 194.385 301.374V318H186.108V301.35C186.108 300.292 185.962 299.486 185.669 298.933C185.376 298.363 184.953 297.972 184.399 297.761C183.846 297.549 183.171 297.443 182.373 297.443C181.527 297.443 180.811 297.606 180.225 297.932C179.639 298.257 179.167 298.713 178.809 299.299C178.467 299.868 178.215 300.544 178.052 301.325C177.905 302.106 177.832 302.961 177.832 303.889ZM210.107 312.141C210.872 312.141 211.523 312.002 212.061 311.726C212.614 311.433 213.029 311.026 213.306 310.505C213.599 309.968 213.737 309.325 213.721 308.576H221.46C221.476 310.562 220.988 312.303 219.995 313.801C219.019 315.282 217.684 316.438 215.991 317.268C214.315 318.081 212.419 318.488 210.303 318.488C208.236 318.488 206.429 318.155 204.883 317.487C203.337 316.804 202.043 315.86 201.001 314.655C199.976 313.435 199.202 312.01 198.682 310.383C198.177 308.755 197.925 306.989 197.925 305.085V304.523C197.925 302.619 198.177 300.853 198.682 299.226C199.202 297.582 199.976 296.158 201.001 294.953C202.043 293.732 203.328 292.788 204.858 292.121C206.405 291.438 208.203 291.096 210.254 291.096C212.451 291.096 214.388 291.511 216.064 292.341C217.757 293.171 219.084 294.375 220.044 295.954C221.004 297.533 221.476 299.445 221.46 301.691H213.721C213.737 300.894 213.615 300.178 213.354 299.543C213.094 298.908 212.687 298.404 212.134 298.029C211.597 297.639 210.905 297.443 210.059 297.443C209.212 297.443 208.529 297.631 208.008 298.005C207.487 298.379 207.088 298.9 206.812 299.567C206.551 300.218 206.372 300.967 206.274 301.813C206.193 302.66 206.152 303.563 206.152 304.523V305.085C206.152 306.062 206.193 306.981 206.274 307.844C206.372 308.69 206.559 309.439 206.836 310.09C207.113 310.725 207.511 311.229 208.032 311.604C208.553 311.962 209.245 312.141 210.107 312.141ZM237.769 318.488C235.62 318.488 233.7 318.155 232.007 317.487C230.314 316.804 228.882 315.868 227.71 314.68C226.554 313.492 225.667 312.124 225.049 310.578C224.447 309.032 224.146 307.396 224.146 305.671V304.743C224.146 302.806 224.414 301.016 224.951 299.372C225.488 297.712 226.286 296.263 227.344 295.026C228.402 293.789 229.728 292.829 231.323 292.146C232.918 291.446 234.774 291.096 236.89 291.096C238.761 291.096 240.438 291.397 241.919 291.999C243.4 292.601 244.653 293.464 245.679 294.587C246.72 295.71 247.51 297.069 248.047 298.664C248.6 300.259 248.877 302.049 248.877 304.035V307.38H227.295V302.229H240.845V301.594C240.861 300.715 240.706 299.966 240.381 299.348C240.072 298.729 239.616 298.257 239.014 297.932C238.411 297.606 237.679 297.443 236.816 297.443C235.921 297.443 235.181 297.639 234.595 298.029C234.025 298.42 233.577 298.957 233.252 299.641C232.943 300.308 232.723 301.081 232.593 301.96C232.463 302.839 232.397 303.767 232.397 304.743V305.671C232.397 306.647 232.528 307.535 232.788 308.332C233.065 309.13 233.455 309.813 233.96 310.383C234.481 310.936 235.099 311.368 235.815 311.677C236.548 311.986 237.378 312.141 238.306 312.141C239.429 312.141 240.535 311.929 241.626 311.506C242.716 311.083 243.652 310.383 244.434 309.406L248.169 313.85C247.632 314.615 246.867 315.355 245.874 316.071C244.897 316.787 243.726 317.373 242.358 317.829C240.991 318.269 239.461 318.488 237.769 318.488Z" fill="url(#paint0_linear_355_104963)"/>
<defs>
<linearGradient id="paint0_linear_355_104963" x1="401.528" y1="607.536" x2="-12.0701" y2="599.748" gradientUnits="userSpaceOnUse">
<stop stop-color="#6768AB"/>
<stop offset="1" stop-color="#F73458"/>
</linearGradient>
</defs>
</svg>
