<svg xmlns="http://www.w3.org/2000/svg" width="219" height="219" viewBox="0 0 219 219"><defs><style>.a{fill:#781122;}.b{fill:#500512;}.c{fill:#e01335;}.d{fill:#fff;}.e{fill:#ff6881;}</style></defs><g transform="translate(0.146 0.146)"><circle class="a" cx="109.5" cy="109.5" r="109.5" transform="translate(-0.146 -0.146)"/><path class="b" d="M207.2,320.706a109.312,109.312,0,0,0,97.248-81.21l-60.619-60.618L186.47,220.1l19.4,19.4-49.727,30.151Z" transform="translate(-89.515 -102.547)"/><path class="c" d="M212.7,113.693H159.438a9.062,9.062,0,0,0-9.062,9.062V226.082a9.063,9.063,0,0,0,9.062,9.062h72.02a9.063,9.063,0,0,0,9.062-9.062V141.509Z" transform="translate(-86.207 -65.178)"/><g transform="translate(78.852 101.311)"><rect class="d" width="60.268" height="4.379"/><rect class="d" width="60.268" height="4.379" transform="translate(0 10.821)"/><rect class="d" width="60.268" height="4.379" transform="translate(0 22.996)"/><rect class="d" width="31.422" height="4.379" transform="translate(0 34.332)"/></g><path class="e" d="M305.5,141.509h18.754L296.44,113.694v18.754A9.062,9.062,0,0,0,305.5,141.509Z" transform="translate(-169.943 -65.178)"/></g></svg>