<svg width="26" height="26" viewBox="0 0 26 26" fill="none" xmlns="http://www.w3.org/2000/svg">
<path d="M9.75004 17.3333H6.77353C6.36457 17.3333 6.16009 17.3333 5.9894 17.3631C5.15869 17.5081 4.50821 18.1586 4.36318 18.9893C4.33337 19.16 4.33337 19.3644 4.33337 19.7734V19.7734C4.33337 20.2615 4.33337 20.5055 4.37111 20.697C4.55626 21.6365 5.38142 22.313 6.33903 22.3103C6.53421 22.3098 6.7735 22.2619 7.25208 22.1662L7.57285 22.102C8.11224 21.9941 8.38194 21.9402 8.60301 21.836C9.1468 21.5796 9.5464 21.0921 9.69118 20.5086C9.75004 20.2714 9.75004 19.9964 9.75004 19.4463V9.77913C9.75004 8.20938 9.75004 7.4245 10.2034 6.87155C10.6567 6.31859 11.4263 6.16467 12.9656 5.85681L15.7989 5.29014C18.0125 4.84742 19.1193 4.62606 19.8514 5.22618C20.5834 5.82629 20.5834 6.95502 20.5834 9.21247V9.74992M20.5834 15.1666V17.2796C20.5834 17.8297 20.5834 18.1047 20.5245 18.3419C20.3797 18.9255 19.9801 19.4129 19.4363 19.6693C19.2153 19.7735 18.9456 19.8275 18.4062 19.9354L18.0854 19.9995C17.6068 20.0952 17.3675 20.1431 17.1724 20.1436C16.2147 20.1463 15.3896 19.4699 15.2044 18.5303C15.1667 18.3388 15.1667 18.0948 15.1667 17.6067V17.6067C15.1667 17.1978 15.1667 16.9933 15.1965 16.8226C15.3415 15.9919 15.992 15.3414 16.8227 15.1964C16.9934 15.1666 17.1979 15.1666 17.6069 15.1666H20.5834ZM20.5834 15.1666V9.74992M20.5834 9.74992L9.75004 11.9166" stroke="#23204A" stroke-width="1.5"/>
</svg>
