<svg xmlns="http://www.w3.org/2000/svg" width="87.707" height="71.316" viewBox="0 0 87.707 71.316">
  <g id="Group_15115" data-name="Group 15115" transform="translate(-18572 17792)">
    <g id="Rectangle_4496" data-name="Rectangle 4496" transform="translate(18572 -17791.545)" fill="none" stroke="#fff" stroke-width="6">
      <rect width="87.707" height="70.406" rx="14" stroke="none"/>
      <rect x="3" y="3" width="81.707" height="64.406" rx="11" fill="none"/>
    </g>
    <path id="Subtraction_41" data-name="Subtraction 41" d="M73.707,71.316H14a14,14,0,0,1-14-14V14A14,14,0,0,1,14,0H73.707a14,14,0,0,1,14,14V57.317a14,14,0,0,1-14,14Zm-14.5-48.074c-7.707,0-13.3,5.513-13.3,13.109s5.594,13.11,13.3,13.11A11.748,11.748,0,0,0,70,43.23l-4.636-2.243a6.837,6.837,0,0,1-6.156,3.686,7.484,7.484,0,0,1-5.529-2.366,9.091,9.091,0,0,1,0-11.913,7.484,7.484,0,0,1,5.529-2.365A6.987,6.987,0,0,1,62.945,29.1a6.815,6.815,0,0,1,2.423,2.612L70,29.435A11.766,11.766,0,0,0,59.212,23.242Zm-28.767,0c-7.706,0-13.3,5.513-13.3,13.109s5.593,13.11,13.3,13.11A11.745,11.745,0,0,0,41.237,43.23L36.6,40.987a6.835,6.835,0,0,1-6.156,3.686,7.482,7.482,0,0,1-5.529-2.366,9.091,9.091,0,0,1,0-11.913,7.483,7.483,0,0,1,5.529-2.365A6.988,6.988,0,0,1,34.179,29.1,6.809,6.809,0,0,1,36.6,31.715l4.636-2.28A11.763,11.763,0,0,0,30.445,23.242Z" transform="translate(18572 -17792)" fill="#fff"/>
    <path id="Rectangle_4497_-_Outline" data-name="Rectangle 4497 - Outline" d="M13.8,5.486c-4.891,0-8.869,4.43-8.869,9.875v40.6c0,5.445,3.979,9.875,8.869,9.875H73.91c4.891,0,8.869-4.43,8.869-9.875V15.36c0-5.445-3.979-9.875-8.869-9.875H13.8M13.8,0H73.91c7.62,0,13.8,6.877,13.8,15.36v40.6c0,8.483-6.177,15.36-13.8,15.36H13.8c-7.62,0-13.8-6.877-13.8-15.36V15.36C0,6.877,6.177,0,13.8,0Z" transform="translate(18572 -17792)" fill="#fff"/>
  </g>
</svg>
