<svg xmlns="http://www.w3.org/2000/svg" width="62.385" height="62.4" viewBox="0 0 62.385 62.4"><defs><style>.a{fill:none;stroke:#FFFFFF;stroke-width:5px;}.b{fill:#FFFFFF;}</style></defs><g transform="translate(-1094.035 -1916.381)"><path class="a" d="M40.178,0H17.224A17.235,17.235,0,0,0,.008,17.216v13.39A17.238,17.238,0,0,0,16.267,47.8v7.98A1.629,1.629,0,0,0,17.9,57.4a1.609,1.609,0,0,0,1.143-.477l1.794-1.794a24.783,24.783,0,0,1,17.641-7.308h1.7A17.235,17.235,0,0,0,57.393,30.605V17.216A17.235,17.235,0,0,0,40.178,0Z" transform="translate(1096.527 1918.881)"/><path class="b" d="M23.782,39.717a3.411,3.411,0,1,1,3.411-3.411A3.414,3.414,0,0,1,23.782,39.717Zm11.086,0a3.411,3.411,0,1,1,3.411-3.411A3.414,3.414,0,0,1,34.868,39.717Zm11.086,0a3.411,3.411,0,1,1,3.411-3.411A3.414,3.414,0,0,1,45.954,39.717Z" transform="translate(1090.36 1906.486)"/></g></svg>
