<svg width="26" height="26" viewBox="0 0 26 26" fill="none" xmlns="http://www.w3.org/2000/svg">
<path d="M14.8812 23.6686C16.2823 23.4215 17.6209 22.901 18.8208 22.1366C20.0206 21.3722 21.0582 20.379 21.8742 19.2136C22.6902 18.0482 23.2687 16.7335 23.5766 15.3446C23.8845 13.9557 23.9158 12.5197 23.6688 11.1186C23.4217 9.71761 22.9012 8.37894 22.1368 7.17909C21.3724 5.97924 20.3792 4.94169 19.2138 4.12569C18.0484 3.30969 16.7337 2.73122 15.3448 2.4233C13.9559 2.11538 12.5199 2.08405 11.1188 2.33109C9.71781 2.57813 8.37915 3.09871 7.17929 3.8631C5.97944 4.62749 4.94189 5.62072 4.12589 6.78609C3.30989 7.95146 2.73142 9.26615 2.4235 10.6551C2.11558 12.044 2.08425 13.48 2.33129 14.881C2.57833 16.2821 3.09891 17.6207 3.8633 18.8206C4.62769 20.0204 5.62093 21.058 6.7863 21.874C7.95167 22.69 9.26635 23.2685 10.6553 23.5764C12.0442 23.8843 13.4802 23.9156 14.8812 23.6686L14.8812 23.6686Z" stroke="#23204A" stroke-width="1.5"/>
<path d="M13 13L13 19.5" stroke="#23204A" stroke-width="1.5" stroke-linecap="square"/>
<path d="M13 7.5835L13 6.50016" stroke="#23204A" stroke-width="1.5" stroke-linecap="square"/>
</svg>
