<svg width="81" height="80" viewBox="0 0 81 80" fill="none" xmlns="http://www.w3.org/2000/svg">
<path d="M24.4173 45.8623C30.0403 45.8623 34.5467 50.4126 34.5467 56.0756V69.6707C34.5467 75.2938 30.0403 79.88 24.4173 79.88H10.9382C5.35507 79.88 0.808838 75.2938 0.808838 69.6707V56.0756C0.808838 50.4126 5.35507 45.8623 10.9382 45.8623H24.4173ZM70.4384 45.8623C76.0215 45.8623 80.5677 50.4126 80.5677 56.0756V69.6707C80.5677 75.2938 76.0215 79.88 70.4384 79.88H56.9592C51.3362 79.88 46.8299 75.2938 46.8299 69.6707V56.0756C46.8299 50.4126 51.3362 45.8623 56.9592 45.8623H70.4384ZM24.4173 0.121094C30.0403 0.121094 34.5467 4.7073 34.5467 10.3344V23.9295C34.5467 29.5924 30.0403 34.1388 24.4173 34.1388H10.9382C5.35507 34.1388 0.808838 29.5924 0.808838 23.9295V10.3344C0.808838 4.7073 5.35507 0.121094 10.9382 0.121094H24.4173ZM70.4384 0.121094C76.0215 0.121094 80.5677 4.7073 80.5677 10.3344V23.9295C80.5677 29.5924 76.0215 34.1388 70.4384 34.1388H56.9592C51.3362 34.1388 46.8299 29.5924 46.8299 23.9295V10.3344C46.8299 4.7073 51.3362 0.121094 56.9592 0.121094H70.4384Z" fill="white"/>
</svg>
