<svg width="376" height="311" viewBox="0 0 376 311" fill="none" xmlns="http://www.w3.org/2000/svg">
<path d="M-18.5677 253.239C-20.4075 251.05 -21.8349 248.513 -22.6597 245.753C-23.0403 244.516 -23.1989 243.247 -23.5796 242.042C-23.8333 241.28 -24.3092 240.582 -23.6113 239.916C-23.2941 239.631 -22.8183 239.441 -22.4694 239.187C-21.3908 238.457 -20.7882 237.601 -22.1204 236.681C-22.8817 236.173 -23.8333 236.078 -24.6581 235.666C-25.7683 235.063 -26.6248 234.08 -27.2592 233.033C-28.5915 230.876 -29.321 228.338 -30.1141 225.959C-31.0657 223.136 -31.9856 220.249 -32.8103 217.395C-34.4598 211.621 -35.8238 205.785 -36.934 199.916C-37.0292 200.107 -37.1561 200.297 -37.2512 200.487C-31.2877 198.521 -25.3559 203.564 -21.1054 207.149C-16.7279 210.828 -12.7945 215.047 -9.33696 219.615C-2.19979 229.131 2.78036 240.107 5.88899 251.558C7.79224 258.568 8.99763 265.769 9.66376 273.001C9.7272 273.604 10.6788 273.604 10.6154 273.001C8.29977 248.037 -0.899246 222.755 -20.5978 206.292C-25.1022 202.549 -31.1926 197.506 -37.4733 199.568C-37.727 199.663 -37.8539 199.885 -37.7905 200.139C-36.6168 206.419 -35.1259 212.636 -33.3178 218.79C-32.4614 221.677 -31.5732 224.532 -30.5899 227.355C-29.7968 229.639 -29.0673 232.081 -27.6716 234.08C-27.1323 234.841 -26.5296 235.539 -25.7683 236.078C-24.8484 236.744 -23.7699 236.808 -22.85 237.379C-21.6446 238.108 -23.3893 238.679 -24.0237 239.123C-24.4995 239.472 -24.9436 239.885 -25.0387 240.519C-25.1656 241.471 -24.3409 242.581 -24.1188 243.469C-23.8016 244.833 -23.5161 246.165 -23.0086 247.498C-22.0887 249.845 -20.7882 252.002 -19.1704 253.937C-18.8532 254.381 -18.1871 253.715 -18.5677 253.239Z" fill="#E8E8E8"/>
<path d="M-32.144 205.024C-18.8848 219.996 -8.57551 237.474 -1.85071 256.316C0.020813 261.55 1.57513 266.879 2.87568 272.272C3.03428 272.874 3.92246 272.62 3.79558 272.018C-0.89909 252.478 -9.33681 233.858 -21.01 217.458C-24.2456 212.89 -27.7348 208.513 -31.4462 204.326C-31.8903 203.913 -32.5564 204.579 -32.144 205.024Z" fill="#E8E8E8"/>
<path d="M-7.81404 219.52C-7.1479 213.239 -5.81563 206.959 -3.59518 201.059C-1.72365 196.078 1.06777 191.193 5.8576 188.529C5.60384 188.402 5.38179 188.243 5.12803 188.116C5.63556 196.935 10.806 204.77 11.0281 213.62C11.155 213.461 11.2501 213.303 11.377 213.176C10.1716 213.493 8.96624 213.81 7.76085 214.127C7.41192 214.223 7.28504 214.667 7.53881 214.92C8.99796 216.316 9.28345 218.283 9.34689 220.218C9.37861 221.233 9.91786 226.15 8.74419 226.467C8.45871 226.562 8.3001 226.911 8.45871 227.165C11.9797 232.811 10.362 239.504 9.37861 245.594C8.36354 251.875 8.23666 258.219 8.96624 264.5C9.02968 265.103 9.9813 265.103 9.91786 264.5C9.09312 257.426 9.50549 250.479 10.7109 243.501C11.6942 237.855 12.4872 231.796 9.31517 226.657C9.22001 226.879 9.12484 227.133 9.02968 227.355C9.88614 227.133 10.1716 226.467 10.2985 225.642C10.5206 224.119 10.362 222.438 10.3302 220.916C10.2985 218.505 10.0447 215.999 8.20494 214.254C8.1415 214.508 8.07806 214.794 7.98289 215.047C9.18828 214.73 10.3937 214.413 11.5991 214.096C11.7894 214.032 11.948 213.842 11.948 213.652C11.7259 204.77 6.58718 196.967 6.04793 188.148C6.01621 187.799 5.66728 187.545 5.31835 187.736C0.59196 190.369 -2.26291 195.032 -4.22959 199.948C-6.73553 206.197 -8.13125 212.89 -8.8291 219.583C-8.8291 220.123 -7.87748 220.123 -7.81404 219.52Z" fill="#E8E8E8"/>
<path d="M3.69978 192.874C0.305658 205.721 -1.43898 218.981 -1.4707 232.272C-1.4707 232.874 -0.519081 232.874 -0.519081 232.272C-0.48736 219.044 1.22556 205.912 4.58796 193.128C4.77828 192.525 3.85838 192.272 3.69978 192.874Z" fill="#E8E8E8"/>
<path d="M376.133 173.874C378.163 180.408 379.686 187.07 380.638 193.858C381.113 197.284 381.462 200.773 381.621 204.231C381.684 205.119 381.716 206.039 381.748 206.927C381.779 207.466 381.621 208.354 381.811 208.862C382.002 209.338 382.668 209.655 383.048 209.972C383.714 210.511 384.381 211.05 385.015 211.59C385.047 211.336 385.078 211.082 385.11 210.828C384.222 211.368 383.365 211.621 382.319 211.653C382.097 211.653 381.938 211.812 381.875 212.002C380.955 214.857 381.621 217.87 383.683 220.091C383.81 219.805 383.905 219.552 384.032 219.266C380.733 219.139 380.669 222.946 380.986 225.293C381.431 228.56 382.065 231.828 382.985 235C384.825 241.217 387.902 247.117 392.945 251.368C393.421 251.748 394.087 251.082 393.611 250.701C389.361 247.117 386.506 242.295 384.666 237.062C383.81 234.587 383.143 232.05 382.636 229.512C382.224 227.387 380.162 220.091 384.032 220.218C384.476 220.25 384.634 219.71 384.381 219.393C382.572 217.426 382.002 214.762 382.826 212.256C382.668 212.383 382.509 212.478 382.382 212.605C383.588 212.605 384.603 212.319 385.649 211.653C385.871 211.495 385.998 211.114 385.745 210.892C384.571 209.94 382.953 209.116 382.763 207.529C382.572 205.848 382.636 204.104 382.509 202.422C382.287 199.282 381.97 196.142 381.494 193.001C380.542 186.435 379.051 179.964 377.085 173.62C376.863 173.017 375.943 173.271 376.133 173.874Z" fill="#E8E8E8"/>
<path d="M377.688 175.301C376.388 173.588 378.83 172.319 380.257 172.668C381.685 173.049 382.859 174.191 383.842 175.206C385.65 177.046 387.077 179.203 388.315 181.455C390.884 186.086 393.041 191.035 394.944 195.951C398.846 206.07 401.542 216.665 402.97 227.387C403.763 233.477 404.175 239.599 404.175 245.721C404.175 246.324 405.127 246.324 405.127 245.721C405.127 232.97 403.382 220.25 399.956 208.005C398.275 202.042 396.213 196.205 393.771 190.495C391.518 185.23 389.108 179.584 385.238 175.27C383.683 173.525 381.05 170.829 378.449 171.749C376.863 172.288 375.817 174.318 376.895 175.777C377.244 176.253 378.069 175.809 377.688 175.301Z" fill="#E8E8E8"/>
<path d="M-16.76 173.144C2.58964 169.687 22.5737 169.877 41.8599 173.715C51.4079 175.618 60.7655 178.378 69.7742 181.994C79.1952 185.769 88.2357 190.305 97.4664 194.492C132.296 210.289 169.568 220.63 207.537 225.134C229.076 227.704 250.836 228.37 272.47 227.165C273.072 227.133 273.072 226.181 272.47 226.213C233.644 228.402 194.532 224.437 156.911 214.571C138.037 209.623 119.544 203.184 101.685 195.349C92.4228 191.288 83.3824 186.721 74.0882 182.756C65.2064 178.981 56.0391 175.936 46.6498 173.779C25.8092 169.02 4.04879 168.481 -17.0138 172.256C-17.6165 172.319 -17.3627 173.239 -16.76 173.144Z" fill="#E8E8E8"/>
<path d="M155.801 213.874C173.85 214.793 191.265 208.291 208.235 203.088C225.999 197.664 243.826 192.399 261.685 187.26C279.448 182.153 297.212 176.792 315.261 172.7C333.247 168.64 351.581 166.705 370.011 166.166C390.534 165.531 411.058 166.451 431.549 167.403C432.152 167.434 432.152 166.483 431.549 166.451C395.356 164.802 358.687 163.184 322.906 170.131C304.761 173.652 286.998 179.044 269.234 184.088C251.375 189.195 233.548 194.429 215.753 199.79C205.888 202.771 196.054 206.007 186.126 208.735C176.229 211.463 166.078 213.429 155.769 212.922C155.198 212.89 155.198 213.842 155.801 213.874Z" fill="#E8E8E8"/>
<path d="M78.7832 181.328C91.3129 184.944 104.318 182.438 116.816 180.028C130.203 177.458 143.716 175.714 157.355 175.174C184.382 174.159 211.249 178.029 238.18 179.108C253.089 179.71 268.061 179.362 282.779 176.919C283.382 176.824 283.128 175.904 282.526 175.999C256.039 180.408 229.14 177.776 202.558 175.777C189.267 174.762 175.944 173.906 162.589 174.128C149.362 174.35 136.134 175.619 123.065 177.934C108.601 180.472 93.5651 184.659 79.0052 180.44C78.4343 180.25 78.1805 181.17 78.7832 181.328Z" fill="#E8E8E8"/>
<path d="M134.929 242.454C138.989 240.773 143.367 239.916 147.776 240.043C151.868 240.17 155.548 241.502 159.513 242.327C162.463 242.961 165.413 242.961 167.792 240.868C168.712 240.075 169.505 239.25 170.837 239.662C171.82 239.948 172.645 240.614 173.565 241.026C174.644 241.534 175.754 241.724 176.896 241.502C179.624 240.963 181.686 238.711 184.065 237.41C188.093 235.253 191.963 238.14 195.896 239.187C204.08 241.375 212.835 240.709 221.21 240.614C231.519 240.519 241.86 240.582 252.106 239.314C252.708 239.25 252.708 238.298 252.106 238.362C242.907 239.472 233.612 239.536 224.35 239.631C215.532 239.726 206.206 240.551 197.514 238.584C195.484 238.14 193.581 237.474 191.646 236.681C189.965 235.983 188.22 235.317 186.38 235.57C183.494 235.951 181.337 238.235 178.894 239.631C177.625 240.36 176.23 240.868 174.77 240.455C173.184 239.98 171.884 238.584 170.139 238.521C168.49 238.489 167.697 239.821 166.491 240.678C164.81 241.851 162.685 241.883 160.718 241.566C156.531 240.9 152.629 239.282 148.347 239.091C143.684 238.869 139.021 239.726 134.675 241.534C134.104 241.756 134.358 242.676 134.929 242.454Z" fill="#E8E8E8"/>
<path d="M155.167 214.159C155.738 214.254 156.277 214.381 156.848 214.476C157.451 214.603 157.673 213.778 157.102 213.556C156.753 213.43 156.404 213.303 156.023 213.176C155.516 212.985 155.167 213.81 155.643 214.032C158.561 215.555 161.606 216.76 164.778 217.617C165.381 217.775 165.635 216.855 165.032 216.697C161.923 215.872 158.973 214.698 156.119 213.207C155.992 213.493 155.865 213.778 155.738 214.064C156.087 214.191 156.436 214.318 156.816 214.445C156.912 214.127 156.975 213.842 157.07 213.525C156.499 213.43 155.96 213.303 155.389 213.207C154.818 213.112 154.564 214.032 155.167 214.159Z" fill="#E8E8E8"/>
<path d="M112.534 258.124C111.836 257.299 111.202 256.443 110.663 255.491C110.409 255.015 110.092 254.508 109.933 253.969C109.711 253.62 109.679 253.207 109.806 252.795C109.711 252.351 109.838 252.002 110.155 251.748C110.631 250.448 110.06 249.084 109.743 247.751C109.267 245.658 108.791 243.564 108.315 241.471C108.061 240.36 107.808 239.282 107.586 238.172C107.459 237.664 107.364 237.188 107.237 236.681C107.046 235.793 106.856 235.38 107.522 234.651C107.839 233.985 108.315 233.858 108.95 234.365C109.235 234.651 109.521 234.936 109.806 235.222C110.123 235.634 110.345 236.11 110.599 236.554C111.043 237.379 111.487 238.203 111.9 239.028C112.883 240.995 113.739 243.025 114.469 245.087C115.865 248.957 116.816 252.954 117.387 257.046C117.546 256.855 117.705 256.633 117.831 256.443C117.895 256.506 117.927 256.601 117.99 256.665C118.149 256.062 117.229 255.808 117.07 256.411C116.943 256.982 117.229 257.395 117.831 257.395C118.18 257.395 118.339 257.109 118.275 256.792C117.546 251.558 116.182 246.451 114.088 241.598C113.105 239.314 112.058 236.776 110.599 234.746C109.806 233.636 108.379 232.621 107.015 233.414C105.46 234.302 106.19 236.491 106.507 237.855C107.142 240.646 107.776 243.437 108.379 246.229C108.664 247.561 109.267 249.052 109.33 250.416C109.362 251.526 108.442 252.034 108.601 253.144C108.918 255.206 110.472 257.299 111.773 258.822C112.249 259.234 112.915 258.568 112.534 258.124Z" fill="#E8E8E8"/>
<path d="M115.453 244.484C114.977 241.629 115.041 238.711 115.707 235.888C115.865 235.158 116.087 234.46 116.341 233.762C116.785 232.557 117.42 232.684 118.054 233.572C118.879 234.746 119.513 236.046 119.989 237.379C121.924 242.898 121.068 248.83 120.243 254.444C120.148 255.047 121.068 255.301 121.163 254.698C122.209 247.624 123.288 239.599 119.006 233.287C118.53 232.589 117.895 231.415 116.912 231.574C115.865 231.764 115.516 233.191 115.231 234.016C114.089 237.474 113.899 241.153 114.501 244.706C114.66 245.34 115.58 245.087 115.453 244.484Z" fill="#E8E8E8"/>
<path d="M117.165 237.188C118.117 242.137 118.466 247.117 118.307 252.129C118.276 252.731 119.227 252.731 119.259 252.129C119.449 247.022 119.037 241.946 118.085 236.934C117.958 236.332 117.07 236.586 117.165 237.188Z" fill="#E8E8E8"/>
<path d="M0.496228 169.56C-0.423674 167.529 -2.48552 166.102 -3.78607 164.326C-5.21351 162.359 -6.41889 160.234 -7.59256 158.14C-7.68772 158.362 -7.78289 158.616 -7.87805 158.838C-1.50218 157.696 2.17743 163.977 3.41454 169.274C3.54142 169.877 4.46132 169.623 4.33444 169.02C2.97045 163.152 -1.21669 156.713 -8.13181 157.918C-8.44902 157.982 -8.54418 158.362 -8.4173 158.616C-7.24363 160.741 -6.06997 162.867 -4.61081 164.801C-3.31026 166.578 -1.21669 168.069 -0.328511 170.035C-0.0747452 170.606 0.749994 170.131 0.496228 169.56Z" fill="#E8E8E8"/>
<path d="M3.25641 164.453C3.73223 159.473 8.49034 156.364 10.3301 151.955C10.1081 152.05 9.85433 152.145 9.63228 152.24C11.7576 153.604 10.1715 158.553 9.56884 160.456C8.68066 163.247 7.22151 165.785 5.34998 168.005C4.96934 168.481 5.63547 169.147 6.01612 168.672C8.36345 165.912 10.0447 162.708 10.9011 159.187C11.4404 156.967 12.4554 152.938 10.1081 151.416C9.82261 151.225 9.5054 151.447 9.41024 151.701C7.50699 156.269 2.81232 159.251 2.30479 164.453C2.24135 165.055 3.19297 165.055 3.25641 164.453Z" fill="#E8E8E8"/>
<path d="M284.937 178.854C284.651 178.124 284.366 177.395 284.08 176.665C283.922 176.316 283.795 175.935 283.636 175.586C283.446 175.333 283.446 175.047 283.604 174.762C283.89 175.015 284.461 174.857 284.429 174.413C284.271 172.827 284.112 171.209 283.953 169.623C283.922 169.242 283.541 167.751 283.763 167.466C284.746 166.102 285.412 168.354 285.508 168.703C286.364 171.621 286.332 174.984 286.301 177.997C286.301 178.6 287.252 178.6 287.252 177.997C287.284 175.523 287.157 173.081 286.808 170.638C286.586 169.084 286.332 166.832 284.81 165.912C283.826 165.309 283.002 165.943 282.811 166.99C282.621 168.005 282.938 169.211 283.033 170.194C283.16 171.59 283.319 172.985 283.446 174.381C283.731 174.254 283.985 174.159 284.271 174.032C283.731 173.525 282.907 173.62 282.589 174.318C282.367 174.793 282.558 175.301 282.716 175.777C283.097 176.887 283.604 177.965 284.017 179.076C284.239 179.678 285.159 179.425 284.937 178.854Z" fill="#E8E8E8"/>
<path d="M287.062 173.684C286.935 169.243 287.855 164.897 289.79 160.868C289.536 160.9 289.282 160.932 289.028 160.964C291.09 162.676 289.726 167.308 289.377 169.528C288.901 172.51 288.299 175.492 287.537 178.41C287.379 179.013 288.299 179.266 288.457 178.664C289.377 175.111 290.075 171.495 290.583 167.847C290.9 165.5 291.82 162.042 289.694 160.266C289.472 160.075 289.092 160.075 288.933 160.361C286.935 164.516 285.951 169.021 286.078 173.652C286.142 174.286 287.093 174.286 287.062 173.684Z" fill="#E8E8E8"/>
<path d="M120.591 270.781C122.589 268.75 125.698 271.478 128.014 271.352C129.124 271.288 130.139 270.876 131.154 270.527C132.518 270.083 133.818 269.924 135.246 270.051C140.892 270.527 146.38 270.939 152.058 270.559C152.661 270.527 152.661 269.575 152.058 269.607C148.981 269.797 145.936 269.861 142.859 269.734C139.75 269.607 136.515 268.846 133.438 269.068C132.201 269.163 131.059 269.575 129.885 269.956C128.172 270.495 126.872 270.4 125.222 269.797C123.414 269.131 121.384 268.592 119.893 270.114C119.481 270.559 120.147 271.225 120.591 270.781Z" fill="#E8E8E8"/>
<path d="M60.6709 278.489C62.8913 276.078 66.793 275.919 69.1403 278.203C69.1721 277.949 69.2038 277.696 69.2355 277.442C67.586 278.235 65.9048 278.584 64.0967 278.489C63.494 278.457 63.494 279.409 64.0967 279.44C66.0951 279.535 67.9349 279.155 69.743 278.267C70.0285 278.14 70.0602 277.727 69.8382 277.505C67.1102 274.873 62.5741 274.999 60.0048 277.791C59.5924 278.267 60.2585 278.933 60.6709 278.489Z" fill="#E8E8E8"/>
<path d="M17.594 260.884C17.6574 260.63 17.8478 260.471 18.1015 260.471C18.3236 260.44 18.5456 260.408 18.7359 260.376C19.2435 260.313 19.7193 260.345 20.2268 260.408C21.2102 260.535 22.0983 260.884 22.9548 261.423C22.9865 261.138 23.0182 260.852 23.0817 260.567C21.908 260.979 20.7343 261.074 19.4972 260.884C18.8945 260.789 18.6408 261.708 19.2435 261.804C20.6392 262.026 21.9715 261.931 23.3354 261.486C23.7161 261.36 23.8113 260.852 23.4623 260.63C21.8128 259.583 19.6558 259.076 17.7209 259.615C16.6741 259.9 15.8493 261.518 17.3402 261.835C17.9429 261.931 18.1967 261.011 17.594 260.884Z" fill="#E8E8E8"/>
<path d="M43.8587 42.7401C36.3092 40.0756 30.9167 32.7481 30.0919 24.8179C29.2355 16.634 33.835 8.83067 40.7501 4.64353C48.2045 0.139182 58.7992 0.107462 64.9213 6.92742C68.0617 10.385 69.9966 15.1114 71.1386 19.584C72.3123 24.1835 72.5026 29.2905 69.8698 33.446C67.2052 37.6014 62.4471 39.917 57.9745 41.6616C53.2481 43.5332 47.5701 44.9923 42.9388 42.074C42.4313 41.7568 41.9555 42.5815 42.463 42.8988C46.6184 45.4999 51.6303 44.8337 56.0712 43.3746C60.417 41.9471 65.0165 39.9487 68.3789 36.7132C75.8967 29.5126 72.8198 17.6173 68.1251 9.71885C65.6509 5.53171 61.9396 2.4548 57.2132 1.18597C52.7088 -0.0194213 47.8873 0.392948 43.605 2.13759C35.7382 5.37311 29.5844 12.9226 29.0769 21.5507C28.5059 31.0669 34.628 40.488 43.605 43.66C44.1759 43.8821 44.4297 42.9622 43.8587 42.7401Z" fill="#E8E8E8"/>
<path d="M282.367 226.879C304.001 225.515 325.507 222.597 346.697 218.124C352.819 216.824 358.909 215.396 364.968 213.842C365.571 213.683 365.317 212.764 364.714 212.922C343.715 218.283 322.335 222.153 300.765 224.405C294.643 225.039 288.521 225.547 282.399 225.928C281.764 225.959 281.764 226.911 282.367 226.879Z" fill="#E8E8E8"/>
<path d="M232.787 249.781C235.578 250.257 238.433 250.226 241.193 249.559C242.906 249.147 244.143 248.481 245.919 249.052C247.03 249.401 248.076 249.528 249.218 249.306C250.487 249.052 251.661 248.417 252.739 247.72C253.913 246.927 255.087 245.816 256.514 245.531C258.164 245.214 259.654 246.514 261.241 246.863C262.382 247.117 263.556 247.085 264.698 246.895C265.301 246.8 265.047 245.88 264.444 245.975C262.446 246.324 260.892 245.816 259.084 245.023C258.322 244.674 257.593 244.484 256.736 244.547C254.167 244.833 252.39 247.244 250.011 248.1C248.489 248.639 247.252 248.449 245.761 247.973C244.619 247.624 243.794 247.815 242.684 248.164C239.544 249.147 236.34 249.432 233.104 248.893C232.47 248.766 232.184 249.686 232.787 249.781Z" fill="#E8E8E8"/>
<path d="M75.6114 291.05C100.258 291.05 124.905 291.05 149.552 291.05C150.79 291.05 150.79 289.147 149.552 289.147C124.905 289.147 100.258 289.147 75.6114 289.147C74.3743 289.147 74.3743 291.05 75.6114 291.05Z" fill="#161616"/>
<path d="M154.85 290.479C157.736 290.479 160.623 290.479 163.509 290.479C164.747 290.479 164.747 288.576 163.509 288.576C160.623 288.576 157.736 288.576 154.85 288.576C153.613 288.576 153.613 290.479 154.85 290.479Z" fill="#161616"/>
<path d="M169.917 290.194C170.837 290.194 171.789 290.194 172.709 290.194C173.946 290.194 173.946 288.291 172.709 288.291C171.789 288.291 170.837 288.291 169.917 288.291C168.68 288.291 168.68 290.194 169.917 290.194Z" fill="#161616"/>
<path d="M-3.91237 298.029C14.3271 298.029 32.5348 298.029 50.7742 298.029C52.0113 298.029 52.0113 296.125 50.7742 296.125C32.5348 296.125 14.3271 296.125 -3.91237 296.125C-5.11775 296.125 -5.11775 298.029 -3.91237 298.029Z" fill="#161616"/>
<path d="M56.071 298.029C60.8291 298.029 65.5555 298.029 70.3136 298.029C71.5508 298.029 71.5508 296.125 70.3136 296.125C65.5555 296.125 60.8291 296.125 56.071 296.125C54.8656 296.125 54.8656 298.029 56.071 298.029Z" fill="#161616"/>
<path d="M78.4023 297.458C78.6878 297.458 78.9733 297.458 79.2271 297.458C79.7346 297.458 80.2104 297.014 80.1787 296.506C80.147 295.999 79.7663 295.554 79.2271 295.554C78.9416 295.554 78.6561 295.554 78.4023 295.554C77.8948 295.554 77.419 295.999 77.4507 296.506C77.4824 297.014 77.8631 297.458 78.4023 297.458Z" fill="#161616"/>
<path d="M237.419 263.421C262.986 263.421 288.553 263.421 314.152 263.421C315.389 263.421 315.389 261.518 314.152 261.518C288.585 261.518 263.018 261.518 237.419 261.518C236.182 261.518 236.182 263.421 237.419 263.421Z" fill="#161616"/>
<path d="M324.175 262.311C347.331 262.311 370.487 262.311 393.643 262.311C394.88 262.311 394.88 260.408 393.643 260.408C370.487 260.408 347.331 260.408 324.175 260.408C322.969 260.408 322.969 262.311 324.175 262.311Z" fill="#161616"/>
<path d="M375.245 251.145C380.543 251.145 385.84 251.145 391.137 251.145C392.374 251.145 392.374 249.242 391.137 249.242C385.84 249.242 380.543 249.242 375.245 249.242C374.008 249.242 374.008 251.145 375.245 251.145Z" fill="#161616"/>
<path d="M222.066 269.004C228.854 269.004 235.643 269.004 242.431 269.004C243.668 269.004 243.668 267.101 242.431 267.101C235.643 267.101 228.854 267.101 222.066 267.101C220.861 267.101 220.861 269.004 222.066 269.004Z" fill="#161616"/>
<path d="M249.694 268.719C252.581 268.719 255.468 268.719 258.354 268.719C259.591 268.719 259.591 266.815 258.354 266.815C255.468 266.815 252.581 266.815 249.694 266.815C248.457 266.815 248.457 268.719 249.694 268.719Z" fill="#161616"/>
<path d="M262.256 273.477C264.223 273.477 266.158 273.477 268.124 273.477C269.361 273.477 269.361 271.574 268.124 271.574C266.158 271.574 264.223 271.574 262.256 271.574C261.019 271.574 261.019 273.477 262.256 273.477Z" fill="#161616"/>
<path d="M127.157 114.429C126.015 113.002 130.329 112.114 131.027 111.828C132.391 111.225 133.248 110.115 133.565 108.656C133.882 107.165 133.565 105.579 134.009 104.12C134.675 101.963 137.149 102.09 138.989 102.185C140.226 102.248 140.195 100.345 138.989 100.282C136.896 100.155 134.485 100.218 133.026 101.931C131.725 103.454 131.979 105.516 131.82 107.387C131.693 109.068 131.059 109.893 129.409 110.369C128.458 110.654 127.506 110.813 126.713 111.416C125.254 112.462 124.651 114.302 125.825 115.761C126.555 116.745 127.919 115.381 127.157 114.429Z" fill="#161616"/>
<path d="M133.914 116.015C133.058 115 135.025 113.985 135.659 113.604C136.515 113.097 137.245 112.621 137.879 111.86C139.18 110.305 140.036 107.355 142.384 107.229C143.589 107.165 143.621 105.262 142.384 105.325C138.482 105.516 138.165 109.576 135.5 111.479C134.358 112.272 132.994 112.716 132.265 113.985C131.599 115.127 131.726 116.364 132.55 117.347C133.343 118.299 134.707 116.935 133.914 116.015Z" fill="#161616"/>
<path d="M282.557 13.3351C282.43 15.3652 280.844 17.8077 282.748 19.5206C284.397 20.9798 286.459 19.9013 288.33 20.0281C290.392 20.1867 289.504 22.09 289.25 23.4857C289.06 24.5325 288.965 25.6744 289.441 26.6895C290.202 28.2755 292.264 29.2906 293.786 28.1486C294.738 27.4191 293.786 25.7696 292.835 26.4992C291.28 27.6728 290.963 24.8497 291.122 23.9932C291.28 23.0733 291.598 22.1534 291.629 21.2018C291.661 19.8695 290.963 18.8227 289.726 18.3787C288.204 17.8394 286.84 18.4421 285.317 18.4104C282.557 18.3469 284.397 14.9845 284.492 13.3351C284.556 12.0979 282.652 12.0979 282.557 13.3351Z" fill="#161616"/>
<path d="M293.469 15.5237C292.676 17.2366 291.915 19.2667 293.184 20.9796C293.659 21.614 294.294 21.9947 295.055 22.1216C295.563 22.185 296.229 21.963 296.673 22.1533C297.402 22.4388 297.815 23.2952 297.466 24.0565C296.927 25.1668 298.576 26.1184 299.115 25.0082C299.782 23.5807 299.528 21.9312 298.259 20.8845C297.561 20.3135 296.927 20.3135 296.07 20.2183C293.755 19.9963 294.389 18.0613 295.119 16.507C295.626 15.3968 293.977 14.4134 293.469 15.5237Z" fill="#161616"/>
<path d="M24.2551 156.618C24.0648 154.366 26.9197 153.097 28.1251 155.222C29.1401 157.062 27.1417 158.68 25.3971 158.077C24.2551 157.665 23.7476 159.504 24.8896 159.917C28.4106 161.186 31.7412 157.189 29.616 154.017C27.3321 150.623 22.0347 152.621 22.3836 156.618C22.4471 157.823 24.3503 157.855 24.2551 156.618Z" fill="#161616"/>
<path d="M35.2938 67.7044C34.5643 68.9098 34.5008 70.4641 35.4524 71.5743C35.9283 72.1135 36.5944 72.4625 37.2922 72.5894C38.2756 72.748 39.0052 72.2087 39.8616 72.6211C40.7181 73.0652 40.5278 73.6044 40.6229 74.4926C40.6546 75.0319 40.6864 75.5394 40.7498 76.0786C40.8133 76.6496 40.8767 77.2206 41.2891 77.6647C41.6697 78.0771 42.1455 78.2357 42.6848 78.3308C43.0654 78.3943 43.4461 78.3625 43.8584 78.3625C44.1757 78.3625 44.5246 78.3625 44.8418 78.426C45.4445 78.5846 45.6982 78.997 45.6348 79.5996C45.159 79.9486 45.6031 80.7733 46.1106 80.4244C47.0622 79.7265 46.745 78.648 45.9203 77.9502C45.5396 77.633 45.1273 77.4744 44.6197 77.4109C42.9703 77.1889 42.0186 77.8233 41.638 75.5077C41.4477 74.3657 41.86 71.9867 40.6864 71.2254C40.1471 70.8764 39.6713 71.035 39.1321 71.2571C38.2756 71.606 37.5777 71.8915 36.6896 71.3523C35.4842 70.6227 35.4524 69.1952 36.1186 68.1167C36.4358 67.6726 35.611 67.1968 35.2938 67.7044Z" fill="#EC615B"/>
<path d="M48.1096 71.4792C47.4752 72.5894 46.7139 74.2706 47.6972 75.4125C48.3316 76.1738 49.4102 76.0787 50.2349 76.5545C51.5354 77.2841 52.1381 78.8066 51.8844 80.2341C51.7892 80.8368 52.7091 81.0905 52.8043 80.4878C53.058 79.0604 52.7408 77.6647 51.7575 76.5862C51.3451 76.1104 50.8059 75.7615 50.2349 75.5077C49.5688 75.2222 48.4268 74.8733 48.2048 74.0485C48.0462 73.4458 48.6806 72.4308 48.9343 71.955C49.2198 71.4157 48.3951 70.9399 48.1096 71.4792Z" fill="#EC615B"/>
<path d="M226.666 171.653C225.587 169.433 227.618 166.832 230.028 167.688C232.534 168.576 232.439 172.002 230.06 172.954C229.489 173.176 229.743 174.096 230.314 173.874C233.391 172.637 233.803 168.228 230.599 166.895C227.3 165.5 224.382 169.084 225.873 172.161C226.127 172.7 226.951 172.193 226.666 171.653Z" fill="#EC615B"/>
<path d="M109.838 164.136C107.808 163.723 111.075 161.534 111.424 161.312C111.932 160.963 112.407 160.583 112.661 159.98C113.518 158.045 111.963 154.175 115.389 153.985C115.992 153.953 115.992 153.002 115.389 153.033C114.057 153.097 113.074 153.826 112.471 154.968C111.487 156.808 112.661 159.314 110.758 160.583C109.679 161.312 108.537 161.788 108.411 163.216C108.347 164.072 108.696 164.833 109.584 165.024C110.187 165.182 110.441 164.262 109.838 164.136Z" fill="#EC615B"/>
<path d="M115.928 161.376C115.04 160.139 115.548 158.394 117.038 157.918C118.054 157.601 118.815 157.759 119.386 156.713C119.957 155.634 119.862 154.365 120.496 153.255C121.289 151.828 122.621 150.844 124.144 150.369C124.715 150.178 124.493 149.258 123.89 149.449C122.463 149.893 121.226 150.686 120.306 151.859C119.83 152.462 119.418 153.16 119.164 153.921C118.815 154.936 118.973 156.3 117.831 156.84C117.134 157.188 116.436 156.998 115.77 157.506C115.326 157.823 115.008 158.299 114.818 158.775C114.374 159.821 114.469 160.932 115.135 161.851C115.452 162.359 116.277 161.883 115.928 161.376Z" fill="#EC615B"/>
<path d="M83.6687 15.492C83.0977 14.3501 85.5402 14.7625 85.6354 14.7942C85.9843 14.9211 86.3332 15.2065 86.6504 15.3969C87.158 15.6824 87.7289 15.9678 88.3316 15.9996C89.1247 16.0313 89.7908 15.6824 90.2983 15.1114C91.7575 13.335 91.2182 8.73551 94.6441 10.0995C95.6591 10.5119 96.8011 11.1146 97.9113 10.607C98.7995 10.1947 98.9898 9.30648 98.8629 8.4183C98.7995 7.97421 98.292 7.08603 98.4188 6.64194C98.6726 5.78548 99.4656 5.72204 100.068 6.00753C100.354 6.13441 100.608 6.32473 100.925 6.41989C101.876 6.76882 102.796 6.70538 103.367 5.8172C103.684 5.30967 102.86 4.83386 102.543 5.34139C101.908 6.35645 99.3705 4.26288 98.2285 4.8973C97.3086 5.37311 97.3403 6.32473 97.5624 7.21291C97.8161 8.2597 98.4506 9.78229 96.5156 9.75057C95.6591 9.75057 94.8661 9.021 94.0414 8.86239C93.058 8.67207 92.1698 8.92583 91.5354 9.68713C89.9494 11.5587 90.5521 16.4437 86.8725 14.4452C85.794 13.8743 84.9058 13.3033 83.7004 13.8425C82.7805 14.2549 82.3364 15.0479 82.8122 15.9678C83.1294 16.5071 83.9225 16.0313 83.6687 15.492Z" fill="#5222D0"/>
<path d="M121.447 41.376C120.02 41.0271 119.829 39.1873 120.527 38.1088C121.511 36.5862 123.826 36.6813 125.381 36.9668C127.982 37.4426 130.392 38.4577 133.025 37.4744C135.563 36.5227 137.466 34.4609 140.321 34.3975C143.303 34.334 146.126 35.6346 149.139 35.5394C154.405 35.3808 159.195 32.7797 164.238 31.5743C167.22 30.8447 170.139 30.7813 173.12 31.5426C175.975 32.2722 178.64 33.4458 181.495 34.1437C184.476 34.905 187.426 34.7781 190.44 34.5243C193.739 34.2706 197.133 34.0168 200.115 35.7297C200.051 35.5394 199.956 35.3808 199.893 35.1905C198.307 39.8534 193.168 41.7567 188.632 42.0104C182.954 42.3276 177.434 40.2658 171.725 40.4878C165.951 40.7099 161.066 44.2309 155.388 44.7701C149.583 45.3411 144.096 42.5814 138.323 42.74C132.454 42.8986 124.81 46.1024 120.178 40.8685C119.766 40.4244 119.1 41.0905 119.512 41.5346C123.16 45.6266 128.933 44.897 133.787 44.1674C137.371 43.6282 140.638 43.5965 144.223 44.2943C147.268 44.897 150.313 45.7218 153.422 45.7852C159.702 45.9438 165 41.8835 171.185 41.4712C177.434 41.0588 183.493 43.5647 189.742 42.8669C194.405 42.3594 199.258 40.1706 200.844 35.4125C200.908 35.2222 200.812 34.9684 200.622 34.8733C195.039 31.606 188.315 34.6829 182.319 33.3189C179.02 32.5576 175.943 31.0985 172.613 30.4006C169.726 29.7662 166.871 29.9248 164.016 30.6227C160.971 31.3523 158.085 32.5576 155.103 33.4776C151.677 34.5243 148.41 34.8415 144.857 34.112C142.034 33.5093 139.433 33.0335 136.768 34.3657C135.531 35.0001 134.389 35.8566 133.12 36.4276C130.963 37.3792 128.902 36.8082 126.713 36.269C124.397 35.7297 120.908 35.3491 119.607 37.9185C118.783 39.5362 119.354 41.8518 121.257 42.2959C121.796 42.4228 122.05 41.5029 121.447 41.376Z" fill="#E8E8E8"/>
<path d="M-10.6374 90.2578C-6.32338 89.6868 -2.2314 91.9073 2.0509 91.368C3.79554 91.146 5.4133 90.3847 7.03105 89.7185C7.79235 89.4013 8.58537 89.1159 9.41011 88.9255C10.9644 88.5766 12.3601 88.989 13.8827 89.3062C18.1333 90.2261 22.8914 89.211 27.142 88.6083C29.2356 88.3228 31.2974 88.0056 33.391 87.6567C35.7701 87.2443 38.1491 86.6099 40.5282 86.3561C43.0341 86.1024 45.9841 87.2126 44.9691 90.2895C44.1126 92.9223 40.9088 93.6836 38.498 93.874C34.3109 94.1912 30.1555 92.9858 25.9683 93.7788C22.0667 94.5084 18.5774 96.5385 14.8026 97.6487C12.7091 98.2831 10.6155 98.5369 8.45849 98.2514C6.30148 97.9342 4.27135 97.395 2.0509 97.5536C-2.45345 97.8391 -7.24328 100.472 -11.7476 99.4251C-14.5073 98.7907 -15.9348 96.253 -14.6025 93.6202C-13.3019 91.0825 -10.3202 90.4164 -7.71909 90.4164C-7.1164 90.4164 -7.1164 89.4648 -7.71909 89.4648C-11.367 89.4648 -15.681 91.0508 -16.0616 95.238C-16.4106 99.1079 -12.6041 100.694 -9.33685 100.567C-6.9578 100.472 -4.61046 99.774 -2.29485 99.2348C0.718624 98.5369 3.47833 98.2831 6.52352 98.8541C8.77569 99.2665 10.8693 99.4885 13.1532 99.0444C15.5005 98.6004 17.7209 97.6487 19.9097 96.7606C22.1301 95.8724 24.3823 94.9525 26.7614 94.6035C29.5528 94.1912 32.3442 94.6353 35.1356 94.7939C38.7835 95.0159 44.5884 94.8573 45.9207 90.5433C46.3965 88.989 46.0476 87.1809 44.6836 86.1658C43.3513 85.1825 41.5432 85.2459 39.9889 85.4362C34.2792 86.2293 28.6646 87.5298 22.8914 88.1642C19.6559 88.5132 16.5473 88.9255 13.3752 88.1642C10.8058 87.5298 8.77569 87.9739 6.36492 88.9572C5.09609 89.4648 3.85898 90.0358 2.52671 90.2895C0.877228 90.6067 -0.835691 90.3847 -2.48517 90.0992C-5.18143 89.5917 -7.81426 88.8938 -10.5422 89.2427C-11.2401 89.3696 -11.2401 90.3212 -10.6374 90.2578Z" fill="#E8E8E8"/>
<path d="M375.88 127.974C369.885 130.068 362.875 125.119 358.561 121.376C358.497 121.63 358.434 121.915 358.339 122.169C361.384 120.932 364.588 120.868 367.823 121.059C371.027 121.217 374.231 121.439 377.434 121.535C384.254 121.725 391.106 121.566 397.894 121.059C401.415 120.805 404.905 120.456 408.394 120.044C410.107 119.822 412.169 119.409 413.786 120.202C416.039 121.344 415.848 123.819 413.691 124.77C412.581 125.246 411.376 125.405 410.202 125.627C408.362 125.944 406.522 126.293 404.683 126.61C401.32 127.213 397.958 127.815 394.564 128.418C392.629 128.767 390.694 129.116 388.759 129.465C386.951 129.782 385.079 130.258 383.208 130.29C380.036 130.321 377.657 127.53 374.484 127.879C373.882 127.942 373.882 128.894 374.484 128.83C376.293 128.608 377.72 129.592 379.274 130.321C380.543 130.924 381.78 131.241 383.176 131.241C386.824 131.209 390.599 130.099 394.183 129.433C398.053 128.735 401.955 128.037 405.825 127.34C407.664 127.022 409.504 126.673 411.344 126.356C412.581 126.134 413.882 125.849 414.96 125.119C416.768 123.882 416.832 121.598 415.309 120.107C412.93 117.76 408.838 118.997 405.951 119.314C398.148 120.171 390.281 120.615 382.415 120.583C378.101 120.583 373.787 120.424 369.473 120.139C365.634 119.917 361.733 119.727 358.117 121.186C357.831 121.313 357.609 121.725 357.895 121.979C362.462 125.944 369.758 131.051 376.134 128.83C376.705 128.704 376.483 127.784 375.88 127.974Z" fill="#E8E8E8"/>
<path d="M230.408 295.554C230.123 293.746 232.692 294.032 233.707 294.381C234.5 294.635 235.261 294.952 236.086 295.047C238.053 295.301 239.988 294.635 241.827 294.032C243.604 293.429 245.475 292.763 247.379 292.953C249.662 293.175 251.502 295.047 251.153 297.458C250.773 299.964 248.203 301.137 245.919 300.439C244.365 299.964 243.001 298.98 241.383 298.726C237.958 298.219 234.373 301.201 231.074 299.615C230.535 299.361 230.027 300.154 230.598 300.439C232.565 301.391 234.532 300.947 236.53 300.376C237.799 300.027 239.131 299.583 240.463 299.615C242.018 299.646 243.287 300.408 244.651 300.979C246.586 301.803 248.616 301.962 250.329 300.566C251.788 299.393 252.422 297.521 251.978 295.713C250.646 290.479 244.619 292.097 241.003 293.302C239.29 293.873 237.482 294.412 235.642 294.032C234.468 293.778 233.358 293.048 232.089 293.08C230.567 293.112 229.203 294.222 229.456 295.808C229.583 296.411 230.503 296.157 230.408 295.554Z" fill="#E8E8E8"/>
<path d="M193.834 284.991C195.357 283.564 197.45 282.961 199.512 283.405C200.369 283.596 202.748 284.23 201.257 285.372C200.464 285.975 198.719 285.911 197.767 285.911C197.165 285.911 197.165 286.863 197.767 286.863C199.163 286.863 201.606 286.8 202.652 285.689C203.541 284.738 202.526 283.691 201.669 283.215C198.941 281.629 195.42 282.232 193.168 284.325C192.724 284.738 193.39 285.404 193.834 284.991Z" fill="#E8E8E8"/>
<path d="M176.198 306.022C175.944 305.927 175.722 305.832 175.468 305.737C175.437 305.991 175.405 306.244 175.373 306.498C177.308 305.102 179.497 306.117 181.559 306.593C183.303 307.006 184.826 306.815 186.539 306.403C188.664 305.895 190.821 305.578 193.01 305.451C194.025 305.388 195.04 305.356 196.055 305.324C197.007 305.293 199.386 304.817 198.561 306.435C197.578 308.37 194.723 308.433 192.978 307.862C191.487 307.386 190.092 306.688 188.506 307.069C186.856 307.45 185.46 308.497 183.747 308.845C181.464 309.321 179.211 309.099 177.023 308.306C176.452 308.116 176.198 309.004 176.769 309.226C178.926 309.987 181.178 310.241 183.462 309.861C186.031 309.416 188.315 307.418 190.98 308.148C192.883 308.687 194.437 309.543 196.468 308.941C197.768 308.56 199.608 307.418 199.862 305.959C200.179 304.246 198.054 304.309 196.943 304.341C194.374 304.405 191.773 304.531 189.203 304.912C187.808 305.134 186.475 305.515 185.111 305.769C183.43 306.086 182.066 305.769 180.449 305.324C178.545 304.785 176.579 304.468 174.866 305.673C174.612 305.864 174.548 306.181 174.771 306.435C175.246 306.974 175.754 307.101 176.42 306.974C177.054 306.847 176.801 305.927 176.198 306.022Z" fill="#E8E8E8"/>
<path d="M307.204 287.846C309.044 287.085 310.979 286.673 312.978 286.704C315.039 286.736 316.784 287.529 318.751 287.973C321.637 288.671 323.794 286.895 326.142 285.531C329.853 283.342 333.533 284.769 337.403 285.563C340.162 286.133 343.112 286.229 345.491 284.547C345.999 284.199 345.523 283.374 345.016 283.723C342.034 285.88 338.354 284.833 335.087 284.04C332.01 283.31 328.965 282.898 326.078 284.484C324.809 285.182 323.636 286.102 322.304 286.704C320.273 287.624 318.624 286.895 316.657 286.324C313.453 285.404 310.059 285.658 306.982 286.926C306.38 287.149 306.633 288.068 307.204 287.846Z" fill="#E8E8E8"/>
<path d="M86.6502 131.653C89.4734 130.575 94.4218 136.38 96.8643 140.186C100.607 145.928 101.21 150.94 103.05 162.549C103.748 167.054 104.89 174.191 106.444 183.2C109.235 185.928 110.282 188.592 110.695 190.242C111.266 192.367 111.424 195.095 110.695 195.349C109.902 195.634 108.506 192.97 107.935 193.223C107.174 193.572 109.648 197.855 108.157 199.821C106.634 201.82 100.925 201.502 97.9428 198.552C95.1514 195.793 96.2616 192.272 95.8175 183.866C95.6589 181.011 95.2148 173.239 92.8358 165.563C89.9175 156.205 86.8723 155.729 85.1594 147.45C83.954 141.614 83.605 132.827 86.6502 131.653Z" fill="white" stroke="#161616" stroke-width="2"/>
<path opacity="0.15" d="M90.8377 139.837C92.5824 139.457 95.6276 147.355 95.8179 147.799C98.6093 155.095 97.277 158.204 98.5141 168.957C99.5292 177.712 100.1 182.692 102.923 188.846C105.651 194.746 108.823 198.203 107.618 199.79C106.413 201.407 101.686 199.853 97.9749 198.362C97.626 197.569 97.1184 196.332 96.7061 194.809C95.6593 191.098 95.7227 188.148 95.7227 186.721C95.7227 185.928 95.691 176.729 93.8829 168.703C92.8996 164.421 92.4555 165.055 91.3135 160.614C88.8076 150.971 88.9028 140.25 90.8377 139.837Z" fill="#6D6C6C"/>
<path opacity="0.17" d="M95.1192 155.19C95.4681 158.489 95.9122 163.406 96.1025 169.401C96.388 178.632 95.9439 186.308 95.6902 186.308C95.4681 186.308 95.7536 180.789 94.5482 173.239C93.7552 168.227 92.5815 164.167 91.6934 161.471C92.2961 160.868 93.0256 160.043 93.6918 158.902C94.5165 157.442 94.9289 156.11 95.1192 155.19Z" fill="#6D6C6C"/>
<path d="M92.9305 267.703C92.1058 269.226 91.9789 270.875 93.8822 285.245C94.1042 287.021 94.3263 288.481 94.4531 289.496C99.3064 290.257 106.158 290.86 114.279 290.067C119.195 289.591 124.937 289.051 125.254 287.18C125.508 285.657 122.177 282.929 106.951 277.727C106.253 272.652 105.524 267.577 104.826 262.501C95.9123 263.104 93.5967 266.53 92.9305 267.703Z" fill="#161616"/>
<path d="M73.8029 177.268C76.7847 181.328 81.0352 187.165 86.0154 194.302C97.8155 211.177 103.716 219.615 105.777 225.261C111.868 241.978 110.282 258.219 109.679 263.738C109.33 266.911 108.886 269.512 108.537 271.288C106.126 272.208 102.669 273.223 98.4499 273.572C94.6752 273.889 91.4397 273.54 89.0606 273.128C88.331 268.814 87.7283 263.961 87.4428 258.695C87.0305 250.86 87.4111 243.85 88.1407 237.854C79.9885 231.605 74.7228 225.166 71.519 220.693C62.9544 208.608 60.6705 198.14 59.3065 191.415C57.3716 182.089 58.7038 179.552 59.941 178.219C64.0647 173.937 73.0099 177.014 73.8029 177.268Z" fill="white" stroke="#161616" stroke-width="2"/>
<path opacity="0.19" d="M74.7225 204.04C77.9897 206.8 82.2403 210.892 86.364 216.506C87.5059 218.092 92.2323 224.849 96.3877 235.697C102.097 250.733 102.573 264.754 102.32 272.684C100.924 273.191 98.9571 273.731 96.6098 273.921C93.4694 274.143 90.9001 273.604 89.2506 273.096C88.2355 266.911 87.4742 259.773 87.4108 251.843C87.379 246.704 87.6011 241.915 88.0135 237.537C87.2204 237.093 71.8993 228.465 72.0896 214.032C72.1214 210.004 73.3902 206.578 74.7225 204.04Z" fill="#6D6C6C"/>
<path opacity="0.15" d="M78.8151 228.338C79.513 227.386 88.2362 230.051 91.6937 236.522C94.2948 241.375 92.2013 245.118 92.2964 252.033C92.3599 257.204 93.6921 264.563 99.4336 273.477C96.1029 273.413 92.7722 273.35 89.4098 273.286C88.4899 267.386 87.7604 260.661 87.57 253.271C87.4114 247.434 87.6018 242.041 87.9824 237.125C86.7453 236.49 85.1593 235.507 83.4781 234.048C81.6065 232.398 78.3076 229.036 78.8151 228.338Z" fill="#6D6C6C"/>
<path d="M36.8804 265.198C34.4696 266.752 34.0572 268.909 31.8685 273.667C30.3459 276.966 28.062 281.375 24.541 286.387C26.5394 288.639 29.8701 291.78 34.7551 294.095C41.4482 297.267 50.8375 298.79 52.2967 296.03C53.851 293.048 45.6988 285.975 43.2563 283.881C43.9224 282.39 45.0009 280.011 46.3332 277.125C49.8542 269.575 50.552 268.465 49.9811 267.101C48.6488 263.865 41.2578 262.406 36.8804 265.198Z" fill="#161616"/>
<path d="M47.0631 170.099C45.1599 175.333 43.2249 180.567 41.3216 185.769C38.1813 194.841 39.5453 201.122 40.5603 204.135C41.6706 207.466 43.6055 210.321 47.4437 215.999C50.4255 220.376 53.1218 223.897 55.0884 226.34C51.1551 230.432 46.6824 235.729 42.4636 242.39C36.7856 251.399 33.4232 259.869 31.3613 266.498C33.2329 267.926 36.056 269.734 39.7673 271.098C43.9227 272.62 47.6024 272.969 50.1083 273.001C54.5175 269.607 60.5444 264.309 66.159 256.538C70.5682 250.479 76.5 242.327 78.4032 230.908C81.6387 211.463 71.0757 195.634 67.3009 189.988C60.481 179.742 52.297 173.525 47.0631 170.099Z" fill="white" stroke="#161616" stroke-width="2"/>
<path d="M60.4168 181.518C62.8593 184.912 65.2701 188.338 67.5857 191.796C67.8712 191.637 68.1249 191.479 68.4104 191.32C66.3486 188.56 64.5088 185.61 62.9227 182.533C62.7007 182.755 62.4786 182.977 62.2566 183.199C63.5572 184.088 64.2867 185.42 65.0797 186.72C65.9997 188.243 66.9513 189.766 67.8712 191.288C69.6793 194.238 71.4873 197.22 73.2954 200.17C73.5809 200.011 73.8347 199.853 74.1202 199.694C71.3605 195.38 68.6008 191.066 65.8093 186.752C65.4921 186.245 64.6674 186.72 64.9846 187.228C68.4104 192.938 71.868 198.616 75.2938 204.325C75.611 204.865 76.4358 204.389 76.1186 203.85C73.6126 199.599 71.1384 195.317 68.6325 191.066C68.3787 191.256 68.1249 191.447 67.8712 191.637C71.4556 195.602 72.09 201.375 75.9917 205.087C76.4358 205.499 77.1019 204.833 76.6578 204.421C72.7562 200.741 72.1218 194.936 68.5373 190.971C68.1567 190.559 67.5222 191.098 67.776 191.542C70.282 195.793 72.7562 200.075 75.2621 204.325C75.5476 204.167 75.8014 204.008 76.0868 203.85C72.661 198.14 69.2034 192.462 65.7776 186.752C65.4921 186.911 65.2384 187.069 64.9529 187.228C67.7126 191.542 70.4723 195.856 73.2637 200.17C73.5809 200.678 74.4057 200.202 74.0884 199.694C72.0583 196.364 70.0282 193.033 67.9981 189.734C66.5072 187.26 65.1432 184.056 62.669 182.375C62.2566 182.089 61.8125 182.628 62.0028 183.041C63.5889 186.118 65.397 189.036 67.4905 191.827C67.8395 192.303 68.6642 191.859 68.3153 191.352C65.9997 187.862 63.6206 184.437 61.1464 181.074C60.8926 180.535 60.0679 181.011 60.4168 181.518Z" fill="white"/>
<path opacity="0.2" d="M62.4155 182.914C60.766 185.293 58.4821 189.227 57.4988 194.397C54.4853 210.067 67.1736 217.014 64.3505 230.749C62.8596 237.981 59.0848 237.315 50.6471 252.351C46.3648 259.996 43.6368 266.72 42.0191 271.288C39.9572 270.654 37.705 269.829 35.326 268.751C33.9303 268.116 32.6297 267.482 31.4561 266.816C33.3276 260.979 36.1507 253.937 40.4013 246.387C45.2229 237.855 50.5202 231.193 54.9928 226.276C53.7557 224.69 51.9159 222.28 49.7906 219.266C43.9223 210.955 40.9406 206.705 39.9572 201.82C38.847 196.427 39.7669 191.828 40.4013 188.719C41.3529 184.024 42.9707 180.345 44.2712 177.839C50.2982 179.52 56.3568 181.233 62.4155 182.914Z" fill="#6D6C6C"/>
<path opacity="0.17" d="M54.9612 180.979C51.3768 185.071 46.6821 191.796 47.0627 199.916C47.6337 212.636 60.1951 217.49 58.387 227.926C57.8795 230.812 53.8827 235.444 45.8574 244.611C41.4482 249.654 37.7051 253.683 35.1357 256.379C37.1024 251.558 39.9573 245.784 44.081 239.694C47.7289 234.302 51.4719 229.988 54.8026 226.593C53.8193 225.103 52.0746 222.438 49.8859 219.139C42.2412 207.656 40.7503 205.848 39.8939 201.851C38.8788 197.157 39.5449 193.191 40.0525 190.241C40.9724 184.754 42.9073 180.535 44.3665 177.87C47.8875 178.885 51.4402 179.932 54.9612 180.979Z" fill="#6D6C6C"/>
<path d="M71.3605 125.785C66.8561 128.45 58.2915 134.318 51.7571 145.103C43.4462 158.838 43.4462 172.256 43.7317 177.458C45.286 177.966 46.8721 178.473 48.4898 178.949C59.3066 182.185 69.7744 184.373 79.6713 185.769C80.4961 182.946 81.3842 180.091 82.3359 177.141C83.7633 172.795 85.2542 168.64 86.7768 164.675C92.0424 161.947 93.8822 158.426 94.4849 156.967C96.9274 151.257 94.6118 145.293 92.1059 138.854C90.7101 135.238 89.9806 133.398 88.2359 131.431C82.7799 125.246 73.7713 125.627 71.3605 125.785Z" fill="#EC615B"/>
<path opacity="0.27" d="M82.0509 133.303C73.3911 134.445 68.7599 138.378 66.8884 140.218C56.3254 150.654 59.9733 168.259 60.9566 173.017C61.8448 177.3 63.1771 180.726 64.2238 183.041C57.5308 181.233 50.8694 179.393 44.1763 177.585C43.764 172.732 43.3516 160.266 50.5522 146.975C57.2453 134.667 66.8567 128.355 71.139 125.88C71.7417 125.912 72.3443 125.976 72.947 126.007C73.8669 127.086 74.9772 128.228 76.3412 129.401C78.3713 131.178 80.3697 132.415 82.0509 133.303Z" fill="#6D6C6C"/>
<path opacity="0.2" d="M54.2951 141.265C53.407 145.928 52.6774 152.684 53.629 160.678C54.771 170.067 57.7844 177.331 60.1318 181.899C54.6758 180.503 49.1881 179.108 43.7321 177.744C43.4784 173.366 43.6053 166.8 45.6988 159.251C47.9827 151.003 51.6623 144.976 54.2951 141.265Z" fill="#6D6C6C"/>
<path d="M322.462 246.07C320.464 250.543 320.844 254.73 321.161 256.697C327.41 259.456 332.962 260.725 337.212 261.36C338.608 261.582 355.864 264.024 357.545 259.298C357.958 258.124 357.291 256.919 356.625 255.745C352.914 249.242 343.525 248.862 342.256 248.83C341.907 242.073 337.561 237.062 333.12 236.713C326.839 236.237 322.906 245.087 322.462 246.07Z" fill="#161616"/>
<path d="M330.71 136.951C334.833 142.882 340.385 152.113 344.413 164.357C350.979 184.31 349.901 201.058 349.171 210.543C348.537 218.981 346.824 230.971 342.034 244.801C340.733 245.626 334.992 249.052 327.728 247.497C323.414 246.578 320.496 244.294 319.1 243.025C321.669 237.379 324.778 228.877 325.952 218.283C327.252 206.736 325.666 197.696 323.573 186.086C318.814 159.853 312.248 149.893 317.926 142.565C320.654 139.013 325.317 137.426 330.71 136.951Z" fill="white" stroke="#161616" stroke-width="2"/>
<path opacity="0.16" d="M332.961 151.447C335.118 161.947 336.831 174.001 337.497 187.387C338.639 211.146 336.07 231.637 332.739 247.593C331.312 247.783 327.854 248.005 324.175 246.165C321.986 245.055 320.495 243.596 319.639 242.581C323.604 233.445 325.031 225.674 325.602 220.44C326.49 212.224 325.761 205.626 324.397 193.319C323.604 186.118 322.684 180.218 322.018 176.189C325.666 167.974 329.313 159.695 332.961 151.447Z" fill="#6D6C6C"/>
<path opacity="0.22" d="M326.015 167.244C328.743 174.35 332.835 187.894 331.439 205.119C330.107 221.709 324.27 234.048 320.559 240.583C326.776 222.629 327.093 211.621 326.141 204.802C325.888 203.057 324.809 196.142 323.572 185.959C323.065 181.741 322.684 178.283 322.462 176.063C323.667 173.112 324.841 170.162 326.015 167.244Z" fill="#6D6C6C"/>
<path d="M276.562 232.335C273.929 233.636 273.136 235.761 269.52 242.644C267.109 247.212 265.079 250.86 263.747 253.207C267.807 256.126 274.247 259.964 282.843 261.994C287.918 263.199 298.481 264.881 299.687 261.994C301.019 258.79 290.17 251.399 285.603 248.418C290.297 243.85 290.519 237.22 287.347 233.826C284.651 230.939 279.766 230.749 276.562 232.335Z" fill="#161616"/>
<path d="M322.557 136.285C333.025 145.515 320.781 176.284 310.725 200.9C306.379 211.526 299.591 226.911 289.599 244.896C287.854 245.15 282.62 245.658 277.038 242.644C271.423 239.631 268.981 234.904 268.251 233.35C271.169 228.306 274.69 221.518 278.053 213.239C279.385 209.972 285.126 195.38 288.362 174.762C289.631 166.61 290.773 155.856 290.614 143.073C292.486 141.169 302.922 130.924 315.261 133.271C317.133 133.62 320.21 134.223 322.557 136.285Z" fill="white" stroke="#161616" stroke-width="2"/>
<path d="M325.952 148.973C325.92 150.083 325.888 151.193 325.888 152.303C326.206 152.303 326.523 152.303 326.84 152.303C326.681 150.527 326.777 148.846 327.125 147.101C326.808 147.07 326.491 147.006 326.206 146.974C326.396 150.717 325.539 154.651 324.873 158.33C324.207 162.042 323.319 165.721 322.272 169.338C322.589 169.433 322.875 169.496 323.192 169.591C324.937 162.993 326.396 156.364 327.601 149.639C327.696 149.036 326.777 148.782 326.681 149.385C325.476 156.078 324.017 162.74 322.272 169.338C322.114 169.94 323.034 170.194 323.192 169.591C324.302 165.785 325.191 161.883 325.888 157.982C326.523 154.429 327.348 150.591 327.157 146.974C327.125 146.467 326.332 146.308 326.237 146.848C325.857 148.656 325.761 150.464 325.92 152.303C325.984 152.906 326.872 152.938 326.872 152.303C326.903 151.193 326.935 150.083 326.935 148.973C326.935 148.37 325.984 148.37 325.952 148.973Z" fill="white"/>
<path d="M321.923 167.339C321.954 169.782 322.018 172.224 322.05 174.667C322.05 175.269 323.001 175.269 323.001 174.667C322.969 172.224 322.906 169.782 322.874 167.339C322.843 166.705 321.891 166.705 321.923 167.339Z" fill="white"/>
<path opacity="0.19" d="M308.727 146.15C308.822 152.526 308.473 161.217 306.602 171.304C304.604 181.994 301.558 190.273 297.117 202.739C293.501 212.954 291.757 215.999 288.077 227.323C285.825 234.206 284.239 239.98 283.224 243.85C281.479 243.628 277.863 242.898 274.247 240.202C270.884 237.696 269.171 234.714 268.41 233.16C274.247 222.914 277.958 213.937 280.305 207.402C287.569 187.196 289.282 169.623 290.266 158.806C290.678 154.302 290.9 150.559 290.995 148.116C296.895 147.45 302.827 146.816 308.727 146.15Z" fill="#6D6C6C"/>
<path opacity="0.24" d="M305.46 147.07C302.986 157.95 300.131 166.514 297.879 172.51C296.039 177.458 293.216 184.119 287.601 197.41C285.54 202.327 284.493 204.77 283.985 205.88C280.877 212.858 275.896 222.66 267.935 234.206C275.072 221.391 283.256 203.12 287.601 180.091C289.79 168.481 290.583 157.886 290.678 148.719C290.647 148.687 290.647 148.687 305.46 147.07Z" fill="#6D6C6C"/>
<path d="M315.484 69.0683C315.991 70.3054 316.879 72.1135 318.497 73.9533C319.671 75.2856 321.162 76.9985 323.382 77.6646C327.696 78.9969 331.883 75.5711 332.454 75.0953C336.641 77.5695 340.829 80.0437 344.984 82.5179C345.365 87.6884 345.396 95.4917 343.366 104.596C341.431 113.255 339.56 114.302 338.037 122.708C335.722 135.333 337.434 146.594 336.863 146.626C336.768 146.626 336.641 146.372 336.388 145.008C320.051 146.245 303.715 147.482 287.379 148.719C286.903 138.917 286.967 130.67 287.157 124.58C287.411 115.063 288.172 103.549 291.344 90.1943C293.596 80.6464 295.373 77.4109 298.069 74.8732C303.906 69.3221 311.899 68.9731 315.484 69.0683Z" fill="#5222D0"/>
<path opacity="0.3" d="M334.39 76.2373C333.85 82.0422 332.835 90.6702 330.9 101.011C330.329 104.12 328.712 112.684 327.411 116.872C325.825 122.01 319.64 136.697 289.378 148.624C298.609 147.546 308.125 146.594 317.863 145.801C323.954 145.293 329.98 144.849 335.912 144.5C338.006 137.046 339.941 128.608 341.337 119.282C343.462 105.167 343.874 92.4149 343.525 81.6616C340.48 79.8535 337.435 78.0454 334.39 76.2373Z" fill="#32198E"/>
<path d="M321.32 49.9727C320.21 55.6507 319.703 61.9314 315.103 68.8783C314.469 69.8299 313.929 70.5595 313.549 71.0353C313.929 71.7966 317.958 79.5999 326.523 80.7735C331.408 81.4397 335.246 79.5681 336.705 78.7751C336.483 76.8719 336.356 74.588 336.546 72.0186C336.8 68.2438 337.593 65.1035 338.386 62.7244C342.066 62.2486 345.714 61.7728 349.393 61.297C350.123 59.6792 350.821 58.0615 351.55 56.412C352.565 56.3803 353.549 56.3486 354.564 56.3168C353.802 54.0964 352.661 50.5754 351.328 46.2296C348.854 38.0457 348.886 36.872 347.553 35.0322C343.874 29.9886 335.626 26.7848 330.202 29.4811C324.968 32.0505 323.382 39.378 321.32 49.9727Z" fill="white" stroke="#161616" stroke-width="2"/>
<path d="M354.405 55.8727C352.597 55.9044 350.821 55.7775 349.045 55.5237C348.442 55.4286 348.188 56.3485 348.791 56.4436C350.662 56.7291 352.502 56.856 354.405 56.8243C355.04 56.8243 355.04 55.8727 354.405 55.8727Z" fill="#161616"/>
<path d="M355.674 41.3127C354.056 40.4246 352.121 40.9321 351.075 42.423C350.726 42.9305 351.55 43.4063 351.899 42.8988C352.629 41.852 354.088 41.5348 355.198 42.1375C355.737 42.423 356.213 41.5982 355.674 41.3127Z" fill="#161616"/>
<path d="M354.849 47.0225C355.008 46.2929 354.976 45.5633 354.627 44.8972C354.373 44.4214 353.834 43.8504 353.231 44.1042C352.597 44.3579 352.629 45.2461 352.756 45.7854C352.883 46.4515 353.231 47.0542 353.739 47.4983C354.024 47.7521 354.564 47.5935 354.564 47.1494C354.564 46.3564 354.373 45.6585 354.024 44.9289C353.771 44.3897 352.946 44.8655 353.2 45.4047C353.454 45.944 353.58 46.515 353.612 47.1177C353.898 46.9908 354.151 46.8956 354.437 46.7687C353.898 46.3246 353.707 45.7537 353.676 45.0875C353.707 45.0241 353.676 44.9606 353.58 44.9606C353.644 44.9924 353.707 45.0558 353.739 45.1192C353.834 45.2461 353.929 45.4365 353.961 45.5951C354.088 45.9757 354.088 46.3246 353.993 46.7053C353.771 47.3714 354.691 47.6252 354.849 47.0225Z" fill="#161616"/>
<path d="M346.475 42.5817C344.635 41.979 342.7 42.7403 341.621 44.3263C341.272 44.8339 342.097 45.3097 342.446 44.8021C343.271 43.565 344.793 43.0575 346.221 43.5016C346.792 43.6602 347.046 42.772 346.475 42.5817Z" fill="#161616"/>
<path d="M346.983 47.8791C347.046 47.0226 346.697 45.6904 345.809 45.3414C344.635 44.8656 344.635 46.5151 344.762 47.213C344.921 47.9108 345.492 49.2114 346.443 48.6721C346.824 48.4501 346.887 48.0377 346.76 47.657C346.538 47.0544 346.189 46.5151 345.936 45.9441C345.682 46.1345 345.428 46.3248 345.174 46.5151C345.301 46.642 345.396 46.7689 345.428 46.9592C345.587 47.5619 346.507 47.3081 346.348 46.7054C346.253 46.3565 346.094 46.1027 345.841 45.849C345.428 45.4683 344.857 45.9441 345.079 46.4199C345.206 46.642 345.301 46.864 345.428 47.1178C345.523 47.3081 345.619 47.657 345.777 47.8156C345.841 48.0377 345.904 48.0377 345.999 47.8156C345.967 47.7522 345.904 47.657 345.872 47.5936C345.777 47.4033 345.714 47.213 345.682 46.9909C345.65 46.8006 345.682 46.5468 345.619 46.3565C345.65 46.2296 345.619 46.1979 345.587 46.3565C345.65 46.4517 345.745 46.5468 345.777 46.642C345.999 47.0226 346.063 47.4667 346.031 47.9108C345.967 48.4818 346.919 48.4818 346.983 47.8791Z" fill="#161616"/>
<path d="M348.823 37.0622C348.569 35.381 347.903 32.653 346.126 29.8299C345.492 28.8466 344.128 26.7213 341.971 25.2938C337.847 22.5658 331.503 22.7879 326.872 26.1186C322.368 29.3858 320.115 35.2541 321.099 41.059C330.361 39.7268 339.592 38.3945 348.823 37.0622Z" fill="#EC615B"/>
<path d="M363.985 34.0172C349.742 35.8253 335.531 37.6333 321.289 39.4414C319.481 39.6635 319.481 42.5183 321.289 42.2963C335.531 40.4882 349.742 38.6801 363.985 36.8721C365.761 36.65 365.793 33.7951 363.985 34.0172Z" fill="#161616"/>
<path d="M330.329 40.6784C332.835 41.5983 334.294 43.3429 336.007 45.4365C339.592 49.814 338.513 51.4317 341.051 54.1597C345.048 58.5054 349.108 55.9361 352.692 60.1866C355.738 63.8028 355.325 68.6878 355.198 69.7663C355.071 70.8448 354.532 75.1906 351.011 78.1723C347.966 80.7417 343.811 81.3444 343.557 80.7734C343.462 80.5514 343.811 80.0438 346.063 78.5212C345.397 78.997 344.382 79.568 343.018 79.8218C341.463 80.1073 340.004 79.8218 339.972 79.5997C339.972 79.4411 340.797 79.4411 341.432 78.7433C341.812 78.3309 341.971 77.8551 342.066 77.4427C340.829 78.2675 339.243 78.9653 337.752 78.5212C333.692 77.2841 332.962 68.1803 332.708 65.1668C331.947 55.3968 334.738 50.0677 331.344 46.6419C331.059 46.3564 329.695 44.9607 328.204 45.2462C326.301 45.5951 324.842 48.5768 325.476 50.5435C326.015 52.2247 327.918 52.7005 327.792 53.0178C327.601 53.4301 324.397 52.7957 321.701 50.6387C320.718 49.8457 319.925 49.2113 319.512 48.0376C318.783 46.0075 319.639 43.6919 320.781 42.3279C323.16 39.473 327.601 39.6633 330.329 40.6784Z" fill="#161616" stroke="#161616" stroke-width="2"/>
<path opacity="0.22" d="M326.554 53.2715C327.157 53.3349 328.014 53.3667 328.077 53.1446C328.109 53.0494 327.887 52.8908 327.887 52.8908C327.887 52.8908 328.616 53.8107 329.504 53.9376C329.949 54.0011 330.297 53.8425 330.551 53.7156C328.933 57.1097 327.284 61.2334 325.92 65.9915C324.493 70.9082 323.7 75.4126 323.287 79.2508C321.891 78.8067 319.354 77.7916 317.006 75.5077C315.294 73.8583 314.31 72.1136 313.739 70.9399C315.643 68.0851 316.753 65.5791 317.419 63.8662C318.022 62.2802 318.244 61.2334 319.322 57.6172C320.21 54.6989 320.908 52.2882 321.384 50.6387C321.638 50.8607 322.018 51.2096 322.526 51.5586C323.255 52.0661 324.683 53.0494 326.554 53.2715Z" fill="#6D6C6C"/>
<path d="M336.8 23.581C333.089 24.3105 330.329 27.2923 329.917 30.8133C329.409 35.0004 332.486 37.8553 332.772 38.1091C328.838 38.5849 324.905 39.0924 320.972 39.5682C320.908 38.6483 320.876 37.3795 321.098 35.9203C321.86 31.2257 324.588 28.3391 325.159 27.7364C326.079 26.7847 329.314 23.7078 334.104 23.4223C335.214 23.3589 336.134 23.4858 336.8 23.581Z" fill="#B74949"/>
<path d="M344.032 82.2006C346.57 81.82 349.171 86.2292 350.376 88.2593C357.355 100.123 354.437 113.826 353.548 117.823C352.851 120.963 351.55 126.515 347.49 132.637C343.62 138.537 339.052 142.185 336.134 144.183C331.249 146.055 322.367 148.624 311.677 146.879C307.966 146.277 304.73 145.261 302.034 144.183C297.466 144.468 292.898 144.722 288.331 145.008C287.601 144.881 286.586 144.691 285.381 144.246C283.921 143.707 282.526 143.168 282.526 142.66C282.526 142.089 284.112 141.201 291.852 139.996C291.471 140.059 286.396 141.043 283.001 137.49C279.829 134.191 279.639 128.545 282.05 126.324C284.08 124.453 287.379 125.277 293.406 126.895C299.369 128.481 304.159 130.638 307.649 132.478C308.981 133.081 319.353 137.553 328.838 132.097C336.07 127.942 338.481 120.488 339.052 118.426C341.336 110.242 337.181 107.355 338.671 95.5234C338.862 93.4932 340.226 82.7399 344.032 82.2006Z" fill="white" stroke="#161616" stroke-width="2"/>
<path d="M280.845 133.398C284.524 133.683 288.045 134.572 291.408 136.094C291.947 136.348 292.454 135.523 291.883 135.269C288.362 133.652 284.683 132.7 280.845 132.415C280.242 132.415 280.242 133.366 280.845 133.398Z" fill="#161616"/>
<path d="M280.622 129.528C284.841 129.401 288.425 131.97 292.359 133.176C292.93 133.366 293.184 132.446 292.613 132.256C288.616 131.019 284.968 128.449 280.622 128.576C280.02 128.608 279.988 129.56 280.622 129.528Z" fill="#161616"/>
<path d="M284.683 126.166C288.14 126.451 291.186 128.101 294.167 129.782C294.707 130.067 295.182 129.274 294.643 128.957C291.503 127.212 288.331 125.531 284.683 125.214C284.048 125.151 284.048 126.102 284.683 126.166Z" fill="#161616"/>
<path opacity="0.18" d="M340.162 88.0373C338.291 95.5552 343.271 100.63 344.952 109.227C345.238 110.749 347.49 123.089 340.892 131.844C333.533 141.614 318.941 141.963 316.086 142.058C308.632 142.248 305.809 140.059 294.136 140.662C293.025 140.726 282.875 141.296 282.78 142.724C282.748 143.485 285.571 144.342 287.696 144.627C290.488 145.008 291.947 144.373 295.5 144.088C297.022 143.961 299.211 143.866 301.907 144.088C305.143 145.42 309.33 146.721 314.342 147.228C315.706 147.355 319.956 147.736 325.412 146.943C325.412 146.943 329.98 146.308 333.596 145.04C342.573 141.931 351.455 128.83 353.961 114.556C356.784 98.4735 350.503 86.3561 346.982 83.6599C346.507 83.2792 345.143 82.2324 343.715 82.5814C341.4 83.0889 340.448 86.8637 340.162 88.0373Z" fill="#6D6C6C"/>
<path opacity="0.17" d="M353.549 97.5852C353.041 97.5852 353.041 103.644 351.645 111.257C350.789 115.888 349.044 125.309 344.825 131.875C337.308 143.58 321.955 146.213 316.118 146.911C321.13 147.609 328.838 147.767 336.356 143.771C352.66 135.079 354.246 114.112 354.532 110.305C354.976 103.898 354.056 97.5852 353.549 97.5852Z" fill="#6D6C6C"/>
<path d="M79.6396 217.617C92.772 205.943 105.968 194.334 119.227 182.819C144.223 161.09 169.441 139.647 194.913 118.458C192.914 112.526 190.345 102.248 191.868 89.7503C192.343 85.7852 196.404 56.5704 223.176 41.4714C225.396 40.2025 256.134 23.5809 284.936 41.9154C303.937 54.0011 313.77 76.047 311.455 97.5854C308.029 129.592 279.607 143.771 277.958 144.564C257.466 154.334 232.819 151.447 214.453 137.173C186.856 159.885 159.322 182.629 131.82 205.436C119.766 215.428 107.744 225.42 95.7221 235.444C93.2161 234.238 89.0607 231.828 85.3177 227.418C82.1773 223.739 80.5278 220.059 79.6396 217.617Z" fill="#161616"/>
<ellipse cx="252.295" cy="92.2563" rx="50.3091" ry="48.2155" fill="white" stroke="#161616" stroke-width="2"/>
<path d="M256.387 46.7052C247.188 66.1818 237.514 85.468 227.395 104.5C224.54 109.861 221.653 115.222 218.735 120.551C218.449 121.09 219.274 121.566 219.56 121.027C229.932 102.121 239.861 82.9938 249.314 63.6124C251.978 58.1564 254.611 52.6687 257.244 47.1493C257.498 46.6418 256.673 46.166 256.387 46.7052Z" fill="#E8E8E8"/>
<path d="M271.899 51.4318C261.812 67.3556 252.232 83.5649 243.129 100.06C242.843 100.599 243.668 101.075 243.953 100.536C253.057 84.0408 262.637 67.8314 272.724 51.9076C273.041 51.4001 272.216 50.9243 271.899 51.4318Z" fill="#E8E8E8"/>
<path d="M241.447 105.642C237.26 113.795 232.787 121.82 227.997 129.655C227.68 130.194 228.505 130.67 228.822 130.131C233.58 122.296 238.084 114.27 242.271 106.118C242.557 105.579 241.732 105.071 241.447 105.642Z" fill="#E8E8E8"/>
<path d="M259.052 81.852C253.723 91.8757 248.425 101.899 243.096 111.923C242.811 112.462 243.636 112.938 243.921 112.399C249.25 102.375 254.547 92.3515 259.877 82.3278C260.162 81.7885 259.337 81.3127 259.052 81.852Z" fill="#E8E8E8"/>
<path opacity="0.08" d="M250.805 43.8821C247.284 45.1509 224.096 53.8424 216.673 77.1254C215.817 79.8217 213.152 88.5132 215.151 98.5686C218.989 117.728 238.148 133.239 263.208 138.442C261.304 139.076 258.64 139.837 255.341 140.25C235.42 142.756 219.972 129.179 218.164 127.561C214.231 123.977 202.082 111.796 201.86 92.51C201.828 90.8288 201.923 71.7963 216.356 58.0613C224.762 50.0676 234.596 47.1493 238.719 45.9756C243.541 44.6117 247.76 44.1041 250.805 43.8821Z" fill="#6D6C6C"/>
<path d="M65.1748 141.741C67.4587 141.455 70.8845 141.423 73.3904 143.453C78.783 147.831 74.6275 157.347 77.2921 167.403C78.7195 172.795 82.4943 180.059 93.4697 187.26C97.8154 189.449 101.432 191.098 103.938 192.24C107.522 193.858 109.806 194.778 109.774 196.015C109.742 197.252 107.49 198.172 105.872 198.711C107.807 200.519 108.791 202.803 108.125 204.548C107.617 205.912 106.221 206.578 104.667 207.339C102.891 208.227 101.4 208.418 99.6869 208.64C96.4831 209.052 94.8971 209.242 93.438 208.64C91.1858 207.688 90.1707 205.594 88.6798 202.581C87.8551 200.931 86.84 198.362 86.3008 195.031C82.7163 193.382 77.5776 190.527 72.4705 185.737C70.4721 183.866 51.9472 166.102 57.7838 150.749C58.672 148.592 60.5435 145.103 65.1748 141.741Z" fill="white" stroke="#161616" stroke-width="2"/>
<path d="M93.5333 204.706C94.3263 206.451 95.5317 207.91 97.086 209.084C97.5618 209.464 98.0376 208.64 97.5618 208.259C96.1661 207.212 95.0876 205.816 94.358 204.23C94.1042 203.691 93.2795 204.167 93.5333 204.706Z" fill="#161616"/>
<path d="M97.3396 204.199C98.2912 206.038 99.7186 207.561 101.463 208.703C101.971 209.02 102.447 208.195 101.939 207.878C100.321 206.863 99.0208 205.436 98.1326 203.723C97.8788 203.184 97.0541 203.659 97.3396 204.199Z" fill="#161616"/>
<path d="M101.336 202.042C102.225 203.913 103.747 205.404 105.619 206.292C106.158 206.546 106.666 205.721 106.095 205.468C104.35 204.643 102.986 203.31 102.161 201.566C101.876 200.995 101.083 201.471 101.336 202.042Z" fill="#161616"/>
<path opacity="0.2" d="M65.9679 141.804C65.27 144.944 64.5087 149.893 65.1749 155.856C66.9195 170.955 76.6895 180.916 78.3072 182.533C86.3643 190.527 91.63 189.449 94.8338 196.586C95.6902 198.489 97.2128 202.803 101.337 205.055C102.954 205.912 104.477 206.229 105.492 206.356C104.953 206.8 104.064 207.402 102.891 207.91C100.924 208.766 99.2112 208.798 96.515 208.83C94.5165 208.862 93.5015 208.862 92.6133 208.449C90.7418 207.593 89.8536 205.816 89.5047 204.928C88.2358 201.502 86.9987 198.077 85.7299 194.651C79.5444 191.479 70.7894 185.832 63.8743 176.158C60.9877 172.129 56.1662 165.214 56.5785 156.903C56.7689 153.128 57.9742 150.495 58.2597 149.861C60.5119 145.198 64.255 142.787 65.9679 141.804Z" fill="#6D6C6C"/>
<path opacity="0.32" d="M56.9905 158.838C57.1809 158.774 58.3862 162.581 60.7653 167.022C66.5702 177.997 74.9445 184.722 80.9397 189.417C83.6677 191.542 85.9833 193.128 87.4425 194.111C89.2188 197.093 90.2339 199.663 90.8366 201.534C91.3441 203.088 91.6296 204.484 92.8033 205.943C94.0086 207.529 95.563 208.417 96.7049 208.925C95.8485 208.957 94.5479 208.893 93.1839 208.259C90.5828 207.053 89.4409 204.548 88.2355 201.883C87.5376 200.36 86.7129 198.077 86.2688 195.126C69.7106 186.752 63.4933 176.189 61.146 171.177C58.7352 166.039 56.7368 158.965 56.9905 158.838Z" fill="#6D6C6C"/>
<path d="M83.2562 112.78C81.004 113.668 82.3363 118.109 78.7201 122.137C76.9438 124.136 74.7868 125.087 73.2959 125.627C74.2475 127.054 76.119 129.37 79.196 131.209C81.3847 132.542 83.4783 133.176 84.9374 133.462C85.4132 132.605 86.2062 131.273 87.1896 129.687C90.7106 124.136 91.9794 123.533 92.1697 121.693C92.6456 117.189 86.1428 111.638 83.2562 112.78Z" fill="white" stroke="#161616" stroke-width="2"/>
<path d="M82.8434 121.344C84.1439 123.945 85.5079 126.515 87.6649 128.513C88.109 128.925 88.7752 128.259 88.3311 127.847C86.2375 125.912 84.9369 123.374 83.6681 120.868C83.3826 120.329 82.5579 120.805 82.8434 121.344Z" fill="#161616"/>
<path d="M81.892 119.631C83.3512 122.486 84.9372 125.309 87.7286 127.054C88.2044 127.339 88.6803 126.705 88.2996 126.293C87.3797 125.309 86.4281 124.326 85.5399 123.343C85.3179 123.565 85.0958 123.787 84.8738 124.009C85.413 124.58 85.984 125.119 86.6184 125.563C86.8404 125.722 87.5383 126.039 87.6652 126.229C87.8555 126.546 87.6652 127.054 87.57 127.371C87.8872 127.466 88.1727 127.53 88.4899 127.625C88.5216 127.466 88.5216 127.308 88.5534 127.181C88.6168 126.768 88.1093 126.324 87.7603 126.705C87.7603 126.356 87.6652 126.007 87.4431 125.722C87.1577 125.88 86.9039 126.039 86.6184 126.197C86.9673 126.673 87.3163 127.149 87.6652 127.625C87.919 127.434 88.1727 127.244 88.4265 127.054C88.141 126.737 87.919 126.419 87.6969 126.071C87.4114 125.658 86.6184 125.912 86.8404 126.451C87.0308 126.864 87.0942 127.022 87.3797 127.371C87.7603 127.847 88.4265 127.181 88.0458 126.705C87.9507 126.546 87.8555 126.388 87.7603 126.197C87.4749 126.324 87.1894 126.451 86.9039 126.578C87.1894 126.99 87.4749 127.371 87.7921 127.752C88.141 128.164 88.8706 127.625 88.5534 127.181C88.2044 126.705 87.8555 126.229 87.5066 125.753C87.1577 125.246 86.4281 125.69 86.6818 126.229C86.9991 126.864 87.6335 128.354 88.4899 127.403C88.2362 127.244 87.9507 127.086 87.6969 126.927C87.6652 127.086 87.6652 127.244 87.6335 127.371C87.5383 127.974 88.3948 128.228 88.5534 127.625C88.7754 126.864 89.3147 126.515 88.6802 125.753C88.3948 125.404 87.919 125.246 87.57 125.024C86.8404 124.548 86.206 123.977 85.6033 123.343C85.191 122.898 84.5248 123.565 84.9372 124.009C85.8571 124.992 86.777 125.975 87.6969 126.959C87.8872 126.705 88.0776 126.451 88.2679 126.197C85.6351 124.548 84.1759 121.82 82.7802 119.124C82.4313 118.584 81.6065 119.092 81.892 119.631Z" fill="#161616"/>
<path d="M112.439 104.374C111.805 107.197 110.504 111.384 107.522 115.698C102.288 123.279 95.183 126.483 92.1378 127.657C90.3932 126.991 88.1093 125.817 85.9523 123.818C80.0522 118.331 79.6081 110.813 79.5447 108.878C78.9103 108.719 77.9904 108.37 77.1974 107.609C75.1672 105.642 74.6914 101.741 76.5629 100.123C78.6882 98.2832 82.7485 100.535 83.1926 100.757C84.1759 101.297 84.8738 101.963 85.3179 102.47C87.0625 97.2047 91.2497 93.2396 96.2298 92.4149C103.018 91.3047 110.441 96.2531 112.439 104.374Z" fill="white" stroke="#161616" stroke-width="2"/>
<path d="M104.763 111.955C103.494 114.81 101.622 117.252 99.2115 119.251C98.7357 119.631 99.4019 120.297 99.8777 119.917C102.384 117.887 104.287 115.381 105.587 112.431C105.841 111.86 105.016 111.384 104.763 111.955Z" fill="#161616"/>
<path d="M98.0065 117.125C97.8796 118.204 98.2603 119.251 98.9899 120.044C99.4022 120.488 100.068 119.822 99.656 119.378C99.085 118.743 98.863 117.982 98.9582 117.125C99.0216 116.523 98.07 116.523 98.0065 117.125Z" fill="#161616"/>
<path d="M96.0709 111.701C96.8956 110.559 97.879 109.544 98.9892 108.624C98.7354 108.466 98.45 108.307 98.1962 108.148C97.7838 109.417 96.8956 110.432 95.722 111.067C95.9123 111.32 96.1026 111.574 96.2929 111.828C97.0225 110.94 97.7521 110.083 98.4817 109.195C98.8623 108.719 98.1962 108.053 97.8155 108.529C97.086 109.417 96.3564 110.274 95.6268 111.162C95.2779 111.574 95.722 112.177 96.1978 111.923C97.5935 111.162 98.6086 109.925 99.1161 108.434C99.2747 107.926 98.672 107.704 98.3231 107.958C97.1494 108.91 96.1343 109.988 95.2779 111.225C94.8972 111.733 95.722 112.209 96.0709 111.701Z" fill="#161616"/>
<path d="M106.603 114.493C107.015 113.795 107.554 113.192 108.157 112.653C107.903 112.494 107.618 112.336 107.364 112.177C107.078 113.129 106.507 113.985 105.683 114.588C105.905 114.778 106.159 114.937 106.381 115.127C106.571 114.62 106.856 114.144 107.205 113.731C107.586 113.256 106.92 112.589 106.539 113.065C106.095 113.636 105.746 114.207 105.492 114.873C105.334 115.254 105.873 115.666 106.19 115.413C107.205 114.651 107.935 113.668 108.284 112.463C108.442 111.987 107.84 111.701 107.491 111.987C106.825 112.558 106.254 113.256 105.778 114.017C105.429 114.524 106.254 115 106.603 114.493Z" fill="#161616"/>
<path d="M92.8042 109.354C93.28 110.464 93.5338 111.606 93.5338 112.78C93.5338 113.097 94.0096 113.097 94.0096 112.78C94.0096 111.511 93.7241 110.274 93.2166 109.1C93.0897 108.815 92.6773 109.068 92.8042 109.354Z" fill="#161616"/>
<path d="M91.4722 108.529C91.7894 109.037 92.0114 109.544 92.2018 110.083C92.2969 110.369 92.741 110.242 92.6459 109.956C92.4555 109.354 92.2018 108.815 91.8846 108.275C91.726 108.022 91.3136 108.275 91.4722 108.529Z" fill="#161616"/>
<path d="M98.7995 105.928C99.9732 105.579 101.083 106.372 101.115 107.609C101.115 108.053 101.845 108.085 101.845 107.609C101.781 105.928 100.259 104.786 98.6092 105.23C98.1651 105.357 98.3554 106.055 98.7995 105.928Z" fill="#161616"/>
<path d="M107.301 110.591C107.808 110.274 108.411 110.242 108.95 110.559C109.331 110.813 109.711 110.178 109.299 109.956C108.569 109.512 107.649 109.512 106.952 109.988C106.571 110.242 106.92 110.845 107.301 110.591Z" fill="#161616"/>
<path d="M91.8052 118.449C93.314 118.854 94.5855 119.875 95.3577 121.25C95.6589 121.796 94.829 122.267 94.5278 121.721C93.8714 120.545 92.8465 119.724 91.5456 119.366C90.9451 119.19 91.2048 118.274 91.8052 118.449Z" fill="#161616"/>
<path d="M85.2859 103.739C85.9838 102.534 87.665 99.9644 90.9005 98.188C93.121 96.9509 95.2145 96.602 96.4834 96.4751C97.1812 97.395 98.3232 98.6004 100.004 99.3617C103.969 101.17 107.173 98.7907 109.521 100.377C110.758 101.201 111.995 103.2 111.519 108.656C113.613 110.813 115.008 110.94 115.77 110.781C118.942 110.147 121.226 103.01 119.227 97.8074C118.624 96.253 117.831 95.3649 111.107 90.0041C101.622 82.4545 100.448 82.0104 99.2113 81.7249C92.6769 80.2023 86.9037 83.5013 85.9204 84.0723C84.6515 84.8019 84.366 85.1508 77.102 92.7955C71.4557 98.7273 70.9164 99.2665 70.4089 100.726C69.0766 104.405 69.3304 109.734 72.7245 113.636C75.9283 117.284 80.2423 117.823 81.3526 117.95C80.8768 116.872 80.3692 115.349 80.1155 113.477C79.7982 111.067 80.1155 109.068 80.4009 107.768C80.1789 107.609 78.9101 106.562 78.8149 104.786C78.7515 103.485 79.3542 101.836 80.7499 101.297C82.3042 100.694 84.4295 101.614 85.2859 103.739Z" fill="#5222D0"/>
<path d="M83.9223 87.7837C82.6218 85.2143 78.8153 84.8337 78.1492 84.7702C72.8518 84.231 68.6012 88.9574 66.0953 91.7171C61.6544 96.6338 62.9232 98.0929 58.6092 104.025C52.8994 111.891 48.6171 112.24 47.729 117.665C47.6655 118.077 46.8725 123.533 50.4887 126.832C53.5973 129.687 58.6092 129.719 61.9081 128.006C66.3808 125.69 66.0001 121.027 69.2356 113.192C75.5798 97.9026 86.4283 92.7321 83.9223 87.7837Z" fill="#5222D0"/>
<path opacity="0.12" d="M89.0298 99.3301C88.0147 101.868 86.8093 105.896 86.8728 110.94C86.968 118.997 90.2669 124.897 91.9164 127.435C90.1083 126.673 87.0948 125.056 84.462 121.884C83.3835 120.583 80.8458 117.506 80.1797 112.78C79.8625 110.654 80.0528 108.878 80.2432 107.673C80.0528 107.514 78.7523 106.34 78.8157 104.501C78.8474 103.295 79.4819 101.677 80.8458 101.202C82.3684 100.662 84.462 101.646 85.2868 103.771C85.604 103.137 86.0481 102.344 86.7142 101.519C87.5389 100.535 88.3637 99.8376 89.0298 99.3301Z" fill="#6D6C6C"/>
<path opacity="0.13" d="M83.4462 122.55C83.1924 123.121 82.907 123.692 82.558 124.263C80.972 126.927 78.9101 128.704 77.2924 129.782C76.7214 129.433 75.9601 128.894 75.1988 128.069C74.3741 127.181 73.8665 126.293 73.5811 125.658C74.8182 125.278 77.8951 124.104 79.9886 121.027C80.7182 119.917 81.1623 118.838 81.4161 117.95C82.0822 119.505 82.7484 121.027 83.4462 122.55Z" fill="#6D6C6C"/>
<path opacity="0.18" d="M80.6548 107.133C80.8134 109.322 81.2257 112.177 82.3042 115.381C83.7951 119.726 85.9521 122.93 87.6016 124.96C85.9521 123.628 83.9854 121.63 82.3994 118.838C81.3526 116.967 79.7983 114.27 79.9886 110.591C80.0521 109.163 80.3693 107.958 80.6548 107.133Z" fill="#6D6C6C"/>
<path opacity="0.32" d="M85.5081 84.8652C84.1758 86.1658 75.865 94.5401 77.007 106.435C77.4828 111.511 79.5129 115.349 80.972 117.601C79.957 117.538 77.9903 117.316 75.865 116.078C73.7397 114.841 72.5343 113.224 71.9951 112.399C71.5827 111.733 71.0752 110.654 70.758 109.29C70.758 109.29 70.187 106.626 71.2338 103.327C72.344 99.7105 77.3559 92.6685 85.5081 84.8652Z" fill="#32198E"/>
<path opacity="0.33" d="M68.3479 90.004C69.0774 90.4798 65.0489 98.9492 60.608 106.34C56.6112 112.97 54.6445 114.81 54.359 118.87C54.0735 123.089 55.8499 126.705 57.4359 129.147C56.6429 129.211 53.6611 129.306 51.06 127.244C49.6326 126.102 48.8713 124.77 48.5224 123.945C47.7611 121.725 47.095 118.489 48.4272 115.444C49.3154 113.382 50.3622 113.224 53.6294 109.925C56.516 107.006 59.3709 104.12 61.4645 99.8374C62.543 97.6487 62.9236 96.0627 64.7634 93.5884C65.9688 91.939 67.9355 89.7185 68.3479 90.004Z" fill="#32198E"/>
</svg>
