<svg xmlns="http://www.w3.org/2000/svg" width="54.013" height="56.856" viewBox="0 0 54.013 56.856"><defs><style>.a{fill:#fff;}</style></defs><path class="a" d="M1158.543,237.016h-.738l.3.559-1.472.749c-1.58,2.882-12.2,5.113-25.093,5.113s-23.513-2.23-25.093-5.113l-1.472-.749.3-.559h-.737V235.7l.053.02a16.371,16.371,0,0,1,16.478-14.762,13.2,13.2,0,0,1,4.136.779,19.9,19.9,0,0,0,12.686,0,13.2,13.2,0,0,1,4.128-.778,16.377,16.377,0,0,1,16.466,14.624l.065-.034v1.32C1158.543,236.914,1158.543,236.966,1158.543,237.016Zm-27.006-19.765a15.342,15.342,0,1,1,15.783-15.335A15.582,15.582,0,0,1,1131.537,217.251Z" transform="translate(-1104.531 -186.581)"/></svg>