<svg xmlns="http://www.w3.org/2000/svg" width="76" height="76" viewBox="0 0 76 76">
  <g id="Group_15122" data-name="Group 15122" transform="translate(-18526 17849)">
    <rect id="Rectangle_4499" data-name="Rectangle 4499" width="76" height="76" transform="translate(18526 -17849)" fill="none"/>
    <path id="Path_35886" data-name="Path 35886" d="M-120.547,549.953a2.5,2.5,0,0,0-3.514-.392l-24.309,19.45h-3.113l-.012-.013-2.233.013H-160.1a4.937,4.937,0,0,0-4.749,3.838c-.007.032-.021.061-.028.093a4.976,4.976,0,0,0-.073.653c-.009.111-.036.217-.037.331v20.2c0,.113.028.22.037.331a4.994,4.994,0,0,0,.073.653c.007.032.021.061.028.093a4.938,4.938,0,0,0,4.749,3.838h6.372l2.233.012.012-.012h3.113l24.309,19.45a2.5,2.5,0,0,0,3.514-.392,2.5,2.5,0,0,0,.533-1.4V551.35A2.5,2.5,0,0,0-120.547,549.953Zm-29.443,44.064h-10V574.033h10Zm25.013-21.484V606.3l-.023-.012v5.036l-20-16V572.722l20-16v5.035l.023-.011v10.787Z" transform="translate(18703.543 -18394.945)" fill="#fff"/>
  </g>
</svg>
