<svg xmlns="http://www.w3.org/2000/svg" width="62.655" height="55.539" viewBox="0 0 62.655 55.539"><defs><style>.a{fill:#000000;stroke:#000000;stroke-linejoin:round;stroke-width:2px;}</style></defs><path class="a" d="M8640.008,4666.5a1.642,1.642,0,0,1-1.08-.4l-.08-.07c-2.545-2.226-4.949-4.278-7.392-6.358-6.342-5.406-11.8-10.054-15.577-14.553-4.229-5.023-6.2-9.709-6.2-14.747a18.3,18.3,0,0,1,4.41-12.169,15.2,15.2,0,0,1,11.485-5.238h.142c6.361,0,10.388,3.8,12.646,6.99.371.526.732,1.085,1.068,1.66l.567.97.57-.969c.341-.58.7-1.139,1.071-1.661,2.258-3.188,6.285-6.99,12.644-6.99h.109a15.275,15.275,0,0,1,11.521,5.237,18.29,18.29,0,0,1,4.417,12.167c0,5.035-1.971,9.72-6.2,14.752-3.785,4.5-9.229,9.142-15.536,14.515l-.333.286c-2.267,1.934-4.609,3.932-7.1,6.112l-.075.064A1.639,1.639,0,0,1,8640.008,4666.5Zm-14.387-50.265a12.054,12.054,0,0,0-9.081,4.13,15.049,15.049,0,0,0-3.591,10.006c0,9.225,8.188,16.206,20.583,26.771,1.967,1.675,3.952,3.367,6.034,5.175l.432.376.434-.376c1.928-1.677,3.775-3.251,5.572-4.781l.379-.324-.17,0,.226-.214-.016.185c12.437-10.6,20.628-17.582,20.628-26.81a15.039,15.039,0,0,0-3.594-10,11.929,11.929,0,0,0-19.154,1.484,21.357,21.357,0,0,0-2.747,5.467,1.637,1.637,0,0,1-3.114,0,21.32,21.32,0,0,0-2.752-5.473,12.152,12.152,0,0,0-9.971-5.609Z" transform="translate(-8608.678 -4611.961)"/></svg>
