<svg id="Group_683" data-name="Group 683" xmlns="http://www.w3.org/2000/svg" xmlns:xlink="http://www.w3.org/1999/xlink" width="1022.823" height="962.414" viewBox="0 0 1022.823 962.414">
  <defs>
    <clipPath id="clip-path">
      <rect id="Rectangle_481" data-name="Rectangle 481" width="1022.823" height="962.414" fill="none"/>
    </clipPath>
  </defs>
  <g id="Group_682" data-name="Group 682" clip-path="url(#clip-path)">
    <path id="Path_2131" data-name="Path 2131" d="M920.6,81.156c67.386,83.667,46.809,239.468,35.728,384.191-10.854,144.72-11.986,278.36-79.369,369.264-67.613,90.9-201.253,138.616-322.005,125.726C434.2,947.222,326.564,873.277,220.285,782.375S9.083,583.835,12.247,479.366s114.421-205.775,220.7-289.443,207.585-149.7,336.025-176.83S853.214-2.511,920.6,81.156" transform="translate(4.32 0)" fill="#01232b"/>
    <rect id="Rectangle_474" data-name="Rectangle 474" width="812.14" height="589.072" transform="translate(105.617 197.084)" fill="#064b5b"/>
    <rect id="Rectangle_475" data-name="Rectangle 475" width="812.14" height="64.594" transform="translate(105.617 197.086)" fill="#073b4c"/>
    <path id="Path_2132" data-name="Path 2132" d="M578.119,173.519a16.059,16.059,0,1,1-16.059-16.058,16.06,16.06,0,0,1,16.059,16.058" transform="translate(193.707 55.863)" fill="#fb5d64"/>
    <path id="Path_2133" data-name="Path 2133" d="M623.677,173.519a16.059,16.059,0,1,1-16.058-16.058,16.058,16.058,0,0,1,16.058,16.058" transform="translate(209.87 55.863)" fill="#fb5d64"/>
    <path id="Path_2134" data-name="Path 2134" d="M669.233,173.519a16.058,16.058,0,1,1-16.058-16.058,16.059,16.059,0,0,1,16.058,16.058" transform="translate(226.032 55.863)" fill="#fb5d64"/>
    <path id="Path_2135" data-name="Path 2135" d="M632.828,250.39c-8.451,0-10.684,16.779-25.737,16.779h-88.75v89.206H660.279V250.39Z" transform="translate(183.894 88.832)" fill="#01232b"/>
    <path id="Path_2136" data-name="Path 2136" d="M499.165,250.39c-8.454,0-10.686,16.779-25.737,16.779H384.68v89.206H526.617V250.39Z" transform="translate(136.474 88.832)" fill="#01232b"/>
    <path id="Path_2137" data-name="Path 2137" d="M339.766,267.168h-88.75v89.208H392.953V250.389H365.5c-8.452,0-10.685,16.779-25.737,16.779" transform="translate(89.054 88.831)" fill="#01232b"/>
    <path id="Path_2138" data-name="Path 2138" d="M463.442,512.829a2.031,2.031,0,0,1-1.959-2.571l34.162-124.4a2.032,2.032,0,0,1,3.577-.692L577.38,487.8a2.033,2.033,0,0,1-1.23,3.227L463.828,512.793a2.078,2.078,0,0,1-.386.037m35.036-121.938-32.21,117.287,105.9-20.518Z" transform="translate(163.696 136.361)" fill="#999"/>
    <path id="Path_2139" data-name="Path 2139" d="M392.86,641.9a45.371,45.371,0,1,1,45.369-45.37A45.423,45.423,0,0,1,392.86,641.9m0-86.677a41.306,41.306,0,1,0,41.3,41.307,41.355,41.355,0,0,0-41.3-41.307" transform="translate(123.279 195.536)" fill="#999"/>
    <path id="Path_2140" data-name="Path 2140" d="M429.064,564.493a25.072,25.072,0,1,1,25.073-25.073,25.1,25.1,0,0,1-25.073,25.073m0-46.08a21.008,21.008,0,1,0,21.009,21.007,21.031,21.031,0,0,0-21.009-21.007" transform="translate(143.326 182.478)" fill="#999"/>
    <path id="Path_2141" data-name="Path 2141" d="M206.888,258.73a2.032,2.032,0,0,1-1.979-2.494L239.7,107.225a2.033,2.033,0,0,1,2.4-1.527l127.6,27.127a2.032,2.032,0,0,1,.8,3.613L208.109,258.324a2.027,2.027,0,0,1-1.221.406m36.32-148.643-33.07,141.631L364.485,135.87Z" transform="translate(72.677 37.483)" fill="#999"/>
    <rect id="Rectangle_476" data-name="Rectangle 476" width="231.838" height="343.832" transform="translate(790.985 501.086)" fill="#01232b"/>
    <path id="Path_2142" data-name="Path 2142" d="M760.631,466.9a72.288,72.288,0,1,1-72.288-72.285A72.287,72.287,0,0,1,760.631,466.9" transform="translate(218.56 139.999)" fill="#073b4c"/>
    <rect id="Rectangle_477" data-name="Rectangle 477" width="180.155" height="39.599" transform="translate(816.823 712.233)" fill="#999"/>
    <rect id="Rectangle_478" data-name="Rectangle 478" width="180.155" height="39.6" transform="translate(816.823 779.894)" fill="#999"/>
    <path id="Path_2143" data-name="Path 2143" d="M41.431,556.841c-.351,7.79-6.1,63.538-13.117,84.595,23.513-3.105,151.606-28.5,190.141-50.716-3.073-20.838-165.763-36.046-177.024-33.879" transform="translate(10.045 197.48)" fill="#3c3744"/>
    <path id="Path_2144" data-name="Path 2144" d="M112.607,258.13a34.817,34.817,0,1,1-34.818-34.816,34.818,34.818,0,0,1,34.818,34.816" transform="translate(15.246 79.226)" fill="#2e2e2e"/>
    <path id="Path_2145" data-name="Path 2145" d="M226.921,310.091c2.487-1.158,6.082-9,6.082-20.632,0-28.876-22-42.5-57.041-42.5-24.505,0-53.4,9.149-71.836,43.537-13.722,25.6-19.314,82.037-30.789,102.322-7.262,12.835-22.672,38.821-34.493,63.262-4.444,6.2-26.778,53.533,7.328,69.081s192.524,9.15,196.736,2.47-19.467-54.386-27.255-64.023-19.012-21.943-12.6-69.465.615-75.515,6.068-77.772,12.1-2.4,17.8-6.277" transform="translate(9.777 87.613)" fill="#2e2e2e"/>
    <path id="Path_2146" data-name="Path 2146" d="M117.463,321.969a14.777,14.777,0,1,1-14.777-14.777,14.777,14.777,0,0,1,14.777,14.777" transform="translate(31.188 108.984)" fill="#facfc5"/>
    <path id="Path_2147" data-name="Path 2147" d="M24.842,640.409a2.5,2.5,0,0,1-2.372-3.291c6.816-20.448,12.624-75.77,12.99-83.917a2.469,2.469,0,0,1,2.609-2.384,2.5,2.5,0,0,1,2.384,2.609c-.385,8.568-6.149,64-13.24,85.272a2.5,2.5,0,0,1-2.371,1.711" transform="translate(7.926 195.413)" fill="#999"/>
    <path id="Path_2148" data-name="Path 2148" d="M311.816,391.493c11.448-18.135,8.112-39.034,3.215-32.6-1.645,2.157-23.015,45.5-27.3,49.9l.038.065c-3.312.1-5.958.542-7.071,1.446-4.339,3.525-2.712,28.21-4.339,30.381s-63.473,97.107-66.185,100.091c-.272,1.085-8.138-35.533-10.536-42.022-6.176,4.977-21.556,13.794-26.182,15.3.519,4.192,3.124,55.935,0,72.753,2.62,5.206,18.5,20.969,25.246,20.969,13,0,26.812-5,30.453-7.5,15.153-10.409,73.658-144.758,77.936-147.558,8.547-5.6,22.783-24.95,24.773-37.2,0-5.464,4.446-8.962-20.052-24.031" transform="translate(61.539 126.903)" fill="#facfc5"/>
    <path id="Path_2149" data-name="Path 2149" d="M149.267,396.637c38.16-12.458,72.88,74.2,70.168,81.188S178.2,505.7,169.8,504.613s-35.354-103.135-20.529-107.975" transform="translate(51.405 140.283)" fill="#22007c"/>
    <path id="Path_2150" data-name="Path 2150" d="M166.865,503.674a6.585,6.585,0,0,1-.863-.05c-1.692-.218-6.183-.8-15.421-32.505-5.513-18.917-9.786-39.723-11.152-54.3-1.5-16.02.272-24.29,5.588-26.025,12.426-4.056,25.364.9,38.467,14.743,20.458,21.607,37.441,62.94,34.808,69.725-3.067,7.9-40.569,28.412-51.427,28.414m.022-4.984c7.877.453,44.393-19.181,46.745-25.239,1-5.274-15.784-49.035-38.526-69.077-9.968-8.786-19.568-11.751-28.537-8.828-.807.263-1.848,1.97-2.347,5.968-3.146,25.225,16.608,92.566,22.664,97.177M145.793,393.169h0Z" transform="translate(49.283 138.157)" fill="#999"/>
    <path id="Path_2151" data-name="Path 2151" d="M141.535,380.339c108.026,2.529,80.73,243.768,75.771,252.392C210.638,644.325,72.364,654.854,39.374,622.5c-7.622-7.474-.381-244.56,102.161-242.159" transform="translate(13.187 134.928)" fill="#22007c"/>
    <path id="Path_2152" data-name="Path 2152" d="M179.835,435.646a2.5,2.5,0,0,1-2.338-1.613c-13.511-35.6-34.891-54-63.548-54.669a59.607,59.607,0,0,0-12.014.906,2.5,2.5,0,1,1-.883-4.919,65.322,65.322,0,0,1,13.015-.985c30.887.723,53.8,20.2,68.106,57.894a2.5,2.5,0,0,1-2.337,3.387" transform="translate(35.12 132.809)" fill="#999"/>
    <path id="Path_2153" data-name="Path 2153" d="M134.84,641.849c-40.662,0-83.951-5.9-100.688-22.315-3.411-3.346-3.161-24.479-2.707-36.779a513.375,513.375,0,0,1,8.236-73.194C49.007,459.7,69.056,396.428,111.607,378.14a2.5,2.5,0,1,1,1.974,4.593C89.929,392.9,70.876,419.4,56.95,461.488,34.378,529.716,34.537,609.816,37.773,616.082c22.324,21.645,96.942,23.662,142.895,18.174,23.322-2.787,30.286-6.376,31-7.522,1.653-3.384,8.649-51.057,5.632-107.431a2.5,2.5,0,1,1,4.992-.267c2.9,54.127-3.512,105.355-6.293,110.192-2.18,3.791-12.25,6.945-29.93,9.375a388.321,388.321,0,0,1-51.231,3.246" transform="translate(11.064 134.082)" fill="#999"/>
    <path id="Path_2154" data-name="Path 2154" d="M194.368,273.857c.214,13.412-93.278,26.119-93.8,45.164s-.826,30.052-.826,30.052c3.354,17.76-3.892,80.545-5.942,87.111,7.841,7.291,47.187,6.741,51.452,2.356-.551-4.419-.474-34.494.656-37.892l-.01-.011a37.912,37.912,0,0,0,4.99.341c30.092,0,54.486-35.511,54.486-79.317,0-22.9-.374-28.949-11-47.8" transform="translate(33.277 97.157)" fill="#facfc5"/>
    <path id="Path_2155" data-name="Path 2155" d="M93.8,386.227c41.815,13,16.786,114.3,8.791,118.3S16.264,486.141,14.664,477.35,40.517,369.662,93.8,386.227" transform="translate(5.179 136.361)" fill="#22007c"/>
    <path id="Path_2156" data-name="Path 2156" d="M95.933,489.775c-15.642,0-61.546-13.568-78.08-21.834-5.945-2.974-8.675-5.3-9.127-7.786-.646-3.564,1.929-14.969,6.124-27.12a2.5,2.5,0,0,1,4.725,1.631c-4.755,13.775-6.228,22.954-5.93,24.6.942,2.012,12.851,8.462,40.661,16.684,25.918,7.664,41.4,9.715,43.694,8.7,3-2.281,12.984-32.12,13.343-63.864a2.5,2.5,0,0,1,2.5-2.471h.03a2.5,2.5,0,0,1,2.47,2.527c-.329,29.246-9.739,65.1-16.112,68.283a10.346,10.346,0,0,1-4.3.654" transform="translate(3.061 148.406)" fill="#999"/>
    <path id="Path_2157" data-name="Path 2157" d="M31.883,407.285a2.5,2.5,0,0,1-1.994-4c15.855-21.011,34.461-28.941,53.81-22.921a28.872,28.872,0,0,1,5.4,2.3,2.5,2.5,0,1,1-2.422,4.375,23.761,23.761,0,0,0-4.465-1.9c-17.4-5.411-33.659,1.711-48.337,21.16a2.5,2.5,0,0,1-2,.993" transform="translate(10.425 134.247)" fill="#999"/>
    <path id="Path_2158" data-name="Path 2158" d="M219,481.868A2.5,2.5,0,0,1,216.912,478c6.281-9.561,12.724-19.389,18.418-28.075q16.351-24.943,18.023-27.392a67.584,67.584,0,0,0,.6-8.53c.429-11.468.989-19.8,4.315-22.5,5.187-4.216,27.837-1.019,33.231,1.549,1.868.889,2.817,2.08,2.817,3.537,0,4.895-12.709,15.814-15.863,16.715a2.5,2.5,0,0,1-1.372-4.808c2.058-.727,9.876-8.009,11.831-11.177-5.037-2.177-24.582-4.159-27.494-1.935-1.828,1.623-2.277,13.66-2.47,18.8-.27,7.2-.415,9.761-1.446,11.136-.612.835-8.665,13.118-17.987,27.341-5.694,8.685-12.139,18.516-18.421,28.076A2.5,2.5,0,0,1,219,481.868" transform="translate(76.809 138.169)" fill="#999"/>
    <path id="Path_2159" data-name="Path 2159" d="M199.75,502.661h-.023c-2.173-.019-2.173-.019-5.832-15.869-2.28-9.878-5.4-23.4-6.709-26.938a2.5,2.5,0,0,1,4.689-1.733c1.416,3.833,4.452,16.981,6.89,27.547.711,3.079,1.435,6.212,2.023,8.688,1.7-2.506,4.368-6.481,8.523-12.747a2.5,2.5,0,1,1,4.166,2.762c-10.3,15.53-11.425,16.96-11.808,17.391a2.53,2.53,0,0,1-1.918.9" transform="translate(66.353 161.949)" fill="#999"/>
    <path id="Path_2160" data-name="Path 2160" d="M254.336,407.814a2.5,2.5,0,0,1-1.792-4.242c2.57-2.644,13.365-23.531,19.815-36.011,4.884-9.451,6.651-12.832,7.285-13.663,2.051-2.695,4.456-2.485,5.9-1.486,4.91,3.411,4.612,21.7-5.01,36.939a2.5,2.5,0,0,1-4.227-2.67c7.691-12.182,7.984-24.8,6.858-28.976-1.11,1.993-3.773,7.144-6.361,12.151-9.622,18.616-17.817,34.264-20.671,37.2a2.493,2.493,0,0,1-1.792.757" transform="translate(89.345 124.784)" fill="#999"/>
    <path id="Path_2161" data-name="Path 2161" d="M268.621,399.767a2.5,2.5,0,0,1-2.141-3.788c.07-.117,7-11.658,8.481-14.472a2.5,2.5,0,1,1,4.423,2.329c-1.546,2.937-8.331,14.237-8.619,14.717a2.5,2.5,0,0,1-2.145,1.214" transform="translate(94.414 134.875)" fill="#999"/>
    <path id="Path_2162" data-name="Path 2162" d="M272.742,408a2.5,2.5,0,0,1-2.02-3.968c2.825-3.89,8.643-15.087,10.166-18.9a2.5,2.5,0,0,1,4.643,1.855c-1.643,4.113-7.7,15.761-10.765,19.98A2.5,2.5,0,0,1,272.742,408" transform="translate(95.876 136.078)" fill="#999"/>
    <path id="Path_2163" data-name="Path 2163" d="M276.605,414.177a2.5,2.5,0,0,1-2-4c2.245-2.98,10.284-17.687,11.625-21.262a2.5,2.5,0,1,1,4.681,1.753c-1.505,4.016-9.791,19.166-12.311,22.515a2.5,2.5,0,0,1-2,1" transform="translate(97.246 137.4)" fill="#999"/>
    <path id="Path_2164" data-name="Path 2164" d="M194.85,582.926c-8.172,0-23.268-14.619-26.024-20.09a2.5,2.5,0,1,1,4.465-2.249c2.6,5.163,16.321,17.341,21.559,17.341,12.986,0,26.2-5.118,29.037-7.062,9.3-6.393,39.1-68.963,56.907-106.347,16.33-34.289,19.284-40.071,21.074-41.243a30.39,30.39,0,0,0,4.281-3.539,2.5,2.5,0,1,1,3.472,3.6,35.844,35.844,0,0,1-4.815,3.992c-1.883,2.356-10.443,20.33-19.5,39.344-26.36,55.349-48.963,101.7-58.591,108.317-4.151,2.849-18.348,7.94-31.867,7.94" transform="translate(59.8 148.663)" fill="#999"/>
    <path id="Path_2165" data-name="Path 2165" d="M281.316,416.922A2.5,2.5,0,0,1,279.2,413.1c3.952-6.328,6.519-12.22,7.228-16.589a2.5,2.5,0,0,1,4.935.8c-1.042,6.422-4.884,13.571-7.923,18.437a2.5,2.5,0,0,1-2.123,1.176" transform="translate(98.918 139.925)" fill="#999"/>
    <path id="Path_2166" data-name="Path 2166" d="M140.181,374.343c-11.148,0-21.935-4.593-31.195-13.281a2.5,2.5,0,0,1,3.422-3.646c8.314,7.8,17.92,11.929,27.773,11.929,15.486,0,30.073-10.158,40.023-27.866a2.5,2.5,0,0,1,4.358,2.449c-10.86,19.329-27.036,30.415-44.381,30.415" transform="translate(38.385 120.696)" fill="#999"/>
    <path id="Path_2167" data-name="Path 2167" d="M172.834,345.543a2.5,2.5,0,0,1-2.44-3.052,110.125,110.125,0,0,0,2.666-24.3c0-17.021-3.707-33.154-10.722-46.653a2.5,2.5,0,0,1,4.437-2.306c7.382,14.21,11.285,31.139,11.285,48.959A115.106,115.106,0,0,1,175.27,343.6a2.5,2.5,0,0,1-2.436,1.947" transform="translate(57.494 95.038)" fill="#999"/>
    <path id="Path_2168" data-name="Path 2168" d="M99.181,335.709a17.245,17.245,0,1,1,6.714-33.134,2.5,2.5,0,0,1-1.948,4.6,12.248,12.248,0,1,0,2.177,21.374,2.5,2.5,0,0,1,2.84,4.114,17.141,17.141,0,0,1-9.783,3.041" transform="translate(29.069 106.865)" fill="#999"/>
    <path id="Path_2169" data-name="Path 2169" d="M135.7,303.153c0,3.136-1.382,5.678-3.09,5.678s-3.088-2.542-3.088-5.678,1.383-5.679,3.088-5.679,3.09,2.543,3.09,5.679" transform="translate(45.951 105.536)" fill="#1b3c87"/>
    <path id="Path_2170" data-name="Path 2170" d="M157.4,327.261a2.5,2.5,0,0,1-1.89-.862,17.066,17.066,0,0,1-2.23-3.337,2.5,2.5,0,0,1,4.438-2.3,12.152,12.152,0,0,0,1.569,2.36,2.5,2.5,0,0,1-1.887,4.137" transform="translate(54.28 113.32)" fill="#999"/>
    <path id="Path_2171" data-name="Path 2171" d="M154.427,323.9a2.5,2.5,0,0,1-2.417-1.87,41.851,41.851,0,0,1-1.195-13.294,2.5,2.5,0,0,1,4.968.553,36.881,36.881,0,0,0,1.065,11.482,2.5,2.5,0,0,1-1.79,3.048,2.47,2.47,0,0,1-.631.081" transform="translate(53.462 108.743)" fill="#999"/>
    <path id="Path_2172" data-name="Path 2172" d="M133.1,343.852a2.485,2.485,0,0,1-.768-.122c-6.522-2.105-12.052-7.766-12.864-13.166a2.5,2.5,0,1,1,4.945-.742c.462,3.082,4.208,7.458,9.454,9.15a2.5,2.5,0,0,1-.767,4.88" transform="translate(42.374 116.257)" fill="#999"/>
    <path id="Path_2173" data-name="Path 2173" d="M128.384,404.359a2.5,2.5,0,0,1-2.478-2.191c-.549-4.415-.569-34.973.765-38.989a2.5,2.5,0,0,1,4.744,1.578c-.871,2.841-1.134,32.084-.549,36.794a2.5,2.5,0,0,1-2.172,2.788,2.414,2.414,0,0,1-.312.019" transform="translate(44.543 128.239)" fill="#999"/>
    <path id="Path_2174" data-name="Path 2174" d="M110.378,404.9c-.064,0-.127,0-.192-.007-7.568-.576-17.452-2.063-21.564-5.886a2.5,2.5,0,0,1-.684-2.575c.641-2.052,2.142-11.925,3.663-26.178a2.5,2.5,0,1,1,4.971.528c-1.034,9.687-2.417,20.542-3.428,25.372,3.02,1.765,9.324,3.139,17.421,3.754a2.5,2.5,0,0,1-.187,4.992" transform="translate(31.158 130.564)" fill="#999"/>
    <path id="Path_2175" data-name="Path 2175" d="M94.75,363.534c-.058,0-.112,0-.169-.005a2.5,2.5,0,0,1-2.327-2.661c1.112-16.689,1.112-28.62,0-34.5a2.5,2.5,0,0,1,4.912-.928c1.5,7.951.867,23.837.075,35.763a2.5,2.5,0,0,1-2.491,2.334" transform="translate(32.714 114.734)" fill="#999"/>
    <path id="Path_2176" data-name="Path 2176" d="M48.535,280.133a2.5,2.5,0,0,1-1.851-.818,37.325,37.325,0,0,1,16.378-60.671,2.5,2.5,0,0,1,1.505,4.767,32.325,32.325,0,0,0-14.183,52.541,2.5,2.5,0,0,1-1.849,4.181" transform="translate(13.126 77.527)" fill="#999"/>
    <path id="Path_2177" data-name="Path 2177" d="M67.365,286.4a37.482,37.482,0,0,1-8.878-1.063,2.5,2.5,0,0,1,1.184-4.857,32.346,32.346,0,0,0,40.011-31.4,32.1,32.1,0,0,0-2.537-12.579,2.5,2.5,0,1,1,4.6-1.948A37.337,37.337,0,0,1,67.365,286.4" transform="translate(20.073 82.674)" fill="#999"/>
    <path id="Path_2178" data-name="Path 2178" d="M177.052,308.056A2.5,2.5,0,0,1,176,303.29c1.306-.767,4.64-7.375,4.64-18.367,0-18.067-8.943-30.21-26.577-36.09a2.5,2.5,0,1,1,1.581-4.743c19.623,6.544,29.995,20.664,29.995,40.833,0,11.055-3.237,20.9-7.528,22.9a2.478,2.478,0,0,1-1.054.234" transform="translate(54.049 86.551)" fill="#999"/>
    <path id="Path_2179" data-name="Path 2179" d="M65.2,362.4a2.562,2.562,0,0,1-.6-.073A2.5,2.5,0,0,1,62.77,359.3c1.391-5.622,2.729-11.46,4.144-17.641,4.762-20.8,9.687-42.312,16.947-55.855,18.826-35.114,48.051-43.712,69.253-44.741a2.5,2.5,0,1,1,.241,4.994c-19.911.966-47.368,9.057-65.089,42.11-6.942,12.95-11.791,34.127-16.481,54.608-1.42,6.2-2.761,12.062-4.163,17.726a2.5,2.5,0,0,1-2.425,1.9" transform="translate(22.243 85.523)" fill="#999"/>
    <path id="Path_2180" data-name="Path 2180" d="M32.411,412.871a2.5,2.5,0,0,1-2.249-3.589c8.194-16.937,18.067-34.555,25.756-48.012a2.5,2.5,0,0,1,4.341,2.479c-7.648,13.388-17.468,30.909-25.594,47.71a2.5,2.5,0,0,1-2.253,1.412" transform="translate(10.612 127.723)" fill="#999"/>
    <path id="Path_2181" data-name="Path 2181" d="M155.665,398.589a2.5,2.5,0,0,1-2.233-1.374c-1.279-2.532-2.268-6.95-2.941-13.13a2.5,2.5,0,1,1,4.969-.542c.8,7.321,1.868,10.3,2.435,11.418a2.5,2.5,0,0,1-2.23,3.628" transform="translate(53.385 135.28)" fill="#999"/>
    <path id="Path_2182" data-name="Path 2182" d="M152.4,383.859a2.5,2.5,0,0,1-2.5-2.417c-.322-9.833-.011-22.018,1.207-26.28a2.5,2.5,0,0,1,4.807,1.374c-.788,2.76-1.4,13-1.017,24.742a2.5,2.5,0,0,1-2.417,2.579H152.4" transform="translate(53.138 125.359)" fill="#999"/>
    <path id="Path_2183" data-name="Path 2183" d="M95.319,320.354a2.5,2.5,0,0,1-2.5-2.5c0-13.033,21.866-19.35,47.184-26.666,23.557-6.806,50.257-14.521,50.257-27.32a2.5,2.5,0,0,1,5,0c0,16.559-27.385,24.471-53.868,32.123-21.422,6.189-43.572,12.59-43.572,21.863a2.5,2.5,0,0,1-2.5,2.5" transform="translate(32.93 92.727)" fill="#999"/>
    <path id="Path_2184" data-name="Path 2184" d="M202.7,569.805c9.394,1.58,14.749-13.877,20.461-13.06,4.173.6,24.123,3.158,25.006,4.548s-2.376,15.763-2.376,15.763" transform="translate(71.911 197.508)" fill="#01232b"/>
    <rect id="Rectangle_479" data-name="Rectangle 479" width="89.387" height="143.958" transform="matrix(0.166, -0.986, 0.986, 0.166, 160.903, 838.821)" fill="#01232b"/>
    <path id="Path_2185" data-name="Path 2185" d="M241.638,646.192a2.512,2.512,0,0,1-.415-.034L158.9,632.305a2.5,2.5,0,0,1,.829-4.93l79.856,13.437,6.251-37.152a2.5,2.5,0,1,1,4.929.829L244.1,644.107a2.5,2.5,0,0,1-2.464,2.085" transform="translate(55.635 213.423)" fill="#999"/>
    <path id="Path_2186" data-name="Path 2186" d="M228.973,587.332a2.6,2.6,0,0,1-.419-.035,2.5,2.5,0,0,1-2.05-2.879l2.79-16.58a2.5,2.5,0,0,1,4.93.829l-2.789,16.578a2.5,2.5,0,0,1-2.462,2.086" transform="translate(80.345 200.714)" fill="#999"/>
    <path id="Path_2187" data-name="Path 2187" d="M128.238,643.447a2.6,2.6,0,0,1-.419-.035l-12.941-2.178a2.5,2.5,0,0,1-2.051-2.879l14.832-88.148a2.5,2.5,0,0,1,2.88-2.051L251.43,568.5a2.5,2.5,0,1,1-.83,4.929L132.175,553.5l-14,83.218,10.478,1.764a2.5,2.5,0,0,1-.412,4.965" transform="translate(40.016 194.459)" fill="#999"/>
    <path id="Path_2188" data-name="Path 2188" d="M242.313,576.083a2.525,2.525,0,0,1-.554-.064,2.5,2.5,0,0,1-1.884-2.99,124.408,124.408,0,0,0,2.451-13.552c-2.582-.734-9.565-1.886-20.819-3.429l-2.18-.3c-1.165-.13-3.609,2.605-5.4,4.628-3.768,4.251-8.455,9.557-15.121,8.421a2.5,2.5,0,0,1,.829-4.93c3.942.665,7.3-3.135,10.548-6.806,3.1-3.5,6.044-6.823,9.852-6.26l2.15.3c23.214,3.184,23.74,4.01,24.611,5.381.539.847,1.444,2.266-2.047,17.658a2.5,2.5,0,0,1-2.436,1.948" transform="translate(69.791 195.387)" fill="#999"/>
    <rect id="Rectangle_480" data-name="Rectangle 480" width="38.17" height="20.919" transform="translate(269.009 814.984) rotate(-80.446)" fill="#fb5d64"/>
    <path id="Path_2189" data-name="Path 2189" d="M216.325,584.389a2.582,2.582,0,0,1-.419-.035l-81.044-13.637a2.5,2.5,0,1,1,.829-4.929l81.045,13.636a2.5,2.5,0,0,1-.412,4.965" transform="translate(47.106 200.714)" fill="#999"/>
    <path id="Path_2190" data-name="Path 2190" d="M195.992,594.038a2.6,2.6,0,0,1-.419-.035l-12.052-2.028a2.5,2.5,0,0,1,.83-4.93l12.052,2.028a2.5,2.5,0,0,1-.412,4.965" transform="translate(64.369 208.255)" fill="#999"/>
    <path id="Path_2191" data-name="Path 2191" d="M179.586,591.277a2.6,2.6,0,0,1-.419-.035L132.6,583.4a2.5,2.5,0,1,1,.831-4.929L180,586.312a2.5,2.5,0,0,1-.412,4.965" transform="translate(46.302 205.216)" fill="#999"/>
    <path id="Path_2192" data-name="Path 2192" d="M268.2,610.154c-2.122-16.33-7-33.512-41.573-32.028-4.666-3.816-95.438-29.546-150.171-43.693,6.363-13.151,13.788-53.239,14.172-56.842-4.022-.753-64.039-19.208-64.039-19.208S1.508,563.18,6.96,571.956c33.552,21.374,159.441,36.773,216.276,32.784,3.986,3.121,3.445,5.093,9.093,5.893s35.874-.48,35.874-.48" transform="translate(2.194 162.622)" fill="#facfc5"/>
    <path id="Path_2193" data-name="Path 2193" d="M223.008,582.892a2.5,2.5,0,0,1-2.475-2.177c-2.146-16.521-6.739-31.24-38.988-29.852a2.533,2.533,0,0,1-1.691-.564c-1.9-1.325-18.749-7.006-60.243-18.892a2.5,2.5,0,1,1,1.375-4.805c35.509,10.17,56.016,16.631,61.068,19.238,34.083-1.24,41.032,15.717,43.435,34.232a2.5,2.5,0,0,1-2.157,2.8,2.663,2.663,0,0,1-.325.02" transform="translate(41.792 186.79)" fill="#999"/>
    <path id="Path_2194" data-name="Path 2194" d="M119.7,546a2.522,2.522,0,0,1-.673-.092c-23.145-6.462-46.253-12.7-65.071-17.563a2.5,2.5,0,0,1-1.624-3.509c6.274-12.964,13.61-52.954,13.939-56.019a2.5,2.5,0,0,1,4.971.535c-.329,3.066-6.888,39.137-13.2,54.887,18.307,4.757,40.3,10.7,62.326,16.852A2.5,2.5,0,0,1,119.7,546" transform="translate(18.477 165.532)" fill="#999"/>
    <path id="Path_2195" data-name="Path 2195" d="M175.714,575.24a2.5,2.5,0,0,1-2.486-2.781,46.211,46.211,0,0,0-1.577-16.062,2.5,2.5,0,0,1,4.743-1.58,51.467,51.467,0,0,1,1.8,18.205,2.5,2.5,0,0,1-2.481,2.218" transform="translate(60.852 196.228)" fill="#999"/>
    <path id="Path_2196" data-name="Path 2196" d="M183.419,575.239a2.5,2.5,0,0,1-2.486-2.781,46.2,46.2,0,0,0-1.577-16.062,2.5,2.5,0,1,1,4.742-1.582,51.472,51.472,0,0,1,1.8,18.208,2.5,2.5,0,0,1-2.481,2.218" transform="translate(63.585 196.227)" fill="#999"/>
    <path id="Path_2197" data-name="Path 2197" d="M189.62,575.24a2.5,2.5,0,0,1-2.486-2.781,46.159,46.159,0,0,0-1.577-16.061,2.5,2.5,0,0,1,4.743-1.582,51.465,51.465,0,0,1,1.8,18.207,2.5,2.5,0,0,1-2.481,2.218" transform="translate(65.785 196.228)" fill="#999"/>
    <path id="Path_2198" data-name="Path 2198" d="M206.63,581.322c-44.3,0-161.44-6.217-204.41-33.458-2.22-1.409-3.732-4.585.271-29.293a2.5,2.5,0,0,1,4.935.8c-3.062,18.892-2.474,23.469-2.165,24.5,45.527,28.423,183.87,34.029,214.42,32.172a2.5,2.5,0,1,1,.3,4.99c-2.972.182-7.537.289-13.355.289" transform="translate(0 183.23)" fill="#999"/>
    <path id="Path_2199" data-name="Path 2199" d="M10.231,502.528a2.534,2.534,0,0,1-.52-.056,2.5,2.5,0,0,1-1.928-2.964C12.6,476.8,17.467,456.278,18.044,454.23a2.5,2.5,0,1,1,4.811,1.355c-.431,1.53-5.269,21.778-10.181,44.961a2.5,2.5,0,0,1-2.443,1.982" transform="translate(2.742 160.502)" fill="#999"/>
  </g>
</svg>
