<svg xmlns="http://www.w3.org/2000/svg" width="65.079" height="59.654" viewBox="0 0 65.079 59.654">
  <g id="checkmark" transform="translate(0 -0.008)">
    <path id="Path_35620" data-name="Path 35620" d="M29.827,59.661A29.827,29.827,0,1,1,45.917,4.723a2.035,2.035,0,0,1-2.2,3.425A25.755,25.755,0,1,0,55.586,29.835c0-.849-.041-1.69-.119-2.516a2.034,2.034,0,0,1,4.048-.393q.138,1.436.138,2.909A29.861,29.861,0,0,1,29.827,59.661Zm0,0" fill="#707070"/>
    <path id="Path_35621" data-name="Path 35621" d="M163.574,55.241a2.019,2.019,0,0,1-1.437-.6l-12.2-12.2a2.034,2.034,0,0,1,2.877-2.877l10.765,10.765,28.387-28.387a2.034,2.034,0,0,1,2.877,2.877L165.014,54.647a2.037,2.037,0,0,1-1.44.594Zm0,0" transform="translate(-130.358 -18.627)" fill="#36cb4f"/>
  </g>
</svg>
