<svg xmlns="http://www.w3.org/2000/svg" width="140" height="140" viewBox="0 0 140 140">
  <g id="Group_14876" data-name="Group 14876" transform="translate(-678 -2386)">
    <g id="Group_14898" data-name="Group 14898">
      <g id="Group_14875" data-name="Group 14875" transform="translate(226 -1)">
        <g id="Ellipse_1265" data-name="Ellipse 1265" transform="translate(452 2387)" fill="#6c6c6f" stroke="#707070" stroke-width="1">
          <circle cx="70" cy="70" r="70" stroke="none"/>
          <circle cx="70" cy="70" r="69.5" fill="none"/>
        </g>
      </g>
      <g id="dislike" transform="translate(719.188 2426.367)">
        <path id="Path_35839" data-name="Path 35839" d="M62.512,18.973a8.745,8.745,0,0,0,.521-2.479,7.892,7.892,0,0,0-2.814-6.433,7.575,7.575,0,0,0-.843-4.747c-1.326-2.38-3.917-3.991-7.709-4.8A35.9,35.9,0,0,0,41.751.171a124.792,124.792,0,0,0-16.522.9l-2.913.347A5.145,5.145,0,0,0,19.342.48H11.781A5.16,5.16,0,0,0,6.625,5.636V25.777a5.16,5.16,0,0,0,5.156,5.156h7.561a5.115,5.115,0,0,0,2.454-.62,13.315,13.315,0,0,0,2.429,3.644,1.326,1.326,0,0,0,.2.174c3.892,2.987,8.478,13.745,10.1,18.133-.161,1.363-.322,4.313,1.041,5.912a3.094,3.094,0,0,0,2.392,1.091,7.893,7.893,0,0,0,6.309-3.061c1.946-2.7,2.057-6.743.322-12.023-1.463-4.437-1.6-6.408-1.549-7.2.669.149,1.326.285,1.958.4h.012a38.9,38.9,0,0,0,6.1.781c4.636.223,7.994-.583,9.953-2.38a6.607,6.607,0,0,0,1.574-7.623,7.559,7.559,0,0,0,1.611-4.264A7.529,7.529,0,0,0,62.512,18.973ZM19.342,27.6H11.781a1.812,1.812,0,0,1-1.81-1.81V5.649a1.812,1.812,0,0,1,1.81-1.81h7.561a1.812,1.812,0,0,1,1.81,1.81V25.79A1.8,1.8,0,0,1,19.342,27.6Zm39.873,1.2a4.966,4.966,0,0,1,.583,1.624,3.029,3.029,0,0,1-1,2.9c-2.367,2.157-9.184,1.661-12.989.818-.05-.012-.1-.025-.161-.037-.682-.124-1.413-.273-2.157-.434a2.7,2.7,0,0,0-2.7.483c-1.648,1.463-1.463,4.784.607,11.093,1.363,4.14,1.413,7.263.149,9.011a4.431,4.431,0,0,1-3.5,1.673,7.551,7.551,0,0,1-.161-3.594,1.9,1.9,0,0,0-.074-.83c-.235-.632-5.677-15.53-11.242-19.943a10.514,10.514,0,0,1-2.305-4.251,5.243,5.243,0,0,0,.235-1.537V5.649a5.251,5.251,0,0,0-.112-1.091l1.252-.149h.012a122.15,122.15,0,0,1,16.113-.88h.174a32.629,32.629,0,0,1,9.036.273c2.776.595,4.611,1.636,5.454,3.111a4.326,4.326,0,0,1,.359,3.247,1.635,1.635,0,0,0,.57,1.9c3.669,2.752,1.983,5.962,1.76,6.358a1.633,1.633,0,0,0,.223,2.02,4.671,4.671,0,0,1,1.549,3.322A4.605,4.605,0,0,1,59.5,26.67,1.633,1.633,0,0,0,59.215,28.8Z" transform="translate(-6.625 0)" fill="#fff"/>
      </g>
    </g>
  </g>
</svg>
