<svg xmlns="http://www.w3.org/2000/svg" width="49.944" height="49.944" viewBox="0 0 49.944 49.944"><defs><style>.a{fill:#fff;}</style></defs><g transform="translate(23.038 11.587)"><path class="a" d="M247,136.575l-6.964-5.223V120.713a1.934,1.934,0,1,0-3.869,0v11.606a1.93,1.93,0,0,0,.774,1.548l7.737,5.8a1.934,1.934,0,0,0,2.321-3.1Z" transform="translate(-236.169 -118.779)"/></g><path class="a" d="M24.972,0A24.972,24.972,0,1,0,49.944,24.972,25,25,0,0,0,24.972,0Zm0,46.076a21.1,21.1,0,1,1,21.1-21.1A21.129,21.129,0,0,1,24.972,46.076Z"/></svg>