<svg xmlns="http://www.w3.org/2000/svg" width="86" height="86" viewBox="0 0 86 86">
  <g id="Group_13708" data-name="Group 13708" transform="translate(-677 -2500)">
    <rect id="Rectangle_3984" data-name="Rectangle 3984" width="86" height="86" rx="20" transform="translate(677 2500)" fill="#9b9b9f" opacity="0.7"/>
    <path id="ribbon" d="M37.645,0H7.064a.906.906,0,0,0-.906.906v41.74a.906.906,0,0,0,1.534.652L22.355,29.179,37.017,43.3a.906.906,0,0,0,1.534-.652V.906A.906.906,0,0,0,37.645,0Zm-.906,40.515L22.982,27.269a.9.9,0,0,0-1.256,0L7.97,40.515V1.812H36.739Z" transform="translate(697.645 2521.225)" fill="#fff" stroke="#fff" stroke-width="1"/>
  </g>
</svg>
