<svg id="plus_1_" data-name="plus (1)" xmlns="http://www.w3.org/2000/svg" width="69.067" height="69.067" viewBox="0 0 69.067 69.067">
  <path id="Path_2929" data-name="Path 2929" d="M56.117,69.067H12.95A12.949,12.949,0,0,1,0,56.117V12.95A12.949,12.949,0,0,1,12.95,0H56.117a12.949,12.949,0,0,1,12.95,12.95V56.117A12.949,12.949,0,0,1,56.117,69.067Z" fill="#fff" opacity="0.2"/>
  <g id="Group_2852" data-name="Group 2852" transform="translate(18.706 18.706)">
    <path id="Path_2930" data-name="Path 2930" d="M38.163,14.667H10.825a2.159,2.159,0,0,0-2.158,2.158v1.44a2.159,2.159,0,0,0,2.158,2.158h27.34a2.159,2.159,0,0,0,2.158-2.158v-1.44A2.16,2.16,0,0,0,38.163,14.667Z" transform="translate(-8.667 -1.717)" fill="#fff"/>
    <path id="Path_2931" data-name="Path 2931" d="M14.667,10.825v27.34a2.159,2.159,0,0,0,2.158,2.158h1.44a2.159,2.159,0,0,0,2.158-2.158V10.825a2.159,2.159,0,0,0-2.158-2.158h-1.44A2.156,2.156,0,0,0,14.667,10.825Z" transform="translate(-1.717 -8.667)" fill="#fff"/>
  </g>
</svg>
