<svg xmlns="http://www.w3.org/2000/svg" width="39.76" height="39.76" viewBox="0 0 39.76 39.76"><defs><style>.a{fill:#fa0815;}</style></defs><g transform="translate(0 0)"><path class="a" d="M33.937,5.823A19.88,19.88,0,0,0,5.823,33.937a19.888,19.888,0,0,0,24.344,2.958,1.553,1.553,0,0,0-1.609-2.657,16.922,16.922,0,1,1,5.252-5.048,1.553,1.553,0,0,0,2.582,1.726A19.831,19.831,0,0,0,33.937,5.823Z" transform="translate(0 0)"/><path class="a" d="M172.268,145.75a3.5,3.5,0,0,0-5.254,3.036v10.17a3.491,3.491,0,0,0,5.254,3.036l8.763-5.085a3.512,3.512,0,0,0,0-6.072Z" transform="translate(-154.045 -133.991)"/></g></svg>