<svg width="18" height="18" viewBox="0 0 18 18" fill="none" xmlns="http://www.w3.org/2000/svg">
<path d="M9 0.5C4.3165 0.5 0.5 4.3165 0.5 9C0.5 13.6835 4.3165 17.5 9 17.5C13.6835 17.5 17.5 13.6835 17.5 9C17.5 4.3165 13.6835 0.5 9 0.5ZM12.4 9.6375H9.6375V12.4C9.6375 12.7485 9.3485 13.0375 9 13.0375C8.6515 13.0375 8.3625 12.7485 8.3625 12.4V9.6375H5.6C5.2515 9.6375 4.9625 9.3485 4.9625 9C4.9625 8.6515 5.2515 8.3625 5.6 8.3625H8.3625V5.6C8.3625 5.2515 8.6515 4.9625 9 4.9625C9.3485 4.9625 9.6375 5.2515 9.6375 5.6V8.3625H12.4C12.7485 8.3625 13.0375 8.6515 13.0375 9C13.0375 9.3485 12.7485 9.6375 12.4 9.6375Z" fill="white"/>
</svg>
