<svg xmlns="http://www.w3.org/2000/svg" width="201.385" height="201.385" viewBox="0 0 201.385 201.385">
  <g id="Group_13505" data-name="Group 13505" transform="translate(-11965 13502.668)">
    <g id="Group_3148" data-name="Group 3148" transform="translate(11965 -13502.668)">
      <path id="Path_2796" data-name="Path 2796" d="M-2140.207-800.231a6.289,6.289,0,0,1-3.052-.79,6.3,6.3,0,0,1-3.242-5.5v-62.933a6.3,6.3,0,0,1,3.242-5.5,6.276,6.276,0,0,1,3.051-.793,6.286,6.286,0,0,1,3.336.959l50.346,31.466a6.265,6.265,0,0,1,2.958,5.338,6.265,6.265,0,0,1-2.958,5.338l-50.346,31.467A6.3,6.3,0,0,1-2140.207-800.231Z" transform="translate(2222.019 938.683)" fill="#fff"/>
      <path id="play-button" d="M100.692,0A100.692,100.692,0,1,0,201.385,100.692,100.693,100.693,0,0,0,100.692,0Zm34.8,106.03L85.148,137.5a6.294,6.294,0,0,1-9.629-5.337V69.226a6.294,6.294,0,0,1,9.629-5.337l50.346,31.466a6.295,6.295,0,0,1,0,10.675Z" opacity="0.5"/>
    </g>
  </g>
</svg>
