<svg xmlns="http://www.w3.org/2000/svg" width="52.667" height="52.683" viewBox="0 0 52.667 52.683">
  <path id="Subtraction_23" data-name="Subtraction 23" d="M10.843,52.683a2.581,2.581,0,0,1-2.581-2.614V43.7A24.9,24.9,0,0,1,0,25.319v-.043A25.863,25.863,0,0,1,25.836,0c.167,0,.329,0,.5,0s.327,0,.489,0A25.863,25.863,0,0,1,52.665,25.276v.07a25.863,25.863,0,0,1-25.84,25.276c-.153,0-.314,0-.507,0H26.28a27.03,27.03,0,0,1-8.958-1.523l-5.117,3.2A2.564,2.564,0,0,1,10.843,52.683Zm11.4-21.755h4.736l-.887,4.55a1.724,1.724,0,0,0-.037.408A1.48,1.48,0,0,0,26.514,37a1.62,1.62,0,0,0,1.165.444,1.459,1.459,0,0,0,.98-.333,1.505,1.505,0,0,0,.5-.851L30.2,30.929h3.33a1.582,1.582,0,0,0,1.11-.408,1.348,1.348,0,0,0,.445-1.036,1.518,1.518,0,0,0-1.554-1.553H30.787l1.48-7.734h2a1.587,1.587,0,0,0,1.111-.407,1.348,1.348,0,0,0,.444-1.036A1.518,1.518,0,0,0,34.265,17.2H32.859l.851-4.366a1.775,1.775,0,0,0,.037-.407,1.512,1.512,0,0,0-.445-1.11,1.556,1.556,0,0,0-1.147-.445,1.537,1.537,0,0,0-1,.333,1.306,1.306,0,0,0-.481.851l-1,5.143h-4.7l.851-4.329a1.775,1.775,0,0,0,.037-.407,1.522,1.522,0,0,0-1.591-1.591,1.463,1.463,0,0,0-.98.333,1.51,1.51,0,0,0-.5.851l-1,5.143H18.281a1.586,1.586,0,0,0-1.11.408,1.348,1.348,0,0,0-.444,1.036A1.516,1.516,0,0,0,18.281,20.2H21.2l-1.48,7.734H17.541a1.585,1.585,0,0,0-1.11.407,1.348,1.348,0,0,0-.445,1.036,1.519,1.519,0,0,0,1.554,1.554h1.591l-.888,4.55a1.791,1.791,0,0,0-.037.408A1.515,1.515,0,0,0,18.651,37a1.559,1.559,0,0,0,1.147.444,1.428,1.428,0,0,0,.925-.333,1.307,1.307,0,0,0,.481-.851l1.036-5.327Zm5.328-3h-4.7L24.386,20.2h4.7l-1.517,7.733Z" transform="translate(0.001 0)" fill="#84838b"/>
</svg>
