<svg width="20" height="20" viewBox="0 0 20 20" fill="none" xmlns="http://www.w3.org/2000/svg">
<path d="M2.47754 10C2.47754 6.73279 2.47754 5.09918 3.3515 4.00443C3.5375 3.77143 3.74897 3.55996 3.98197 3.37396C5.07672 2.5 6.68739 2.5 9.90873 2.5V2.5C13.1301 2.5 14.7407 2.5 15.8355 3.37396C16.0685 3.55996 16.28 3.77143 16.466 4.00443C17.3399 5.09918 17.3399 6.73279 17.3399 10V10C17.3399 13.2672 17.3399 14.9008 16.466 15.9956C16.28 16.2286 16.0685 16.44 15.8355 16.626C14.7407 17.5 13.1301 17.5 9.90873 17.5V17.5C6.68739 17.5 5.07672 17.5 3.98197 16.626C3.74897 16.44 3.5375 16.2286 3.3515 15.9956C2.47754 14.9008 2.47754 13.2672 2.47754 10V10Z" stroke="white" stroke-width="1.5"/>
<path d="M8.94898 7.60321L8.61573 8.27511L8.61573 8.27511L8.94898 7.60321ZM11.836 9.0351L12.1692 8.3632L11.836 9.0351ZM11.836 10.9649L12.1692 11.6368H12.1692L11.836 10.9649ZM8.94898 12.3968L8.61573 11.7249H8.61573L8.94898 12.3968ZM8.61573 8.27511L11.5027 9.707L12.1692 8.3632L9.28222 6.93131L8.61573 8.27511ZM11.5027 10.293L8.61573 11.7249L9.28222 13.0687L12.1692 11.6368L11.5027 10.293ZM6.68164 8.7611V11.2389H8.18164V8.7611H6.68164ZM8.61573 11.7249C8.53735 11.7638 8.46165 11.7598 8.37593 11.6944C8.28152 11.6223 8.18164 11.4691 8.18164 11.2389H6.68164C6.68164 11.9131 6.98128 12.517 7.46597 12.8868C7.95935 13.2633 8.64231 13.3861 9.28222 13.0687L8.61573 11.7249ZM11.5027 9.707C11.5541 9.73246 11.6358 9.81976 11.6358 10C11.6358 10.1802 11.5541 10.2675 11.5027 10.293L12.1692 11.6368C12.8509 11.2987 13.1358 10.6029 13.1358 10C13.1358 9.39713 12.8509 8.70131 12.1692 8.3632L11.5027 9.707ZM9.28222 6.93131C8.64231 6.61393 7.95935 6.73668 7.46596 7.11318C6.98128 7.48305 6.68164 8.08688 6.68164 8.7611H8.18164C8.18164 8.53093 8.28152 8.37769 8.37593 8.30564C8.46165 8.24024 8.53735 8.23624 8.61573 8.27511L9.28222 6.93131Z" fill="white"/>
</svg>
