<svg xmlns="http://www.w3.org/2000/svg" width="77.782" height="77.781" viewBox="0 0 77.782 77.781">
  <g id="Group_13225" data-name="Group 13225" transform="translate(-514.066 -1052.176) rotate(45)">
    <circle id="Ellipse_167" data-name="Ellipse 167" cx="27.5" cy="27.5" r="27.5" transform="translate(1135 353)" fill="#e9e9e9"/>
    <path id="Union_21" data-name="Union 21" d="M12.938,26.594a3,3,0,0,1-3-3V16.476H3a3,3,0,0,1-3-3v-.539a3,3,0,0,1,3-3H9.938V3a3,3,0,0,1,3-3h.539a3,3,0,0,1,3,3V9.938h7.117a3,3,0,0,1,3,3v.539a3,3,0,0,1-3,3H16.476v7.117a3,3,0,0,1-3,3Z" transform="translate(1143.564 379.939) rotate(-45)" fill="#fa0815"/>
  </g>
</svg>
