<svg xmlns="http://www.w3.org/2000/svg" width="22.724" height="21.996" viewBox="0 0 22.724 21.996">
  <g id="chevron-up" transform="translate(0 -4.566)">
    <g id="Group_13557" data-name="Group 13557" transform="translate(0 4.566)">
      <path id="Path_35618" data-name="Path 35618" d="M1.366,17.59a.716.716,0,0,0,1.047,0l8.949-8.949,8.949,8.949a.716.716,0,0,0,1.047,0L22.5,16.452a.717.717,0,0,0,0-1.047L11.886,4.794a.716.716,0,0,0-1.047,0L.228,15.4a.716.716,0,0,0,0,1.047Z" transform="translate(0 -4.566)" fill="#fff"/>
      <path id="Path_35619" data-name="Path 35619" d="M11.886,114.427a.716.716,0,0,0-1.047,0L.228,125.038a.716.716,0,0,0,0,1.047l1.138,1.139a.717.717,0,0,0,1.047,0l8.949-8.949,8.949,8.949a.717.717,0,0,0,1.047,0l1.138-1.139a.718.718,0,0,0,0-1.047Z" transform="translate(0 -105.455)" fill="#fff"/>
    </g>
  </g>
</svg>
