<svg width="26" height="26" viewBox="0 0 26 26" fill="none" xmlns="http://www.w3.org/2000/svg">
<path d="M21.6667 13V18.75C21.6667 20.6356 21.6667 21.5784 21.0809 22.1642C20.4951 22.75 19.5523 22.75 17.6667 22.75H7.04171C5.54594 22.75 4.33337 21.5374 4.33337 20.0417V20.0417C4.33337 18.5459 5.54594 17.3333 7.04171 17.3333H17.6667C19.5523 17.3333 20.4951 17.3333 21.0809 16.7475C21.6667 16.1618 21.6667 15.219 21.6667 13.3333V7.25C21.6667 5.36438 21.6667 4.42157 21.0809 3.83579C20.4951 3.25 19.5523 3.25 17.6667 3.25H8.33337C6.44776 3.25 5.50495 3.25 4.91916 3.83579C4.33337 4.42157 4.33337 5.36438 4.33337 7.25V20.0417" stroke="#23204A" stroke-width="1.5"/>
<path d="M9.75 10.8332L11.2096 12.2927C11.6001 12.6833 12.2332 12.6833 12.6238 12.2927L16.25 8.6665" stroke="#23204A" stroke-width="1.5" stroke-linecap="round"/>
</svg>
