<svg xmlns="http://www.w3.org/2000/svg" width="49.033" height="59.949" viewBox="0 0 49.033 59.949">
  <g id="Group_2552" data-name="Group 2552" transform="translate(6650.493 -14814.014)">
    <g id="Group_1411" data-name="Group 1411" transform="translate(-6674 14796)">
      <path id="Shape_6" data-name="Shape 6" d="M712.139,270.863c-2.073,0-5.119-1.539-10.1-4.157-2.677-1.407-6.723-3.531-7.8-3.531-1.121,0-5.363,2.067-8.171,3.434-7.558,3.682-10.835,5.051-12.831,3.791A2.686,2.686,0,0,1,672,268.072V225.758a8.783,8.783,0,0,1,8.7-8.843h25.63a8.783,8.783,0,0,1,8.7,8.843v42.313a2.69,2.69,0,0,1-1.264,2.364,3.033,3.033,0,0,1-1.627.428Z" transform="translate(-645.492 -195.901)" stroke="#403e45" stroke-width="6"/>
    </g>
  </g>
</svg>
