<svg xmlns="http://www.w3.org/2000/svg" width="76" height="76" viewBox="0 0 76 76">
  <g id="Group_15123" data-name="Group 15123" transform="translate(-18633 17849)">
    <rect id="Rectangle_4500" data-name="Rectangle 4500" width="76" height="76" transform="translate(18633 -17849)" fill="none"/>
    <g id="Group_15121" data-name="Group 15121" transform="translate(18877.641 -18392.463)">
      <g id="Group_13934" data-name="Group 13934">
        <g id="Group_15117" data-name="Group 15117">
          <path id="Path_35630-2" data-name="Path 35630-2" d="M-172.717,612.236l-14.991-14.991-.005-.005-24.994-24.994h0l-5-5h0l-20-20a2.5,2.5,0,0,0-3.534-.1,2.5,2.5,0,0,0-.1,3.534c.034.036.068.071.1.1l15.726,15.731h-1.464a4.944,4.944,0,0,0-5,4.888v20.112a4.944,4.944,0,0,0,4.887,5h11.73l24.309,19.45a2.5,2.5,0,0,0,3.514-.391,2.5,2.5,0,0,0,.547-1.57v-8.963l10.73,10.727a2.5,2.5,0,0,0,3.534.109,2.5,2.5,0,0,0,.109-3.533C-172.647,612.3-172.681,612.27-172.717,612.236Zm-44.259-20.73h-10v-20h6.463l3.534,3.534Zm24.99,17.3-20-16V580.044l20,20Z" fill="#fff"/>
        </g>
      </g>
      <g id="Group_13933" data-name="Group 13933">
        <g id="Group_13698" data-name="Group 13698">
          <g id="Group_15118" data-name="Group 15118">
            <path id="Path_35629-2" data-name="Path 35629-2" d="M-188.434,546.711a2.49,2.49,0,0,0-2.644.3l-19.945,15.946a2.5,2.5,0,0,0-.393,3.516,2.5,2.5,0,0,0,3.517.393h0l15.881-12.7v30.694a2.5,2.5,0,0,0,2.5,2.5,2.5,2.5,0,0,0,2.5-2.5V548.963A2.508,2.508,0,0,0-188.434,546.711Z" fill="#fff"/>
          </g>
        </g>
      </g>
    </g>
  </g>
</svg>
