<svg width="24" height="24" viewBox="0 0 24 24" fill="none" xmlns="http://www.w3.org/2000/svg">
<path fill-rule="evenodd" clip-rule="evenodd" d="M6.5 16H16C17.8856 16 18.8284 16 19.4142 15.4142C20 14.8284 20 13.8856 20 12V7C20 5.11438 20 4.17157 19.4142 3.58579C18.8284 3 17.8856 3 16 3H8C6.11438 3 5.17157 3 4.58579 3.58579C4 4.17157 4 5.11438 4 7V18.5C4 17.1193 5.11929 16 6.5 16ZM9 7.25C8.58579 7.25 8.25 7.58579 8.25 8C8.25 8.41421 8.58579 8.75 9 8.75L15 8.75C15.4142 8.75 15.75 8.41421 15.75 8C15.75 7.58579 15.4142 7.25 15 7.25L9 7.25Z" fill="#F73458"/>
<path d="M19.4142 15.4142L18.7071 14.7071L18.7071 14.7071L19.4142 15.4142ZM19.4142 3.58579L18.7071 4.29289L18.7071 4.29289L19.4142 3.58579ZM9 7.25V6.25V7.25ZM9 8.75V7.75V8.75ZM15 8.75V9.75V8.75ZM15 7.25V8.25V7.25ZM16 15H6.5V17H16V15ZM18.7071 14.7071C18.631 14.7832 18.495 14.8774 18.0613 14.9357C17.5988 14.9979 16.9711 15 16 15V17C16.9145 17 17.701 17.0021 18.3278 16.9179C18.9833 16.8297 19.6117 16.631 20.1213 16.1213L18.7071 14.7071ZM19 12C19 12.9711 18.9979 13.5988 18.9357 14.0613C18.8774 14.495 18.7832 14.631 18.7071 14.7071L20.1213 16.1213C20.631 15.6117 20.8297 14.9833 20.9179 14.3278C21.0021 13.701 21 12.9145 21 12H19ZM19 7V12H21V7H19ZM18.7071 4.29289C18.7832 4.36902 18.8774 4.50496 18.9357 4.9387C18.9979 5.40121 19 6.02892 19 7H21C21 6.08546 21.0021 5.29896 20.9179 4.67221C20.8297 4.01669 20.631 3.38834 20.1213 2.87868L18.7071 4.29289ZM16 4C16.9711 4 17.5988 4.00212 18.0613 4.06431C18.495 4.12262 18.631 4.21677 18.7071 4.29289L20.1213 2.87868C19.6117 2.36902 18.9833 2.17027 18.3278 2.08214C17.701 1.99788 16.9145 2 16 2V4ZM8 4H16V2H8V4ZM5.29289 4.29289C5.36902 4.21677 5.50496 4.12262 5.9387 4.06431C6.40121 4.00212 7.02892 4 8 4V2C7.08546 2 6.29896 1.99788 5.67221 2.08214C5.01669 2.17027 4.38834 2.36902 3.87868 2.87868L5.29289 4.29289ZM5 7C5 6.02892 5.00212 5.40121 5.06431 4.9387C5.12262 4.50496 5.21677 4.36902 5.29289 4.29289L3.87868 2.87868C3.36902 3.38834 3.17027 4.01669 3.08214 4.67221C2.99788 5.29896 3 6.08546 3 7H5ZM5 18.5V7H3V18.5H5ZM6.5 15C4.567 15 3 16.567 3 18.5H5C5 17.6716 5.67157 17 6.5 17V15ZM9.25 8C9.25 8.13807 9.13807 8.25 9 8.25V6.25C8.0335 6.25 7.25 7.0335 7.25 8H9.25ZM9 7.75C9.13807 7.75 9.25 7.86193 9.25 8H7.25C7.25 8.9665 8.0335 9.75 9 9.75V7.75ZM15 7.75L9 7.75V9.75L15 9.75V7.75ZM14.75 8C14.75 7.86193 14.8619 7.75 15 7.75V9.75C15.9665 9.75 16.75 8.9665 16.75 8H14.75ZM15 8.25C14.8619 8.25 14.75 8.13807 14.75 8H16.75C16.75 7.0335 15.9665 6.25 15 6.25V8.25ZM9 8.25L15 8.25V6.25L9 6.25V8.25ZM11 20H6.5V22H11V20ZM3 18.5C3 20.433 4.567 22 6.5 22V20C5.67157 20 5 19.3284 5 18.5H3Z" fill="#F73458"/>
<path d="M20 21H10" stroke="#F73458" stroke-width="2" stroke-linecap="round"/>
</svg>
