<svg width="24" height="24" viewBox="0 0 24 24" fill="none" xmlns="http://www.w3.org/2000/svg">
<path fill-rule="evenodd" clip-rule="evenodd" d="M18.2537 5.43652C17.8524 5.50791 17.2942 5.69188 16.4421 5.97592L9.95112 8.13958C9.12639 8.41449 8.53543 8.61172 8.10825 8.7784C7.65558 8.95501 7.50121 9.05677 7.45811 9.09819C6.94626 9.59006 6.94626 10.4089 7.45811 10.9008C7.50121 10.9422 7.65558 11.044 8.10825 11.2206C8.53543 11.3873 9.12639 11.5845 9.95112 11.8594C9.96772 11.8649 9.98412 11.8704 10.0003 11.8758C10.2816 11.9694 10.5023 12.0429 10.7042 12.1497C11.1923 12.4078 11.5914 12.8069 11.8495 13.295C11.9563 13.4969 12.0297 13.7176 12.1234 13.9989C12.1288 14.015 12.1342 14.0314 12.1397 14.048C12.4147 14.8728 12.6119 15.4637 12.7786 15.8909C12.9552 16.3436 13.0569 16.4979 13.0984 16.5411C13.5902 17.0529 14.4091 17.0529 14.901 16.5411C14.9424 16.4979 15.0441 16.3436 15.2208 15.8909C15.3874 15.4637 15.5847 14.8728 15.8596 14.048L18.0232 7.55706C18.3073 6.70495 18.4912 6.14681 18.5626 5.74548C18.5964 5.55561 18.5943 5.45708 18.5878 5.41136C18.5421 5.40486 18.4436 5.40274 18.2537 5.43652ZM18.6217 5.4209C18.6211 5.4214 18.6164 5.42014 18.6095 5.41562C18.6189 5.41814 18.6223 5.4204 18.6217 5.4209ZM18.5835 5.38964C18.579 5.38275 18.5778 5.37808 18.5783 5.37747C18.5788 5.37686 18.581 5.38031 18.5835 5.38964ZM17.991 3.95971C18.5214 3.86535 19.1663 3.85353 19.656 4.3432C20.1456 4.83287 20.1338 5.47781 20.0395 6.0082C19.9464 6.53125 19.725 7.19521 19.4654 7.97413L19.4463 8.0314L17.2826 14.5224L17.2754 14.5441C17.0092 15.3425 16.8002 15.9695 16.6182 16.4361C16.4444 16.8815 16.2537 17.2982 15.9825 17.5804C14.9004 18.7065 13.0989 18.7065 12.0168 17.5804C11.7456 17.2982 11.5549 16.8815 11.3812 16.4361C11.1991 15.9695 10.9901 15.3425 10.724 14.5441L10.7167 14.5224C10.599 14.1692 10.5649 14.0746 10.5235 13.9963C10.4062 13.7744 10.2248 13.593 10.0029 13.4756C9.92456 13.4342 9.82995 13.4002 9.47678 13.2824L9.45503 13.2752C8.65666 13.0091 8.02967 12.8001 7.56302 12.618C7.11763 12.4442 6.70097 12.2536 6.41877 11.9824C5.2927 10.9003 5.2927 9.09873 6.41877 8.01663C6.70097 7.74544 7.11763 7.55477 7.56302 7.38099C8.02968 7.19892 8.65669 6.98992 9.45509 6.72379L9.47678 6.71656L15.9678 4.55289L16.025 4.5338C16.804 4.27411 17.4679 4.05275 17.991 3.95971Z" fill="#000000"/>
<path d="M11 13L14 10" stroke="#000000" stroke-width="1.5" stroke-linecap="round"/>
</svg>
