<svg width="25" height="25" viewBox="0 0 25 25" fill="none" xmlns="http://www.w3.org/2000/svg">
<g filter="url(#filter0_b_5348_150066)">
<path d="M12.5 0.375C19.1139 0.375 24.5 5.7585 24.5 12.3819C24.5 18.9915 19.1139 24.375 12.5 24.375C5.8861 24.375 0.5 18.9915 0.5 12.3819C0.5 5.7585 5.8861 0.375 12.5 0.375ZM11.1332 7.61089C10.8784 7.61089 10.6351 7.66878 10.4035 7.78455C10.1139 7.94664 9.88224 8.20134 9.75483 8.50235C9.67375 8.71075 9.54633 9.33593 9.54633 9.3475C9.41892 10.0306 9.34942 11.142 9.34942 12.3692C9.34942 13.5397 9.41892 14.6037 9.52317 15.2983C9.53475 15.3099 9.66216 16.0856 9.80116 16.3518C10.056 16.8381 10.5541 17.1391 11.0869 17.1391H11.1332C11.4807 17.1275 12.2104 16.8265 12.2104 16.8149C13.4382 16.3055 15.8591 14.7194 16.832 13.6659L16.9015 13.5964C17.029 13.4691 17.1911 13.2723 17.2259 13.2259C17.4112 12.9828 17.5039 12.6818 17.5039 12.3819C17.5039 12.045 17.3996 11.7325 17.2027 11.4778C17.1564 11.4314 16.9826 11.2346 16.8205 11.0725C15.8707 10.0537 13.3919 8.38658 12.0946 7.87717C11.8977 7.79729 11.3996 7.62247 11.1332 7.61089Z" fill="#FFFEFE"/>
</g>
<defs>
<filter id="filter0_b_5348_150066" x="-63.5" y="-63.625" width="152" height="152" filterUnits="userSpaceOnUse" color-interpolation-filters="sRGB">
<feFlood flood-opacity="0" result="BackgroundImageFix"/>
<feGaussianBlur in="BackgroundImageFix" stdDeviation="32"/>
<feComposite in2="SourceAlpha" operator="in" result="effect1_backgroundBlur_5348_150066"/>
<feBlend mode="normal" in="SourceGraphic" in2="effect1_backgroundBlur_5348_150066" result="shape"/>
</filter>
</defs>
</svg>
