<svg xmlns="http://www.w3.org/2000/svg" width="62.102" height="63.51" viewBox="0 0 62.102 63.51">
  <g id="Group_4110" data-name="Group 4110" transform="translate(-6122.982 -12370.854)">
    <path id="Path_3123" data-name="Path 3123" d="M124.948,259.682a1.441,1.441,0,0,0-1.442-1.44h-5.03a1.441,1.441,0,0,0-1.441,1.44v5.03a1.441,1.441,0,0,0,1.441,1.441h5.03a1.441,1.441,0,0,0,1.442-1.441v-5.03Z" transform="translate(6020.47 12146.211)" fill="#84838b"/>
    <path id="Path_3124" data-name="Path 3124" d="M221.582,259.682a1.44,1.44,0,0,0-1.44-1.44h-5.031a1.441,1.441,0,0,0-1.441,1.44v5.03a1.441,1.441,0,0,0,1.441,1.441h5.031a1.441,1.441,0,0,0,1.44-1.441Z" transform="translate(5936.407 12146.211)" fill="#84838b"/>
    <path id="Path_3125" data-name="Path 3125" d="M318.211,259.682a1.441,1.441,0,0,0-1.441-1.44h-5.03a1.441,1.441,0,0,0-1.442,1.44v5.03a1.441,1.441,0,0,0,1.442,1.441h5.03a1.441,1.441,0,0,0,1.441-1.441Z" transform="translate(5852.351 12146.211)" fill="#84838b"/>
    <path id="Path_3126" data-name="Path 3126" d="M124.948,356.316a1.44,1.44,0,0,0-1.442-1.441h-5.03a1.44,1.44,0,0,0-1.441,1.441v5.029a1.441,1.441,0,0,0,1.441,1.441h5.03a1.441,1.441,0,0,0,1.442-1.441v-5.029Z" transform="translate(6020.47 12062.15)" fill="#84838b"/>
    <path id="Path_3127" data-name="Path 3127" d="M221.582,356.316a1.44,1.44,0,0,0-1.44-1.441h-5.031a1.44,1.44,0,0,0-1.441,1.441v5.029a1.441,1.441,0,0,0,1.441,1.441h5.031a1.441,1.441,0,0,0,1.44-1.441Z" transform="translate(5936.407 12062.15)" fill="#84838b"/>
    <path id="Path_3128" data-name="Path 3128" d="M318.211,356.316a1.44,1.44,0,0,0-1.44-1.441H311.74a1.44,1.44,0,0,0-1.442,1.441v5.029a1.441,1.441,0,0,0,1.442,1.441h5.031a1.441,1.441,0,0,0,1.44-1.441v-5.029Z" transform="translate(5852.351 12062.15)" fill="#84838b"/>
    <path id="Path_3129" data-name="Path 3129" d="M61.985,54.17v7.683A6.275,6.275,0,0,1,55.7,68.123H51.729A6.307,6.307,0,0,1,45.4,61.852v-7.71H27.521v7.71A6.307,6.307,0,0,1,21.2,68.123H17.227a6.275,6.275,0,0,1-6.289-6.271V54.17a5.719,5.719,0,0,0-5.528,5.689v45.024a5.721,5.721,0,0,0,5.693,5.726H61.821a5.728,5.728,0,0,0,5.693-5.726V59.858A5.719,5.719,0,0,0,61.985,54.17Zm-1.843,47.908a2.461,2.461,0,0,1-2.461,2.461H15.134a2.461,2.461,0,0,1-2.461-2.461V78.822a2.461,2.461,0,0,1,2.461-2.462H57.682a2.461,2.461,0,0,1,2.461,2.462v23.256Z" transform="translate(6117.571 12323.756)" fill="#84838b"/>
    <path id="Path_3130" data-name="Path 3130" d="M81.707,16.906h3.924a2.156,2.156,0,0,0,2.157-2.155V2.156A2.156,2.156,0,0,0,85.631,0H81.707A2.156,2.156,0,0,0,79.55,2.156V14.751A2.156,2.156,0,0,0,81.707,16.906Z" transform="translate(6053.078 12370.854)" fill="#84838b"/>
    <path id="Path_3131" data-name="Path 3131" d="M346.615,16.906h3.924a2.156,2.156,0,0,0,2.156-2.155V2.156A2.156,2.156,0,0,0,350.539,0h-3.924a2.156,2.156,0,0,0-2.157,2.156V14.751A2.156,2.156,0,0,0,346.615,16.906Z" transform="translate(5822.635 12370.854)" fill="#84838b"/>
  </g>
</svg>
