<svg width="25" height="25" viewBox="0 0 25 25" fill="none" xmlns="http://www.w3.org/2000/svg">
<path d="M12.7976 21.3898C12.0076 21.3898 11.1376 21.1098 10.2676 20.5598L7.34756 18.7298C7.14756 18.6098 6.91756 18.5398 6.68756 18.5398H5.24756C2.82756 18.5398 1.49756 17.2098 1.49756 14.7898V10.7898C1.49756 8.36979 2.82756 7.03979 5.24756 7.03979H6.67756C6.90756 7.03979 7.13756 6.96979 7.33756 6.84979L10.2576 5.01979C11.7176 4.10979 13.1376 3.93979 14.2576 4.55979C15.3776 5.17979 15.9876 6.46979 15.9876 8.19979V17.3698C15.9876 19.0898 15.3676 20.3898 14.2576 21.0098C13.8176 21.2698 13.3176 21.3898 12.7976 21.3898ZM5.24756 8.54979C3.66756 8.54979 2.99756 9.21979 2.99756 10.7998V14.7998C2.99756 16.3798 3.66756 17.0498 5.24756 17.0498H6.67756C7.19756 17.0498 7.69756 17.1898 8.13756 17.4698L11.0576 19.2998C12.0176 19.8998 12.9276 20.0598 13.5376 19.7198C14.1476 19.3798 14.4976 18.5298 14.4976 17.3998V8.20979C14.4976 7.06979 14.1476 6.21979 13.5376 5.88979C12.9276 5.54979 12.0176 5.69979 11.0576 6.30979L8.12756 8.12979C7.69756 8.40979 7.18756 8.54979 6.67756 8.54979H5.24756Z" fill="white"/>
<path d="M18.2476 17.5498C18.0876 17.5498 17.9376 17.4998 17.7976 17.3998C17.4676 17.1498 17.3976 16.6798 17.6476 16.3498C19.2176 14.2598 19.2176 11.3398 17.6476 9.24983C17.3976 8.91983 17.4676 8.44983 17.7976 8.19983C18.1276 7.94983 18.5976 8.01983 18.8476 8.34983C20.8076 10.9698 20.8076 14.6298 18.8476 17.2498C18.6976 17.4498 18.4776 17.5498 18.2476 17.5498Z" fill="white"/>
<path d="M20.0777 20.0498C19.9177 20.0498 19.7677 19.9998 19.6277 19.8998C19.2977 19.6498 19.2277 19.1798 19.4777 18.8498C22.1477 15.2898 22.1477 10.3098 19.4777 6.74983C19.2277 6.41983 19.2977 5.94983 19.6277 5.69983C19.9577 5.44983 20.4277 5.51983 20.6777 5.84983C23.7477 9.93983 23.7477 15.6598 20.6777 19.7498C20.5377 19.9498 20.3077 20.0498 20.0777 20.0498Z" fill="white"/>
</svg>
