<svg xmlns="http://www.w3.org/2000/svg" width="59.238" height="52.933" viewBox="0 0 59.238 52.933"><defs><style>.a{fill:#84838b;}</style></defs><g transform="translate(0 -23.224)"><g transform="translate(0 23.224)"><g transform="translate(0 0)"><path class="a" d="M46.206,23.224H28.018A4.345,4.345,0,0,0,24.947,24.5L1.272,48.167a4.346,4.346,0,0,0,0,6.145L19.46,72.5a4.343,4.343,0,0,0,6.142,0l23.675-23.67a4.355,4.355,0,0,0,1.273-3.076V27.568A4.343,4.343,0,0,0,46.206,23.224Zm-7.6,15.2a3.258,3.258,0,1,1,3.258-3.258A3.259,3.259,0,0,1,38.6,38.428Z" transform="translate(0 -23.224)"/></g></g><g transform="translate(29.727 27.568)"><g transform="translate(0 0)"><path class="a" d="M244.155,55.224l0,20.219a3.773,3.773,0,0,1-1.108,2.672l-24.057,24.057.369.369a4.343,4.343,0,0,0,6.142,0l21.724-21.72A4.338,4.338,0,0,0,248.5,77.75V59.568A4.343,4.343,0,0,0,244.155,55.224Z" transform="translate(-218.988 -55.224)"/></g></g></g></svg>