<svg xmlns="http://www.w3.org/2000/svg" width="140" height="140" viewBox="0 0 140 140">
  <g id="Group_3674" data-name="Group 3674" transform="translate(-60 -587)">
    <circle id="pexels-thisisengineering-3913025" cx="70" cy="70" r="70" transform="translate(60 587)" fill="#fbfbfb"/>
    <g id="plus_1_" data-name="plus (1)" transform="translate(95 622)">
      <circle id="pexels-thisisengineering-3913025-2" data-name="pexels-thisisengineering-3913025" cx="42" cy="42" r="42" transform="translate(-7 -7)" opacity="0.1"/>
    </g>
    <g id="Group_3354" data-name="Group 3354" transform="translate(113.707 640.707)">
      <path id="Path_2930" data-name="Path 2930" d="M38.163,14.667H10.825a2.159,2.159,0,0,0-2.158,2.158v1.44a2.159,2.159,0,0,0,2.158,2.158h27.34a2.159,2.159,0,0,0,2.158-2.158v-1.44A2.16,2.16,0,0,0,38.163,14.667Z" transform="translate(-8.667 -1.717)" fill="#84838b"/>
      <path id="Path_2931" data-name="Path 2931" d="M14.667,10.825v27.34a2.159,2.159,0,0,0,2.158,2.158h1.44a2.159,2.159,0,0,0,2.158-2.158V10.825a2.159,2.159,0,0,0-2.158-2.158h-1.44A2.156,2.156,0,0,0,14.667,10.825Z" transform="translate(-1.717 -8.667)" fill="#84838b"/>
    </g>
  </g>
</svg>
